<?xml version="1.0" encoding="utf-8" standalone="no"?>
<!DOCTYPE svg PUBLIC "-//W3C//DTD SVG 1.1//EN"
  "http://www.w3.org/Graphics/SVG/1.1/DTD/svg11.dtd">
<svg xmlns:xlink="http://www.w3.org/1999/xlink" width="720pt" height="432pt" viewBox="0 0 720 432" xmlns="http://www.w3.org/2000/svg" version="1.1">
 <metadata>
  <rdf:RDF xmlns:dc="http://purl.org/dc/elements/1.1/" xmlns:cc="http://creativecommons.org/ns#" xmlns:rdf="http://www.w3.org/1999/02/22-rdf-syntax-ns#">
   <cc:Work>
    <dc:type rdf:resource="http://purl.org/dc/dcmitype/StillImage"/>
    <dc:date>2025-06-10T09:06:12.062741</dc:date>
    <dc:format>image/svg+xml</dc:format>
    <dc:creator>
     <cc:Agent>
      <dc:title>Matplotlib v3.10.0, https://matplotlib.org/</dc:title>
     </cc:Agent>
    </dc:creator>
   </cc:Work>
  </rdf:RDF>
 </metadata>
 <defs>
  <style type="text/css">*{stroke-linejoin: round; stroke-linecap: butt}</style>
 </defs>
 <g id="figure_1">
  <g id="patch_1">
   <path d="M 0 432 
L 720 432 
L 720 0 
L 0 0 
z
" style="fill: #ffffff"/>
  </g>
  <g id="axes_1">
   <g id="patch_2">
    <path d="M 63.72 381.78 
L 707.04 381.78 
L 707.04 29.04 
L 63.72 29.04 
z
" style="fill: #eaeaf2"/>
   </g>
   <g id="matplotlib.axis_1">
    <g id="xtick_1">
     <g id="line2d_1">
      <path d="M 92.961818 381.78 
L 92.961818 29.04 
" clip-path="url(#p403c64ccfe)" style="fill: none; stroke: #ffffff; stroke-linecap: round"/>
     </g>
     <g id="text_1">
      <!-- 0 -->
      <g style="fill: #262626" transform="translate(89.462443 399.638281) scale(0.11 -0.11)">
       <defs>
        <path id="DejaVuSans-30" d="M 2034 4250 
Q 1547 4250 1301 3770 
Q 1056 3291 1056 2328 
Q 1056 1369 1301 889 
Q 1547 409 2034 409 
Q 2525 409 2770 889 
Q 3016 1369 3016 2328 
Q 3016 3291 2770 3770 
Q 2525 4250 2034 4250 
z
M 2034 4750 
Q 2819 4750 3233 4129 
Q 3647 3509 3647 2328 
Q 3647 1150 3233 529 
Q 2819 -91 2034 -91 
Q 1250 -91 836 529 
Q 422 1150 422 2328 
Q 422 3509 836 4129 
Q 1250 4750 2034 4750 
z
" transform="scale(0.015625)"/>
       </defs>
       <use xlink:href="#DejaVuSans-30"/>
      </g>
     </g>
    </g>
    <g id="xtick_2">
     <g id="line2d_2">
      <path d="M 176.990031 381.78 
L 176.990031 29.04 
" clip-path="url(#p403c64ccfe)" style="fill: none; stroke: #ffffff; stroke-linecap: round"/>
     </g>
     <g id="text_2">
      <!-- 100 -->
      <g style="fill: #262626" transform="translate(166.491906 399.638281) scale(0.11 -0.11)">
       <defs>
        <path id="DejaVuSans-31" d="M 794 531 
L 1825 531 
L 1825 4091 
L 703 3866 
L 703 4441 
L 1819 4666 
L 2450 4666 
L 2450 531 
L 3481 531 
L 3481 0 
L 794 0 
L 794 531 
z
" transform="scale(0.015625)"/>
       </defs>
       <use xlink:href="#DejaVuSans-31"/>
       <use xlink:href="#DejaVuSans-30" transform="translate(63.623047 0)"/>
       <use xlink:href="#DejaVuSans-30" transform="translate(127.246094 0)"/>
      </g>
     </g>
    </g>
    <g id="xtick_3">
     <g id="line2d_3">
      <path d="M 261.018245 381.78 
L 261.018245 29.04 
" clip-path="url(#p403c64ccfe)" style="fill: none; stroke: #ffffff; stroke-linecap: round"/>
     </g>
     <g id="text_3">
      <!-- 200 -->
      <g style="fill: #262626" transform="translate(250.52012 399.638281) scale(0.11 -0.11)">
       <defs>
        <path id="DejaVuSans-32" d="M 1228 531 
L 3431 531 
L 3431 0 
L 469 0 
L 469 531 
Q 828 903 1448 1529 
Q 2069 2156 2228 2338 
Q 2531 2678 2651 2914 
Q 2772 3150 2772 3378 
Q 2772 3750 2511 3984 
Q 2250 4219 1831 4219 
Q 1534 4219 1204 4116 
Q 875 4013 500 3803 
L 500 4441 
Q 881 4594 1212 4672 
Q 1544 4750 1819 4750 
Q 2544 4750 2975 4387 
Q 3406 4025 3406 3419 
Q 3406 3131 3298 2873 
Q 3191 2616 2906 2266 
Q 2828 2175 2409 1742 
Q 1991 1309 1228 531 
z
" transform="scale(0.015625)"/>
       </defs>
       <use xlink:href="#DejaVuSans-32"/>
       <use xlink:href="#DejaVuSans-30" transform="translate(63.623047 0)"/>
       <use xlink:href="#DejaVuSans-30" transform="translate(127.246094 0)"/>
      </g>
     </g>
    </g>
    <g id="xtick_4">
     <g id="line2d_4">
      <path d="M 345.046458 381.78 
L 345.046458 29.04 
" clip-path="url(#p403c64ccfe)" style="fill: none; stroke: #ffffff; stroke-linecap: round"/>
     </g>
     <g id="text_4">
      <!-- 300 -->
      <g style="fill: #262626" transform="translate(334.548333 399.638281) scale(0.11 -0.11)">
       <defs>
        <path id="DejaVuSans-33" d="M 2597 2516 
Q 3050 2419 3304 2112 
Q 3559 1806 3559 1356 
Q 3559 666 3084 287 
Q 2609 -91 1734 -91 
Q 1441 -91 1130 -33 
Q 819 25 488 141 
L 488 750 
Q 750 597 1062 519 
Q 1375 441 1716 441 
Q 2309 441 2620 675 
Q 2931 909 2931 1356 
Q 2931 1769 2642 2001 
Q 2353 2234 1838 2234 
L 1294 2234 
L 1294 2753 
L 1863 2753 
Q 2328 2753 2575 2939 
Q 2822 3125 2822 3475 
Q 2822 3834 2567 4026 
Q 2313 4219 1838 4219 
Q 1578 4219 1281 4162 
Q 984 4106 628 3988 
L 628 4550 
Q 988 4650 1302 4700 
Q 1616 4750 1894 4750 
Q 2613 4750 3031 4423 
Q 3450 4097 3450 3541 
Q 3450 3153 3228 2886 
Q 3006 2619 2597 2516 
z
" transform="scale(0.015625)"/>
       </defs>
       <use xlink:href="#DejaVuSans-33"/>
       <use xlink:href="#DejaVuSans-30" transform="translate(63.623047 0)"/>
       <use xlink:href="#DejaVuSans-30" transform="translate(127.246094 0)"/>
      </g>
     </g>
    </g>
    <g id="xtick_5">
     <g id="line2d_5">
      <path d="M 429.074671 381.78 
L 429.074671 29.04 
" clip-path="url(#p403c64ccfe)" style="fill: none; stroke: #ffffff; stroke-linecap: round"/>
     </g>
     <g id="text_5">
      <!-- 400 -->
      <g style="fill: #262626" transform="translate(418.576546 399.638281) scale(0.11 -0.11)">
       <defs>
        <path id="DejaVuSans-34" d="M 2419 4116 
L 825 1625 
L 2419 1625 
L 2419 4116 
z
M 2253 4666 
L 3047 4666 
L 3047 1625 
L 3713 1625 
L 3713 1100 
L 3047 1100 
L 3047 0 
L 2419 0 
L 2419 1100 
L 313 1100 
L 313 1709 
L 2253 4666 
z
" transform="scale(0.015625)"/>
       </defs>
       <use xlink:href="#DejaVuSans-34"/>
       <use xlink:href="#DejaVuSans-30" transform="translate(63.623047 0)"/>
       <use xlink:href="#DejaVuSans-30" transform="translate(127.246094 0)"/>
      </g>
     </g>
    </g>
    <g id="xtick_6">
     <g id="line2d_6">
      <path d="M 513.102884 381.78 
L 513.102884 29.04 
" clip-path="url(#p403c64ccfe)" style="fill: none; stroke: #ffffff; stroke-linecap: round"/>
     </g>
     <g id="text_6">
      <!-- 500 -->
      <g style="fill: #262626" transform="translate(502.604759 399.638281) scale(0.11 -0.11)">
       <defs>
        <path id="DejaVuSans-35" d="M 691 4666 
L 3169 4666 
L 3169 4134 
L 1269 4134 
L 1269 2991 
Q 1406 3038 1543 3061 
Q 1681 3084 1819 3084 
Q 2600 3084 3056 2656 
Q 3513 2228 3513 1497 
Q 3513 744 3044 326 
Q 2575 -91 1722 -91 
Q 1428 -91 1123 -41 
Q 819 9 494 109 
L 494 744 
Q 775 591 1075 516 
Q 1375 441 1709 441 
Q 2250 441 2565 725 
Q 2881 1009 2881 1497 
Q 2881 1984 2565 2268 
Q 2250 2553 1709 2553 
Q 1456 2553 1204 2497 
Q 953 2441 691 2322 
L 691 4666 
z
" transform="scale(0.015625)"/>
       </defs>
       <use xlink:href="#DejaVuSans-35"/>
       <use xlink:href="#DejaVuSans-30" transform="translate(63.623047 0)"/>
       <use xlink:href="#DejaVuSans-30" transform="translate(127.246094 0)"/>
      </g>
     </g>
    </g>
    <g id="xtick_7">
     <g id="line2d_7">
      <path d="M 597.131097 381.78 
L 597.131097 29.04 
" clip-path="url(#p403c64ccfe)" style="fill: none; stroke: #ffffff; stroke-linecap: round"/>
     </g>
     <g id="text_7">
      <!-- 600 -->
      <g style="fill: #262626" transform="translate(586.632972 399.638281) scale(0.11 -0.11)">
       <defs>
        <path id="DejaVuSans-36" d="M 2113 2584 
Q 1688 2584 1439 2293 
Q 1191 2003 1191 1497 
Q 1191 994 1439 701 
Q 1688 409 2113 409 
Q 2538 409 2786 701 
Q 3034 994 3034 1497 
Q 3034 2003 2786 2293 
Q 2538 2584 2113 2584 
z
M 3366 4563 
L 3366 3988 
Q 3128 4100 2886 4159 
Q 2644 4219 2406 4219 
Q 1781 4219 1451 3797 
Q 1122 3375 1075 2522 
Q 1259 2794 1537 2939 
Q 1816 3084 2150 3084 
Q 2853 3084 3261 2657 
Q 3669 2231 3669 1497 
Q 3669 778 3244 343 
Q 2819 -91 2113 -91 
Q 1303 -91 875 529 
Q 447 1150 447 2328 
Q 447 3434 972 4092 
Q 1497 4750 2381 4750 
Q 2619 4750 2861 4703 
Q 3103 4656 3366 4563 
z
" transform="scale(0.015625)"/>
       </defs>
       <use xlink:href="#DejaVuSans-36"/>
       <use xlink:href="#DejaVuSans-30" transform="translate(63.623047 0)"/>
       <use xlink:href="#DejaVuSans-30" transform="translate(127.246094 0)"/>
      </g>
     </g>
    </g>
    <g id="xtick_8">
     <g id="line2d_8">
      <path d="M 681.15931 381.78 
L 681.15931 29.04 
" clip-path="url(#p403c64ccfe)" style="fill: none; stroke: #ffffff; stroke-linecap: round"/>
     </g>
     <g id="text_8">
      <!-- 700 -->
      <g style="fill: #262626" transform="translate(670.661185 399.638281) scale(0.11 -0.11)">
       <defs>
        <path id="DejaVuSans-37" d="M 525 4666 
L 3525 4666 
L 3525 4397 
L 1831 0 
L 1172 0 
L 2766 4134 
L 525 4134 
L 525 4666 
z
" transform="scale(0.015625)"/>
       </defs>
       <use xlink:href="#DejaVuSans-37"/>
       <use xlink:href="#DejaVuSans-30" transform="translate(63.623047 0)"/>
       <use xlink:href="#DejaVuSans-30" transform="translate(127.246094 0)"/>
      </g>
     </g>
    </g>
    <g id="text_9">
     <!-- Iterations -->
     <g style="fill: #262626" transform="translate(356.804062 415.044062) scale(0.12 -0.12)">
      <defs>
       <path id="DejaVuSans-49" d="M 628 4666 
L 1259 4666 
L 1259 0 
L 628 0 
L 628 4666 
z
" transform="scale(0.015625)"/>
       <path id="DejaVuSans-74" d="M 1172 4494 
L 1172 3500 
L 2356 3500 
L 2356 3053 
L 1172 3053 
L 1172 1153 
Q 1172 725 1289 603 
Q 1406 481 1766 481 
L 2356 481 
L 2356 0 
L 1766 0 
Q 1100 0 847 248 
Q 594 497 594 1153 
L 594 3053 
L 172 3053 
L 172 3500 
L 594 3500 
L 594 4494 
L 1172 4494 
z
" transform="scale(0.015625)"/>
       <path id="DejaVuSans-65" d="M 3597 1894 
L 3597 1613 
L 953 1613 
Q 991 1019 1311 708 
Q 1631 397 2203 397 
Q 2534 397 2845 478 
Q 3156 559 3463 722 
L 3463 178 
Q 3153 47 2828 -22 
Q 2503 -91 2169 -91 
Q 1331 -91 842 396 
Q 353 884 353 1716 
Q 353 2575 817 3079 
Q 1281 3584 2069 3584 
Q 2775 3584 3186 3129 
Q 3597 2675 3597 1894 
z
M 3022 2063 
Q 3016 2534 2758 2815 
Q 2500 3097 2075 3097 
Q 1594 3097 1305 2825 
Q 1016 2553 972 2059 
L 3022 2063 
z
" transform="scale(0.015625)"/>
       <path id="DejaVuSans-72" d="M 2631 2963 
Q 2534 3019 2420 3045 
Q 2306 3072 2169 3072 
Q 1681 3072 1420 2755 
Q 1159 2438 1159 1844 
L 1159 0 
L 581 0 
L 581 3500 
L 1159 3500 
L 1159 2956 
Q 1341 3275 1631 3429 
Q 1922 3584 2338 3584 
Q 2397 3584 2469 3576 
Q 2541 3569 2628 3553 
L 2631 2963 
z
" transform="scale(0.015625)"/>
       <path id="DejaVuSans-61" d="M 2194 1759 
Q 1497 1759 1228 1600 
Q 959 1441 959 1056 
Q 959 750 1161 570 
Q 1363 391 1709 391 
Q 2188 391 2477 730 
Q 2766 1069 2766 1631 
L 2766 1759 
L 2194 1759 
z
M 3341 1997 
L 3341 0 
L 2766 0 
L 2766 531 
Q 2569 213 2275 61 
Q 1981 -91 1556 -91 
Q 1019 -91 701 211 
Q 384 513 384 1019 
Q 384 1609 779 1909 
Q 1175 2209 1959 2209 
L 2766 2209 
L 2766 2266 
Q 2766 2663 2505 2880 
Q 2244 3097 1772 3097 
Q 1472 3097 1187 3025 
Q 903 2953 641 2809 
L 641 3341 
Q 956 3463 1253 3523 
Q 1550 3584 1831 3584 
Q 2591 3584 2966 3190 
Q 3341 2797 3341 1997 
z
" transform="scale(0.015625)"/>
       <path id="DejaVuSans-69" d="M 603 3500 
L 1178 3500 
L 1178 0 
L 603 0 
L 603 3500 
z
M 603 4863 
L 1178 4863 
L 1178 4134 
L 603 4134 
L 603 4863 
z
" transform="scale(0.015625)"/>
       <path id="DejaVuSans-6f" d="M 1959 3097 
Q 1497 3097 1228 2736 
Q 959 2375 959 1747 
Q 959 1119 1226 758 
Q 1494 397 1959 397 
Q 2419 397 2687 759 
Q 2956 1122 2956 1747 
Q 2956 2369 2687 2733 
Q 2419 3097 1959 3097 
z
M 1959 3584 
Q 2709 3584 3137 3096 
Q 3566 2609 3566 1747 
Q 3566 888 3137 398 
Q 2709 -91 1959 -91 
Q 1206 -91 779 398 
Q 353 888 353 1747 
Q 353 2609 779 3096 
Q 1206 3584 1959 3584 
z
" transform="scale(0.015625)"/>
       <path id="DejaVuSans-6e" d="M 3513 2113 
L 3513 0 
L 2938 0 
L 2938 2094 
Q 2938 2591 2744 2837 
Q 2550 3084 2163 3084 
Q 1697 3084 1428 2787 
Q 1159 2491 1159 1978 
L 1159 0 
L 581 0 
L 581 3500 
L 1159 3500 
L 1159 2956 
Q 1366 3272 1645 3428 
Q 1925 3584 2291 3584 
Q 2894 3584 3203 3211 
Q 3513 2838 3513 2113 
z
" transform="scale(0.015625)"/>
       <path id="DejaVuSans-73" d="M 2834 3397 
L 2834 2853 
Q 2591 2978 2328 3040 
Q 2066 3103 1784 3103 
Q 1356 3103 1142 2972 
Q 928 2841 928 2578 
Q 928 2378 1081 2264 
Q 1234 2150 1697 2047 
L 1894 2003 
Q 2506 1872 2764 1633 
Q 3022 1394 3022 966 
Q 3022 478 2636 193 
Q 2250 -91 1575 -91 
Q 1294 -91 989 -36 
Q 684 19 347 128 
L 347 722 
Q 666 556 975 473 
Q 1284 391 1588 391 
Q 1994 391 2212 530 
Q 2431 669 2431 922 
Q 2431 1156 2273 1281 
Q 2116 1406 1581 1522 
L 1381 1569 
Q 847 1681 609 1914 
Q 372 2147 372 2553 
Q 372 3047 722 3315 
Q 1072 3584 1716 3584 
Q 2034 3584 2315 3537 
Q 2597 3491 2834 3397 
z
" transform="scale(0.015625)"/>
      </defs>
      <use xlink:href="#DejaVuSans-49"/>
      <use xlink:href="#DejaVuSans-74" transform="translate(29.492188 0)"/>
      <use xlink:href="#DejaVuSans-65" transform="translate(68.701172 0)"/>
      <use xlink:href="#DejaVuSans-72" transform="translate(130.224609 0)"/>
      <use xlink:href="#DejaVuSans-61" transform="translate(171.337891 0)"/>
      <use xlink:href="#DejaVuSans-74" transform="translate(232.617188 0)"/>
      <use xlink:href="#DejaVuSans-69" transform="translate(271.826172 0)"/>
      <use xlink:href="#DejaVuSans-6f" transform="translate(299.609375 0)"/>
      <use xlink:href="#DejaVuSans-6e" transform="translate(360.791016 0)"/>
      <use xlink:href="#DejaVuSans-73" transform="translate(424.169922 0)"/>
     </g>
    </g>
   </g>
   <g id="matplotlib.axis_2">
    <g id="ytick_1">
     <g id="line2d_9">
      <path d="M 63.72 365.750261 
L 707.04 365.750261 
" clip-path="url(#p403c64ccfe)" style="fill: none; stroke: #ffffff; stroke-linecap: round"/>
     </g>
     <g id="text_10">
      <!-- 0.0 -->
      <g style="fill: #262626" transform="translate(36.726563 369.929401) scale(0.11 -0.11)">
       <defs>
        <path id="DejaVuSans-2e" d="M 684 794 
L 1344 794 
L 1344 0 
L 684 0 
L 684 794 
z
" transform="scale(0.015625)"/>
       </defs>
       <use xlink:href="#DejaVuSans-30"/>
       <use xlink:href="#DejaVuSans-2e" transform="translate(63.623047 0)"/>
       <use xlink:href="#DejaVuSans-30" transform="translate(95.410156 0)"/>
      </g>
     </g>
    </g>
    <g id="ytick_2">
     <g id="line2d_10">
      <path d="M 63.72 324.886721 
L 707.04 324.886721 
" clip-path="url(#p403c64ccfe)" style="fill: none; stroke: #ffffff; stroke-linecap: round"/>
     </g>
     <g id="text_11">
      <!-- 2.5 -->
      <g style="fill: #262626" transform="translate(36.726563 329.065861) scale(0.11 -0.11)">
       <use xlink:href="#DejaVuSans-32"/>
       <use xlink:href="#DejaVuSans-2e" transform="translate(63.623047 0)"/>
       <use xlink:href="#DejaVuSans-35" transform="translate(95.410156 0)"/>
      </g>
     </g>
    </g>
    <g id="ytick_3">
     <g id="line2d_11">
      <path d="M 63.72 284.023181 
L 707.04 284.023181 
" clip-path="url(#p403c64ccfe)" style="fill: none; stroke: #ffffff; stroke-linecap: round"/>
     </g>
     <g id="text_12">
      <!-- 5.0 -->
      <g style="fill: #262626" transform="translate(36.726563 288.202321) scale(0.11 -0.11)">
       <use xlink:href="#DejaVuSans-35"/>
       <use xlink:href="#DejaVuSans-2e" transform="translate(63.623047 0)"/>
       <use xlink:href="#DejaVuSans-30" transform="translate(95.410156 0)"/>
      </g>
     </g>
    </g>
    <g id="ytick_4">
     <g id="line2d_12">
      <path d="M 63.72 243.159641 
L 707.04 243.159641 
" clip-path="url(#p403c64ccfe)" style="fill: none; stroke: #ffffff; stroke-linecap: round"/>
     </g>
     <g id="text_13">
      <!-- 7.5 -->
      <g style="fill: #262626" transform="translate(36.726563 247.338781) scale(0.11 -0.11)">
       <use xlink:href="#DejaVuSans-37"/>
       <use xlink:href="#DejaVuSans-2e" transform="translate(63.623047 0)"/>
       <use xlink:href="#DejaVuSans-35" transform="translate(95.410156 0)"/>
      </g>
     </g>
    </g>
    <g id="ytick_5">
     <g id="line2d_13">
      <path d="M 63.72 202.2961 
L 707.04 202.2961 
" clip-path="url(#p403c64ccfe)" style="fill: none; stroke: #ffffff; stroke-linecap: round"/>
     </g>
     <g id="text_14">
      <!-- 10.0 -->
      <g style="fill: #262626" transform="translate(29.727813 206.475241) scale(0.11 -0.11)">
       <use xlink:href="#DejaVuSans-31"/>
       <use xlink:href="#DejaVuSans-30" transform="translate(63.623047 0)"/>
       <use xlink:href="#DejaVuSans-2e" transform="translate(127.246094 0)"/>
       <use xlink:href="#DejaVuSans-30" transform="translate(159.033203 0)"/>
      </g>
     </g>
    </g>
    <g id="ytick_6">
     <g id="line2d_14">
      <path d="M 63.72 161.43256 
L 707.04 161.43256 
" clip-path="url(#p403c64ccfe)" style="fill: none; stroke: #ffffff; stroke-linecap: round"/>
     </g>
     <g id="text_15">
      <!-- 12.5 -->
      <g style="fill: #262626" transform="translate(29.727813 165.611701) scale(0.11 -0.11)">
       <use xlink:href="#DejaVuSans-31"/>
       <use xlink:href="#DejaVuSans-32" transform="translate(63.623047 0)"/>
       <use xlink:href="#DejaVuSans-2e" transform="translate(127.246094 0)"/>
       <use xlink:href="#DejaVuSans-35" transform="translate(159.033203 0)"/>
      </g>
     </g>
    </g>
    <g id="ytick_7">
     <g id="line2d_15">
      <path d="M 63.72 120.56902 
L 707.04 120.56902 
" clip-path="url(#p403c64ccfe)" style="fill: none; stroke: #ffffff; stroke-linecap: round"/>
     </g>
     <g id="text_16">
      <!-- 15.0 -->
      <g style="fill: #262626" transform="translate(29.727813 124.748161) scale(0.11 -0.11)">
       <use xlink:href="#DejaVuSans-31"/>
       <use xlink:href="#DejaVuSans-35" transform="translate(63.623047 0)"/>
       <use xlink:href="#DejaVuSans-2e" transform="translate(127.246094 0)"/>
       <use xlink:href="#DejaVuSans-30" transform="translate(159.033203 0)"/>
      </g>
     </g>
    </g>
    <g id="ytick_8">
     <g id="line2d_16">
      <path d="M 63.72 79.70548 
L 707.04 79.70548 
" clip-path="url(#p403c64ccfe)" style="fill: none; stroke: #ffffff; stroke-linecap: round"/>
     </g>
     <g id="text_17">
      <!-- 17.5 -->
      <g style="fill: #262626" transform="translate(29.727813 83.884621) scale(0.11 -0.11)">
       <use xlink:href="#DejaVuSans-31"/>
       <use xlink:href="#DejaVuSans-37" transform="translate(63.623047 0)"/>
       <use xlink:href="#DejaVuSans-2e" transform="translate(127.246094 0)"/>
       <use xlink:href="#DejaVuSans-35" transform="translate(159.033203 0)"/>
      </g>
     </g>
    </g>
    <g id="ytick_9">
     <g id="line2d_17">
      <path d="M 63.72 38.84194 
L 707.04 38.84194 
" clip-path="url(#p403c64ccfe)" style="fill: none; stroke: #ffffff; stroke-linecap: round"/>
     </g>
     <g id="text_18">
      <!-- 20.0 -->
      <g style="fill: #262626" transform="translate(29.727813 43.021081) scale(0.11 -0.11)">
       <use xlink:href="#DejaVuSans-32"/>
       <use xlink:href="#DejaVuSans-30" transform="translate(63.623047 0)"/>
       <use xlink:href="#DejaVuSans-2e" transform="translate(127.246094 0)"/>
       <use xlink:href="#DejaVuSans-30" transform="translate(159.033203 0)"/>
      </g>
     </g>
    </g>
    <g id="text_19">
     <!-- Time (ms) -->
     <g style="fill: #262626" transform="translate(23.232188 235.649062) rotate(-90) scale(0.12 -0.12)">
      <defs>
       <path id="DejaVuSans-54" d="M -19 4666 
L 3928 4666 
L 3928 4134 
L 2272 4134 
L 2272 0 
L 1638 0 
L 1638 4134 
L -19 4134 
L -19 4666 
z
" transform="scale(0.015625)"/>
       <path id="DejaVuSans-6d" d="M 3328 2828 
Q 3544 3216 3844 3400 
Q 4144 3584 4550 3584 
Q 5097 3584 5394 3201 
Q 5691 2819 5691 2113 
L 5691 0 
L 5113 0 
L 5113 2094 
Q 5113 2597 4934 2840 
Q 4756 3084 4391 3084 
Q 3944 3084 3684 2787 
Q 3425 2491 3425 1978 
L 3425 0 
L 2847 0 
L 2847 2094 
Q 2847 2600 2669 2842 
Q 2491 3084 2119 3084 
Q 1678 3084 1418 2786 
Q 1159 2488 1159 1978 
L 1159 0 
L 581 0 
L 581 3500 
L 1159 3500 
L 1159 2956 
Q 1356 3278 1631 3431 
Q 1906 3584 2284 3584 
Q 2666 3584 2933 3390 
Q 3200 3197 3328 2828 
z
" transform="scale(0.015625)"/>
       <path id="DejaVuSans-20" transform="scale(0.015625)"/>
       <path id="DejaVuSans-28" d="M 1984 4856 
Q 1566 4138 1362 3434 
Q 1159 2731 1159 2009 
Q 1159 1288 1364 580 
Q 1569 -128 1984 -844 
L 1484 -844 
Q 1016 -109 783 600 
Q 550 1309 550 2009 
Q 550 2706 781 3412 
Q 1013 4119 1484 4856 
L 1984 4856 
z
" transform="scale(0.015625)"/>
       <path id="DejaVuSans-29" d="M 513 4856 
L 1013 4856 
Q 1481 4119 1714 3412 
Q 1947 2706 1947 2009 
Q 1947 1309 1714 600 
Q 1481 -109 1013 -844 
L 513 -844 
Q 928 -128 1133 580 
Q 1338 1288 1338 2009 
Q 1338 2731 1133 3434 
Q 928 4138 513 4856 
z
" transform="scale(0.015625)"/>
      </defs>
      <use xlink:href="#DejaVuSans-54"/>
      <use xlink:href="#DejaVuSans-69" transform="translate(57.958984 0)"/>
      <use xlink:href="#DejaVuSans-6d" transform="translate(85.742188 0)"/>
      <use xlink:href="#DejaVuSans-65" transform="translate(183.154297 0)"/>
      <use xlink:href="#DejaVuSans-20" transform="translate(244.677734 0)"/>
      <use xlink:href="#DejaVuSans-28" transform="translate(276.464844 0)"/>
      <use xlink:href="#DejaVuSans-6d" transform="translate(315.478516 0)"/>
      <use xlink:href="#DejaVuSans-73" transform="translate(412.890625 0)"/>
      <use xlink:href="#DejaVuSans-29" transform="translate(464.990234 0)"/>
     </g>
    </g>
   </g>
   <g id="line2d_18">
    <path d="M 92.961818 164.818318 
L 93.8021 159.775534 
L 94.642382 159.561197 
L 95.482665 161.256414 
L 96.322947 159.124727 
L 97.163229 161.147296 
L 98.003511 158.972742 
L 98.843793 159.374138 
L 99.684075 159.487153 
L 100.524357 159.720976 
L 101.364639 152.129521 
L 102.204922 159.674211 
L 103.045204 159.413109 
L 103.885486 159.771637 
L 104.725768 160.274357 
L 106.406332 159.876858 
L 107.246614 160.777076 
L 108.927179 160.321122 
L 109.767461 160.956341 
L 110.607743 160.480901 
L 111.448025 159.592373 
L 112.288307 161.18237 
L 113.128589 160.519871 
L 113.968871 160.562739 
L 115.649436 160.196416 
L 116.489718 160.09899 
L 117.33 160.816047 
L 118.170282 160.823841 
L 119.010564 161.451266 
L 119.850846 160.028843 
L 120.691129 161.131708 
L 121.531411 161.447369 
L 122.371693 161.314869 
L 124.052257 160.761488 
L 124.892539 160.652371 
L 125.732821 160.726415 
L 126.573103 159.744358 
L 127.413386 160.465312 
L 128.253668 160.816047 
L 129.09395 160.597812 
L 129.934232 160.656268 
L 130.774514 160.477004 
L 131.614796 161.52531 
L 132.455078 159.954799 
L 133.295361 160.344504 
L 134.135643 160.313327 
L 134.975925 160.488695 
L 135.816207 160.219798 
L 136.656489 160.827738 
L 137.496771 159.303991 
L 138.337053 160.956341 
L 139.177335 161.217443 
L 140.017618 161.170679 
L 140.8579 160.98362 
L 141.698182 161.279796 
L 142.538464 161.439575 
L 144.219028 161.194061 
L 145.899592 161.470752 
L 146.739875 160.095093 
L 147.580157 161.003105 
L 148.420439 159.791123 
L 149.260721 159.342962 
L 150.101003 160.286048 
L 150.941285 160.593915 
L 151.781567 159.985975 
L 152.62185 160.223695 
L 153.462132 159.978181 
L 154.302414 160.85112 
L 155.142696 160.761488 
L 155.982978 161.0109 
L 156.82326 160.909576 
L 157.663542 150.843494 
L 158.503824 153.045328 
L 159.344107 158.851933 
L 160.184389 159.152006 
L 161.024671 161.158987 
L 161.864953 160.605606 
L 163.545517 160.325019 
L 164.385799 155.839513 
L 165.226082 160.07171 
L 166.066364 152.46077 
L 166.906646 161.388913 
L 167.746928 159.498844 
L 168.58721 159.003918 
L 169.427492 157.554215 
L 170.267774 155.551131 
L 171.108056 158.762301 
L 171.948339 157.550318 
L 172.788621 160.999208 
L 173.628903 158.399875 
L 174.469185 160.395165 
L 175.309467 160.819944 
L 176.149749 160.001563 
L 176.990031 165.769199 
L 177.830313 154.070252 
L 178.670596 160.858915 
L 179.510878 157.842597 
L 180.35116 158.703845 
L 181.191442 153.06871 
L 182.031724 159.229947 
L 182.872006 153.458415 
L 183.712288 161.82928 
L 184.552571 149.775702 
L 185.392853 160.430239 
L 186.233135 160.414651 
L 187.073417 160.936856 
L 187.913699 161.957883 
L 188.753981 160.562739 
L 189.594263 161.918912 
L 190.434545 162.09428 
L 191.274828 153.774076 
L 192.11511 158.754507 
L 192.955392 152.164594 
L 193.795674 154.767824 
L 194.635956 159.86127 
L 195.476238 162.328103 
L 196.31652 151.342316 
L 197.156803 158.793478 
L 197.997085 148.345484 
L 198.837367 155.590102 
L 199.677649 160.021049 
L 200.517931 161.533104 
L 201.358213 161.22134 
L 202.198495 161.926706 
L 203.038777 154.943191 
L 203.87906 162.854205 
L 204.719342 148.629969 
L 205.559624 158.575243 
L 206.399906 151.821654 
L 207.240188 161.96178 
L 208.08047 156.314953 
L 208.920752 158.099803 
L 209.761034 149.810775 
L 210.601317 152.000918 
L 211.441599 150.060187 
L 212.281881 160.835532 
L 213.122163 160.523768 
L 213.962445 148.466293 
L 214.802727 161.860457 
L 215.643009 160.601709 
L 216.483292 154.374222 
L 217.323574 157.53473 
L 218.163856 156.194145 
L 219.004138 158.442743 
L 219.84442 152.246432 
L 220.684702 160.00546 
L 221.524984 150.796729 
L 223.205549 159.428697 
L 224.045831 150.145922 
L 224.886113 148.665042 
L 225.726395 152.215256 
L 226.566677 160.367886 
L 227.406959 159.837887 
L 228.247241 162.02803 
L 229.087524 161.423987 
L 230.768088 162.70222 
L 231.60837 160.126269 
L 233.288934 154.45606 
L 234.129216 154.779515 
L 234.969498 157.269731 
L 235.809781 156.798188 
L 236.650063 163.48163 
L 237.490345 163.512806 
L 238.330627 159.257227 
L 239.170909 159.565094 
L 240.011191 159.085756 
L 240.851473 162.37097 
L 241.691755 162.784058 
L 242.532038 161.735751 
L 243.37232 162.554132 
L 244.212602 162.102074 
L 245.052884 162.558029 
L 245.893166 166.36155 
L 246.733448 163.201042 
L 247.57373 160.929061 
L 248.414013 157.628259 
L 249.254295 161.673398 
L 250.094577 161.088841 
L 250.934859 153.333709 
L 251.775141 147.417986 
L 252.615423 156.369512 
L 253.455705 157.593186 
L 254.295987 157.359363 
L 255.13627 166.392727 
L 255.976552 160.597812 
L 256.816834 160.718621 
L 257.657116 159.128624 
L 258.497398 162.043618 
L 259.33768 161.349943 
L 260.177962 162.456705 
L 261.018245 161.088841 
L 261.858527 161.899427 
L 262.698809 160.991414 
L 263.539091 161.197958 
L 264.379373 162.039721 
L 265.219655 162.359279 
L 266.059937 163.555674 
L 266.900219 148.368867 
L 267.740502 162.733396 
L 268.580784 155.075691 
L 269.421066 160.738106 
L 270.261348 162.102074 
L 271.10163 161.583766 
L 271.941912 156.198042 
L 272.782194 161.560384 
L 273.622476 161.104429 
L 274.462759 161.112223 
L 275.303041 162.039721 
L 276.143323 160.523768 
L 276.983605 161.517516 
L 277.823887 161.252517 
L 279.504451 161.065458 
L 280.344734 161.501928 
L 281.185016 161.197958 
L 282.025298 145.251226 
L 282.86558 111.128648 
L 283.705862 162.226779 
L 285.386426 160.399063 
L 286.226708 160.122372 
L 287.066991 79.776874 
L 287.907273 77.185335 
L 288.747555 77.812761 
L 289.587837 179.646597 
L 290.428119 119.912601 
L 291.268401 188.789078 
L 292.108683 160.769282 
L 292.948966 161.455163 
L 293.789248 160.371783 
L 294.62953 162.039721 
L 295.469812 138.676901 
L 296.310094 161.310972 
L 297.150376 156.747526 
L 297.990658 159.565094 
L 298.83094 102.488887 
L 299.671223 125.243767 
L 300.511505 161.209649 
L 301.351787 161.158987 
L 302.192069 161.314869 
L 303.032351 161.174576 
L 304.712915 162.374867 
L 305.553197 161.868251 
L 306.39348 45.073636 
L 307.233762 113.607173 
L 308.074044 121.783186 
L 308.914326 161.622737 
L 309.754608 153.294739 
L 310.59489 161.599354 
L 311.435172 161.022591 
L 312.275455 105.62991 
L 313.115737 161.833177 
L 313.956019 148.181808 
L 314.796301 161.0109 
L 315.636583 162.585308 
L 316.476865 160.558842 
L 317.317147 154.339148 
L 318.157429 161.427884 
L 318.997712 103.63462 
L 319.837994 162.090383 
L 320.678276 161.174576 
L 321.518558 137.983226 
L 322.35884 121.654583 
L 323.199122 161.474649 
L 324.039404 161.462957 
L 324.879687 161.630531 
L 325.719969 161.307075 
L 326.560251 161.735751 
L 327.400533 157.433407 
L 328.240815 107.69145 
L 329.081097 164.12854 
L 329.921379 161.330458 
L 330.761661 146.622988 
L 331.601944 141.40094 
L 332.442226 161.614942 
L 333.282508 91.709644 
L 334.12279 179.595935 
L 334.963072 162.293029 
L 335.803354 161.946192 
L 337.483918 161.782516 
L 338.324201 92.192878 
L 339.164483 190.250472 
L 340.004765 162.004647 
L 340.845047 161.642222 
L 341.685329 172.285068 
L 342.525611 161.342149 
L 343.365893 161.537001 
L 344.206176 157.491863 
L 345.046458 121.837744 
L 345.88674 160.625091 
L 346.727022 75.147178 
L 348.407586 161.817589 
L 349.247868 140.695573 
L 350.08815 107.594023 
L 350.928433 162.141044 
L 351.768715 162.359279 
L 352.608997 162.445014 
L 353.449279 116.416947 
L 354.289561 128.225011 
L 355.129843 124.137004 
L 355.970125 125.645163 
L 356.810408 161.942295 
L 357.65069 152.176285 
L 358.490972 162.26575 
L 359.331254 162.733396 
L 360.171536 177.557777 
L 361.011818 162.63597 
L 361.8521 162.900969 
L 362.692382 110.501223 
L 363.532665 161.579869 
L 364.372947 137.983226 
L 365.213229 123.930461 
L 366.053511 162.363176 
L 366.893793 162.756778 
L 367.734075 192.49907 
L 368.574357 190.912971 
L 369.414639 162.483985 
L 370.254922 157.020319 
L 371.935486 162.764572 
L 372.775768 163.041263 
L 373.61605 161.11612 
L 374.456332 199.642365 
L 375.296614 125.087885 
L 376.136897 162.464499 
L 376.977179 158.536272 
L 377.817461 172.214921 
L 378.657743 125.232076 
L 379.498025 161.45906 
L 380.338307 162.102074 
L 381.178589 119.803484 
L 382.018871 161.782516 
L 382.859154 105.224616 
L 383.699436 162.690528 
L 384.539718 162.468397 
L 385.38 163.107513 
L 387.060564 163.325748 
L 387.900846 164.475378 
L 388.741129 163.933688 
L 389.581411 163.162072 
L 390.421693 163.302365 
L 391.261975 163.656997 
L 392.102257 162.885381 
L 392.942539 162.780161 
L 393.782821 163.812879 
L 394.623103 163.399792 
L 395.463386 163.58685 
L 396.303668 163.232219 
L 397.14395 161.934501 
L 397.984232 163.251704 
L 398.824514 163.582953 
L 399.664796 163.34913 
L 400.505078 163.734938 
L 402.185643 164.124643 
L 403.025925 164.666333 
L 403.866207 164.553319 
L 404.706489 164.713098 
L 405.546771 164.60398 
L 406.387053 163.960967 
L 408.9079 164.794936 
L 410.588464 164.206481 
L 411.428746 163.629718 
L 412.269028 164.218172 
L 413.10931 163.937585 
L 413.949592 164.214275 
L 414.789875 164.876774 
L 415.630157 164.939127 
L 416.470439 165.200229 
L 417.310721 165.282067 
L 418.151003 164.830009 
L 418.991285 165.141773 
L 419.831567 164.420819 
L 420.67185 164.027217 
L 421.512132 164.783245 
L 422.352414 164.43251 
L 423.192696 164.588392 
L 424.032978 165.059935 
L 424.87326 164.740377 
L 425.713542 164.06229 
L 426.553824 165.496405 
L 427.394107 165.262582 
L 428.234389 161.743545 
L 429.074671 164.186996 
L 429.914953 164.950818 
L 430.755235 165.17295 
L 431.595517 165.586037 
L 432.435799 164.171408 
L 433.276082 165.052141 
L 434.116364 164.288319 
L 434.956646 164.49876 
L 436.63721 165.208023 
L 437.477492 163.699865 
L 438.317774 164.350672 
L 439.158056 165.547067 
L 439.998339 164.050599 
L 440.838621 164.533834 
L 441.678903 164.424716 
L 442.519185 164.93523 
L 443.359467 164.939127 
L 444.199749 165.566552 
L 445.880313 165.504199 
L 446.720596 163.333542 
L 447.560878 163.469939 
L 448.40116 161.813692 
L 449.241442 164.186996 
L 450.081724 164.666333 
L 450.922006 161.727957 
L 451.762288 154.814589 
L 452.602571 165.219714 
L 453.442853 159.101345 
L 454.283135 162.207294 
L 455.123417 157.885465 
L 455.963699 158.310243 
L 456.803981 159.682005 
L 457.644263 154.004002 
L 458.484545 160.636783 
L 459.324828 166.162801 
L 460.16511 163.95707 
L 461.005392 164.085673 
L 461.845674 164.331187 
L 462.685956 147.262104 
L 463.526238 156.396791 
L 464.36652 147.741441 
L 465.206803 156.922893 
L 466.047085 156.151277 
L 466.887367 159.378035 
L 467.727649 156.427968 
L 468.567931 155.784954 
L 469.408213 158.887007 
L 470.248495 164.323393 
L 471.088777 164.280525 
L 471.92906 163.894717 
L 472.769342 158.567449 
L 473.609624 156.813776 
L 474.449906 162.024133 
L 475.290188 162.024133 
L 476.13047 163.692071 
L 476.970752 164.76376 
L 477.811034 162.1995 
L 478.651317 165.254788 
L 479.491599 163.614129 
L 480.331881 164.007732 
L 481.172163 163.637512 
L 482.012445 172.117494 
L 482.852727 155.403043 
L 483.693009 160.67965 
L 484.533292 156.427968 
L 485.373574 157.823112 
L 486.213856 162.50347 
L 487.054138 155.083485 
L 487.89442 162.293029 
L 488.734702 161.965677 
L 489.574984 160.367886 
L 490.415266 160.356195 
L 491.255549 164.904053 
L 492.095831 165.656184 
L 492.936113 157.940023 
L 493.776395 153.548047 
L 494.616677 163.512806 
L 495.456959 163.594644 
L 496.297241 168.929707 
L 497.977806 156.127895 
L 498.818088 165.917287 
L 499.65837 153.84812 
L 500.498652 161.474649 
L 501.338934 158.809066 
L 502.179216 171.992789 
L 503.019498 166.743461 
L 503.859781 156.946275 
L 504.700063 150.352465 
L 505.540345 167.522872 
L 506.380627 163.247807 
L 507.220909 163.068542 
L 508.061191 160.777076 
L 508.901473 166.2953 
L 509.741755 166.443388 
L 510.582038 167.347504 
L 511.42232 157.77245 
L 512.262602 162.43722 
L 513.102884 155.894072 
L 513.943166 158.785683 
L 514.783448 159.876858 
L 515.62373 166.544712 
L 516.464013 150.777244 
L 517.304295 156.01488 
L 518.144577 158.547963 
L 518.984859 150.765553 
L 519.825141 163.680379 
L 520.665423 163.064645 
L 521.505705 164.724789 
L 522.345987 166.014713 
L 523.18627 161.844868 
L 524.026552 161.973471 
L 524.866834 154.424884 
L 525.707116 156.435762 
L 526.547398 162.429426 
L 527.38768 160.009357 
L 528.227962 159.904137 
L 529.068245 154.724956 
L 529.908527 151.599522 
L 530.748809 162.733396 
L 531.589091 152.534814 
L 534.950219 161.891633 
L 535.790502 165.683464 
L 536.630784 152.647828 
L 537.471066 158.162155 
L 538.311348 157.382745 
L 539.15163 162.359279 
L 539.991912 166.416109 
L 540.832194 156.229218 
L 541.672476 155.94863 
L 542.512759 156.404585 
L 543.353041 161.942295 
L 544.193323 163.582953 
L 545.033605 160.656268 
L 545.873887 163.21663 
L 547.554451 157.756862 
L 548.394734 165.843243 
L 549.235016 159.639138 
L 550.075298 151.85283 
L 550.91558 162.67494 
L 551.755862 166.591476 
L 552.596144 163.220527 
L 553.436426 166.268021 
L 554.276708 155.831719 
L 555.116991 164.374054 
L 555.957273 160.200313 
L 556.797555 163.220527 
L 557.637837 167.667062 
L 558.478119 164.611775 
L 559.318401 158.088111 
L 560.158683 162.522955 
L 560.998966 151.61511 
L 561.839248 162.573617 
L 562.67953 164.892362 
L 563.519812 165.406773 
L 564.360094 162.678837 
L 565.200376 175.145503 
L 566.040658 158.766198 
L 566.88094 162.823028 
L 567.721223 162.620382 
L 568.561505 166.010816 
L 569.401787 152.612755 
L 570.242069 162.900969 
L 571.082351 163.871335 
L 571.922633 162.105971 
L 572.762915 171.59529 
L 573.603197 161.809795 
L 574.44348 162.865896 
L 575.283762 167.121475 
L 576.124044 168.161988 
L 576.964326 148.513057 
L 577.804608 160.554945 
L 578.64489 162.893175 
L 579.485172 163.302365 
L 580.325455 156.330541 
L 581.165737 152.710181 
L 582.006019 147.90122 
L 582.846301 160.325019 
L 583.686583 167.885297 
L 584.526865 162.84641 
L 585.367147 162.522955 
L 586.207429 157.745171 
L 587.047712 159.962593 
L 587.887994 158.75061 
L 588.728276 165.95236 
L 589.568558 152.145109 
L 590.40884 141.778954 
L 591.249122 163.010087 
L 592.089404 159.720976 
L 592.929687 164.144128 
L 593.769969 162.289132 
L 594.610251 164.553319 
L 595.450533 163.805085 
L 596.290815 163.493321 
L 597.131097 161.295384 
L 597.971379 152.702387 
L 598.811661 159.303991 
L 599.651944 153.902679 
L 600.492226 169.167427 
L 601.332508 162.211191 
L 602.17279 161.385016 
L 603.013072 154.658707 
L 604.693636 163.290674 
L 605.533918 166.891549 
L 606.374201 167.304637 
L 607.214483 164.08957 
L 608.054765 166.938314 
L 608.895047 163.695968 
L 609.735329 166.447285 
L 610.575611 161.965677 
L 611.415893 152.710181 
L 613.096458 168.442576 
L 613.93674 164.623466 
L 614.777022 162.760675 
L 615.617304 158.158258 
L 616.457586 159.549505 
L 617.297868 162.020236 
L 618.13815 165.640596 
L 620.658997 156.985246 
L 621.499279 167.8814 
L 622.339561 160.430239 
L 623.179843 146.533356 
L 624.020125 164.849495 
L 624.860408 153.170033 
L 625.70069 166.79802 
L 626.540972 163.434865 
L 627.381254 164.097364 
L 628.221536 168.006106 
L 629.061818 159.417006 
L 629.9021 159.124727 
L 630.742382 158.271273 
L 631.582665 163.910305 
L 632.422947 164.444201 
L 633.263229 161.439575 
L 634.103511 159.522226 
L 634.943793 152.538711 
L 636.624357 167.526769 
L 637.464639 157.074878 
L 638.304922 163.71935 
L 639.145204 165.371699 
L 639.985486 165.153465 
L 640.825768 158.298552 
L 641.66605 166.583682 
L 642.506332 165.005377 
L 643.346614 160.788768 
L 644.186897 157.335981 
L 645.027179 163.972658 
L 645.867461 156.424071 
L 647.548025 165.426258 
L 648.388307 164.39354 
L 649.228589 169.034927 
L 650.068871 152.2893 
L 651.749436 158.033553 
L 652.589718 160.422445 
L 653.43 163.6531 
L 654.270282 160.067813 
L 655.110564 158.205023 
L 655.950846 160.399063 
L 656.791129 163.555674 
L 657.631411 160.964135 
L 658.471693 164.576701 
L 659.311975 158.053038 
L 660.152257 162.842513 
L 660.992539 153.014151 
L 661.832821 164.826112 
L 662.673103 164.787142 
L 663.513386 164.518245 
L 664.353668 160.539356 
L 665.19395 158.473919 
L 666.034232 167.503386 
L 666.874514 168.477649 
L 667.714796 168.847869 
L 668.555078 167.343607 
L 669.395361 160.165239 
L 670.235643 162.180015 
L 671.075925 167.324122 
L 671.916207 165.765302 
L 672.756489 160.519871 
L 673.596771 167.03574 
L 674.437053 168.041179 
L 675.277335 169.510367 
L 676.117618 162.429426 
L 676.9579 162.413838 
L 677.798182 166.805814 
L 677.798182 166.805814 
" clip-path="url(#p403c64ccfe)" style="fill: none; stroke: #4c72b0; stroke-opacity: 0.7; stroke-width: 0.5; stroke-linecap: round"/>
   </g>
   <g id="line2d_19">
    <path d="M 92.961818 363.314604 
L 93.8021 365.247541 
L 95.482665 365.076071 
L 100.524357 365.278718 
L 101.364639 365.068277 
L 102.204922 365.278718 
L 103.045204 365.126733 
L 103.885486 365.282615 
L 105.56605 365.1696 
L 106.406332 365.165703 
L 107.246614 365.294306 
L 108.086897 365.204674 
L 108.927179 365.305997 
L 111.448025 365.298203 
L 113.968871 365.344967 
L 114.809154 365.157909 
L 115.649436 365.189085 
L 116.489718 365.352761 
L 118.170282 365.1696 
L 119.010564 365.270923 
L 120.691129 365.157909 
L 121.531411 365.344967 
L 122.371693 365.157909 
L 123.211975 365.360556 
L 124.892539 365.185188 
L 126.573103 365.154012 
L 127.413386 365.076071 
L 129.934232 365.313791 
L 130.774514 365.196879 
L 131.614796 365.325482 
L 132.455078 365.165703 
L 137.496771 365.161806 
L 138.337053 365.298203 
L 139.177335 365.204674 
L 140.017618 365.317688 
L 140.8579 365.181291 
L 143.378746 365.313791 
L 144.219028 365.208571 
L 148.420439 365.251438 
L 149.260721 364.592837 
L 150.101003 365.165703 
L 151.781567 365.294306 
L 154.302414 365.267026 
L 155.982978 365.356659 
L 158.503824 365.243644 
L 159.344107 364.99813 
L 160.184389 364.920189 
L 161.024671 365.27482 
L 161.864953 365.329379 
L 163.545517 365.196879 
L 167.746928 365.1696 
L 168.58721 365.364453 
L 169.427492 365.157909 
L 170.267774 365.177394 
L 171.108056 364.818866 
L 171.948339 365.10335 
L 172.788621 365.243644 
L 179.510878 365.185188 
L 180.35116 364.959159 
L 181.191442 365.173497 
L 182.872006 365.1696 
L 183.712288 364.842248 
L 184.552571 365.231953 
L 185.392853 365.3021 
L 186.233135 365.243644 
L 187.073417 365.337173 
L 187.913699 365.208571 
L 189.594263 365.298203 
L 190.434545 365.352761 
L 192.955392 364.877321 
L 193.795674 365.177394 
L 194.635956 365.185188 
L 195.476238 364.436955 
L 196.31652 364.994233 
L 197.156803 365.177394 
L 197.997085 364.920189 
L 198.837367 365.1696 
L 200.517931 365.298203 
L 201.358213 365.165703 
L 203.038777 365.23585 
L 203.87906 364.896807 
L 204.719342 365.161806 
L 205.559624 364.982542 
L 206.399906 365.185188 
L 207.240188 365.185188 
L 208.08047 364.885115 
L 208.920752 364.42916 
L 209.761034 364.916292 
L 210.601317 365.1696 
L 213.122163 365.138424 
L 216.483292 365.157909 
L 217.323574 365.091659 
L 218.163856 364.892909 
L 219.004138 365.200777 
L 221.524984 365.142321 
L 222.365266 364.920189 
L 223.205549 364.924086 
L 224.045831 365.189085 
L 224.886113 365.150115 
L 225.726395 364.951365 
L 226.566677 364.912395 
L 227.406959 365.216365 
L 229.927806 365.1696 
L 230.768088 365.337173 
L 231.60837 365.189085 
L 239.170909 365.157909 
L 240.011191 365.0371 
L 240.851473 365.352761 
L 241.691755 365.465776 
L 242.532038 365.228056 
L 244.212602 365.212468 
L 245.052884 365.278718 
L 245.893166 365.044894 
L 246.733448 365.348864 
L 247.57373 365.352761 
L 248.414013 365.200777 
L 249.254295 365.356659 
L 250.094577 365.157909 
L 252.615423 365.1696 
L 253.455705 365.122835 
L 255.13627 365.263129 
L 260.177962 365.177394 
L 261.018245 365.305997 
L 262.698809 365.220262 
L 266.059937 365.239747 
L 266.900219 365.072174 
L 267.740502 365.029306 
L 268.580784 365.189085 
L 271.10163 365.251438 
L 271.941912 365.087762 
L 273.622476 365.239747 
L 276.983605 365.196879 
L 281.185016 365.1696 
L 282.025298 364.99813 
L 282.86558 365.118938 
L 287.066991 365.118938 
L 287.907273 364.943571 
L 288.747555 365.076071 
L 291.268401 365.056586 
L 292.948966 365.212468 
L 297.150376 365.196879 
L 297.990658 365.044894 
L 303.032351 365.181291 
L 303.872633 365.150115 
L 305.553197 365.267026 
L 306.39348 365.126733 
L 309.754608 365.208571 
L 312.275455 365.115041 
L 315.636583 365.161806 
L 316.476865 365.009821 
L 317.317147 365.224159 
L 318.157429 365.10335 
L 318.997712 365.200777 
L 321.518558 365.122835 
L 323.199122 365.115041 
L 327.400533 365.10335 
L 328.240815 365.189085 
L 329.921379 365.122835 
L 330.761661 364.853939 
L 331.601944 365.122835 
L 332.442226 365.165703 
L 333.282508 365.048792 
L 337.483918 365.251438 
L 338.324201 365.072174 
L 340.004765 365.161806 
L 342.525611 365.138424 
L 345.046458 365.161806 
L 345.88674 364.982542 
L 346.727022 364.927983 
L 347.567304 365.122835 
L 350.08815 364.916292 
L 351.768715 365.267026 
L 352.608997 365.181291 
L 353.449279 362.055856 
L 354.289561 365.126733 
L 355.970125 365.029306 
L 356.810408 365.157909 
L 358.490972 365.122835 
L 363.532665 365.076071 
L 364.372947 364.978645 
L 366.893793 365.107247 
L 371.935486 365.146218 
L 372.775768 365.23585 
L 374.456332 365.13063 
L 376.136897 365.1696 
L 376.977179 365.033203 
L 381.178589 365.122835 
L 382.018871 365.017615 
L 383.699436 365.200777 
L 384.539718 365.06438 
L 385.38 365.23585 
L 387.060564 365.189085 
L 387.900846 365.3021 
L 391.261975 365.181291 
L 393.782821 365.177394 
L 396.303668 365.286512 
L 397.14395 365.091659 
L 397.984232 365.060483 
L 398.824514 365.3021 
L 399.664796 365.126733 
L 401.345361 365.313791 
L 403.025925 365.313791 
L 403.866207 365.161806 
L 404.706489 365.313791 
L 405.546771 365.344967 
L 406.387053 365.165703 
L 408.067618 365.325482 
L 410.588464 365.329379 
L 411.428746 365.165703 
L 414.789875 365.344967 
L 415.630157 365.185188 
L 420.67185 365.356659 
L 421.512132 365.212468 
L 426.553824 365.243644 
L 429.074671 365.185188 
L 429.914953 365.337173 
L 430.755235 365.255335 
L 432.435799 365.27482 
L 435.796928 365.231953 
L 436.63721 365.403423 
L 437.477492 365.177394 
L 445.880313 365.3021 
L 446.720596 365.185188 
L 447.560878 365.348864 
L 450.081724 365.267026 
L 450.922006 364.947468 
L 452.602571 365.196879 
L 453.442853 364.99813 
L 454.283135 365.251438 
L 456.803981 365.009821 
L 457.644263 365.177394 
L 461.845674 365.313791 
L 462.685956 365.192982 
L 463.526238 364.764307 
L 464.36652 365.115041 
L 466.047085 365.196879 
L 466.887367 364.959159 
L 467.727649 365.298203 
L 469.408213 365.068277 
L 472.769342 365.220262 
L 473.609624 365.060483 
L 474.449906 365.185188 
L 475.290188 364.900704 
L 476.13047 364.853939 
L 477.811034 365.192982 
L 479.491599 365.216365 
L 480.331881 365.033203 
L 482.012445 365.200777 
L 482.852727 365.185188 
L 483.693009 364.955262 
L 484.533292 365.224159 
L 485.373574 364.908498 
L 486.213856 364.051147 
L 487.054138 365.185188 
L 488.734702 364.908498 
L 489.574984 365.189085 
L 491.255549 365.1696 
L 492.095831 365.360556 
L 492.936113 364.433057 
L 493.776395 365.185188 
L 499.65837 365.200777 
L 500.498652 364.916292 
L 501.338934 364.440852 
L 502.179216 365.192982 
L 503.859781 365.009821 
L 504.700063 365.325482 
L 505.540345 365.231953 
L 507.220909 365.192982 
L 508.901473 365.107247 
L 509.741755 365.002027 
L 510.582038 365.196879 
L 511.42232 364.935777 
L 512.262602 365.181291 
L 520.665423 365.138424 
L 522.345987 365.313791 
L 523.18627 365.208571 
L 524.026552 365.333276 
L 524.866834 365.165703 
L 525.707116 365.189085 
L 526.547398 364.214823 
L 527.38768 365.192982 
L 528.227962 365.044894 
L 532.429373 365.231953 
L 534.950219 364.896807 
L 535.790502 365.173497 
L 536.630784 364.982542 
L 537.471066 365.056586 
L 538.311348 364.93188 
L 539.15163 365.192982 
L 539.991912 365.200777 
L 540.832194 364.850042 
L 541.672476 364.86563 
L 542.512759 365.196879 
L 544.193323 365.189085 
L 545.873887 365.216365 
L 547.554451 364.690263 
L 548.394734 365.189085 
L 549.235016 364.616219 
L 550.075298 365.173497 
L 553.436426 365.185188 
L 554.276708 364.935777 
L 555.116991 365.216365 
L 556.797555 365.005924 
L 557.637837 365.087762 
L 558.478119 364.974748 
L 559.318401 364.097911 
L 560.158683 365.208571 
L 560.998966 365.23585 
L 561.839248 364.970851 
L 563.519812 365.364453 
L 564.360094 364.924086 
L 566.040658 365.192982 
L 566.88094 365.013718 
L 567.721223 365.189085 
L 570.242069 365.091659 
L 571.082351 364.889012 
L 571.922633 365.278718 
L 572.762915 365.177394 
L 573.603197 365.294306 
L 574.44348 365.134527 
L 576.964326 365.173497 
L 578.64489 365.192982 
L 580.325455 364.966953 
L 581.165737 364.939674 
L 582.006019 365.189085 
L 583.686583 365.122835 
L 584.526865 364.963056 
L 585.367147 365.005924 
L 586.207429 365.177394 
L 588.728276 365.204674 
L 589.568558 364.82666 
L 590.40884 365.216365 
L 594.610251 365.044894 
L 595.450533 365.196879 
L 603.013072 365.204674 
L 603.853354 364.947468 
L 604.693636 365.185188 
L 606.374201 365.259232 
L 607.214483 364.920189 
L 608.054765 365.457982 
L 608.895047 365.126733 
L 610.575611 365.185188 
L 611.415893 364.920189 
L 612.256176 364.939674 
L 613.93674 365.212468 
L 614.777022 364.885115 
L 615.617304 364.963056 
L 616.457586 365.181291 
L 618.978433 365.189085 
L 620.658997 364.966953 
L 621.499279 365.165703 
L 624.020125 365.305997 
L 624.860408 364.970851 
L 625.70069 365.192982 
L 626.540972 365.290409 
L 629.9021 364.908498 
L 630.742382 365.1696 
L 632.422947 365.118938 
L 633.263229 364.904601 
L 634.103511 365.173497 
L 639.145204 365.270923 
L 639.985486 365.196879 
L 640.825768 363.992691 
L 641.66605 365.192982 
L 643.346614 365.165703 
L 644.186897 364.752616 
L 645.027179 365.196879 
L 645.867461 364.93188 
L 646.707743 365.161806 
L 651.749436 365.177394 
L 652.589718 364.935777 
L 653.43 365.13063 
L 654.270282 364.577248 
L 655.110564 365.087762 
L 656.791129 365.192982 
L 659.311975 365.150115 
L 660.152257 364.896807 
L 660.992539 365.286512 
L 661.832821 365.079968 
L 662.673103 365.192982 
L 667.714796 365.185188 
L 668.555078 365.200777 
L 669.395361 365.083865 
L 670.235643 365.192982 
L 674.437053 365.282615 
L 675.277335 365.282615 
L 676.117618 365.142321 
L 677.798182 365.181291 
L 677.798182 365.181291 
" clip-path="url(#p403c64ccfe)" style="fill: none; stroke-dasharray: 1.85,0.8; stroke-dashoffset: 0; stroke: #55a868; stroke-opacity: 0.7; stroke-width: 0.5"/>
   </g>
   <g id="line2d_20">
    <path d="M 92.961818 341.50281 
L 93.8021 361.17902 
L 94.642382 364.698057 
L 95.482665 364.682469 
L 96.322947 364.514896 
L 97.163229 364.73313 
L 99.684075 364.846145 
L 100.524357 365.06438 
L 101.364639 364.717542 
L 102.204922 365.0371 
L 103.045204 364.670778 
L 103.885486 365.048792 
L 104.725768 364.869527 
L 106.406332 364.853939 
L 107.246614 365.0371 
L 108.086897 364.951365 
L 109.767461 365.048792 
L 113.968871 365.099453 
L 114.809154 364.869527 
L 115.649436 364.900704 
L 116.489718 365.072174 
L 117.33 365.099453 
L 118.170282 364.892909 
L 119.850846 364.900704 
L 120.691129 364.885115 
L 121.531411 365.154012 
L 122.371693 364.869527 
L 123.211975 365.189085 
L 124.052257 364.99813 
L 125.732821 364.943571 
L 126.573103 364.670778 
L 129.934232 365.087762 
L 130.774514 364.853939 
L 131.614796 365.10335 
L 132.455078 364.857836 
L 136.656489 364.924086 
L 137.496771 364.565557 
L 138.337053 365.095556 
L 139.177335 364.920189 
L 140.017618 365.107247 
L 140.8579 364.943571 
L 143.378746 365.10335 
L 144.219028 364.93188 
L 149.260721 364.935777 
L 150.101003 364.853939 
L 150.941285 365.029306 
L 152.62185 364.951365 
L 154.302414 364.982542 
L 155.982978 365.115041 
L 156.82326 365.072174 
L 157.663542 364.889012 
L 158.503824 364.904601 
L 159.344107 363.825118 
L 160.184389 364.070632 
L 161.024671 364.994233 
L 161.864953 365.091659 
L 162.705235 364.963056 
L 166.066364 364.881218 
L 167.746928 364.834454 
L 168.58721 364.990336 
L 169.427492 364.869527 
L 171.948339 364.795483 
L 172.788621 364.963056 
L 174.469185 364.912395 
L 176.990031 364.990336 
L 177.830313 360.594462 
L 178.670596 364.811071 
L 180.35116 364.861733 
L 182.031724 364.873424 
L 182.872006 364.892909 
L 183.712288 364.25769 
L 184.552571 365.029306 
L 185.392853 365.10335 
L 186.233135 364.966953 
L 187.073417 365.165703 
L 187.913699 364.924086 
L 188.753981 364.963056 
L 189.594263 365.118938 
L 190.434545 365.150115 
L 191.274828 364.86563 
L 192.11511 363.906956 
L 192.955392 364.479822 
L 193.795674 364.853939 
L 195.476238 364.744822 
L 196.31652 364.775998 
L 197.997085 364.444749 
L 199.677649 365.142321 
L 201.358213 364.916292 
L 203.038777 364.994233 
L 203.87906 364.304455 
L 204.719342 364.814968 
L 205.559624 364.686366 
L 206.399906 364.86563 
L 207.240188 364.857836 
L 208.08047 364.401881 
L 208.920752 364.73313 
L 209.761034 364.616219 
L 210.601317 364.830557 
L 211.441599 364.814968 
L 212.281881 364.924086 
L 213.122163 364.82666 
L 215.643009 364.900704 
L 217.323574 364.869527 
L 218.163856 364.413572 
L 219.004138 364.877321 
L 221.524984 364.850042 
L 222.365266 364.448646 
L 223.205549 363.606883 
L 224.045831 364.877321 
L 224.886113 364.830557 
L 225.726395 364.499307 
L 226.566677 363.357471 
L 227.406959 364.818866 
L 228.247241 364.955262 
L 229.087524 364.900704 
L 230.768088 365.134527 
L 231.60837 364.624013 
L 233.288934 365.017615 
L 234.129216 364.869527 
L 235.809781 364.846145 
L 236.650063 364.546072 
L 237.490345 364.830557 
L 238.330627 364.624013 
L 239.170909 364.678572 
L 241.691755 365.305997 
L 242.532038 364.951365 
L 245.052884 365.072174 
L 245.893166 364.783792 
L 246.733448 365.138424 
L 247.57373 365.146218 
L 248.414013 365.0371 
L 249.254295 365.146218 
L 250.094577 364.834454 
L 255.976552 365.013718 
L 257.657116 364.62791 
L 258.497398 364.803277 
L 260.177962 364.86563 
L 261.018245 365.091659 
L 261.858527 359.811155 
L 262.698809 364.970851 
L 270.261348 364.935777 
L 271.10163 364.978645 
L 271.941912 364.811071 
L 274.462759 365.048792 
L 275.303041 364.873424 
L 281.185016 364.850042 
L 282.025298 364.592837 
L 282.86558 364.503204 
L 285.386426 364.596734 
L 286.226708 364.483719 
L 287.066991 313.623308 
L 287.907273 364.347322 
L 288.747555 364.682469 
L 290.428119 364.45644 
L 291.268401 347.465298 
L 292.108683 364.487616 
L 292.948966 364.464234 
L 293.789248 364.698057 
L 295.469812 364.557763 
L 296.310094 364.869527 
L 297.150376 364.807174 
L 297.990658 364.45644 
L 299.671223 364.834454 
L 300.511505 363.708206 
L 301.351787 364.647395 
L 303.032351 364.655189 
L 303.872633 364.491513 
L 304.712915 364.709748 
L 305.553197 364.748719 
L 307.233762 364.526587 
L 310.59489 364.779895 
L 311.435172 364.58894 
L 313.115737 364.682469 
L 314.796301 364.577248 
L 315.636583 364.713645 
L 316.476865 364.557763 
L 317.317147 304.434062 
L 318.157429 364.635704 
L 318.997712 364.530484 
L 319.837994 364.546072 
L 320.678276 364.857836 
L 321.518558 364.643498 
L 322.35884 364.744822 
L 324.039404 364.596734 
L 324.879687 364.73313 
L 325.719969 364.612322 
L 327.400533 364.573351 
L 328.240815 364.76041 
L 329.081097 364.565557 
L 329.921379 364.526587 
L 331.601944 364.573351 
L 332.442226 364.616219 
L 333.282508 364.460337 
L 334.963072 364.670778 
L 335.803354 364.549969 
L 336.643636 364.616219 
L 337.483918 364.935777 
L 338.324201 364.468131 
L 339.164483 364.659086 
L 341.685329 364.585042 
L 345.046458 364.581145 
L 345.88674 358.595275 
L 346.727022 364.304455 
L 347.567304 364.526587 
L 349.247868 364.581145 
L 350.08815 364.479822 
L 350.928433 364.514896 
L 351.768715 364.850042 
L 352.608997 364.503204 
L 353.449279 361.58821 
L 354.289561 364.565557 
L 355.970125 364.503204 
L 356.810408 364.647395 
L 357.65069 364.581145 
L 358.490972 364.73313 
L 359.331254 364.674675 
L 360.171536 361.405049 
L 361.011818 364.783792 
L 361.8521 364.662983 
L 362.692382 364.76041 
L 366.893793 364.491513 
L 368.574357 364.643498 
L 370.254922 364.608425 
L 371.095204 364.713645 
L 371.935486 364.686366 
L 372.775768 364.939674 
L 374.456332 364.647395 
L 376.136897 364.526587 
L 376.977179 364.370705 
L 379.498025 364.725336 
L 382.859154 364.526587 
L 383.699436 364.842248 
L 384.539718 364.596734 
L 385.38 364.963056 
L 387.060564 364.853939 
L 387.900846 365.021512 
L 392.102257 364.775998 
L 393.782821 364.807174 
L 395.463386 365.005924 
L 397.14395 364.670778 
L 397.984232 364.721439 
L 398.824514 365.048792 
L 399.664796 364.744822 
L 400.505078 365.025409 
L 401.345361 365.099453 
L 404.706489 364.951365 
L 405.546771 365.10335 
L 406.387053 364.842248 
L 408.067618 365.079968 
L 409.748182 364.955262 
L 410.588464 365.072174 
L 411.428746 364.861733 
L 412.269028 364.869527 
L 413.10931 365.076071 
L 413.949592 364.947468 
L 414.789875 365.13063 
L 415.630157 364.811071 
L 416.470439 364.986439 
L 418.151003 365.017615 
L 418.991285 365.286512 
L 419.831567 364.974748 
L 420.67185 365.177394 
L 421.512132 364.951365 
L 422.352414 365.040997 
L 424.87326 364.838351 
L 425.713542 365.029306 
L 427.394107 364.939674 
L 428.234389 364.748719 
L 429.074671 364.740925 
L 429.914953 360.999756 
L 430.755235 365.013718 
L 432.435799 365.251438 
L 433.276082 365.087762 
L 434.116364 365.255335 
L 434.956646 365.079968 
L 436.63721 365.204674 
L 437.477492 364.853939 
L 439.158056 364.93188 
L 439.998339 365.107247 
L 442.519185 365.060483 
L 445.880313 365.095556 
L 446.720596 364.896807 
L 447.560878 365.150115 
L 450.081724 365.0371 
L 450.922006 364.472028 
L 452.602571 364.846145 
L 454.283135 365.013718 
L 455.123417 364.861733 
L 459.324828 364.86563 
L 460.16511 365.017615 
L 461.005392 364.889012 
L 461.845674 365.111144 
L 462.685956 365.033203 
L 463.526238 364.818866 
L 466.047085 364.869527 
L 466.887367 364.117396 
L 467.727649 365.033203 
L 468.567931 364.853939 
L 469.408213 364.861733 
L 470.248495 364.674675 
L 471.088777 364.916292 
L 471.92906 365.013718 
L 473.609624 364.752616 
L 474.449906 364.830557 
L 476.13047 363.404236 
L 476.970752 364.873424 
L 479.491599 364.916292 
L 480.331881 365.017615 
L 481.172163 364.889012 
L 482.852727 364.768204 
L 483.693009 364.082323 
L 484.533292 364.885115 
L 485.373574 364.850042 
L 486.213856 364.452543 
L 487.054138 364.838351 
L 487.89442 364.885115 
L 488.734702 364.436955 
L 489.574984 364.803277 
L 491.255549 364.920189 
L 492.095831 365.146218 
L 492.936113 364.775998 
L 494.616677 364.873424 
L 495.456959 364.507101 
L 496.297241 364.861733 
L 499.65837 364.787689 
L 500.498652 364.382396 
L 501.338934 364.518793 
L 502.179216 364.850042 
L 503.019498 364.842248 
L 503.859781 364.374602 
L 504.700063 365.025409 
L 505.540345 364.838351 
L 506.380627 364.924086 
L 507.220909 364.698057 
L 508.901473 364.822763 
L 510.582038 364.86563 
L 511.42232 364.448646 
L 512.262602 364.814968 
L 513.102884 364.822763 
L 513.943166 360.473654 
L 514.783448 364.842248 
L 517.304295 364.86563 
L 518.144577 364.577248 
L 518.984859 364.846145 
L 519.825141 364.612322 
L 522.345987 365.107247 
L 523.18627 364.881218 
L 524.026552 365.056586 
L 524.866834 364.834454 
L 525.707116 364.82666 
L 526.547398 364.612322 
L 527.38768 364.596734 
L 528.227962 362.122106 
L 529.068245 364.853939 
L 530.748809 364.822763 
L 531.589091 364.994233 
L 532.429373 365.033203 
L 533.269655 364.834454 
L 534.109937 365.013718 
L 534.950219 364.853939 
L 535.790502 365.009821 
L 536.630784 364.464234 
L 537.471066 364.58894 
L 538.311348 364.468131 
L 539.15163 364.857836 
L 539.991912 364.838351 
L 540.832194 364.421366 
L 541.672476 364.401881 
L 542.512759 364.853939 
L 543.353041 364.69416 
L 544.193323 364.670778 
L 545.033605 364.861733 
L 545.873887 364.787689 
L 546.714169 364.881218 
L 548.394734 364.869527 
L 549.235016 363.840706 
L 550.075298 364.830557 
L 551.755862 364.877321 
L 552.596144 364.631807 
L 553.436426 364.869527 
L 554.276708 364.355116 
L 555.116991 364.912395 
L 556.797555 364.807174 
L 557.637837 364.853939 
L 558.478119 364.242102 
L 559.318401 364.401881 
L 560.158683 364.869527 
L 560.998966 364.990336 
L 561.839248 364.129088 
L 562.67953 364.869527 
L 563.519812 365.161806 
L 565.200376 364.608425 
L 566.040658 364.834454 
L 569.401787 364.86563 
L 570.242069 364.729233 
L 571.082351 364.234308 
L 571.922633 364.986439 
L 572.762915 364.853939 
L 573.603197 365.021512 
L 574.44348 364.737027 
L 576.124044 364.830557 
L 578.64489 364.861733 
L 579.485172 364.510999 
L 581.165737 364.378499 
L 582.006019 364.86563 
L 586.207429 364.842248 
L 587.047712 364.577248 
L 587.887994 364.885115 
L 591.249122 364.869527 
L 592.089404 364.600631 
L 593.769969 365.013718 
L 594.610251 364.604528 
L 595.450533 364.853939 
L 596.290815 364.772101 
L 597.131097 365.033203 
L 597.971379 361.634975 
L 598.811661 364.79938 
L 601.332508 364.861733 
L 603.853354 364.86563 
L 604.693636 364.604528 
L 606.374201 365.052689 
L 607.214483 364.366808 
L 608.054765 365.208571 
L 608.895047 363.614677 
L 609.735329 364.86563 
L 610.575611 364.842248 
L 611.415893 364.355116 
L 612.256176 364.113499 
L 613.096458 364.62791 
L 613.93674 364.935777 
L 614.777022 364.210926 
L 615.617304 364.857836 
L 616.457586 364.569454 
L 617.297868 364.830557 
L 618.978433 364.853939 
L 619.818715 364.491513 
L 620.658997 364.45644 
L 621.499279 364.830557 
L 622.339561 364.612322 
L 624.020125 365.017615 
L 624.860408 364.479822 
L 625.70069 364.869527 
L 628.221536 364.861733 
L 629.061818 364.861733 
L 629.9021 364.300558 
L 630.742382 364.830557 
L 633.263229 364.86563 
L 635.784075 364.869527 
L 636.624357 365.009821 
L 638.304922 364.592837 
L 639.145204 365.005924 
L 639.985486 364.82666 
L 640.825768 364.355116 
L 641.66605 364.861733 
L 644.186897 364.79938 
L 645.027179 364.873424 
L 645.867461 364.460337 
L 646.707743 364.86563 
L 649.228589 364.853939 
L 651.749436 364.768204 
L 652.589718 364.090117 
L 653.43 364.830557 
L 654.270282 364.222617 
L 655.110564 364.655189 
L 655.950846 364.662983 
L 656.791129 364.869527 
L 657.631411 364.737027 
L 659.311975 364.86563 
L 660.152257 364.397984 
L 660.992539 365.013718 
L 661.832821 364.577248 
L 662.673103 364.850042 
L 669.395361 364.869527 
L 670.235643 364.787689 
L 671.075925 364.846145 
L 671.916207 364.744822 
L 672.756489 364.889012 
L 673.596771 364.721439 
L 674.437053 365.052689 
L 675.277335 365.025409 
L 676.117618 364.834454 
L 677.798182 364.885115 
L 677.798182 364.885115 
" clip-path="url(#p403c64ccfe)" style="fill: none; stroke-dasharray: 3.2,0.8,0.5,0.8; stroke-dashoffset: 0; stroke: #c44e52; stroke-opacity: 0.7; stroke-width: 0.5"/>
   </g>
   <g id="line2d_21">
    <path d="M 92.961818 365.71129 
L 98.843793 365.73857 
L 121.531411 365.742467 
L 229.087524 365.73857 
L 229.927806 365.594379 
L 230.768088 365.742467 
L 677.798182 365.73857 
L 677.798182 365.73857 
" clip-path="url(#p403c64ccfe)" style="fill: none; stroke-dasharray: 0.5,0.825; stroke-dashoffset: 0; stroke: #64b5cd; stroke-opacity: 0.7; stroke-width: 0.5"/>
   </g>
   <g id="line2d_22">
    <path d="M 92.961818 365.029306 
L 93.8021 365.263129 
L 94.642382 365.06438 
L 102.204922 365.13063 
L 103.045204 364.990336 
L 103.885486 365.157909 
L 104.725768 364.986439 
L 105.56605 364.955262 
L 106.406332 364.440852 
L 107.246614 365.017615 
L 110.607743 365.204674 
L 111.448025 365.095556 
L 112.288307 365.317688 
L 116.489718 365.23585 
L 117.33 365.282615 
L 118.170282 364.959159 
L 119.010564 365.068277 
L 119.850846 364.896807 
L 120.691129 365.009821 
L 121.531411 365.313791 
L 122.371693 365.033203 
L 124.052257 365.177394 
L 124.892539 365.095556 
L 126.573103 365.068277 
L 127.413386 364.779895 
L 128.253668 365.087762 
L 131.614796 365.228056 
L 133.295361 364.768204 
L 134.135643 362.578061 
L 134.975925 365.068277 
L 135.816207 364.795483 
L 136.656489 365.10335 
L 137.496771 365.122835 
L 138.337053 365.27482 
L 139.177335 365.095556 
L 140.017618 365.267026 
L 140.8579 365.079968 
L 141.698182 365.115041 
L 142.538464 365.282615 
L 143.378746 365.267026 
L 144.219028 365.091659 
L 147.580157 365.243644 
L 148.420439 364.678572 
L 149.260721 365.025409 
L 150.101003 364.966953 
L 150.941285 365.06438 
L 151.781567 364.955262 
L 152.62185 364.448646 
L 153.462132 364.877321 
L 154.302414 365.087762 
L 155.982978 365.138424 
L 156.82326 364.955262 
L 159.344107 365.033203 
L 160.184389 364.635704 
L 161.024671 365.138424 
L 161.864953 365.278718 
L 163.545517 364.963056 
L 164.385799 365.157909 
L 166.066364 364.892909 
L 166.906646 365.033203 
L 167.746928 364.752616 
L 168.58721 365.243644 
L 169.427492 365.072174 
L 173.628903 365.025409 
L 174.469185 364.93188 
L 175.309467 365.181291 
L 176.149749 362.788502 
L 176.990031 364.93188 
L 177.830313 365.154012 
L 179.510878 365.060483 
L 182.872006 365.10335 
L 183.712288 364.885115 
L 184.552571 365.204674 
L 185.392853 365.270923 
L 186.233135 365.122835 
L 187.073417 365.294306 
L 187.913699 365.099453 
L 190.434545 365.247541 
L 191.274828 365.087762 
L 192.11511 365.091659 
L 192.955392 364.853939 
L 193.795674 365.072174 
L 197.156803 365.072174 
L 197.997085 364.838351 
L 198.837367 364.818866 
L 199.677649 365.228056 
L 202.198495 365.087762 
L 203.038777 365.13063 
L 204.719342 365.029306 
L 207.240188 364.896807 
L 208.08047 364.775998 
L 208.920752 365.079968 
L 209.761034 364.717542 
L 210.601317 365.052689 
L 213.122163 365.079968 
L 213.962445 364.783792 
L 215.643009 365.083865 
L 217.323574 365.076071 
L 218.163856 361.861004 
L 219.004138 365.095556 
L 221.524984 365.072174 
L 222.365266 364.86563 
L 223.205549 365.079968 
L 224.886113 365.029306 
L 225.726395 364.857836 
L 226.566677 364.82666 
L 227.406959 364.277175 
L 228.247241 365.10335 
L 229.087524 364.959159 
L 230.768088 365.23585 
L 231.60837 364.791586 
L 232.448652 365.076071 
L 233.288934 365.189085 
L 234.129216 365.068277 
L 235.809781 365.076071 
L 236.650063 364.939674 
L 237.490345 365.048792 
L 238.330627 364.869527 
L 239.170909 365.044894 
L 240.011191 365.087762 
L 241.691755 365.376144 
L 242.532038 365.091659 
L 245.052884 365.021512 
L 245.893166 364.775998 
L 246.733448 365.243644 
L 247.57373 365.142321 
L 249.254295 365.247541 
L 250.094577 365.025409 
L 251.775141 365.056586 
L 254.295987 365.068277 
L 255.13627 365.220262 
L 255.976552 365.146218 
L 256.816834 364.939674 
L 257.657116 365.095556 
L 258.497398 365.029306 
L 259.33768 365.079968 
L 260.177962 362.796296 
L 261.018245 365.263129 
L 262.698809 365.118938 
L 263.539091 365.10335 
L 264.379373 364.927983 
L 266.059937 365.138424 
L 267.740502 365.091659 
L 268.580784 365.079968 
L 269.421066 364.955262 
L 271.10163 365.13063 
L 271.941912 365.0371 
L 274.462759 365.239747 
L 275.303041 364.822763 
L 276.143323 365.068277 
L 277.823887 365.079968 
L 278.664169 364.814968 
L 279.504451 365.056586 
L 282.86558 364.978645 
L 283.705862 364.900704 
L 284.546144 365.06438 
L 285.386426 364.951365 
L 286.226708 364.99813 
L 287.907273 364.737027 
L 288.747555 365.118938 
L 290.428119 364.803277 
L 291.268401 364.955262 
L 292.108683 364.889012 
L 294.62953 365.044894 
L 295.469812 364.978645 
L 296.310094 365.157909 
L 297.150376 364.982542 
L 299.671223 365.126733 
L 300.511505 364.846145 
L 301.351787 365.005924 
L 302.192069 362.718355 
L 303.032351 365.017615 
L 306.39348 365.056586 
L 307.233762 364.850042 
L 308.074044 365.118938 
L 309.754608 365.0371 
L 310.59489 365.10335 
L 311.435172 364.850042 
L 312.275455 364.990336 
L 313.115737 364.873424 
L 313.956019 365.0371 
L 315.636583 365.091659 
L 317.317147 364.775998 
L 318.157429 365.025409 
L 319.837994 365.048792 
L 320.678276 365.107247 
L 321.518558 365.0371 
L 322.35884 365.138424 
L 324.039404 364.990336 
L 324.879687 365.06438 
L 325.719969 364.994233 
L 326.560251 365.099453 
L 327.400533 364.974748 
L 328.240815 365.115041 
L 329.921379 364.892909 
L 330.761661 365.002027 
L 334.12279 364.982542 
L 334.963072 365.060483 
L 335.803354 364.86563 
L 337.483918 365.126733 
L 338.324201 364.99813 
L 341.685329 365.040997 
L 343.365893 365.048792 
L 344.206176 253.043653 
L 345.046458 365.017615 
L 345.88674 365.068277 
L 347.567304 364.990336 
L 349.247868 364.990336 
L 350.08815 364.807174 
L 350.928433 364.818866 
L 351.768715 365.161806 
L 352.608997 365.072174 
L 353.449279 363.78225 
L 354.289561 364.994233 
L 355.129843 364.822763 
L 355.970125 364.99813 
L 357.65069 365.017615 
L 358.490972 365.076071 
L 360.171536 364.900704 
L 361.011818 365.087762 
L 361.8521 365.091659 
L 362.692382 364.76041 
L 363.532665 365.072174 
L 364.372947 365.181291 
L 365.213229 365.013718 
L 369.414639 365.009821 
L 373.61605 365.111144 
L 374.456332 365.021512 
L 376.136897 365.083865 
L 378.657743 364.756513 
L 379.498025 365.091659 
L 381.178589 365.052689 
L 382.018871 364.772101 
L 382.859154 364.966953 
L 384.539718 365.009821 
L 385.38 365.189085 
L 386.220282 363.24056 
L 387.060564 365.134527 
L 388.741129 365.196879 
L 392.102257 365.10335 
L 393.782821 365.091659 
L 394.623103 365.224159 
L 395.463386 365.13063 
L 396.303668 365.247541 
L 397.14395 364.908498 
L 397.984232 365.025409 
L 398.824514 365.263129 
L 399.664796 364.951365 
L 400.505078 365.212468 
L 402.185643 365.247541 
L 403.025925 365.278718 
L 403.866207 365.044894 
L 404.706489 365.056586 
L 405.546771 365.27482 
L 406.387053 365.076071 
L 408.067618 365.278718 
L 409.748182 365.13063 
L 410.588464 365.263129 
L 411.428746 364.904601 
L 412.269028 364.951365 
L 413.10931 365.278718 
L 413.949592 365.091659 
L 414.789875 365.294306 
L 415.630157 365.040997 
L 417.310721 365.138424 
L 418.151003 365.111144 
L 418.991285 365.329379 
L 419.831567 365.192982 
L 420.67185 365.317688 
L 421.512132 364.986439 
L 422.352414 365.154012 
L 423.192696 365.009821 
L 424.032978 365.10335 
L 425.713542 365.115041 
L 426.553824 365.13063 
L 427.394107 364.947468 
L 428.234389 326.25365 
L 429.074671 365.079968 
L 429.914953 365.181291 
L 430.755235 365.111144 
L 432.435799 365.352761 
L 433.276082 365.146218 
L 434.116364 365.348864 
L 434.956646 365.177394 
L 436.63721 365.278718 
L 437.477492 365.056586 
L 439.158056 365.083865 
L 439.998339 365.294306 
L 441.678903 365.157909 
L 442.519185 365.1696 
L 443.359467 365.056586 
L 447.560878 365.239747 
L 448.40116 364.982542 
L 450.081724 365.161806 
L 450.922006 363.790044 
L 451.762288 365.072174 
L 453.442853 365.079968 
L 454.283135 365.231953 
L 455.123417 365.087762 
L 457.644263 365.083865 
L 458.484545 364.366808 
L 459.324828 365.056586 
L 460.16511 365.154012 
L 461.005392 364.970851 
L 461.845674 365.208571 
L 462.685956 365.224159 
L 463.526238 365.0371 
L 465.206803 365.099453 
L 466.047085 365.099453 
L 466.887367 364.853939 
L 467.727649 365.212468 
L 468.567931 365.048792 
L 469.408213 365.056586 
L 470.248495 341.09362 
L 471.088777 365.091659 
L 472.769342 365.091659 
L 473.609624 364.857836 
L 474.449906 365.029306 
L 475.290188 364.986439 
L 476.13047 364.705851 
L 477.811034 365.091659 
L 480.331881 365.146218 
L 481.172163 364.818866 
L 482.012445 365.076071 
L 482.852727 365.0371 
L 483.693009 364.768204 
L 484.533292 365.087762 
L 485.373574 365.025409 
L 486.213856 364.822763 
L 487.054138 365.002027 
L 487.89442 365.040997 
L 488.734702 364.448646 
L 489.574984 365.087762 
L 491.255549 365.068277 
L 492.095831 365.243644 
L 492.936113 364.740925 
L 494.616677 365.095556 
L 497.977806 365.002027 
L 499.65837 365.072174 
L 500.498652 364.86563 
L 502.179216 365.087762 
L 503.019498 364.982542 
L 503.859781 364.608425 
L 504.700063 365.033203 
L 506.380627 365.091659 
L 507.220909 364.900704 
L 508.901473 364.955262 
L 509.741755 364.698057 
L 511.42232 364.846145 
L 512.262602 362.905414 
L 513.102884 365.048792 
L 513.943166 365.173497 
L 514.783448 365.033203 
L 518.144577 365.025409 
L 518.984859 364.82666 
L 519.825141 363.930338 
L 520.665423 365.029306 
L 522.345987 365.189085 
L 523.18627 365.087762 
L 524.026552 365.228056 
L 524.866834 365.029306 
L 525.707116 365.079968 
L 526.547398 364.764307 
L 527.38768 365.083865 
L 528.227962 364.982542 
L 529.068245 365.099453 
L 531.589091 365.192982 
L 532.429373 365.216365 
L 533.269655 365.044894 
L 534.109937 365.052689 
L 534.950219 364.686366 
L 535.790502 365.181291 
L 536.630784 364.869527 
L 537.471066 364.970851 
L 538.311348 364.869527 
L 539.15163 365.087762 
L 539.991912 365.107247 
L 540.832194 364.82666 
L 541.672476 364.772101 
L 544.193323 365.091659 
L 545.033605 364.436955 
L 545.873887 365.029306 
L 548.394734 365.083865 
L 549.235016 364.846145 
L 550.075298 364.846145 
L 550.91558 365.083865 
L 553.436426 365.076071 
L 554.276708 361.514166 
L 555.116991 365.091659 
L 555.957273 364.822763 
L 556.797555 365.017615 
L 557.637837 365.076071 
L 558.478119 364.674675 
L 559.318401 364.397984 
L 560.158683 365.099453 
L 560.998966 365.220262 
L 561.839248 364.846145 
L 563.519812 365.298203 
L 564.360094 364.912395 
L 565.200376 364.362911 
L 566.040658 365.056586 
L 570.242069 364.966953 
L 571.082351 364.795483 
L 571.922633 365.196879 
L 572.762915 365.079968 
L 573.603197 365.228056 
L 575.283762 364.822763 
L 576.124044 365.033203 
L 579.485172 365.005924 
L 581.165737 364.787689 
L 582.006019 365.079968 
L 582.846301 364.881218 
L 586.207429 365.040997 
L 590.40884 365.095556 
L 591.249122 365.095556 
L 592.089404 364.811071 
L 592.929687 364.807174 
L 593.769969 364.955262 
L 594.610251 364.951365 
L 595.450533 365.107247 
L 596.290815 362.846958 
L 597.131097 365.220262 
L 601.332508 364.959159 
L 602.17279 365.091659 
L 605.533918 365.056586 
L 606.374201 365.173497 
L 607.214483 364.639601 
L 608.054765 365.228056 
L 608.895047 365.044894 
L 610.575611 365.076071 
L 611.415893 364.238205 
L 612.256176 364.822763 
L 613.096458 365.083865 
L 613.93674 365.10335 
L 614.777022 364.811071 
L 615.617304 365.079968 
L 618.978433 365.072174 
L 619.818715 365.216365 
L 620.658997 364.857836 
L 621.499279 365.040997 
L 622.339561 365.095556 
L 624.020125 365.068277 
L 624.860408 364.487616 
L 625.70069 365.091659 
L 626.540972 364.861733 
L 627.381254 365.10335 
L 628.221536 364.955262 
L 629.061818 364.994233 
L 629.9021 364.737027 
L 630.742382 365.044894 
L 634.103511 365.083865 
L 634.943793 365.087762 
L 635.784075 364.721439 
L 636.624357 365.200777 
L 637.464639 365.056586 
L 638.304922 363.10806 
L 639.145204 365.220262 
L 639.985486 364.99813 
L 640.825768 364.308352 
L 641.66605 365.072174 
L 642.506332 364.842248 
L 644.186897 365.076071 
L 645.867461 364.850042 
L 646.707743 364.787689 
L 647.548025 365.048792 
L 649.228589 365.044894 
L 651.749436 365.091659 
L 652.589718 363.805632 
L 653.43 364.978645 
L 654.270282 364.846145 
L 655.110564 365.044894 
L 656.791129 365.091659 
L 657.631411 364.542175 
L 658.471693 365.076071 
L 659.311975 365.072174 
L 660.152257 364.764307 
L 660.992539 365.216365 
L 661.832821 364.386293 
L 662.673103 365.083865 
L 663.513386 364.853939 
L 664.353668 364.834454 
L 665.19395 364.994233 
L 666.034232 364.982542 
L 666.874514 365.091659 
L 668.555078 365.091659 
L 669.395361 364.803277 
L 670.235643 365.009821 
L 671.075925 365.087762 
L 671.916207 365.040997 
L 672.756489 364.397984 
L 673.596771 364.943571 
L 674.437053 365.181291 
L 675.277335 365.216365 
L 676.9579 364.892909 
L 677.798182 365.087762 
L 677.798182 365.087762 
" clip-path="url(#p403c64ccfe)" style="fill: none; stroke: #ccb974; stroke-opacity: 0.7; stroke-width: 0.5; stroke-linecap: round"/>
   </g>
   <g id="patch_3">
    <path d="M 63.72 381.78 
L 63.72 29.04 
" style="fill: none; stroke: #ffffff; stroke-width: 1.25; stroke-linejoin: miter; stroke-linecap: square"/>
   </g>
   <g id="patch_4">
    <path d="M 707.04 381.78 
L 707.04 29.04 
" style="fill: none; stroke: #ffffff; stroke-width: 1.25; stroke-linejoin: miter; stroke-linecap: square"/>
   </g>
   <g id="patch_5">
    <path d="M 63.72 381.78 
L 707.04 381.78 
" style="fill: none; stroke: #ffffff; stroke-width: 1.25; stroke-linejoin: miter; stroke-linecap: square"/>
   </g>
   <g id="patch_6">
    <path d="M 63.72 29.04 
L 707.04 29.04 
" style="fill: none; stroke: #ffffff; stroke-width: 1.25; stroke-linejoin: miter; stroke-linecap: square"/>
   </g>
   <g id="text_20">
    <!-- Loop Time -->
    <g style="fill: #262626" transform="translate(354.403125 23.04) scale(0.12 -0.12)">
     <defs>
      <path id="DejaVuSans-4c" d="M 628 4666 
L 1259 4666 
L 1259 531 
L 3531 531 
L 3531 0 
L 628 0 
L 628 4666 
z
" transform="scale(0.015625)"/>
      <path id="DejaVuSans-70" d="M 1159 525 
L 1159 -1331 
L 581 -1331 
L 581 3500 
L 1159 3500 
L 1159 2969 
Q 1341 3281 1617 3432 
Q 1894 3584 2278 3584 
Q 2916 3584 3314 3078 
Q 3713 2572 3713 1747 
Q 3713 922 3314 415 
Q 2916 -91 2278 -91 
Q 1894 -91 1617 61 
Q 1341 213 1159 525 
z
M 3116 1747 
Q 3116 2381 2855 2742 
Q 2594 3103 2138 3103 
Q 1681 3103 1420 2742 
Q 1159 2381 1159 1747 
Q 1159 1113 1420 752 
Q 1681 391 2138 391 
Q 2594 391 2855 752 
Q 3116 1113 3116 1747 
z
" transform="scale(0.015625)"/>
     </defs>
     <use xlink:href="#DejaVuSans-4c"/>
     <use xlink:href="#DejaVuSans-6f" transform="translate(53.962891 0)"/>
     <use xlink:href="#DejaVuSans-6f" transform="translate(115.144531 0)"/>
     <use xlink:href="#DejaVuSans-70" transform="translate(176.326172 0)"/>
     <use xlink:href="#DejaVuSans-20" transform="translate(239.802734 0)"/>
     <use xlink:href="#DejaVuSans-54" transform="translate(271.589844 0)"/>
     <use xlink:href="#DejaVuSans-69" transform="translate(329.548828 0)"/>
     <use xlink:href="#DejaVuSans-6d" transform="translate(357.332031 0)"/>
     <use xlink:href="#DejaVuSans-65" transform="translate(454.744141 0)"/>
    </g>
   </g>
   <g id="legend_1">
    <g id="patch_7">
     <path d="M 607.969531 119.793437 
L 699.34 119.793437 
Q 701.54 119.793437 701.54 117.593437 
L 701.54 36.74 
Q 701.54 34.54 699.34 34.54 
L 607.969531 34.54 
Q 605.769531 34.54 605.769531 36.74 
L 605.769531 117.593437 
Q 605.769531 119.793437 607.969531 119.793437 
z
" style="fill: #eaeaf2; opacity: 0.8; stroke: #cccccc; stroke-linejoin: miter"/>
    </g>
    <g id="line2d_23">
     <path d="M 610.169531 43.448281 
L 621.169531 43.448281 
L 632.169531 43.448281 
" style="fill: none; stroke: #4c72b0; stroke-opacity: 0.7; stroke-width: 0.5; stroke-linecap: round"/>
    </g>
    <g id="text_21">
     <!-- obs_time -->
     <g style="fill: #262626" transform="translate(640.969531 47.298281) scale(0.11 -0.11)">
      <defs>
       <path id="DejaVuSans-62" d="M 3116 1747 
Q 3116 2381 2855 2742 
Q 2594 3103 2138 3103 
Q 1681 3103 1420 2742 
Q 1159 2381 1159 1747 
Q 1159 1113 1420 752 
Q 1681 391 2138 391 
Q 2594 391 2855 752 
Q 3116 1113 3116 1747 
z
M 1159 2969 
Q 1341 3281 1617 3432 
Q 1894 3584 2278 3584 
Q 2916 3584 3314 3078 
Q 3713 2572 3713 1747 
Q 3713 922 3314 415 
Q 2916 -91 2278 -91 
Q 1894 -91 1617 61 
Q 1341 213 1159 525 
L 1159 0 
L 581 0 
L 581 4863 
L 1159 4863 
L 1159 2969 
z
" transform="scale(0.015625)"/>
       <path id="DejaVuSans-5f" d="M 3263 -1063 
L 3263 -1509 
L -63 -1509 
L -63 -1063 
L 3263 -1063 
z
" transform="scale(0.015625)"/>
      </defs>
      <use xlink:href="#DejaVuSans-6f"/>
      <use xlink:href="#DejaVuSans-62" transform="translate(61.181641 0)"/>
      <use xlink:href="#DejaVuSans-73" transform="translate(124.658203 0)"/>
      <use xlink:href="#DejaVuSans-5f" transform="translate(176.757812 0)"/>
      <use xlink:href="#DejaVuSans-74" transform="translate(226.757812 0)"/>
      <use xlink:href="#DejaVuSans-69" transform="translate(265.966797 0)"/>
      <use xlink:href="#DejaVuSans-6d" transform="translate(293.75 0)"/>
      <use xlink:href="#DejaVuSans-65" transform="translate(391.162109 0)"/>
     </g>
    </g>
    <g id="line2d_24">
     <path d="M 610.169531 59.900156 
L 621.169531 59.900156 
L 632.169531 59.900156 
" style="fill: none; stroke-dasharray: 1.85,0.8; stroke-dashoffset: 0; stroke: #55a868; stroke-opacity: 0.7; stroke-width: 0.5"/>
    </g>
    <g id="text_22">
     <!-- inference -->
     <g style="fill: #262626" transform="translate(640.969531 63.750156) scale(0.11 -0.11)">
      <defs>
       <path id="DejaVuSans-66" d="M 2375 4863 
L 2375 4384 
L 1825 4384 
Q 1516 4384 1395 4259 
Q 1275 4134 1275 3809 
L 1275 3500 
L 2222 3500 
L 2222 3053 
L 1275 3053 
L 1275 0 
L 697 0 
L 697 3053 
L 147 3053 
L 147 3500 
L 697 3500 
L 697 3744 
Q 697 4328 969 4595 
Q 1241 4863 1831 4863 
L 2375 4863 
z
" transform="scale(0.015625)"/>
       <path id="DejaVuSans-63" d="M 3122 3366 
L 3122 2828 
Q 2878 2963 2633 3030 
Q 2388 3097 2138 3097 
Q 1578 3097 1268 2742 
Q 959 2388 959 1747 
Q 959 1106 1268 751 
Q 1578 397 2138 397 
Q 2388 397 2633 464 
Q 2878 531 3122 666 
L 3122 134 
Q 2881 22 2623 -34 
Q 2366 -91 2075 -91 
Q 1284 -91 818 406 
Q 353 903 353 1747 
Q 353 2603 823 3093 
Q 1294 3584 2113 3584 
Q 2378 3584 2631 3529 
Q 2884 3475 3122 3366 
z
" transform="scale(0.015625)"/>
      </defs>
      <use xlink:href="#DejaVuSans-69"/>
      <use xlink:href="#DejaVuSans-6e" transform="translate(27.783203 0)"/>
      <use xlink:href="#DejaVuSans-66" transform="translate(91.162109 0)"/>
      <use xlink:href="#DejaVuSans-65" transform="translate(126.367188 0)"/>
      <use xlink:href="#DejaVuSans-72" transform="translate(187.890625 0)"/>
      <use xlink:href="#DejaVuSans-65" transform="translate(226.753906 0)"/>
      <use xlink:href="#DejaVuSans-6e" transform="translate(288.277344 0)"/>
      <use xlink:href="#DejaVuSans-63" transform="translate(351.65625 0)"/>
      <use xlink:href="#DejaVuSans-65" transform="translate(406.636719 0)"/>
     </g>
    </g>
    <g id="line2d_25">
     <path d="M 610.169531 76.046094 
L 621.169531 76.046094 
L 632.169531 76.046094 
" style="fill: none; stroke-dasharray: 3.2,0.8,0.5,0.8; stroke-dashoffset: 0; stroke: #c44e52; stroke-opacity: 0.7; stroke-width: 0.5"/>
    </g>
    <g id="text_23">
     <!-- set_action -->
     <g style="fill: #262626" transform="translate(640.969531 79.896094) scale(0.11 -0.11)">
      <use xlink:href="#DejaVuSans-73"/>
      <use xlink:href="#DejaVuSans-65" transform="translate(52.099609 0)"/>
      <use xlink:href="#DejaVuSans-74" transform="translate(113.623047 0)"/>
      <use xlink:href="#DejaVuSans-5f" transform="translate(152.832031 0)"/>
      <use xlink:href="#DejaVuSans-61" transform="translate(202.832031 0)"/>
      <use xlink:href="#DejaVuSans-63" transform="translate(264.111328 0)"/>
      <use xlink:href="#DejaVuSans-74" transform="translate(319.091797 0)"/>
      <use xlink:href="#DejaVuSans-69" transform="translate(358.300781 0)"/>
      <use xlink:href="#DejaVuSans-6f" transform="translate(386.083984 0)"/>
      <use xlink:href="#DejaVuSans-6e" transform="translate(447.265625 0)"/>
     </g>
    </g>
    <g id="line2d_26">
     <path d="M 610.169531 92.497969 
L 621.169531 92.497969 
L 632.169531 92.497969 
" style="fill: none; stroke-dasharray: 0.5,0.825; stroke-dashoffset: 0; stroke: #64b5cd; stroke-opacity: 0.7; stroke-width: 0.5"/>
    </g>
    <g id="text_24">
     <!-- sim_step -->
     <g style="fill: #262626" transform="translate(640.969531 96.347969) scale(0.11 -0.11)">
      <use xlink:href="#DejaVuSans-73"/>
      <use xlink:href="#DejaVuSans-69" transform="translate(52.099609 0)"/>
      <use xlink:href="#DejaVuSans-6d" transform="translate(79.882812 0)"/>
      <use xlink:href="#DejaVuSans-5f" transform="translate(177.294922 0)"/>
      <use xlink:href="#DejaVuSans-73" transform="translate(227.294922 0)"/>
      <use xlink:href="#DejaVuSans-74" transform="translate(279.394531 0)"/>
      <use xlink:href="#DejaVuSans-65" transform="translate(318.603516 0)"/>
      <use xlink:href="#DejaVuSans-70" transform="translate(380.126953 0)"/>
     </g>
    </g>
    <g id="line2d_27">
     <path d="M 610.169531 108.949844 
L 621.169531 108.949844 
L 632.169531 108.949844 
" style="fill: none; stroke: #ccb974; stroke-opacity: 0.7; stroke-width: 0.5; stroke-linecap: round"/>
    </g>
    <g id="text_25">
     <!-- log_time -->
     <g style="fill: #262626" transform="translate(640.969531 112.799844) scale(0.11 -0.11)">
      <defs>
       <path id="DejaVuSans-6c" d="M 603 4863 
L 1178 4863 
L 1178 0 
L 603 0 
L 603 4863 
z
" transform="scale(0.015625)"/>
       <path id="DejaVuSans-67" d="M 2906 1791 
Q 2906 2416 2648 2759 
Q 2391 3103 1925 3103 
Q 1463 3103 1205 2759 
Q 947 2416 947 1791 
Q 947 1169 1205 825 
Q 1463 481 1925 481 
Q 2391 481 2648 825 
Q 2906 1169 2906 1791 
z
M 3481 434 
Q 3481 -459 3084 -895 
Q 2688 -1331 1869 -1331 
Q 1566 -1331 1297 -1286 
Q 1028 -1241 775 -1147 
L 775 -588 
Q 1028 -725 1275 -790 
Q 1522 -856 1778 -856 
Q 2344 -856 2625 -561 
Q 2906 -266 2906 331 
L 2906 616 
Q 2728 306 2450 153 
Q 2172 0 1784 0 
Q 1141 0 747 490 
Q 353 981 353 1791 
Q 353 2603 747 3093 
Q 1141 3584 1784 3584 
Q 2172 3584 2450 3431 
Q 2728 3278 2906 2969 
L 2906 3500 
L 3481 3500 
L 3481 434 
z
" transform="scale(0.015625)"/>
      </defs>
      <use xlink:href="#DejaVuSans-6c"/>
      <use xlink:href="#DejaVuSans-6f" transform="translate(27.783203 0)"/>
      <use xlink:href="#DejaVuSans-67" transform="translate(88.964844 0)"/>
      <use xlink:href="#DejaVuSans-5f" transform="translate(152.441406 0)"/>
      <use xlink:href="#DejaVuSans-74" transform="translate(202.441406 0)"/>
      <use xlink:href="#DejaVuSans-69" transform="translate(241.650391 0)"/>
      <use xlink:href="#DejaVuSans-6d" transform="translate(269.433594 0)"/>
      <use xlink:href="#DejaVuSans-65" transform="translate(366.845703 0)"/>
     </g>
    </g>
   </g>
  </g>
 </g>
 <defs>
  <clipPath id="p403c64ccfe">
   <rect x="63.72" y="29.04" width="643.32" height="352.74"/>
  </clipPath>
 </defs>
</svg>
