<?xml version="1.0" encoding="utf-8" standalone="no"?>
<!DOCTYPE svg PUBLIC "-//W3C//DTD SVG 1.1//EN"
  "http://www.w3.org/Graphics/SVG/1.1/DTD/svg11.dtd">
<svg xmlns:xlink="http://www.w3.org/1999/xlink" width="1080pt" height="216pt" viewBox="0 0 1080 216" xmlns="http://www.w3.org/2000/svg" version="1.1">
 <metadata>
  <rdf:RDF xmlns:dc="http://purl.org/dc/elements/1.1/" xmlns:cc="http://creativecommons.org/ns#" xmlns:rdf="http://www.w3.org/1999/02/22-rdf-syntax-ns#">
   <cc:Work>
    <dc:type rdf:resource="http://purl.org/dc/dcmitype/StillImage"/>
    <dc:date>2025-06-10T09:06:13.280126</dc:date>
    <dc:format>image/svg+xml</dc:format>
    <dc:creator>
     <cc:Agent>
      <dc:title>Matplotlib v3.10.0, https://matplotlib.org/</dc:title>
     </cc:Agent>
    </dc:creator>
   </cc:Work>
  </rdf:RDF>
 </metadata>
 <defs>
  <style type="text/css">*{stroke-linejoin: round; stroke-linecap: butt}</style>
 </defs>
 <g id="figure_1">
  <g id="patch_1">
   <path d="M 0 216 
L 1080 216 
L 1080 0 
L 0 0 
z
" style="fill: #ffffff"/>
  </g>
  <g id="axes_1">
   <g id="patch_2">
    <path d="M 70.685116 165.78 
L 367.505077 165.78 
L 367.505077 29.04 
L 70.685116 29.04 
z
" style="fill: #eaeaf2"/>
   </g>
   <g id="matplotlib.axis_1">
    <g id="xtick_1">
     <g id="line2d_1">
      <path d="M 84.176932 165.78 
L 84.176932 29.04 
" clip-path="url(#pdebefe9515)" style="fill: none; stroke: #ffffff; stroke-linecap: round"/>
     </g>
     <g id="text_1">
      <!-- 0 -->
      <g style="fill: #262626" transform="translate(80.677557 183.638281) scale(0.11 -0.11)">
       <defs>
        <path id="DejaVuSans-30" d="M 2034 4250 
Q 1547 4250 1301 3770 
Q 1056 3291 1056 2328 
Q 1056 1369 1301 889 
Q 1547 409 2034 409 
Q 2525 409 2770 889 
Q 3016 1369 3016 2328 
Q 3016 3291 2770 3770 
Q 2525 4250 2034 4250 
z
M 2034 4750 
Q 2819 4750 3233 4129 
Q 3647 3509 3647 2328 
Q 3647 1150 3233 529 
Q 2819 -91 2034 -91 
Q 1250 -91 836 529 
Q 422 1150 422 2328 
Q 422 3509 836 4129 
Q 1250 4750 2034 4750 
z
" transform="scale(0.015625)"/>
       </defs>
       <use xlink:href="#DejaVuSans-30"/>
      </g>
     </g>
    </g>
    <g id="xtick_2">
     <g id="line2d_2">
      <path d="M 138.37639 165.78 
L 138.37639 29.04 
" clip-path="url(#pdebefe9515)" style="fill: none; stroke: #ffffff; stroke-linecap: round"/>
     </g>
     <g id="text_2">
      <!-- 5 -->
      <g style="fill: #262626" transform="translate(134.877015 183.638281) scale(0.11 -0.11)">
       <defs>
        <path id="DejaVuSans-35" d="M 691 4666 
L 3169 4666 
L 3169 4134 
L 1269 4134 
L 1269 2991 
Q 1406 3038 1543 3061 
Q 1681 3084 1819 3084 
Q 2600 3084 3056 2656 
Q 3513 2228 3513 1497 
Q 3513 744 3044 326 
Q 2575 -91 1722 -91 
Q 1428 -91 1123 -41 
Q 819 9 494 109 
L 494 744 
Q 775 591 1075 516 
Q 1375 441 1709 441 
Q 2250 441 2565 725 
Q 2881 1009 2881 1497 
Q 2881 1984 2565 2268 
Q 2250 2553 1709 2553 
Q 1456 2553 1204 2497 
Q 953 2441 691 2322 
L 691 4666 
z
" transform="scale(0.015625)"/>
       </defs>
       <use xlink:href="#DejaVuSans-35"/>
      </g>
     </g>
    </g>
    <g id="xtick_3">
     <g id="line2d_3">
      <path d="M 192.575847 165.78 
L 192.575847 29.04 
" clip-path="url(#pdebefe9515)" style="fill: none; stroke: #ffffff; stroke-linecap: round"/>
     </g>
     <g id="text_3">
      <!-- 10 -->
      <g style="fill: #262626" transform="translate(185.577097 183.638281) scale(0.11 -0.11)">
       <defs>
        <path id="DejaVuSans-31" d="M 794 531 
L 1825 531 
L 1825 4091 
L 703 3866 
L 703 4441 
L 1819 4666 
L 2450 4666 
L 2450 531 
L 3481 531 
L 3481 0 
L 794 0 
L 794 531 
z
" transform="scale(0.015625)"/>
       </defs>
       <use xlink:href="#DejaVuSans-31"/>
       <use xlink:href="#DejaVuSans-30" transform="translate(63.623047 0)"/>
      </g>
     </g>
    </g>
    <g id="xtick_4">
     <g id="line2d_4">
      <path d="M 246.775305 165.78 
L 246.775305 29.04 
" clip-path="url(#pdebefe9515)" style="fill: none; stroke: #ffffff; stroke-linecap: round"/>
     </g>
     <g id="text_4">
      <!-- 15 -->
      <g style="fill: #262626" transform="translate(239.776555 183.638281) scale(0.11 -0.11)">
       <use xlink:href="#DejaVuSans-31"/>
       <use xlink:href="#DejaVuSans-35" transform="translate(63.623047 0)"/>
      </g>
     </g>
    </g>
    <g id="xtick_5">
     <g id="line2d_5">
      <path d="M 300.974762 165.78 
L 300.974762 29.04 
" clip-path="url(#pdebefe9515)" style="fill: none; stroke: #ffffff; stroke-linecap: round"/>
     </g>
     <g id="text_5">
      <!-- 20 -->
      <g style="fill: #262626" transform="translate(293.976012 183.638281) scale(0.11 -0.11)">
       <defs>
        <path id="DejaVuSans-32" d="M 1228 531 
L 3431 531 
L 3431 0 
L 469 0 
L 469 531 
Q 828 903 1448 1529 
Q 2069 2156 2228 2338 
Q 2531 2678 2651 2914 
Q 2772 3150 2772 3378 
Q 2772 3750 2511 3984 
Q 2250 4219 1831 4219 
Q 1534 4219 1204 4116 
Q 875 4013 500 3803 
L 500 4441 
Q 881 4594 1212 4672 
Q 1544 4750 1819 4750 
Q 2544 4750 2975 4387 
Q 3406 4025 3406 3419 
Q 3406 3131 3298 2873 
Q 3191 2616 2906 2266 
Q 2828 2175 2409 1742 
Q 1991 1309 1228 531 
z
" transform="scale(0.015625)"/>
       </defs>
       <use xlink:href="#DejaVuSans-32"/>
       <use xlink:href="#DejaVuSans-30" transform="translate(63.623047 0)"/>
      </g>
     </g>
    </g>
    <g id="xtick_6">
     <g id="line2d_6">
      <path d="M 355.17422 165.78 
L 355.17422 29.04 
" clip-path="url(#pdebefe9515)" style="fill: none; stroke: #ffffff; stroke-linecap: round"/>
     </g>
     <g id="text_6">
      <!-- 25 -->
      <g style="fill: #262626" transform="translate(348.17547 183.638281) scale(0.11 -0.11)">
       <use xlink:href="#DejaVuSans-32"/>
       <use xlink:href="#DejaVuSans-35" transform="translate(63.623047 0)"/>
      </g>
     </g>
    </g>
    <g id="text_7">
     <!-- Frequency (Hz) -->
     <g style="fill: #262626" transform="translate(173.849472 199.044062) scale(0.12 -0.12)">
      <defs>
       <path id="DejaVuSans-46" d="M 628 4666 
L 3309 4666 
L 3309 4134 
L 1259 4134 
L 1259 2759 
L 3109 2759 
L 3109 2228 
L 1259 2228 
L 1259 0 
L 628 0 
L 628 4666 
z
" transform="scale(0.015625)"/>
       <path id="DejaVuSans-72" d="M 2631 2963 
Q 2534 3019 2420 3045 
Q 2306 3072 2169 3072 
Q 1681 3072 1420 2755 
Q 1159 2438 1159 1844 
L 1159 0 
L 581 0 
L 581 3500 
L 1159 3500 
L 1159 2956 
Q 1341 3275 1631 3429 
Q 1922 3584 2338 3584 
Q 2397 3584 2469 3576 
Q 2541 3569 2628 3553 
L 2631 2963 
z
" transform="scale(0.015625)"/>
       <path id="DejaVuSans-65" d="M 3597 1894 
L 3597 1613 
L 953 1613 
Q 991 1019 1311 708 
Q 1631 397 2203 397 
Q 2534 397 2845 478 
Q 3156 559 3463 722 
L 3463 178 
Q 3153 47 2828 -22 
Q 2503 -91 2169 -91 
Q 1331 -91 842 396 
Q 353 884 353 1716 
Q 353 2575 817 3079 
Q 1281 3584 2069 3584 
Q 2775 3584 3186 3129 
Q 3597 2675 3597 1894 
z
M 3022 2063 
Q 3016 2534 2758 2815 
Q 2500 3097 2075 3097 
Q 1594 3097 1305 2825 
Q 1016 2553 972 2059 
L 3022 2063 
z
" transform="scale(0.015625)"/>
       <path id="DejaVuSans-71" d="M 947 1747 
Q 947 1113 1208 752 
Q 1469 391 1925 391 
Q 2381 391 2643 752 
Q 2906 1113 2906 1747 
Q 2906 2381 2643 2742 
Q 2381 3103 1925 3103 
Q 1469 3103 1208 2742 
Q 947 2381 947 1747 
z
M 2906 525 
Q 2725 213 2448 61 
Q 2172 -91 1784 -91 
Q 1150 -91 751 415 
Q 353 922 353 1747 
Q 353 2572 751 3078 
Q 1150 3584 1784 3584 
Q 2172 3584 2448 3432 
Q 2725 3281 2906 2969 
L 2906 3500 
L 3481 3500 
L 3481 -1331 
L 2906 -1331 
L 2906 525 
z
" transform="scale(0.015625)"/>
       <path id="DejaVuSans-75" d="M 544 1381 
L 544 3500 
L 1119 3500 
L 1119 1403 
Q 1119 906 1312 657 
Q 1506 409 1894 409 
Q 2359 409 2629 706 
Q 2900 1003 2900 1516 
L 2900 3500 
L 3475 3500 
L 3475 0 
L 2900 0 
L 2900 538 
Q 2691 219 2414 64 
Q 2138 -91 1772 -91 
Q 1169 -91 856 284 
Q 544 659 544 1381 
z
M 1991 3584 
L 1991 3584 
z
" transform="scale(0.015625)"/>
       <path id="DejaVuSans-6e" d="M 3513 2113 
L 3513 0 
L 2938 0 
L 2938 2094 
Q 2938 2591 2744 2837 
Q 2550 3084 2163 3084 
Q 1697 3084 1428 2787 
Q 1159 2491 1159 1978 
L 1159 0 
L 581 0 
L 581 3500 
L 1159 3500 
L 1159 2956 
Q 1366 3272 1645 3428 
Q 1925 3584 2291 3584 
Q 2894 3584 3203 3211 
Q 3513 2838 3513 2113 
z
" transform="scale(0.015625)"/>
       <path id="DejaVuSans-63" d="M 3122 3366 
L 3122 2828 
Q 2878 2963 2633 3030 
Q 2388 3097 2138 3097 
Q 1578 3097 1268 2742 
Q 959 2388 959 1747 
Q 959 1106 1268 751 
Q 1578 397 2138 397 
Q 2388 397 2633 464 
Q 2878 531 3122 666 
L 3122 134 
Q 2881 22 2623 -34 
Q 2366 -91 2075 -91 
Q 1284 -91 818 406 
Q 353 903 353 1747 
Q 353 2603 823 3093 
Q 1294 3584 2113 3584 
Q 2378 3584 2631 3529 
Q 2884 3475 3122 3366 
z
" transform="scale(0.015625)"/>
       <path id="DejaVuSans-79" d="M 2059 -325 
Q 1816 -950 1584 -1140 
Q 1353 -1331 966 -1331 
L 506 -1331 
L 506 -850 
L 844 -850 
Q 1081 -850 1212 -737 
Q 1344 -625 1503 -206 
L 1606 56 
L 191 3500 
L 800 3500 
L 1894 763 
L 2988 3500 
L 3597 3500 
L 2059 -325 
z
" transform="scale(0.015625)"/>
       <path id="DejaVuSans-20" transform="scale(0.015625)"/>
       <path id="DejaVuSans-28" d="M 1984 4856 
Q 1566 4138 1362 3434 
Q 1159 2731 1159 2009 
Q 1159 1288 1364 580 
Q 1569 -128 1984 -844 
L 1484 -844 
Q 1016 -109 783 600 
Q 550 1309 550 2009 
Q 550 2706 781 3412 
Q 1013 4119 1484 4856 
L 1984 4856 
z
" transform="scale(0.015625)"/>
       <path id="DejaVuSans-48" d="M 628 4666 
L 1259 4666 
L 1259 2753 
L 3553 2753 
L 3553 4666 
L 4184 4666 
L 4184 0 
L 3553 0 
L 3553 2222 
L 1259 2222 
L 1259 0 
L 628 0 
L 628 4666 
z
" transform="scale(0.015625)"/>
       <path id="DejaVuSans-7a" d="M 353 3500 
L 3084 3500 
L 3084 2975 
L 922 459 
L 3084 459 
L 3084 0 
L 275 0 
L 275 525 
L 2438 3041 
L 353 3041 
L 353 3500 
z
" transform="scale(0.015625)"/>
       <path id="DejaVuSans-29" d="M 513 4856 
L 1013 4856 
Q 1481 4119 1714 3412 
Q 1947 2706 1947 2009 
Q 1947 1309 1714 600 
Q 1481 -109 1013 -844 
L 513 -844 
Q 928 -128 1133 580 
Q 1338 1288 1338 2009 
Q 1338 2731 1133 3434 
Q 928 4138 513 4856 
z
" transform="scale(0.015625)"/>
      </defs>
      <use xlink:href="#DejaVuSans-46"/>
      <use xlink:href="#DejaVuSans-72" transform="translate(50.269531 0)"/>
      <use xlink:href="#DejaVuSans-65" transform="translate(89.132812 0)"/>
      <use xlink:href="#DejaVuSans-71" transform="translate(150.65625 0)"/>
      <use xlink:href="#DejaVuSans-75" transform="translate(214.132812 0)"/>
      <use xlink:href="#DejaVuSans-65" transform="translate(277.511719 0)"/>
      <use xlink:href="#DejaVuSans-6e" transform="translate(339.035156 0)"/>
      <use xlink:href="#DejaVuSans-63" transform="translate(402.414062 0)"/>
      <use xlink:href="#DejaVuSans-79" transform="translate(457.394531 0)"/>
      <use xlink:href="#DejaVuSans-20" transform="translate(516.574219 0)"/>
      <use xlink:href="#DejaVuSans-28" transform="translate(548.361328 0)"/>
      <use xlink:href="#DejaVuSans-48" transform="translate(587.375 0)"/>
      <use xlink:href="#DejaVuSans-7a" transform="translate(662.570312 0)"/>
      <use xlink:href="#DejaVuSans-29" transform="translate(715.060547 0)"/>
     </g>
    </g>
   </g>
   <g id="matplotlib.axis_2">
    <g id="ytick_1">
     <g id="line2d_7">
      <path d="M 70.685116 140.688175 
L 367.505077 140.688175 
" clip-path="url(#pdebefe9515)" style="fill: none; stroke: #ffffff; stroke-linecap: round"/>
     </g>
     <g id="text_8">
      <!-- $\mathdefault{10^{-19}}$ -->
      <g style="fill: #262626" transform="translate(30.495116 144.867316) scale(0.11 -0.11)">
       <defs>
        <path id="DejaVuSans-2212" d="M 678 2272 
L 4684 2272 
L 4684 1741 
L 678 1741 
L 678 2272 
z
" transform="scale(0.015625)"/>
        <path id="DejaVuSans-39" d="M 703 97 
L 703 672 
Q 941 559 1184 500 
Q 1428 441 1663 441 
Q 2288 441 2617 861 
Q 2947 1281 2994 2138 
Q 2813 1869 2534 1725 
Q 2256 1581 1919 1581 
Q 1219 1581 811 2004 
Q 403 2428 403 3163 
Q 403 3881 828 4315 
Q 1253 4750 1959 4750 
Q 2769 4750 3195 4129 
Q 3622 3509 3622 2328 
Q 3622 1225 3098 567 
Q 2575 -91 1691 -91 
Q 1453 -91 1209 -44 
Q 966 3 703 97 
z
M 1959 2075 
Q 2384 2075 2632 2365 
Q 2881 2656 2881 3163 
Q 2881 3666 2632 3958 
Q 2384 4250 1959 4250 
Q 1534 4250 1286 3958 
Q 1038 3666 1038 3163 
Q 1038 2656 1286 2365 
Q 1534 2075 1959 2075 
z
" transform="scale(0.015625)"/>
       </defs>
       <use xlink:href="#DejaVuSans-31" transform="translate(0 0.765625)"/>
       <use xlink:href="#DejaVuSans-30" transform="translate(63.623047 0.765625)"/>
       <use xlink:href="#DejaVuSans-2212" transform="translate(128.203125 39.046875) scale(0.7)"/>
       <use xlink:href="#DejaVuSans-31" transform="translate(186.855469 39.046875) scale(0.7)"/>
       <use xlink:href="#DejaVuSans-39" transform="translate(231.391602 39.046875) scale(0.7)"/>
      </g>
     </g>
    </g>
    <g id="ytick_2">
     <g id="line2d_8">
      <path d="M 70.685116 114.428273 
L 367.505077 114.428273 
" clip-path="url(#pdebefe9515)" style="fill: none; stroke: #ffffff; stroke-linecap: round"/>
     </g>
     <g id="text_9">
      <!-- $\mathdefault{10^{-14}}$ -->
      <g style="fill: #262626" transform="translate(30.495116 118.607414) scale(0.11 -0.11)">
       <defs>
        <path id="DejaVuSans-34" d="M 2419 4116 
L 825 1625 
L 2419 1625 
L 2419 4116 
z
M 2253 4666 
L 3047 4666 
L 3047 1625 
L 3713 1625 
L 3713 1100 
L 3047 1100 
L 3047 0 
L 2419 0 
L 2419 1100 
L 313 1100 
L 313 1709 
L 2253 4666 
z
" transform="scale(0.015625)"/>
       </defs>
       <use xlink:href="#DejaVuSans-31" transform="translate(0 0.684375)"/>
       <use xlink:href="#DejaVuSans-30" transform="translate(63.623047 0.684375)"/>
       <use xlink:href="#DejaVuSans-2212" transform="translate(128.203125 38.965625) scale(0.7)"/>
       <use xlink:href="#DejaVuSans-31" transform="translate(186.855469 38.965625) scale(0.7)"/>
       <use xlink:href="#DejaVuSans-34" transform="translate(231.391602 38.965625) scale(0.7)"/>
      </g>
     </g>
    </g>
    <g id="ytick_3">
     <g id="line2d_9">
      <path d="M 70.685116 88.168372 
L 367.505077 88.168372 
" clip-path="url(#pdebefe9515)" style="fill: none; stroke: #ffffff; stroke-linecap: round"/>
     </g>
     <g id="text_10">
      <!-- $\mathdefault{10^{-9}}$ -->
      <g style="fill: #262626" transform="translate(35.335116 92.347512) scale(0.11 -0.11)">
       <use xlink:href="#DejaVuSans-31" transform="translate(0 0.765625)"/>
       <use xlink:href="#DejaVuSans-30" transform="translate(63.623047 0.765625)"/>
       <use xlink:href="#DejaVuSans-2212" transform="translate(128.203125 39.046875) scale(0.7)"/>
       <use xlink:href="#DejaVuSans-39" transform="translate(186.855469 39.046875) scale(0.7)"/>
      </g>
     </g>
    </g>
    <g id="ytick_4">
     <g id="line2d_10">
      <path d="M 70.685116 61.90847 
L 367.505077 61.90847 
" clip-path="url(#pdebefe9515)" style="fill: none; stroke: #ffffff; stroke-linecap: round"/>
     </g>
     <g id="text_11">
      <!-- $\mathdefault{10^{-4}}$ -->
      <g style="fill: #262626" transform="translate(35.335116 66.087611) scale(0.11 -0.11)">
       <use xlink:href="#DejaVuSans-31" transform="translate(0 0.684375)"/>
       <use xlink:href="#DejaVuSans-30" transform="translate(63.623047 0.684375)"/>
       <use xlink:href="#DejaVuSans-2212" transform="translate(128.203125 38.965625) scale(0.7)"/>
       <use xlink:href="#DejaVuSans-34" transform="translate(186.855469 38.965625) scale(0.7)"/>
      </g>
     </g>
    </g>
    <g id="ytick_5">
     <g id="line2d_11">
      <path d="M 70.685116 35.648568 
L 367.505077 35.648568 
" clip-path="url(#pdebefe9515)" style="fill: none; stroke: #ffffff; stroke-linecap: round"/>
     </g>
     <g id="text_12">
      <!-- $\mathdefault{10^{1}}$ -->
      <g style="fill: #262626" transform="translate(41.825116 39.827709) scale(0.11 -0.11)">
       <use xlink:href="#DejaVuSans-31" transform="translate(0 0.684375)"/>
       <use xlink:href="#DejaVuSans-30" transform="translate(63.623047 0.684375)"/>
       <use xlink:href="#DejaVuSans-31" transform="translate(128.203125 38.965625) scale(0.7)"/>
      </g>
     </g>
    </g>
    <g id="text_13">
     <!-- Magnitude -->
     <g style="fill: #262626" transform="translate(23.999491 129.197812) rotate(-90) scale(0.12 -0.12)">
      <defs>
       <path id="DejaVuSans-4d" d="M 628 4666 
L 1569 4666 
L 2759 1491 
L 3956 4666 
L 4897 4666 
L 4897 0 
L 4281 0 
L 4281 4097 
L 3078 897 
L 2444 897 
L 1241 4097 
L 1241 0 
L 628 0 
L 628 4666 
z
" transform="scale(0.015625)"/>
       <path id="DejaVuSans-61" d="M 2194 1759 
Q 1497 1759 1228 1600 
Q 959 1441 959 1056 
Q 959 750 1161 570 
Q 1363 391 1709 391 
Q 2188 391 2477 730 
Q 2766 1069 2766 1631 
L 2766 1759 
L 2194 1759 
z
M 3341 1997 
L 3341 0 
L 2766 0 
L 2766 531 
Q 2569 213 2275 61 
Q 1981 -91 1556 -91 
Q 1019 -91 701 211 
Q 384 513 384 1019 
Q 384 1609 779 1909 
Q 1175 2209 1959 2209 
L 2766 2209 
L 2766 2266 
Q 2766 2663 2505 2880 
Q 2244 3097 1772 3097 
Q 1472 3097 1187 3025 
Q 903 2953 641 2809 
L 641 3341 
Q 956 3463 1253 3523 
Q 1550 3584 1831 3584 
Q 2591 3584 2966 3190 
Q 3341 2797 3341 1997 
z
" transform="scale(0.015625)"/>
       <path id="DejaVuSans-67" d="M 2906 1791 
Q 2906 2416 2648 2759 
Q 2391 3103 1925 3103 
Q 1463 3103 1205 2759 
Q 947 2416 947 1791 
Q 947 1169 1205 825 
Q 1463 481 1925 481 
Q 2391 481 2648 825 
Q 2906 1169 2906 1791 
z
M 3481 434 
Q 3481 -459 3084 -895 
Q 2688 -1331 1869 -1331 
Q 1566 -1331 1297 -1286 
Q 1028 -1241 775 -1147 
L 775 -588 
Q 1028 -725 1275 -790 
Q 1522 -856 1778 -856 
Q 2344 -856 2625 -561 
Q 2906 -266 2906 331 
L 2906 616 
Q 2728 306 2450 153 
Q 2172 0 1784 0 
Q 1141 0 747 490 
Q 353 981 353 1791 
Q 353 2603 747 3093 
Q 1141 3584 1784 3584 
Q 2172 3584 2450 3431 
Q 2728 3278 2906 2969 
L 2906 3500 
L 3481 3500 
L 3481 434 
z
" transform="scale(0.015625)"/>
       <path id="DejaVuSans-69" d="M 603 3500 
L 1178 3500 
L 1178 0 
L 603 0 
L 603 3500 
z
M 603 4863 
L 1178 4863 
L 1178 4134 
L 603 4134 
L 603 4863 
z
" transform="scale(0.015625)"/>
       <path id="DejaVuSans-74" d="M 1172 4494 
L 1172 3500 
L 2356 3500 
L 2356 3053 
L 1172 3053 
L 1172 1153 
Q 1172 725 1289 603 
Q 1406 481 1766 481 
L 2356 481 
L 2356 0 
L 1766 0 
Q 1100 0 847 248 
Q 594 497 594 1153 
L 594 3053 
L 172 3053 
L 172 3500 
L 594 3500 
L 594 4494 
L 1172 4494 
z
" transform="scale(0.015625)"/>
       <path id="DejaVuSans-64" d="M 2906 2969 
L 2906 4863 
L 3481 4863 
L 3481 0 
L 2906 0 
L 2906 525 
Q 2725 213 2448 61 
Q 2172 -91 1784 -91 
Q 1150 -91 751 415 
Q 353 922 353 1747 
Q 353 2572 751 3078 
Q 1150 3584 1784 3584 
Q 2172 3584 2448 3432 
Q 2725 3281 2906 2969 
z
M 947 1747 
Q 947 1113 1208 752 
Q 1469 391 1925 391 
Q 2381 391 2643 752 
Q 2906 1113 2906 1747 
Q 2906 2381 2643 2742 
Q 2381 3103 1925 3103 
Q 1469 3103 1208 2742 
Q 947 2381 947 1747 
z
" transform="scale(0.015625)"/>
      </defs>
      <use xlink:href="#DejaVuSans-4d"/>
      <use xlink:href="#DejaVuSans-61" transform="translate(86.279297 0)"/>
      <use xlink:href="#DejaVuSans-67" transform="translate(147.558594 0)"/>
      <use xlink:href="#DejaVuSans-6e" transform="translate(211.035156 0)"/>
      <use xlink:href="#DejaVuSans-69" transform="translate(274.414062 0)"/>
      <use xlink:href="#DejaVuSans-74" transform="translate(302.197266 0)"/>
      <use xlink:href="#DejaVuSans-75" transform="translate(341.40625 0)"/>
      <use xlink:href="#DejaVuSans-64" transform="translate(404.785156 0)"/>
      <use xlink:href="#DejaVuSans-65" transform="translate(468.261719 0)"/>
     </g>
    </g>
   </g>
   <g id="line2d_12">
    <path d="M 84.176932 60.750026 
L 84.200155 217 
M 86.499612 217 
L 86.509811 149.542501 
L 86.52001 217 
M 88.054897 217 
L 88.065064 149.758648 
L 88.84269 149.9124 
L 89.620316 151.681076 
L 89.630196 217 
M 91.943437 217 
L 91.953195 152.494224 
L 92.730822 151.294283 
L 93.508448 151.754591 
L 93.518317 217 
M 95.054026 217 
L 95.063701 153.054667 
L 95.073375 217 
M 99.719905 217 
L 99.729458 153.866633 
L 99.739012 217 
M 101.275048 217 
L 101.284711 153.134503 
L 102.062337 152.973524 
L 102.839964 154.487408 
L 102.849424 217 
M 105.163422 217 
L 105.172843 154.754878 
L 105.950469 153.420231 
L 106.728095 153.761851 
L 106.737664 217 
M 108.273943 217 
L 108.283348 154.861915 
L 108.292752 217 
M 110.605859 217 
L 110.616227 148.408795 
L 110.626595 217 
M 112.939761 217 
L 112.949106 155.262321 
L 112.95845 217 
M 114.49489 217 
L 114.504358 154.432346 
L 115.281985 154.227461 
L 116.059611 155.700328 
L 116.06889 217 
M 118.383234 217 
L 118.39249 155.859426 
L 119.170116 154.492822 
L 119.947742 154.80427 
L 119.957155 217 
M 121.493738 217 
L 121.502995 155.848763 
L 121.512252 217 
M 126.159535 217 
L 126.168753 156.112672 
L 126.17797 217 
M 127.714658 217 
L 127.724005 155.245043 
L 128.501632 155.022516 
L 129.279258 156.478465 
L 129.288421 217 
M 131.602991 217 
L 131.612137 156.590723 
L 132.389763 155.209684 
L 133.16739 155.50723 
L 133.176698 217 
M 134.713487 217 
L 134.722642 156.5254 
L 134.731798 217 
M 137.045153 217 
L 137.055521 148.408795 
L 137.065889 217 
M 139.379274 217 
L 139.3884 156.720446 
L 139.397527 217 
M 140.934393 217 
L 140.943653 155.832694 
L 141.721279 155.600562 
L 142.498905 157.047192 
L 142.507983 217 
M 144.822719 217 
L 144.831784 157.133078 
L 145.609411 155.743738 
L 146.387037 156.033212 
L 146.396266 217 
M 147.93321 217 
L 147.942289 157.035884 
L 147.951369 217 
M 150.2648 217 
L 150.275168 148.408795 
L 150.285536 217 
M 152.598991 217 
L 152.608047 157.189 
L 152.617104 217 
M 154.154109 217 
L 154.1633 156.288604 
L 154.940926 156.050373 
L 155.718552 157.491045 
L 155.727564 217 
M 158.042431 217 
L 158.051431 157.55985 
L 158.829058 156.165068 
L 159.606684 156.449216 
L 159.615851 217 
M 161.152918 217 
L 161.161937 157.441573 
L 161.170955 217 
M 163.484683 217 
L 163.494816 149.989798 
L 163.504948 217 
M 165.818695 217 
L 165.827694 157.566194 
L 165.836694 217 
M 167.373811 217 
L 167.382947 156.657031 
L 168.160573 156.41454 
L 168.9382 157.851033 
L 168.947157 217 
M 171.26213 217 
L 171.271079 157.907754 
L 172.048705 156.509088 
L 172.826331 156.789421 
L 172.835447 217 
M 174.372615 217 
L 174.381584 157.774347 
L 174.390553 217 
M 179.038389 217 
L 179.047342 157.878128 
L 179.056295 217 
M 180.593504 217 
L 180.602594 156.962463 
L 181.380221 156.716797 
L 182.157847 158.150164 
L 182.166759 217 
M 184.481821 217 
L 184.490726 158.197792 
L 185.268352 156.796185 
L 186.045978 157.073621 
L 186.055052 217 
M 187.592304 217 
L 187.601231 158.052878 
L 187.610158 217 
M 189.923978 217 
L 189.93411 149.989798 
L 189.944242 217 
M 192.258075 217 
L 192.266989 158.14059 
L 192.275903 217 
M 193.81319 217 
L 193.822242 157.219857 
L 194.599868 156.971708 
L 195.377494 158.402623 
L 195.386369 217 
M 197.701504 217 
L 197.710373 158.443086 
L 198.487999 157.039151 
L 199.265626 157.314287 
L 199.274663 217 
M 200.811987 217 
L 200.820878 158.289031 
L 200.82977 217 
M 203.143487 217 
L 203.153757 149.06497 
L 203.164027 217 
M 205.477756 217 
L 205.486636 158.363839 
L 205.495517 217 
M 207.03287 217 
L 207.041889 157.439001 
L 207.819515 157.188834 
L 208.597141 158.617755 
L 208.605984 217 
M 210.921183 217 
L 210.93002 158.652364 
L 211.707647 157.24652 
L 212.485273 157.519768 
L 212.49428 217 
M 214.031664 217 
L 214.040526 158.490793 
L 214.049387 217 
M 216.363036 217 
L 216.373404 148.408795 
L 216.383773 217 
M 218.697431 217 
L 218.706283 158.554895 
L 218.715135 217 
M 220.252545 217 
L 220.261536 157.626629 
L 221.039162 157.374773 
L 221.816789 158.80202 
L 221.825603 217 
M 224.140857 217 
L 224.149668 158.831704 
L 224.927294 157.424248 
L 225.70492 157.695899 
L 225.713901 217 
M 227.251337 217 
L 227.260173 158.663774 
L 227.269008 217 
M 229.583155 217 
L 229.593052 151.570802 
L 229.602948 217 
M 231.917103 217 
L 231.925931 158.718753 
L 231.934758 217 
M 233.472216 217 
L 233.481183 157.787549 
L 234.25881 157.534242 
L 235.036436 158.960051 
L 235.045227 217 
M 237.360527 217 
L 237.369315 158.985486 
L 238.146941 157.576637 
L 238.924567 157.846906 
L 238.933525 217 
M 240.471007 217 
L 240.47982 158.812049 
L 240.488633 217 
M 242.802429 217 
L 242.812699 149.06497 
L 242.822969 217 
M 245.136771 217 
L 245.145578 158.859073 
L 245.154384 217 
M 246.691884 217 
L 246.70083 157.925294 
L 247.478457 157.670714 
L 248.256083 159.095257 
L 248.264854 217 
M 250.580194 217 
L 250.588962 159.116952 
L 251.366588 157.706873 
L 252.144215 157.97592 
L 252.153153 217 
M 253.690673 217 
L 253.699467 158.938642 
L 253.708262 217 
M 256.022214 217 
L 256.032346 149.989798 
L 256.042478 217 
M 258.356437 217 
L 258.365225 158.978592 
L 258.374013 217 
M 259.911549 217 
L 259.920478 158.042513 
L 260.698104 157.786793 
L 261.47573 159.210204 
L 261.484484 217 
M 263.799858 217 
L 263.808609 159.228541 
L 264.586235 157.817355 
L 265.363862 158.085301 
L 265.372784 217 
M 266.910336 217 
L 266.919114 159.045842 
L 266.927893 217 
M 269.241723 217 
L 269.251993 149.06497 
L 269.262264 217 
M 271.576099 217 
L 271.584872 159.079388 
L 271.593646 217 
M 273.131211 217 
L 273.140125 158.141218 
L 273.917751 157.884462 
L 274.695377 159.306841 
L 274.704117 217 
M 277.019519 217 
L 277.028256 159.322112 
L 277.805883 157.909915 
L 278.583509 158.176855 
L 278.592417 217 
M 280.129997 217 
L 280.138762 159.135395 
L 280.147527 217 
M 282.46137 217 
L 282.471641 149.06497 
L 282.481911 217 
M 284.795759 217 
L 284.804519 159.16305 
L 284.81328 217 
M 286.35087 217 
L 286.359772 158.222952 
L 287.137398 157.965236 
L 287.915025 159.386661 
L 287.923752 217 
M 290.239178 217 
L 290.247904 159.399092 
L 291.02553 157.985955 
L 291.803156 158.251959 
L 291.812053 217 
M 293.349655 217 
L 293.358409 159.20864 
L 293.367163 217 
M 295.68092 217 
L 295.691288 148.408795 
L 295.701656 217 
M 298.015416 217 
L 298.024167 159.230796 
L 298.032917 217 
M 299.570528 217 
L 299.579419 158.28889 
L 300.357046 158.030276 
L 301.134672 159.450805 
L 301.14339 217 
M 303.458835 217 
L 303.467551 159.460565 
L 304.245177 158.046544 
L 305.022803 158.311667 
L 305.031692 217 
M 306.569311 217 
L 306.578056 159.266593 
L 306.586801 217 
M 308.900612 217 
L 308.910935 148.713367 
L 308.921258 217 
M 311.235071 217 
L 311.243814 159.283545 
L 311.252557 217 
M 312.790182 217 
L 312.799067 158.339924 
L 313.576693 158.080456 
L 314.354319 159.500132 
L 314.363029 217 
M 316.678489 217 
L 316.687198 159.50735 
L 317.464824 158.092485 
L 318.242451 158.356766 
L 318.251332 217 
M 319.788964 217 
L 319.797703 159.310014 
L 319.806442 217 
M 322.12045 217 
L 322.130582 149.989798 
L 322.140714 217 
M 324.454724 217 
L 324.463461 159.321978 
L 324.472198 217 
M 326.009835 217 
L 326.018714 158.376708 
L 326.79634 158.116417 
L 327.573966 159.535273 
L 327.582671 217 
M 329.898141 217 
L 329.906845 159.540037 
L 330.684472 158.124357 
L 331.462098 158.387824 
L 331.470975 217 
M 333.008616 217 
L 333.01735 159.339449 
L 333.026085 217 
M 335.340097 217 
L 335.350229 149.989798 
L 335.360362 217 
M 337.674375 217 
L 337.683108 159.346571 
L 337.691842 217 
M 339.229486 217 
L 339.238361 158.399695 
L 340.015987 158.138603 
L 340.793614 159.556659 
L 340.802315 217 
M 343.117791 217 
L 343.126492 159.559027 
L 343.904119 158.14255 
L 344.681745 158.405221 
L 344.690619 217 
M 346.228266 217 
L 346.236998 159.355255 
L 346.24573 217 
M 348.559704 217 
L 348.569877 149.721146 
L 348.580049 217 
M 350.894024 217 
L 350.902756 159.357619 
L 350.911487 217 
M 352.449134 217 
L 352.458008 158.409162 
L 353.235634 158.14728 
L 354.013261 159.564545 
L 354.013261 159.564545 
" clip-path="url(#pdebefe9515)" style="fill: none; stroke: #4c72b0; stroke-opacity: 0.7; stroke-width: 0.5; stroke-linecap: round"/>
   </g>
   <g id="line2d_13">
    <path d="M 84.176932 35.255455 
L 84.954559 36.22341 
L 85.732185 38.861386 
L 86.509811 35.682414 
L 87.287437 35.48621 
L 88.065064 37.235173 
L 88.84269 36.532088 
L 89.620316 35.562001 
L 90.397943 36.165443 
L 91.175569 36.435405 
L 91.953195 35.650142 
L 92.730822 35.920575 
L 93.508448 36.052228 
L 94.286074 35.547894 
L 95.063701 35.894499 
L 95.841327 35.976129 
L 96.618953 35.566723 
L 97.396579 36.00302 
L 98.174206 35.991422 
L 98.951832 35.805103 
L 99.729458 36.236086 
L 100.507085 35.923583 
L 102.062337 36.153434 
L 102.839964 35.846826 
L 103.61759 36.201814 
L 104.395216 35.95079 
L 105.950469 36.209941 
L 106.728095 36.051086 
L 107.505721 36.321476 
L 108.283348 36.044572 
L 109.060974 36.320261 
L 109.8386 36.113277 
L 110.616227 36.28237 
L 112.171479 36.228744 
L 112.949106 36.303809 
L 113.726732 36.19545 
L 114.504358 36.369069 
L 115.281985 36.239884 
L 116.059611 36.426655 
L 116.837237 36.244201 
L 117.614863 36.459496 
L 118.39249 36.283172 
L 119.170116 36.495238 
L 119.947742 36.325276 
L 120.725369 36.476799 
L 121.502995 36.379141 
L 122.280621 36.489124 
L 123.835874 36.476445 
L 124.6135 36.592378 
L 125.391127 36.48537 
L 126.168753 36.693725 
L 126.946379 36.492075 
L 127.724005 36.733099 
L 128.501632 36.566593 
L 129.279258 36.676063 
L 130.834511 36.584287 
L 131.612137 36.774055 
L 132.389763 36.562706 
L 133.16739 36.756493 
L 134.722642 36.654125 
L 135.500269 36.881962 
L 136.277895 36.700155 
L 137.833147 36.881019 
L 138.610774 36.703706 
L 139.3884 36.907875 
L 140.166026 36.921879 
L 140.943653 36.790512 
L 141.721279 37.00482 
L 143.276532 36.821706 
L 144.054158 37.030928 
L 144.831784 37.017626 
L 145.609411 36.871861 
L 146.387037 37.036673 
L 147.164663 37.074361 
L 147.942289 36.890419 
L 148.719916 36.96936 
L 149.497542 37.160989 
L 151.052795 36.973064 
L 151.830421 37.168519 
L 152.608047 37.231426 
L 153.385674 37.073095 
L 154.1633 37.069156 
L 154.940926 37.2593 
L 155.718552 37.262876 
L 156.496179 37.104069 
L 157.273805 37.102603 
L 158.051431 37.31465 
L 158.829058 37.400892 
L 160.38431 37.155764 
L 162.717189 37.459087 
L 164.272442 37.228202 
L 166.605321 37.535851 
L 168.160573 37.369957 
L 168.9382 37.279528 
L 170.493452 37.591376 
L 171.271079 37.77378 
L 172.048705 37.754593 
L 172.826331 37.486945 
L 173.603958 37.398297 
L 175.936836 37.564484 
L 177.492089 37.975226 
L 179.047342 37.872834 
L 179.824968 37.80524 
L 181.380221 37.443031 
L 184.490726 37.534977 
L 186.045978 37.766539 
L 191.489363 39.251749 
L 192.266989 39.61627 
L 193.044615 39.78752 
L 193.822242 40.126782 
L 194.599868 40.315372 
L 195.377494 40.625145 
L 196.15512 40.769743 
L 196.932747 41.099703 
L 197.710373 41.219284 
L 198.487999 41.528363 
L 200.043252 41.849788 
L 200.820878 42.167044 
L 201.598505 42.345758 
L 202.376131 42.331599 
L 203.153757 42.807264 
L 203.931384 42.400823 
L 204.70901 43.057302 
L 205.486636 42.780442 
L 206.264262 43.189512 
L 207.041889 43.413722 
L 208.597141 43.407262 
L 209.374768 44.260051 
L 210.152394 43.278402 
L 210.93002 44.904774 
L 211.707647 43.44125 
L 212.485273 44.169739 
L 213.262899 44.343002 
L 214.040526 43.766326 
L 214.818152 45.333421 
L 215.595778 44.081311 
L 217.151031 45.07782 
L 217.928657 44.247582 
L 218.706283 45.97794 
L 219.48391 44.533997 
L 220.261536 45.068231 
L 221.039162 45.421462 
L 221.816789 44.180672 
L 222.594415 47.293327 
L 223.372041 44.381312 
L 224.149668 45.662028 
L 224.927294 45.159589 
L 225.70492 45.008671 
L 226.482546 46.083984 
L 227.260173 45.707176 
L 228.037799 44.984316 
L 228.815425 46.755522 
L 229.593052 44.380371 
L 230.370678 48.777105 
L 231.148304 45.152776 
L 231.925931 46.161933 
L 232.703557 46.672407 
L 233.481183 45.422301 
L 234.25881 46.203689 
L 235.036436 46.549542 
L 235.814062 45.748251 
L 236.591688 48.158256 
L 237.369315 45.326321 
L 238.146941 47.180135 
L 238.924567 46.604102 
L 239.702194 48.004302 
L 240.47982 46.551158 
L 241.257446 47.391775 
L 242.035073 45.264441 
L 242.812699 49.681068 
L 243.590325 45.419171 
L 244.367951 48.440027 
L 245.145578 46.324002 
L 245.923204 47.628953 
L 246.70083 46.159609 
L 247.478457 48.444639 
L 248.256083 45.725346 
L 249.033709 50.572951 
L 249.811336 45.920118 
L 250.588962 49.786782 
L 251.366588 46.678401 
L 252.144215 51.087225 
L 252.921841 46.225235 
L 253.699467 48.229751 
L 254.477093 47.010824 
L 256.032346 49.417437 
L 256.809972 47.089547 
L 257.587599 47.305665 
L 258.365225 49.000335 
L 259.142851 46.240868 
L 259.920478 49.122509 
L 260.698104 45.599265 
L 261.47573 46.104364 
L 262.253357 47.915573 
L 263.030983 46.849481 
L 263.808609 49.378549 
L 264.586235 47.005171 
L 265.363862 45.396257 
L 266.141488 46.662918 
L 266.919114 45.133763 
L 267.696741 46.414997 
L 268.474367 45.760182 
L 269.251993 46.067188 
L 270.02962 48.469291 
L 270.807246 46.62759 
L 271.584872 45.908359 
L 272.362499 46.762453 
L 273.140125 45.04005 
L 273.917751 46.416029 
L 274.695377 47.064152 
L 275.473004 47.547826 
L 276.25063 48.969306 
L 277.028256 46.832356 
L 277.805883 47.462382 
L 278.583509 47.889281 
L 279.361135 47.746168 
L 280.138762 50.180367 
L 280.916388 47.313474 
L 281.694014 45.906996 
L 282.471641 46.925302 
L 283.249267 46.187951 
L 284.026893 47.390453 
L 284.804519 46.702954 
L 285.582146 47.695085 
L 286.359772 49.711154 
L 287.137398 46.820863 
L 287.915025 47.529648 
L 288.692651 47.147516 
L 289.470277 46.569526 
L 290.247904 48.773504 
L 291.02553 47.056728 
L 291.803156 49.390873 
L 292.580783 49.502029 
L 293.358409 50.718834 
L 294.136035 50.752367 
L 294.913661 48.188351 
L 295.691288 48.688464 
L 297.24654 46.58883 
L 298.024167 48.549647 
L 298.801793 46.231328 
L 299.579419 47.412886 
L 300.357046 46.926664 
L 301.134672 47.630888 
L 301.912298 49.760197 
L 302.689925 46.7576 
L 303.467551 46.619749 
L 304.245177 46.652078 
L 305.022803 45.736592 
L 305.80043 46.585093 
L 306.578056 45.554783 
L 307.355682 47.19932 
L 308.133309 47.868968 
L 308.910935 47.300197 
L 309.688561 48.387127 
L 310.466188 48.260193 
L 311.243814 46.990081 
L 312.02144 46.948445 
L 312.799067 46.576387 
L 313.576693 46.796053 
L 314.354319 46.194494 
L 315.131945 48.234384 
L 315.909572 48.00836 
L 316.687198 47.617752 
L 317.464824 48.690736 
L 318.242451 49.218843 
L 319.020077 46.922311 
L 319.797703 47.472282 
L 320.57533 46.025821 
L 321.352956 46.827611 
L 322.130582 46.723441 
L 322.908209 47.919231 
L 323.685835 48.461834 
L 324.463461 52.425141 
L 325.241087 47.355265 
L 326.018714 48.489115 
L 326.79634 46.326792 
L 327.573966 47.13313 
L 328.351593 46.684347 
L 329.129219 47.439242 
L 329.906845 47.071553 
L 330.684472 52.061153 
L 331.462098 48.34304 
L 332.239724 49.076948 
L 333.01735 47.632336 
L 333.794977 46.64326 
L 334.572603 46.596391 
L 335.350229 48.400992 
L 336.127856 46.630569 
L 336.905482 47.376714 
L 337.683108 48.340885 
L 338.460735 47.874856 
L 339.238361 48.527816 
L 340.015987 47.333097 
L 340.793614 47.851951 
L 341.57124 48.88496 
L 342.348866 47.052692 
L 343.126492 47.331389 
L 343.904119 46.469124 
L 344.681745 47.27465 
L 345.459371 48.585756 
L 346.236998 46.9997 
L 347.014624 48.551828 
L 347.79225 49.503411 
L 348.569877 47.340164 
L 349.347503 48.088938 
L 350.125129 47.655623 
L 350.902756 47.707346 
L 351.680382 47.332317 
L 352.458008 47.82795 
L 353.235634 50.957103 
L 354.013261 48.244073 
L 354.013261 48.244073 
" clip-path="url(#pdebefe9515)" style="fill: none; stroke-dasharray: 1.85,0.8; stroke-dashoffset: 0; stroke: #55a868; stroke-opacity: 0.7; stroke-width: 0.5"/>
   </g>
   <g id="patch_3">
    <path d="M 70.685116 165.78 
L 70.685116 29.04 
" style="fill: none; stroke: #ffffff; stroke-width: 1.25; stroke-linejoin: miter; stroke-linecap: square"/>
   </g>
   <g id="patch_4">
    <path d="M 367.505077 165.78 
L 367.505077 29.04 
" style="fill: none; stroke: #ffffff; stroke-width: 1.25; stroke-linejoin: miter; stroke-linecap: square"/>
   </g>
   <g id="patch_5">
    <path d="M 70.685116 165.78 
L 367.505077 165.78 
" style="fill: none; stroke: #ffffff; stroke-width: 1.25; stroke-linejoin: miter; stroke-linecap: square"/>
   </g>
   <g id="patch_6">
    <path d="M 70.685116 29.04 
L 367.505077 29.04 
" style="fill: none; stroke: #ffffff; stroke-width: 1.25; stroke-linejoin: miter; stroke-linecap: square"/>
   </g>
   <g id="text_14">
    <!-- joint_0 -->
    <g style="fill: #262626" transform="translate(199.117909 23.04) scale(0.12 -0.12)">
     <defs>
      <path id="DejaVuSans-6a" d="M 603 3500 
L 1178 3500 
L 1178 -63 
Q 1178 -731 923 -1031 
Q 669 -1331 103 -1331 
L -116 -1331 
L -116 -844 
L 38 -844 
Q 366 -844 484 -692 
Q 603 -541 603 -63 
L 603 3500 
z
M 603 4863 
L 1178 4863 
L 1178 4134 
L 603 4134 
L 603 4863 
z
" transform="scale(0.015625)"/>
      <path id="DejaVuSans-6f" d="M 1959 3097 
Q 1497 3097 1228 2736 
Q 959 2375 959 1747 
Q 959 1119 1226 758 
Q 1494 397 1959 397 
Q 2419 397 2687 759 
Q 2956 1122 2956 1747 
Q 2956 2369 2687 2733 
Q 2419 3097 1959 3097 
z
M 1959 3584 
Q 2709 3584 3137 3096 
Q 3566 2609 3566 1747 
Q 3566 888 3137 398 
Q 2709 -91 1959 -91 
Q 1206 -91 779 398 
Q 353 888 353 1747 
Q 353 2609 779 3096 
Q 1206 3584 1959 3584 
z
" transform="scale(0.015625)"/>
      <path id="DejaVuSans-5f" d="M 3263 -1063 
L 3263 -1509 
L -63 -1509 
L -63 -1063 
L 3263 -1063 
z
" transform="scale(0.015625)"/>
     </defs>
     <use xlink:href="#DejaVuSans-6a"/>
     <use xlink:href="#DejaVuSans-6f" transform="translate(27.783203 0)"/>
     <use xlink:href="#DejaVuSans-69" transform="translate(88.964844 0)"/>
     <use xlink:href="#DejaVuSans-6e" transform="translate(116.748047 0)"/>
     <use xlink:href="#DejaVuSans-74" transform="translate(180.126953 0)"/>
     <use xlink:href="#DejaVuSans-5f" transform="translate(219.335938 0)"/>
     <use xlink:href="#DejaVuSans-30" transform="translate(269.335938 0)"/>
    </g>
   </g>
   <g id="legend_1">
    <g id="patch_7">
     <path d="M 263.036015 115.511875 
L 359.805077 115.511875 
Q 362.005077 115.511875 362.005077 113.311875 
L 362.005077 81.508125 
Q 362.005077 79.308125 359.805077 79.308125 
L 263.036015 79.308125 
Q 260.836015 79.308125 260.836015 81.508125 
L 260.836015 113.311875 
Q 260.836015 115.511875 263.036015 115.511875 
z
" style="fill: #eaeaf2; opacity: 0.8; stroke: #cccccc; stroke-linejoin: miter"/>
    </g>
    <g id="line2d_14">
     <path d="M 265.236015 88.216406 
L 276.236015 88.216406 
L 287.236015 88.216406 
" style="fill: none; stroke: #4c72b0; stroke-opacity: 0.7; stroke-width: 0.5; stroke-linecap: round"/>
    </g>
    <g id="text_15">
     <!-- joint_0_obs -->
     <g style="fill: #262626" transform="translate(296.036015 92.066406) scale(0.11 -0.11)">
      <defs>
       <path id="DejaVuSans-62" d="M 3116 1747 
Q 3116 2381 2855 2742 
Q 2594 3103 2138 3103 
Q 1681 3103 1420 2742 
Q 1159 2381 1159 1747 
Q 1159 1113 1420 752 
Q 1681 391 2138 391 
Q 2594 391 2855 752 
Q 3116 1113 3116 1747 
z
M 1159 2969 
Q 1341 3281 1617 3432 
Q 1894 3584 2278 3584 
Q 2916 3584 3314 3078 
Q 3713 2572 3713 1747 
Q 3713 922 3314 415 
Q 2916 -91 2278 -91 
Q 1894 -91 1617 61 
Q 1341 213 1159 525 
L 1159 0 
L 581 0 
L 581 4863 
L 1159 4863 
L 1159 2969 
z
" transform="scale(0.015625)"/>
       <path id="DejaVuSans-73" d="M 2834 3397 
L 2834 2853 
Q 2591 2978 2328 3040 
Q 2066 3103 1784 3103 
Q 1356 3103 1142 2972 
Q 928 2841 928 2578 
Q 928 2378 1081 2264 
Q 1234 2150 1697 2047 
L 1894 2003 
Q 2506 1872 2764 1633 
Q 3022 1394 3022 966 
Q 3022 478 2636 193 
Q 2250 -91 1575 -91 
Q 1294 -91 989 -36 
Q 684 19 347 128 
L 347 722 
Q 666 556 975 473 
Q 1284 391 1588 391 
Q 1994 391 2212 530 
Q 2431 669 2431 922 
Q 2431 1156 2273 1281 
Q 2116 1406 1581 1522 
L 1381 1569 
Q 847 1681 609 1914 
Q 372 2147 372 2553 
Q 372 3047 722 3315 
Q 1072 3584 1716 3584 
Q 2034 3584 2315 3537 
Q 2597 3491 2834 3397 
z
" transform="scale(0.015625)"/>
      </defs>
      <use xlink:href="#DejaVuSans-6a"/>
      <use xlink:href="#DejaVuSans-6f" transform="translate(27.783203 0)"/>
      <use xlink:href="#DejaVuSans-69" transform="translate(88.964844 0)"/>
      <use xlink:href="#DejaVuSans-6e" transform="translate(116.748047 0)"/>
      <use xlink:href="#DejaVuSans-74" transform="translate(180.126953 0)"/>
      <use xlink:href="#DejaVuSans-5f" transform="translate(219.335938 0)"/>
      <use xlink:href="#DejaVuSans-30" transform="translate(269.335938 0)"/>
      <use xlink:href="#DejaVuSans-5f" transform="translate(332.958984 0)"/>
      <use xlink:href="#DejaVuSans-6f" transform="translate(382.958984 0)"/>
      <use xlink:href="#DejaVuSans-62" transform="translate(444.140625 0)"/>
      <use xlink:href="#DejaVuSans-73" transform="translate(507.617188 0)"/>
     </g>
    </g>
    <g id="line2d_15">
     <path d="M 265.236015 104.668281 
L 276.236015 104.668281 
L 287.236015 104.668281 
" style="fill: none; stroke-dasharray: 1.85,0.8; stroke-dashoffset: 0; stroke: #55a868; stroke-opacity: 0.7; stroke-width: 0.5"/>
    </g>
    <g id="text_16">
     <!-- joint_0_ref -->
     <g style="fill: #262626" transform="translate(296.036015 108.518281) scale(0.11 -0.11)">
      <defs>
       <path id="DejaVuSans-66" d="M 2375 4863 
L 2375 4384 
L 1825 4384 
Q 1516 4384 1395 4259 
Q 1275 4134 1275 3809 
L 1275 3500 
L 2222 3500 
L 2222 3053 
L 1275 3053 
L 1275 0 
L 697 0 
L 697 3053 
L 147 3053 
L 147 3500 
L 697 3500 
L 697 3744 
Q 697 4328 969 4595 
Q 1241 4863 1831 4863 
L 2375 4863 
z
" transform="scale(0.015625)"/>
      </defs>
      <use xlink:href="#DejaVuSans-6a"/>
      <use xlink:href="#DejaVuSans-6f" transform="translate(27.783203 0)"/>
      <use xlink:href="#DejaVuSans-69" transform="translate(88.964844 0)"/>
      <use xlink:href="#DejaVuSans-6e" transform="translate(116.748047 0)"/>
      <use xlink:href="#DejaVuSans-74" transform="translate(180.126953 0)"/>
      <use xlink:href="#DejaVuSans-5f" transform="translate(219.335938 0)"/>
      <use xlink:href="#DejaVuSans-30" transform="translate(269.335938 0)"/>
      <use xlink:href="#DejaVuSans-5f" transform="translate(332.958984 0)"/>
      <use xlink:href="#DejaVuSans-72" transform="translate(382.958984 0)"/>
      <use xlink:href="#DejaVuSans-65" transform="translate(421.822266 0)"/>
      <use xlink:href="#DejaVuSans-66" transform="translate(483.345703 0)"/>
     </g>
    </g>
   </g>
  </g>
  <g id="axes_2">
   <g id="patch_8">
    <path d="M 416.110077 165.78 
L 712.930039 165.78 
L 712.930039 29.04 
L 416.110077 29.04 
z
" style="fill: #eaeaf2"/>
   </g>
   <g id="matplotlib.axis_3">
    <g id="xtick_7">
     <g id="line2d_16">
      <path d="M 416.110077 165.78 
L 416.110077 29.04 
" clip-path="url(#p7e9bd403c8)" style="fill: none; stroke: #ffffff; stroke-linecap: round"/>
     </g>
     <g id="text_17">
      <!-- 0.0 -->
      <g style="fill: #262626" transform="translate(407.363358 183.638281) scale(0.11 -0.11)">
       <defs>
        <path id="DejaVuSans-2e" d="M 684 794 
L 1344 794 
L 1344 0 
L 684 0 
L 684 794 
z
" transform="scale(0.015625)"/>
       </defs>
       <use xlink:href="#DejaVuSans-30"/>
       <use xlink:href="#DejaVuSans-2e" transform="translate(63.623047 0)"/>
       <use xlink:href="#DejaVuSans-30" transform="translate(95.410156 0)"/>
      </g>
     </g>
    </g>
    <g id="xtick_8">
     <g id="line2d_17">
      <path d="M 475.474069 165.78 
L 475.474069 29.04 
" clip-path="url(#p7e9bd403c8)" style="fill: none; stroke: #ffffff; stroke-linecap: round"/>
     </g>
     <g id="text_18">
      <!-- 0.2 -->
      <g style="fill: #262626" transform="translate(466.727351 183.638281) scale(0.11 -0.11)">
       <use xlink:href="#DejaVuSans-30"/>
       <use xlink:href="#DejaVuSans-2e" transform="translate(63.623047 0)"/>
       <use xlink:href="#DejaVuSans-32" transform="translate(95.410156 0)"/>
      </g>
     </g>
    </g>
    <g id="xtick_9">
     <g id="line2d_18">
      <path d="M 534.838062 165.78 
L 534.838062 29.04 
" clip-path="url(#p7e9bd403c8)" style="fill: none; stroke: #ffffff; stroke-linecap: round"/>
     </g>
     <g id="text_19">
      <!-- 0.4 -->
      <g style="fill: #262626" transform="translate(526.091343 183.638281) scale(0.11 -0.11)">
       <use xlink:href="#DejaVuSans-30"/>
       <use xlink:href="#DejaVuSans-2e" transform="translate(63.623047 0)"/>
       <use xlink:href="#DejaVuSans-34" transform="translate(95.410156 0)"/>
      </g>
     </g>
    </g>
    <g id="xtick_10">
     <g id="line2d_19">
      <path d="M 594.202054 165.78 
L 594.202054 29.04 
" clip-path="url(#p7e9bd403c8)" style="fill: none; stroke: #ffffff; stroke-linecap: round"/>
     </g>
     <g id="text_20">
      <!-- 0.6 -->
      <g style="fill: #262626" transform="translate(585.455335 183.638281) scale(0.11 -0.11)">
       <defs>
        <path id="DejaVuSans-36" d="M 2113 2584 
Q 1688 2584 1439 2293 
Q 1191 2003 1191 1497 
Q 1191 994 1439 701 
Q 1688 409 2113 409 
Q 2538 409 2786 701 
Q 3034 994 3034 1497 
Q 3034 2003 2786 2293 
Q 2538 2584 2113 2584 
z
M 3366 4563 
L 3366 3988 
Q 3128 4100 2886 4159 
Q 2644 4219 2406 4219 
Q 1781 4219 1451 3797 
Q 1122 3375 1075 2522 
Q 1259 2794 1537 2939 
Q 1816 3084 2150 3084 
Q 2853 3084 3261 2657 
Q 3669 2231 3669 1497 
Q 3669 778 3244 343 
Q 2819 -91 2113 -91 
Q 1303 -91 875 529 
Q 447 1150 447 2328 
Q 447 3434 972 4092 
Q 1497 4750 2381 4750 
Q 2619 4750 2861 4703 
Q 3103 4656 3366 4563 
z
" transform="scale(0.015625)"/>
       </defs>
       <use xlink:href="#DejaVuSans-30"/>
       <use xlink:href="#DejaVuSans-2e" transform="translate(63.623047 0)"/>
       <use xlink:href="#DejaVuSans-36" transform="translate(95.410156 0)"/>
      </g>
     </g>
    </g>
    <g id="xtick_11">
     <g id="line2d_20">
      <path d="M 653.566046 165.78 
L 653.566046 29.04 
" clip-path="url(#p7e9bd403c8)" style="fill: none; stroke: #ffffff; stroke-linecap: round"/>
     </g>
     <g id="text_21">
      <!-- 0.8 -->
      <g style="fill: #262626" transform="translate(644.819328 183.638281) scale(0.11 -0.11)">
       <defs>
        <path id="DejaVuSans-38" d="M 2034 2216 
Q 1584 2216 1326 1975 
Q 1069 1734 1069 1313 
Q 1069 891 1326 650 
Q 1584 409 2034 409 
Q 2484 409 2743 651 
Q 3003 894 3003 1313 
Q 3003 1734 2745 1975 
Q 2488 2216 2034 2216 
z
M 1403 2484 
Q 997 2584 770 2862 
Q 544 3141 544 3541 
Q 544 4100 942 4425 
Q 1341 4750 2034 4750 
Q 2731 4750 3128 4425 
Q 3525 4100 3525 3541 
Q 3525 3141 3298 2862 
Q 3072 2584 2669 2484 
Q 3125 2378 3379 2068 
Q 3634 1759 3634 1313 
Q 3634 634 3220 271 
Q 2806 -91 2034 -91 
Q 1263 -91 848 271 
Q 434 634 434 1313 
Q 434 1759 690 2068 
Q 947 2378 1403 2484 
z
M 1172 3481 
Q 1172 3119 1398 2916 
Q 1625 2713 2034 2713 
Q 2441 2713 2670 2916 
Q 2900 3119 2900 3481 
Q 2900 3844 2670 4047 
Q 2441 4250 2034 4250 
Q 1625 4250 1398 4047 
Q 1172 3844 1172 3481 
z
" transform="scale(0.015625)"/>
       </defs>
       <use xlink:href="#DejaVuSans-30"/>
       <use xlink:href="#DejaVuSans-2e" transform="translate(63.623047 0)"/>
       <use xlink:href="#DejaVuSans-38" transform="translate(95.410156 0)"/>
      </g>
     </g>
    </g>
    <g id="xtick_12">
     <g id="line2d_21">
      <path d="M 712.930039 165.78 
L 712.930039 29.04 
" clip-path="url(#p7e9bd403c8)" style="fill: none; stroke: #ffffff; stroke-linecap: round"/>
     </g>
     <g id="text_22">
      <!-- 1.0 -->
      <g style="fill: #262626" transform="translate(704.18332 183.638281) scale(0.11 -0.11)">
       <use xlink:href="#DejaVuSans-31"/>
       <use xlink:href="#DejaVuSans-2e" transform="translate(63.623047 0)"/>
       <use xlink:href="#DejaVuSans-30" transform="translate(95.410156 0)"/>
      </g>
     </g>
    </g>
   </g>
   <g id="matplotlib.axis_4">
    <g id="ytick_6">
     <g id="line2d_22">
      <path d="M 416.110077 165.78 
L 712.930039 165.78 
" clip-path="url(#p7e9bd403c8)" style="fill: none; stroke: #ffffff; stroke-linecap: round"/>
     </g>
     <g id="text_23">
      <!-- 0.0 -->
      <g style="fill: #262626" transform="translate(389.11664 169.959141) scale(0.11 -0.11)">
       <use xlink:href="#DejaVuSans-30"/>
       <use xlink:href="#DejaVuSans-2e" transform="translate(63.623047 0)"/>
       <use xlink:href="#DejaVuSans-30" transform="translate(95.410156 0)"/>
      </g>
     </g>
    </g>
    <g id="ytick_7">
     <g id="line2d_23">
      <path d="M 416.110077 138.432 
L 712.930039 138.432 
" clip-path="url(#p7e9bd403c8)" style="fill: none; stroke: #ffffff; stroke-linecap: round"/>
     </g>
     <g id="text_24">
      <!-- 0.2 -->
      <g style="fill: #262626" transform="translate(389.11664 142.611141) scale(0.11 -0.11)">
       <use xlink:href="#DejaVuSans-30"/>
       <use xlink:href="#DejaVuSans-2e" transform="translate(63.623047 0)"/>
       <use xlink:href="#DejaVuSans-32" transform="translate(95.410156 0)"/>
      </g>
     </g>
    </g>
    <g id="ytick_8">
     <g id="line2d_24">
      <path d="M 416.110077 111.084 
L 712.930039 111.084 
" clip-path="url(#p7e9bd403c8)" style="fill: none; stroke: #ffffff; stroke-linecap: round"/>
     </g>
     <g id="text_25">
      <!-- 0.4 -->
      <g style="fill: #262626" transform="translate(389.11664 115.263141) scale(0.11 -0.11)">
       <use xlink:href="#DejaVuSans-30"/>
       <use xlink:href="#DejaVuSans-2e" transform="translate(63.623047 0)"/>
       <use xlink:href="#DejaVuSans-34" transform="translate(95.410156 0)"/>
      </g>
     </g>
    </g>
    <g id="ytick_9">
     <g id="line2d_25">
      <path d="M 416.110077 83.736 
L 712.930039 83.736 
" clip-path="url(#p7e9bd403c8)" style="fill: none; stroke: #ffffff; stroke-linecap: round"/>
     </g>
     <g id="text_26">
      <!-- 0.6 -->
      <g style="fill: #262626" transform="translate(389.11664 87.915141) scale(0.11 -0.11)">
       <use xlink:href="#DejaVuSans-30"/>
       <use xlink:href="#DejaVuSans-2e" transform="translate(63.623047 0)"/>
       <use xlink:href="#DejaVuSans-36" transform="translate(95.410156 0)"/>
      </g>
     </g>
    </g>
    <g id="ytick_10">
     <g id="line2d_26">
      <path d="M 416.110077 56.388 
L 712.930039 56.388 
" clip-path="url(#p7e9bd403c8)" style="fill: none; stroke: #ffffff; stroke-linecap: round"/>
     </g>
     <g id="text_27">
      <!-- 0.8 -->
      <g style="fill: #262626" transform="translate(389.11664 60.567141) scale(0.11 -0.11)">
       <use xlink:href="#DejaVuSans-30"/>
       <use xlink:href="#DejaVuSans-2e" transform="translate(63.623047 0)"/>
       <use xlink:href="#DejaVuSans-38" transform="translate(95.410156 0)"/>
      </g>
     </g>
    </g>
    <g id="ytick_11">
     <g id="line2d_27">
      <path d="M 416.110077 29.04 
L 712.930039 29.04 
" clip-path="url(#p7e9bd403c8)" style="fill: none; stroke: #ffffff; stroke-linecap: round"/>
     </g>
     <g id="text_28">
      <!-- 1.0 -->
      <g style="fill: #262626" transform="translate(389.11664 33.219141) scale(0.11 -0.11)">
       <use xlink:href="#DejaVuSans-31"/>
       <use xlink:href="#DejaVuSans-2e" transform="translate(63.623047 0)"/>
       <use xlink:href="#DejaVuSans-30" transform="translate(95.410156 0)"/>
      </g>
     </g>
    </g>
   </g>
   <g id="patch_9">
    <path d="M 416.110077 165.78 
L 416.110077 29.04 
" style="fill: none; stroke: #ffffff; stroke-width: 1.25; stroke-linejoin: miter; stroke-linecap: square"/>
   </g>
   <g id="patch_10">
    <path d="M 712.930039 165.78 
L 712.930039 29.04 
" style="fill: none; stroke: #ffffff; stroke-width: 1.25; stroke-linejoin: miter; stroke-linecap: square"/>
   </g>
   <g id="patch_11">
    <path d="M 416.110077 165.78 
L 712.930039 165.78 
" style="fill: none; stroke: #ffffff; stroke-width: 1.25; stroke-linejoin: miter; stroke-linecap: square"/>
   </g>
   <g id="patch_12">
    <path d="M 416.110077 29.04 
L 712.930039 29.04 
" style="fill: none; stroke: #ffffff; stroke-width: 1.25; stroke-linejoin: miter; stroke-linecap: square"/>
   </g>
  </g>
  <g id="axes_3">
   <g id="patch_13">
    <path d="M 761.535039 165.78 
L 1058.355 165.78 
L 1058.355 29.04 
L 761.535039 29.04 
z
" style="fill: #eaeaf2"/>
   </g>
   <g id="matplotlib.axis_5">
    <g id="xtick_13">
     <g id="line2d_28">
      <path d="M 761.535039 165.78 
L 761.535039 29.04 
" clip-path="url(#pfc0548d549)" style="fill: none; stroke: #ffffff; stroke-linecap: round"/>
     </g>
     <g id="text_29">
      <!-- 0.0 -->
      <g style="fill: #262626" transform="translate(752.78832 183.638281) scale(0.11 -0.11)">
       <use xlink:href="#DejaVuSans-30"/>
       <use xlink:href="#DejaVuSans-2e" transform="translate(63.623047 0)"/>
       <use xlink:href="#DejaVuSans-30" transform="translate(95.410156 0)"/>
      </g>
     </g>
    </g>
    <g id="xtick_14">
     <g id="line2d_29">
      <path d="M 820.899031 165.78 
L 820.899031 29.04 
" clip-path="url(#pfc0548d549)" style="fill: none; stroke: #ffffff; stroke-linecap: round"/>
     </g>
     <g id="text_30">
      <!-- 0.2 -->
      <g style="fill: #262626" transform="translate(812.152312 183.638281) scale(0.11 -0.11)">
       <use xlink:href="#DejaVuSans-30"/>
       <use xlink:href="#DejaVuSans-2e" transform="translate(63.623047 0)"/>
       <use xlink:href="#DejaVuSans-32" transform="translate(95.410156 0)"/>
      </g>
     </g>
    </g>
    <g id="xtick_15">
     <g id="line2d_30">
      <path d="M 880.263023 165.78 
L 880.263023 29.04 
" clip-path="url(#pfc0548d549)" style="fill: none; stroke: #ffffff; stroke-linecap: round"/>
     </g>
     <g id="text_31">
      <!-- 0.4 -->
      <g style="fill: #262626" transform="translate(871.516304 183.638281) scale(0.11 -0.11)">
       <use xlink:href="#DejaVuSans-30"/>
       <use xlink:href="#DejaVuSans-2e" transform="translate(63.623047 0)"/>
       <use xlink:href="#DejaVuSans-34" transform="translate(95.410156 0)"/>
      </g>
     </g>
    </g>
    <g id="xtick_16">
     <g id="line2d_31">
      <path d="M 939.627015 165.78 
L 939.627015 29.04 
" clip-path="url(#pfc0548d549)" style="fill: none; stroke: #ffffff; stroke-linecap: round"/>
     </g>
     <g id="text_32">
      <!-- 0.6 -->
      <g style="fill: #262626" transform="translate(930.880297 183.638281) scale(0.11 -0.11)">
       <use xlink:href="#DejaVuSans-30"/>
       <use xlink:href="#DejaVuSans-2e" transform="translate(63.623047 0)"/>
       <use xlink:href="#DejaVuSans-36" transform="translate(95.410156 0)"/>
      </g>
     </g>
    </g>
    <g id="xtick_17">
     <g id="line2d_32">
      <path d="M 998.991008 165.78 
L 998.991008 29.04 
" clip-path="url(#pfc0548d549)" style="fill: none; stroke: #ffffff; stroke-linecap: round"/>
     </g>
     <g id="text_33">
      <!-- 0.8 -->
      <g style="fill: #262626" transform="translate(990.244289 183.638281) scale(0.11 -0.11)">
       <use xlink:href="#DejaVuSans-30"/>
       <use xlink:href="#DejaVuSans-2e" transform="translate(63.623047 0)"/>
       <use xlink:href="#DejaVuSans-38" transform="translate(95.410156 0)"/>
      </g>
     </g>
    </g>
    <g id="xtick_18">
     <g id="line2d_33">
      <path d="M 1058.355 165.78 
L 1058.355 29.04 
" clip-path="url(#pfc0548d549)" style="fill: none; stroke: #ffffff; stroke-linecap: round"/>
     </g>
     <g id="text_34">
      <!-- 1.0 -->
      <g style="fill: #262626" transform="translate(1049.608281 183.638281) scale(0.11 -0.11)">
       <use xlink:href="#DejaVuSans-31"/>
       <use xlink:href="#DejaVuSans-2e" transform="translate(63.623047 0)"/>
       <use xlink:href="#DejaVuSans-30" transform="translate(95.410156 0)"/>
      </g>
     </g>
    </g>
   </g>
   <g id="matplotlib.axis_6">
    <g id="ytick_12">
     <g id="line2d_34">
      <path d="M 761.535039 165.78 
L 1058.355 165.78 
" clip-path="url(#pfc0548d549)" style="fill: none; stroke: #ffffff; stroke-linecap: round"/>
     </g>
     <g id="text_35">
      <!-- 0.0 -->
      <g style="fill: #262626" transform="translate(734.541601 169.959141) scale(0.11 -0.11)">
       <use xlink:href="#DejaVuSans-30"/>
       <use xlink:href="#DejaVuSans-2e" transform="translate(63.623047 0)"/>
       <use xlink:href="#DejaVuSans-30" transform="translate(95.410156 0)"/>
      </g>
     </g>
    </g>
    <g id="ytick_13">
     <g id="line2d_35">
      <path d="M 761.535039 138.432 
L 1058.355 138.432 
" clip-path="url(#pfc0548d549)" style="fill: none; stroke: #ffffff; stroke-linecap: round"/>
     </g>
     <g id="text_36">
      <!-- 0.2 -->
      <g style="fill: #262626" transform="translate(734.541601 142.611141) scale(0.11 -0.11)">
       <use xlink:href="#DejaVuSans-30"/>
       <use xlink:href="#DejaVuSans-2e" transform="translate(63.623047 0)"/>
       <use xlink:href="#DejaVuSans-32" transform="translate(95.410156 0)"/>
      </g>
     </g>
    </g>
    <g id="ytick_14">
     <g id="line2d_36">
      <path d="M 761.535039 111.084 
L 1058.355 111.084 
" clip-path="url(#pfc0548d549)" style="fill: none; stroke: #ffffff; stroke-linecap: round"/>
     </g>
     <g id="text_37">
      <!-- 0.4 -->
      <g style="fill: #262626" transform="translate(734.541601 115.263141) scale(0.11 -0.11)">
       <use xlink:href="#DejaVuSans-30"/>
       <use xlink:href="#DejaVuSans-2e" transform="translate(63.623047 0)"/>
       <use xlink:href="#DejaVuSans-34" transform="translate(95.410156 0)"/>
      </g>
     </g>
    </g>
    <g id="ytick_15">
     <g id="line2d_37">
      <path d="M 761.535039 83.736 
L 1058.355 83.736 
" clip-path="url(#pfc0548d549)" style="fill: none; stroke: #ffffff; stroke-linecap: round"/>
     </g>
     <g id="text_38">
      <!-- 0.6 -->
      <g style="fill: #262626" transform="translate(734.541601 87.915141) scale(0.11 -0.11)">
       <use xlink:href="#DejaVuSans-30"/>
       <use xlink:href="#DejaVuSans-2e" transform="translate(63.623047 0)"/>
       <use xlink:href="#DejaVuSans-36" transform="translate(95.410156 0)"/>
      </g>
     </g>
    </g>
    <g id="ytick_16">
     <g id="line2d_38">
      <path d="M 761.535039 56.388 
L 1058.355 56.388 
" clip-path="url(#pfc0548d549)" style="fill: none; stroke: #ffffff; stroke-linecap: round"/>
     </g>
     <g id="text_39">
      <!-- 0.8 -->
      <g style="fill: #262626" transform="translate(734.541601 60.567141) scale(0.11 -0.11)">
       <use xlink:href="#DejaVuSans-30"/>
       <use xlink:href="#DejaVuSans-2e" transform="translate(63.623047 0)"/>
       <use xlink:href="#DejaVuSans-38" transform="translate(95.410156 0)"/>
      </g>
     </g>
    </g>
    <g id="ytick_17">
     <g id="line2d_39">
      <path d="M 761.535039 29.04 
L 1058.355 29.04 
" clip-path="url(#pfc0548d549)" style="fill: none; stroke: #ffffff; stroke-linecap: round"/>
     </g>
     <g id="text_40">
      <!-- 1.0 -->
      <g style="fill: #262626" transform="translate(734.541601 33.219141) scale(0.11 -0.11)">
       <use xlink:href="#DejaVuSans-31"/>
       <use xlink:href="#DejaVuSans-2e" transform="translate(63.623047 0)"/>
       <use xlink:href="#DejaVuSans-30" transform="translate(95.410156 0)"/>
      </g>
     </g>
    </g>
   </g>
   <g id="patch_14">
    <path d="M 761.535039 165.78 
L 761.535039 29.04 
" style="fill: none; stroke: #ffffff; stroke-width: 1.25; stroke-linejoin: miter; stroke-linecap: square"/>
   </g>
   <g id="patch_15">
    <path d="M 1058.355 165.78 
L 1058.355 29.04 
" style="fill: none; stroke: #ffffff; stroke-width: 1.25; stroke-linejoin: miter; stroke-linecap: square"/>
   </g>
   <g id="patch_16">
    <path d="M 761.535039 165.78 
L 1058.355 165.78 
" style="fill: none; stroke: #ffffff; stroke-width: 1.25; stroke-linejoin: miter; stroke-linecap: square"/>
   </g>
   <g id="patch_17">
    <path d="M 761.535039 29.04 
L 1058.355 29.04 
" style="fill: none; stroke: #ffffff; stroke-width: 1.25; stroke-linejoin: miter; stroke-linecap: square"/>
   </g>
  </g>
 </g>
 <defs>
  <clipPath id="pdebefe9515">
   <rect x="70.685116" y="29.04" width="296.819961" height="136.74"/>
  </clipPath>
  <clipPath id="p7e9bd403c8">
   <rect x="416.110077" y="29.04" width="296.819961" height="136.74"/>
  </clipPath>
  <clipPath id="pfc0548d549">
   <rect x="761.535039" y="29.04" width="296.819961" height="136.74"/>
  </clipPath>
 </defs>
</svg>
