<?xml version="1.0" encoding="utf-8" standalone="no"?>
<!DOCTYPE svg PUBLIC "-//W3C//DTD SVG 1.1//EN"
  "http://www.w3.org/Graphics/SVG/1.1/DTD/svg11.dtd">
<svg xmlns:xlink="http://www.w3.org/1999/xlink" width="720pt" height="432pt" viewBox="0 0 720 432" xmlns="http://www.w3.org/2000/svg" version="1.1">
 <metadata>
  <rdf:RDF xmlns:dc="http://purl.org/dc/elements/1.1/" xmlns:cc="http://creativecommons.org/ns#" xmlns:rdf="http://www.w3.org/1999/02/22-rdf-syntax-ns#">
   <cc:Work>
    <dc:type rdf:resource="http://purl.org/dc/dcmitype/StillImage"/>
    <dc:date>2025-06-10T09:20:11.954290</dc:date>
    <dc:format>image/svg+xml</dc:format>
    <dc:creator>
     <cc:Agent>
      <dc:title>Matplotlib v3.10.0, https://matplotlib.org/</dc:title>
     </cc:Agent>
    </dc:creator>
   </cc:Work>
  </rdf:RDF>
 </metadata>
 <defs>
  <style type="text/css">*{stroke-linejoin: round; stroke-linecap: butt}</style>
 </defs>
 <g id="figure_1">
  <g id="patch_1">
   <path d="M 0 432 
L 720 432 
L 720 0 
L 0 0 
z
" style="fill: #ffffff"/>
  </g>
  <g id="axes_1">
   <g id="patch_2">
    <path d="M 53.37 381.78 
L 698.661356 381.78 
L 698.661356 29.04 
L 53.37 29.04 
z
" style="fill: #eaeaf2"/>
   </g>
   <g id="matplotlib.axis_1">
    <g id="xtick_1">
     <g id="line2d_1">
      <path d="M 82.701425 381.78 
L 82.701425 29.04 
" clip-path="url(#p7b959d1980)" style="fill: none; stroke: #ffffff; stroke-linecap: round"/>
     </g>
     <g id="text_1">
      <!-- 0 -->
      <g style="fill: #262626" transform="translate(79.20205 399.638281) scale(0.11 -0.11)">
       <defs>
        <path id="DejaVuSans-30" d="M 2034 4250 
Q 1547 4250 1301 3770 
Q 1056 3291 1056 2328 
Q 1056 1369 1301 889 
Q 1547 409 2034 409 
Q 2525 409 2770 889 
Q 3016 1369 3016 2328 
Q 3016 3291 2770 3770 
Q 2525 4250 2034 4250 
z
M 2034 4750 
Q 2819 4750 3233 4129 
Q 3647 3509 3647 2328 
Q 3647 1150 3233 529 
Q 2819 -91 2034 -91 
Q 1250 -91 836 529 
Q 422 1150 422 2328 
Q 422 3509 836 4129 
Q 1250 4750 2034 4750 
z
" transform="scale(0.015625)"/>
       </defs>
       <use xlink:href="#DejaVuSans-30"/>
      </g>
     </g>
    </g>
    <g id="xtick_2">
     <g id="line2d_2">
      <path d="M 205.427054 381.78 
L 205.427054 29.04 
" clip-path="url(#p7b959d1980)" style="fill: none; stroke: #ffffff; stroke-linecap: round"/>
     </g>
     <g id="text_2">
      <!-- 50 -->
      <g style="fill: #262626" transform="translate(198.428304 399.638281) scale(0.11 -0.11)">
       <defs>
        <path id="DejaVuSans-35" d="M 691 4666 
L 3169 4666 
L 3169 4134 
L 1269 4134 
L 1269 2991 
Q 1406 3038 1543 3061 
Q 1681 3084 1819 3084 
Q 2600 3084 3056 2656 
Q 3513 2228 3513 1497 
Q 3513 744 3044 326 
Q 2575 -91 1722 -91 
Q 1428 -91 1123 -41 
Q 819 9 494 109 
L 494 744 
Q 775 591 1075 516 
Q 1375 441 1709 441 
Q 2250 441 2565 725 
Q 2881 1009 2881 1497 
Q 2881 1984 2565 2268 
Q 2250 2553 1709 2553 
Q 1456 2553 1204 2497 
Q 953 2441 691 2322 
L 691 4666 
z
" transform="scale(0.015625)"/>
       </defs>
       <use xlink:href="#DejaVuSans-35"/>
       <use xlink:href="#DejaVuSans-30" transform="translate(63.623047 0)"/>
      </g>
     </g>
    </g>
    <g id="xtick_3">
     <g id="line2d_3">
      <path d="M 328.152683 381.78 
L 328.152683 29.04 
" clip-path="url(#p7b959d1980)" style="fill: none; stroke: #ffffff; stroke-linecap: round"/>
     </g>
     <g id="text_3">
      <!-- 100 -->
      <g style="fill: #262626" transform="translate(317.654558 399.638281) scale(0.11 -0.11)">
       <defs>
        <path id="DejaVuSans-31" d="M 794 531 
L 1825 531 
L 1825 4091 
L 703 3866 
L 703 4441 
L 1819 4666 
L 2450 4666 
L 2450 531 
L 3481 531 
L 3481 0 
L 794 0 
L 794 531 
z
" transform="scale(0.015625)"/>
       </defs>
       <use xlink:href="#DejaVuSans-31"/>
       <use xlink:href="#DejaVuSans-30" transform="translate(63.623047 0)"/>
       <use xlink:href="#DejaVuSans-30" transform="translate(127.246094 0)"/>
      </g>
     </g>
    </g>
    <g id="xtick_4">
     <g id="line2d_4">
      <path d="M 450.878312 381.78 
L 450.878312 29.04 
" clip-path="url(#p7b959d1980)" style="fill: none; stroke: #ffffff; stroke-linecap: round"/>
     </g>
     <g id="text_4">
      <!-- 150 -->
      <g style="fill: #262626" transform="translate(440.380187 399.638281) scale(0.11 -0.11)">
       <use xlink:href="#DejaVuSans-31"/>
       <use xlink:href="#DejaVuSans-35" transform="translate(63.623047 0)"/>
       <use xlink:href="#DejaVuSans-30" transform="translate(127.246094 0)"/>
      </g>
     </g>
    </g>
    <g id="xtick_5">
     <g id="line2d_5">
      <path d="M 573.60394 381.78 
L 573.60394 29.04 
" clip-path="url(#p7b959d1980)" style="fill: none; stroke: #ffffff; stroke-linecap: round"/>
     </g>
     <g id="text_5">
      <!-- 200 -->
      <g style="fill: #262626" transform="translate(563.105815 399.638281) scale(0.11 -0.11)">
       <defs>
        <path id="DejaVuSans-32" d="M 1228 531 
L 3431 531 
L 3431 0 
L 469 0 
L 469 531 
Q 828 903 1448 1529 
Q 2069 2156 2228 2338 
Q 2531 2678 2651 2914 
Q 2772 3150 2772 3378 
Q 2772 3750 2511 3984 
Q 2250 4219 1831 4219 
Q 1534 4219 1204 4116 
Q 875 4013 500 3803 
L 500 4441 
Q 881 4594 1212 4672 
Q 1544 4750 1819 4750 
Q 2544 4750 2975 4387 
Q 3406 4025 3406 3419 
Q 3406 3131 3298 2873 
Q 3191 2616 2906 2266 
Q 2828 2175 2409 1742 
Q 1991 1309 1228 531 
z
" transform="scale(0.015625)"/>
       </defs>
       <use xlink:href="#DejaVuSans-32"/>
       <use xlink:href="#DejaVuSans-30" transform="translate(63.623047 0)"/>
       <use xlink:href="#DejaVuSans-30" transform="translate(127.246094 0)"/>
      </g>
     </g>
    </g>
    <g id="xtick_6">
     <g id="line2d_6">
      <path d="M 696.329569 381.78 
L 696.329569 29.04 
" clip-path="url(#p7b959d1980)" style="fill: none; stroke: #ffffff; stroke-linecap: round"/>
     </g>
     <g id="text_6">
      <!-- 250 -->
      <g style="fill: #262626" transform="translate(685.831444 399.638281) scale(0.11 -0.11)">
       <use xlink:href="#DejaVuSans-32"/>
       <use xlink:href="#DejaVuSans-35" transform="translate(63.623047 0)"/>
       <use xlink:href="#DejaVuSans-30" transform="translate(127.246094 0)"/>
      </g>
     </g>
    </g>
    <g id="text_7">
     <!-- Iterations -->
     <g style="fill: #262626" transform="translate(347.439741 415.044062) scale(0.12 -0.12)">
      <defs>
       <path id="DejaVuSans-49" d="M 628 4666 
L 1259 4666 
L 1259 0 
L 628 0 
L 628 4666 
z
" transform="scale(0.015625)"/>
       <path id="DejaVuSans-74" d="M 1172 4494 
L 1172 3500 
L 2356 3500 
L 2356 3053 
L 1172 3053 
L 1172 1153 
Q 1172 725 1289 603 
Q 1406 481 1766 481 
L 2356 481 
L 2356 0 
L 1766 0 
Q 1100 0 847 248 
Q 594 497 594 1153 
L 594 3053 
L 172 3053 
L 172 3500 
L 594 3500 
L 594 4494 
L 1172 4494 
z
" transform="scale(0.015625)"/>
       <path id="DejaVuSans-65" d="M 3597 1894 
L 3597 1613 
L 953 1613 
Q 991 1019 1311 708 
Q 1631 397 2203 397 
Q 2534 397 2845 478 
Q 3156 559 3463 722 
L 3463 178 
Q 3153 47 2828 -22 
Q 2503 -91 2169 -91 
Q 1331 -91 842 396 
Q 353 884 353 1716 
Q 353 2575 817 3079 
Q 1281 3584 2069 3584 
Q 2775 3584 3186 3129 
Q 3597 2675 3597 1894 
z
M 3022 2063 
Q 3016 2534 2758 2815 
Q 2500 3097 2075 3097 
Q 1594 3097 1305 2825 
Q 1016 2553 972 2059 
L 3022 2063 
z
" transform="scale(0.015625)"/>
       <path id="DejaVuSans-72" d="M 2631 2963 
Q 2534 3019 2420 3045 
Q 2306 3072 2169 3072 
Q 1681 3072 1420 2755 
Q 1159 2438 1159 1844 
L 1159 0 
L 581 0 
L 581 3500 
L 1159 3500 
L 1159 2956 
Q 1341 3275 1631 3429 
Q 1922 3584 2338 3584 
Q 2397 3584 2469 3576 
Q 2541 3569 2628 3553 
L 2631 2963 
z
" transform="scale(0.015625)"/>
       <path id="DejaVuSans-61" d="M 2194 1759 
Q 1497 1759 1228 1600 
Q 959 1441 959 1056 
Q 959 750 1161 570 
Q 1363 391 1709 391 
Q 2188 391 2477 730 
Q 2766 1069 2766 1631 
L 2766 1759 
L 2194 1759 
z
M 3341 1997 
L 3341 0 
L 2766 0 
L 2766 531 
Q 2569 213 2275 61 
Q 1981 -91 1556 -91 
Q 1019 -91 701 211 
Q 384 513 384 1019 
Q 384 1609 779 1909 
Q 1175 2209 1959 2209 
L 2766 2209 
L 2766 2266 
Q 2766 2663 2505 2880 
Q 2244 3097 1772 3097 
Q 1472 3097 1187 3025 
Q 903 2953 641 2809 
L 641 3341 
Q 956 3463 1253 3523 
Q 1550 3584 1831 3584 
Q 2591 3584 2966 3190 
Q 3341 2797 3341 1997 
z
" transform="scale(0.015625)"/>
       <path id="DejaVuSans-69" d="M 603 3500 
L 1178 3500 
L 1178 0 
L 603 0 
L 603 3500 
z
M 603 4863 
L 1178 4863 
L 1178 4134 
L 603 4134 
L 603 4863 
z
" transform="scale(0.015625)"/>
       <path id="DejaVuSans-6f" d="M 1959 3097 
Q 1497 3097 1228 2736 
Q 959 2375 959 1747 
Q 959 1119 1226 758 
Q 1494 397 1959 397 
Q 2419 397 2687 759 
Q 2956 1122 2956 1747 
Q 2956 2369 2687 2733 
Q 2419 3097 1959 3097 
z
M 1959 3584 
Q 2709 3584 3137 3096 
Q 3566 2609 3566 1747 
Q 3566 888 3137 398 
Q 2709 -91 1959 -91 
Q 1206 -91 779 398 
Q 353 888 353 1747 
Q 353 2609 779 3096 
Q 1206 3584 1959 3584 
z
" transform="scale(0.015625)"/>
       <path id="DejaVuSans-6e" d="M 3513 2113 
L 3513 0 
L 2938 0 
L 2938 2094 
Q 2938 2591 2744 2837 
Q 2550 3084 2163 3084 
Q 1697 3084 1428 2787 
Q 1159 2491 1159 1978 
L 1159 0 
L 581 0 
L 581 3500 
L 1159 3500 
L 1159 2956 
Q 1366 3272 1645 3428 
Q 1925 3584 2291 3584 
Q 2894 3584 3203 3211 
Q 3513 2838 3513 2113 
z
" transform="scale(0.015625)"/>
       <path id="DejaVuSans-73" d="M 2834 3397 
L 2834 2853 
Q 2591 2978 2328 3040 
Q 2066 3103 1784 3103 
Q 1356 3103 1142 2972 
Q 928 2841 928 2578 
Q 928 2378 1081 2264 
Q 1234 2150 1697 2047 
L 1894 2003 
Q 2506 1872 2764 1633 
Q 3022 1394 3022 966 
Q 3022 478 2636 193 
Q 2250 -91 1575 -91 
Q 1294 -91 989 -36 
Q 684 19 347 128 
L 347 722 
Q 666 556 975 473 
Q 1284 391 1588 391 
Q 1994 391 2212 530 
Q 2431 669 2431 922 
Q 2431 1156 2273 1281 
Q 2116 1406 1581 1522 
L 1381 1569 
Q 847 1681 609 1914 
Q 372 2147 372 2553 
Q 372 3047 722 3315 
Q 1072 3584 1716 3584 
Q 2034 3584 2315 3537 
Q 2597 3491 2834 3397 
z
" transform="scale(0.015625)"/>
      </defs>
      <use xlink:href="#DejaVuSans-49"/>
      <use xlink:href="#DejaVuSans-74" transform="translate(29.492188 0)"/>
      <use xlink:href="#DejaVuSans-65" transform="translate(68.701172 0)"/>
      <use xlink:href="#DejaVuSans-72" transform="translate(130.224609 0)"/>
      <use xlink:href="#DejaVuSans-61" transform="translate(171.337891 0)"/>
      <use xlink:href="#DejaVuSans-74" transform="translate(232.617188 0)"/>
      <use xlink:href="#DejaVuSans-69" transform="translate(271.826172 0)"/>
      <use xlink:href="#DejaVuSans-6f" transform="translate(299.609375 0)"/>
      <use xlink:href="#DejaVuSans-6e" transform="translate(360.791016 0)"/>
      <use xlink:href="#DejaVuSans-73" transform="translate(424.169922 0)"/>
     </g>
    </g>
   </g>
   <g id="matplotlib.axis_2">
    <g id="ytick_1">
     <g id="line2d_7">
      <path d="M 53.37 365.761388 
L 698.661356 365.761388 
" clip-path="url(#p7b959d1980)" style="fill: none; stroke: #ffffff; stroke-linecap: round"/>
     </g>
     <g id="text_8">
      <!-- 0 -->
      <g style="fill: #262626" transform="translate(36.87125 369.940529) scale(0.11 -0.11)">
       <use xlink:href="#DejaVuSans-30"/>
      </g>
     </g>
    </g>
    <g id="ytick_2">
     <g id="line2d_8">
      <path d="M 53.37 323.749865 
L 698.661356 323.749865 
" clip-path="url(#p7b959d1980)" style="fill: none; stroke: #ffffff; stroke-linecap: round"/>
     </g>
     <g id="text_9">
      <!-- 2 -->
      <g style="fill: #262626" transform="translate(36.87125 327.929006) scale(0.11 -0.11)">
       <use xlink:href="#DejaVuSans-32"/>
      </g>
     </g>
    </g>
    <g id="ytick_3">
     <g id="line2d_9">
      <path d="M 53.37 281.738343 
L 698.661356 281.738343 
" clip-path="url(#p7b959d1980)" style="fill: none; stroke: #ffffff; stroke-linecap: round"/>
     </g>
     <g id="text_10">
      <!-- 4 -->
      <g style="fill: #262626" transform="translate(36.87125 285.917483) scale(0.11 -0.11)">
       <defs>
        <path id="DejaVuSans-34" d="M 2419 4116 
L 825 1625 
L 2419 1625 
L 2419 4116 
z
M 2253 4666 
L 3047 4666 
L 3047 1625 
L 3713 1625 
L 3713 1100 
L 3047 1100 
L 3047 0 
L 2419 0 
L 2419 1100 
L 313 1100 
L 313 1709 
L 2253 4666 
z
" transform="scale(0.015625)"/>
       </defs>
       <use xlink:href="#DejaVuSans-34"/>
      </g>
     </g>
    </g>
    <g id="ytick_4">
     <g id="line2d_10">
      <path d="M 53.37 239.72682 
L 698.661356 239.72682 
" clip-path="url(#p7b959d1980)" style="fill: none; stroke: #ffffff; stroke-linecap: round"/>
     </g>
     <g id="text_11">
      <!-- 6 -->
      <g style="fill: #262626" transform="translate(36.87125 243.90596) scale(0.11 -0.11)">
       <defs>
        <path id="DejaVuSans-36" d="M 2113 2584 
Q 1688 2584 1439 2293 
Q 1191 2003 1191 1497 
Q 1191 994 1439 701 
Q 1688 409 2113 409 
Q 2538 409 2786 701 
Q 3034 994 3034 1497 
Q 3034 2003 2786 2293 
Q 2538 2584 2113 2584 
z
M 3366 4563 
L 3366 3988 
Q 3128 4100 2886 4159 
Q 2644 4219 2406 4219 
Q 1781 4219 1451 3797 
Q 1122 3375 1075 2522 
Q 1259 2794 1537 2939 
Q 1816 3084 2150 3084 
Q 2853 3084 3261 2657 
Q 3669 2231 3669 1497 
Q 3669 778 3244 343 
Q 2819 -91 2113 -91 
Q 1303 -91 875 529 
Q 447 1150 447 2328 
Q 447 3434 972 4092 
Q 1497 4750 2381 4750 
Q 2619 4750 2861 4703 
Q 3103 4656 3366 4563 
z
" transform="scale(0.015625)"/>
       </defs>
       <use xlink:href="#DejaVuSans-36"/>
      </g>
     </g>
    </g>
    <g id="ytick_5">
     <g id="line2d_11">
      <path d="M 53.37 197.715297 
L 698.661356 197.715297 
" clip-path="url(#p7b959d1980)" style="fill: none; stroke: #ffffff; stroke-linecap: round"/>
     </g>
     <g id="text_12">
      <!-- 8 -->
      <g style="fill: #262626" transform="translate(36.87125 201.894438) scale(0.11 -0.11)">
       <defs>
        <path id="DejaVuSans-38" d="M 2034 2216 
Q 1584 2216 1326 1975 
Q 1069 1734 1069 1313 
Q 1069 891 1326 650 
Q 1584 409 2034 409 
Q 2484 409 2743 651 
Q 3003 894 3003 1313 
Q 3003 1734 2745 1975 
Q 2488 2216 2034 2216 
z
M 1403 2484 
Q 997 2584 770 2862 
Q 544 3141 544 3541 
Q 544 4100 942 4425 
Q 1341 4750 2034 4750 
Q 2731 4750 3128 4425 
Q 3525 4100 3525 3541 
Q 3525 3141 3298 2862 
Q 3072 2584 2669 2484 
Q 3125 2378 3379 2068 
Q 3634 1759 3634 1313 
Q 3634 634 3220 271 
Q 2806 -91 2034 -91 
Q 1263 -91 848 271 
Q 434 634 434 1313 
Q 434 1759 690 2068 
Q 947 2378 1403 2484 
z
M 1172 3481 
Q 1172 3119 1398 2916 
Q 1625 2713 2034 2713 
Q 2441 2713 2670 2916 
Q 2900 3119 2900 3481 
Q 2900 3844 2670 4047 
Q 2441 4250 2034 4250 
Q 1625 4250 1398 4047 
Q 1172 3844 1172 3481 
z
" transform="scale(0.015625)"/>
       </defs>
       <use xlink:href="#DejaVuSans-38"/>
      </g>
     </g>
    </g>
    <g id="ytick_6">
     <g id="line2d_12">
      <path d="M 53.37 155.703774 
L 698.661356 155.703774 
" clip-path="url(#p7b959d1980)" style="fill: none; stroke: #ffffff; stroke-linecap: round"/>
     </g>
     <g id="text_13">
      <!-- 10 -->
      <g style="fill: #262626" transform="translate(29.8725 159.882915) scale(0.11 -0.11)">
       <use xlink:href="#DejaVuSans-31"/>
       <use xlink:href="#DejaVuSans-30" transform="translate(63.623047 0)"/>
      </g>
     </g>
    </g>
    <g id="ytick_7">
     <g id="line2d_13">
      <path d="M 53.37 113.692251 
L 698.661356 113.692251 
" clip-path="url(#p7b959d1980)" style="fill: none; stroke: #ffffff; stroke-linecap: round"/>
     </g>
     <g id="text_14">
      <!-- 12 -->
      <g style="fill: #262626" transform="translate(29.8725 117.871392) scale(0.11 -0.11)">
       <use xlink:href="#DejaVuSans-31"/>
       <use xlink:href="#DejaVuSans-32" transform="translate(63.623047 0)"/>
      </g>
     </g>
    </g>
    <g id="ytick_8">
     <g id="line2d_14">
      <path d="M 53.37 71.680728 
L 698.661356 71.680728 
" clip-path="url(#p7b959d1980)" style="fill: none; stroke: #ffffff; stroke-linecap: round"/>
     </g>
     <g id="text_15">
      <!-- 14 -->
      <g style="fill: #262626" transform="translate(29.8725 75.859869) scale(0.11 -0.11)">
       <use xlink:href="#DejaVuSans-31"/>
       <use xlink:href="#DejaVuSans-34" transform="translate(63.623047 0)"/>
      </g>
     </g>
    </g>
    <g id="ytick_9">
     <g id="line2d_15">
      <path d="M 53.37 29.669206 
L 698.661356 29.669206 
" clip-path="url(#p7b959d1980)" style="fill: none; stroke: #ffffff; stroke-linecap: round"/>
     </g>
     <g id="text_16">
      <!-- 16 -->
      <g style="fill: #262626" transform="translate(29.8725 33.848346) scale(0.11 -0.11)">
       <use xlink:href="#DejaVuSans-31"/>
       <use xlink:href="#DejaVuSans-36" transform="translate(63.623047 0)"/>
      </g>
     </g>
    </g>
    <g id="text_17">
     <!-- Time (ms) -->
     <g style="fill: #262626" transform="translate(23.376875 235.649062) rotate(-90) scale(0.12 -0.12)">
      <defs>
       <path id="DejaVuSans-54" d="M -19 4666 
L 3928 4666 
L 3928 4134 
L 2272 4134 
L 2272 0 
L 1638 0 
L 1638 4134 
L -19 4134 
L -19 4666 
z
" transform="scale(0.015625)"/>
       <path id="DejaVuSans-6d" d="M 3328 2828 
Q 3544 3216 3844 3400 
Q 4144 3584 4550 3584 
Q 5097 3584 5394 3201 
Q 5691 2819 5691 2113 
L 5691 0 
L 5113 0 
L 5113 2094 
Q 5113 2597 4934 2840 
Q 4756 3084 4391 3084 
Q 3944 3084 3684 2787 
Q 3425 2491 3425 1978 
L 3425 0 
L 2847 0 
L 2847 2094 
Q 2847 2600 2669 2842 
Q 2491 3084 2119 3084 
Q 1678 3084 1418 2786 
Q 1159 2488 1159 1978 
L 1159 0 
L 581 0 
L 581 3500 
L 1159 3500 
L 1159 2956 
Q 1356 3278 1631 3431 
Q 1906 3584 2284 3584 
Q 2666 3584 2933 3390 
Q 3200 3197 3328 2828 
z
" transform="scale(0.015625)"/>
       <path id="DejaVuSans-20" transform="scale(0.015625)"/>
       <path id="DejaVuSans-28" d="M 1984 4856 
Q 1566 4138 1362 3434 
Q 1159 2731 1159 2009 
Q 1159 1288 1364 580 
Q 1569 -128 1984 -844 
L 1484 -844 
Q 1016 -109 783 600 
Q 550 1309 550 2009 
Q 550 2706 781 3412 
Q 1013 4119 1484 4856 
L 1984 4856 
z
" transform="scale(0.015625)"/>
       <path id="DejaVuSans-29" d="M 513 4856 
L 1013 4856 
Q 1481 4119 1714 3412 
Q 1947 2706 1947 2009 
Q 1947 1309 1714 600 
Q 1481 -109 1013 -844 
L 513 -844 
Q 928 -128 1133 580 
Q 1338 1288 1338 2009 
Q 1338 2731 1133 3434 
Q 928 4138 513 4856 
z
" transform="scale(0.015625)"/>
      </defs>
      <use xlink:href="#DejaVuSans-54"/>
      <use xlink:href="#DejaVuSans-69" transform="translate(57.958984 0)"/>
      <use xlink:href="#DejaVuSans-6d" transform="translate(85.742188 0)"/>
      <use xlink:href="#DejaVuSans-65" transform="translate(183.154297 0)"/>
      <use xlink:href="#DejaVuSans-20" transform="translate(244.677734 0)"/>
      <use xlink:href="#DejaVuSans-28" transform="translate(276.464844 0)"/>
      <use xlink:href="#DejaVuSans-6d" transform="translate(315.478516 0)"/>
      <use xlink:href="#DejaVuSans-73" transform="translate(412.890625 0)"/>
      <use xlink:href="#DejaVuSans-29" transform="translate(464.990234 0)"/>
     </g>
    </g>
   </g>
   <g id="line2d_16">
    <path d="M 82.701425 75.793713 
L 85.155938 65.316634 
L 87.61045 63.082993 
L 90.064963 71.451635 
L 92.519476 53.086698 
L 94.973988 64.259912 
L 97.428501 67.064484 
L 99.883013 71.677002 
L 102.337526 58.570638 
L 104.792038 64.625508 
L 107.246551 65.291594 
L 109.701064 64.875916 
L 112.155576 67.274826 
L 114.610089 67.67548 
L 117.064601 71.526757 
L 119.519114 63.804169 
L 121.973626 58.174993 
L 124.428139 65.68223 
L 126.882652 65.627141 
L 129.337164 67.465137 
L 131.791677 67.895839 
L 134.246189 68.541892 
L 136.700702 66.628773 
L 139.155215 54.288658 
L 141.609727 67.490177 
L 144.06424 69.44837 
L 146.518752 56.362038 
L 148.973265 66.208088 
L 151.427777 60.288438 
L 153.88229 62.932748 
L 156.336803 45.073636 
L 158.791315 64.910973 
L 161.245828 63.103026 
L 163.70034 59.562254 
L 166.154853 62.702373 
L 168.609365 69.303133 
L 171.063878 64.575426 
L 173.518391 68.091157 
L 175.972903 66.779018 
L 178.427416 61.390234 
L 180.881928 73.354737 
L 183.336441 60.398618 
L 185.790953 60.999597 
L 188.245466 68.141239 
L 190.699979 74.922293 
L 193.154491 73.760399 
L 195.609004 63.388491 
L 198.063516 69.874063 
L 200.518029 67.470145 
L 202.972541 74.231166 
L 205.427054 68.977602 
L 207.881567 53.377172 
L 210.336079 71.536774 
L 212.790592 55.75605 
L 215.245104 63.423548 
L 217.699617 74.616795 
L 220.154129 66.152998 
L 222.608642 51.258719 
L 225.063155 50.507494 
L 227.517667 49.250445 
L 229.97218 64.179781 
L 232.426692 71.46666 
L 234.881205 60.934491 
L 237.335718 65.446847 
L 239.79023 57.594046 
L 242.244743 73.610154 
L 244.699255 71.682011 
L 247.153768 71.030949 
L 249.60828 66.398398 
L 252.062793 56.221809 
L 254.517306 68.707161 
L 256.971818 77.531546 
L 259.426331 63.488655 
L 261.880843 72.503349 
L 264.335356 67.830733 
L 266.789868 71.461651 
L 269.244381 77.65675 
L 271.698894 73.800464 
L 274.153406 58.600687 
L 276.607919 57.488874 
L 279.062431 61.51043 
L 281.516944 68.882447 
L 283.971456 70.244668 
L 286.425969 61.956156 
L 288.880482 73.785439 
L 291.334994 65.151365 
L 293.789507 68.862414 
L 296.244019 60.924475 
L 298.698532 60.248373 
L 301.153044 74.065897 
L 303.607557 60.183267 
L 306.06207 72.39317 
L 310.971095 49.130249 
L 313.425607 78.097468 
L 315.88012 66.779018 
L 318.334632 68.006018 
L 320.789145 67.094533 
L 323.243658 72.733725 
L 325.69817 69.0377 
L 328.152683 74.080921 
L 330.607195 67.575316 
L 333.061708 78.913799 
L 335.516221 73.179452 
L 337.970733 71.551798 
L 340.425246 56.387078 
L 342.879758 65.672214 
L 345.334271 65.231496 
L 347.788783 61.460348 
L 350.243296 69.438353 
L 352.697809 69.22801 
L 355.152321 59.512173 
L 357.606834 71.35648 
L 360.061346 69.763884 
L 362.515859 63.598834 
L 364.970371 56.031499 
L 367.424884 58.034764 
L 369.879397 72.893986 
L 372.333909 67.119573 
L 374.788422 57.889527 
L 377.242934 62.87265 
L 379.697447 60.393609 
L 382.151959 70.189578 
L 384.606472 70.254684 
L 387.060985 75.022456 
L 389.515497 66.588708 
L 391.97001 65.712279 
L 394.424522 69.7739 
L 396.879035 63.874283 
L 399.333547 53.893013 
L 401.78806 62.05632 
L 404.242573 62.266663 
L 406.697085 62.021263 
L 409.151598 75.047497 
L 411.60611 65.266553 
L 414.060623 69.578582 
L 416.515136 63.203189 
L 418.969648 75.743631 
L 421.424161 65.016145 
L 423.878673 65.6021 
L 426.333186 60.03803 
L 428.787698 59.507164 
L 431.242211 69.207978 
L 433.696724 69.628663 
L 436.151236 70.37488 
L 438.605749 64.350059 
L 441.060261 68.136231 
L 443.514774 57.028123 
L 445.969286 76.01908 
L 448.423799 71.131113 
L 450.878312 80.751795 
L 453.332824 78.357893 
L 455.787337 73.645211 
L 458.241849 78.382934 
L 460.696362 72.348096 
L 463.150874 60.749189 
L 465.605387 50.752894 
L 468.0599 48.519253 
L 470.514412 69.39328 
L 472.968925 68.952561 
L 475.423437 60.323495 
L 477.87795 78.458056 
L 480.332462 74.386419 
L 482.786975 76.174333 
L 485.241488 63.253271 
L 487.696 70.249676 
L 490.150513 59.657409 
L 492.605025 67.515218 
L 495.059538 68.987618 
L 497.51405 61.089744 
L 499.968563 72.318047 
L 502.423076 59.762581 
L 504.877588 68.386639 
L 507.332101 80.245971 
L 509.786613 58.139936 
L 512.241126 61.590561 
L 514.695639 62.126434 
L 517.150151 59.762581 
L 519.604664 66.794043 
L 522.059176 74.591754 
L 524.513689 50.522519 
L 526.968201 69.157896 
L 529.422714 45.078645 
L 531.877227 76.980648 
L 534.331739 70.409937 
L 536.786252 71.131113 
L 539.240764 49.435747 
L 541.695277 72.09268 
L 544.149789 70.450002 
L 546.604302 60.403626 
L 549.058815 79.139166 
L 551.513327 71.015925 
L 553.96784 47.833135 
L 556.422352 62.592193 
L 558.876865 79.089085 
L 561.331377 81.287669 
L 563.78589 71.727084 
L 566.240403 65.917614 
L 568.694915 67.895839 
L 571.149428 68.762251 
L 573.60394 71.496709 
L 576.058453 52.83629 
L 578.512965 71.947443 
L 580.967478 71.081031 
L 583.421991 67.049459 
L 585.876503 75.347986 
L 588.331016 78.678415 
L 590.785528 65.917614 
L 593.240041 59.697475 
L 595.694553 68.521859 
L 598.149066 70.444994 
L 600.603579 79.61995 
L 603.058091 56.582397 
L 605.512604 68.146247 
L 607.967116 68.617014 
L 610.421629 76.700191 
L 612.876142 59.336887 
L 615.330654 47.537653 
L 617.785167 60.749189 
L 620.239679 71.196219 
L 622.694192 76.094203 
L 625.148704 74.296272 
L 627.603217 56.347013 
L 630.05773 77.776946 
L 632.512242 67.104549 
L 634.966755 78.417991 
L 637.421267 72.358113 
L 639.87578 83.76671 
L 642.330292 63.543744 
L 644.784805 64.690614 
L 647.239318 70.760508 
L 649.69383 66.593716 
L 652.148343 73.054247 
L 654.602855 52.530792 
L 657.057368 74.05588 
L 659.51188 58.911193 
L 661.966393 77.376293 
L 664.420906 74.271231 
L 666.875418 68.141239 
L 669.329931 60.809287 
L 669.329931 60.809287 
" clip-path="url(#p7b959d1980)" style="fill: none; stroke: #4c72b0; stroke-opacity: 0.7; stroke-width: 0.5; stroke-linecap: round"/>
   </g>
   <g id="line2d_17">
    <path d="M 82.701425 363.257306 
L 85.155938 364.955074 
L 87.61045 365.040213 
L 90.064963 364.945057 
L 92.519476 364.564437 
L 94.973988 364.950066 
L 97.428501 364.594486 
L 99.883013 364.689641 
L 102.337526 364.995139 
L 104.792038 364.704666 
L 107.246551 364.995139 
L 117.064601 365.000147 
L 119.519114 364.679625 
L 124.428139 364.694649 
L 126.882652 364.995139 
L 129.337164 364.699657 
L 131.791677 365.025188 
L 139.155215 365.040213 
L 141.609727 364.71969 
L 144.06424 364.995139 
L 146.518752 364.839886 
L 148.973265 365.065253 
L 151.427777 365.110327 
L 153.88229 364.679625 
L 156.336803 365.02018 
L 166.154853 364.990131 
L 168.609365 365.160408 
L 171.063878 365.02018 
L 173.518391 365.170425 
L 175.972903 364.71969 
L 185.790953 364.71969 
L 188.245466 365.015172 
L 190.699979 365.035204 
L 193.154491 364.859919 
L 195.609004 365.025188 
L 198.063516 364.689641 
L 200.518029 365.040213 
L 202.972541 364.694649 
L 205.427054 364.699657 
L 207.881567 365.035204 
L 210.336079 365.040213 
L 212.790592 364.699657 
L 215.245104 365.02018 
L 217.699617 364.925025 
L 220.154129 365.040213 
L 225.063155 365.005155 
L 232.426692 365.030196 
L 234.881205 364.714682 
L 237.335718 365.025188 
L 239.79023 364.644568 
L 242.244743 365.02018 
L 254.517306 365.010164 
L 256.971818 364.699657 
L 259.426331 365.025188 
L 266.789868 365.030196 
L 271.698894 364.71969 
L 274.153406 365.02018 
L 276.607919 364.709674 
L 279.062431 364.779788 
L 281.516944 365.030196 
L 286.425969 365.005155 
L 288.880482 364.814845 
L 291.334994 365.035204 
L 293.789507 364.995139 
L 296.244019 364.739723 
L 298.698532 364.694649 
L 301.153044 364.985123 
L 303.607557 365.035204 
L 306.06207 364.940049 
L 310.971095 365.035204 
L 313.425607 364.945057 
L 318.334632 365.025188 
L 323.243658 365.035204 
L 337.970733 364.995139 
L 340.425246 364.679625 
L 342.879758 364.995139 
L 352.697809 365.025188 
L 355.152321 364.975106 
L 357.606834 364.519364 
L 360.061346 365.005155 
L 362.515859 365.025188 
L 364.970371 364.384143 
L 367.424884 365.030196 
L 369.879397 364.484306 
L 374.788422 364.990131 
L 377.242934 364.674617 
L 379.697447 365.035204 
L 399.333547 365.02018 
L 404.242573 365.000147 
L 406.697085 364.594486 
L 409.151598 365.045221 
L 426.333186 365.040213 
L 428.787698 364.679625 
L 431.242211 364.724698 
L 433.696724 365.030196 
L 438.605749 365.005155 
L 441.060261 364.689641 
L 443.514774 365.055237 
L 445.969286 364.754747 
L 448.423799 365.030196 
L 450.878312 365.180441 
L 453.332824 365.035204 
L 460.696362 365.030196 
L 463.150874 364.634551 
L 465.605387 365.02018 
L 468.0599 364.709674 
L 470.514412 365.005155 
L 472.968925 364.098678 
L 475.423437 365.160408 
L 480.332462 365.060245 
L 482.786975 365.225515 
L 485.241488 365.025188 
L 502.423076 365.015172 
L 504.877588 364.749739 
L 509.786613 365.005155 
L 517.150151 365.035204 
L 522.059176 365.045221 
L 524.513689 364.694649 
L 526.968201 365.055237 
L 529.422714 364.724698 
L 531.877227 364.975106 
L 536.786252 365.030196 
L 551.513327 365.050229 
L 553.96784 364.709674 
L 558.876865 365.050229 
L 563.78589 364.990131 
L 566.240403 365.1554 
L 578.512965 365.125351 
L 580.967478 364.77478 
L 583.421991 365.110327 
L 585.876503 364.549412 
L 588.331016 365.025188 
L 595.694553 365.050229 
L 610.421629 365.035204 
L 612.876142 364.614519 
L 615.330654 364.739723 
L 617.785167 365.055237 
L 620.239679 365.105319 
L 625.148704 364.985123 
L 632.512242 365.170425 
L 637.421267 364.889968 
L 639.87578 365.02018 
L 642.330292 364.679625 
L 644.784805 365.035204 
L 647.239318 365.045221 
L 649.69383 364.71969 
L 652.148343 365.035204 
L 654.602855 364.950066 
L 657.057368 364.709674 
L 659.51188 365.030196 
L 669.329931 365.040213 
L 669.329931 365.040213 
" clip-path="url(#p7b959d1980)" style="fill: none; stroke-dasharray: 1.85,0.8; stroke-dashoffset: 0; stroke: #55a868; stroke-opacity: 0.7; stroke-width: 0.5"/>
   </g>
   <g id="line2d_18">
    <path d="M 82.701425 313.275832 
L 85.155938 358.85513 
L 87.61045 364.644568 
L 90.064963 364.589478 
L 92.519476 363.973474 
L 94.973988 364.58447 
L 97.428501 363.978482 
L 99.883013 364.544404 
L 102.337526 364.60951 
L 104.792038 364.148759 
L 107.246551 364.589478 
L 117.064601 364.644568 
L 119.519114 364.128727 
L 121.973626 364.083653 
L 124.428139 364.158776 
L 126.882652 364.619527 
L 129.337164 364.09367 
L 131.791677 364.028563 
L 134.246189 364.644568 
L 136.700702 364.60951 
L 139.155215 364.334061 
L 141.609727 364.1738 
L 144.06424 364.614519 
L 146.518752 364.689641 
L 148.973265 364.634551 
L 151.427777 364.699657 
L 153.88229 364.063621 
L 156.336803 364.659592 
L 166.154853 364.634551 
L 168.609365 364.85491 
L 175.972903 364.824861 
L 178.427416 364.133735 
L 180.881928 364.874943 
L 183.336441 364.158776 
L 185.790953 364.619527 
L 188.245466 364.639559 
L 190.699979 364.479298 
L 193.154491 364.654584 
L 195.609004 364.6646 
L 198.063516 364.218874 
L 200.518029 364.639559 
L 202.972541 363.853278 
L 205.427054 364.479298 
L 207.881567 364.629543 
L 210.336079 364.629543 
L 212.790592 364.148759 
L 215.245104 364.639559 
L 222.608642 364.619527 
L 225.063155 364.839886 
L 227.517667 364.359102 
L 229.97218 364.639559 
L 232.426692 364.644568 
L 234.881205 364.158776 
L 237.335718 364.6646 
L 239.79023 364.048596 
L 242.244743 364.479298 
L 244.699255 364.644568 
L 247.153768 364.319037 
L 249.60828 364.619527 
L 254.517306 364.649576 
L 256.971818 364.278972 
L 259.426331 364.644568 
L 261.880843 364.649576 
L 264.335356 364.178808 
L 266.789868 364.639559 
L 269.244381 364.629543 
L 271.698894 364.023555 
L 274.153406 364.619527 
L 276.607919 364.11871 
L 281.516944 364.639559 
L 283.971456 364.344078 
L 286.425969 364.524372 
L 288.880482 364.58447 
L 291.334994 364.489315 
L 293.789507 364.599494 
L 296.244019 364.188825 
L 298.698532 364.138743 
L 301.153044 364.654584 
L 303.607557 364.534388 
L 308.516582 364.659592 
L 313.425607 364.619527 
L 315.88012 364.329053 
L 318.334632 364.569445 
L 323.243658 364.669608 
L 328.152683 364.644568 
L 330.607195 358.945277 
L 333.061708 364.268955 
L 335.516221 364.824861 
L 337.970733 364.619527 
L 340.425246 364.1738 
L 342.879758 364.594486 
L 347.788783 364.599494 
L 350.243296 364.479298 
L 352.697809 364.644568 
L 355.152321 364.464274 
L 357.606834 363.918384 
L 360.061346 364.569445 
L 367.424884 364.659592 
L 369.879397 363.803196 
L 372.333909 364.113702 
L 374.788422 364.589478 
L 377.242934 363.943425 
L 379.697447 364.644568 
L 382.151959 364.319037 
L 384.606472 364.639559 
L 391.97001 364.649576 
L 394.424522 364.309021 
L 396.879035 364.158776 
L 399.333547 364.649576 
L 404.242573 364.599494 
L 406.697085 363.773147 
L 409.151598 364.629543 
L 411.60611 364.624535 
L 414.060623 364.304012 
L 416.515136 364.679625 
L 418.969648 364.334061 
L 421.424161 364.599494 
L 426.333186 364.659592 
L 428.787698 364.063621 
L 431.242211 364.138743 
L 433.696724 364.409184 
L 436.151236 364.384143 
L 438.605749 364.594486 
L 441.060261 364.053604 
L 443.514774 364.659592 
L 445.969286 363.242282 
L 448.423799 364.359102 
L 450.878312 364.844894 
L 455.787337 364.354094 
L 458.241849 364.223882 
L 460.696362 364.649576 
L 463.150874 363.913376 
L 465.605387 364.654584 
L 468.0599 364.078645 
L 470.514412 364.569445 
L 472.968925 364.379135 
L 475.423437 364.844894 
L 480.332462 364.739723 
L 482.786975 364.930033 
L 487.696 364.33907 
L 490.150513 364.639559 
L 492.605025 364.649576 
L 495.059538 364.519364 
L 497.51405 364.654584 
L 502.423076 364.599494 
L 504.877588 364.198841 
L 509.786613 364.519364 
L 512.241126 364.644568 
L 514.695639 364.549412 
L 517.150151 364.659592 
L 519.604664 364.429217 
L 522.059176 364.649576 
L 524.513689 363.642935 
L 526.968201 364.614519 
L 529.422714 364.088661 
L 531.877227 364.434225 
L 534.331739 364.644568 
L 544.149789 364.619527 
L 551.513327 364.619527 
L 553.96784 363.98349 
L 556.422352 364.634551 
L 558.876865 364.439233 
L 561.331377 364.639559 
L 563.78589 363.683 
L 566.240403 364.629543 
L 571.149428 364.71969 
L 573.60394 364.699657 
L 576.058453 359.0204 
L 578.512965 364.704666 
L 580.967478 364.083653 
L 583.421991 364.714682 
L 585.876503 364.299004 
L 588.331016 364.594486 
L 595.694553 364.649576 
L 598.149066 364.349086 
L 600.603579 364.429217 
L 603.058091 364.644568 
L 607.967116 364.619527 
L 610.421629 364.654584 
L 612.876142 364.133735 
L 615.330654 364.168792 
L 617.785167 364.6646 
L 620.239679 364.824861 
L 622.694192 364.654584 
L 627.603217 364.639559 
L 630.05773 364.82987 
L 632.512242 364.839886 
L 637.421267 364.524372 
L 639.87578 364.60951 
L 642.330292 363.923392 
L 644.784805 364.649576 
L 647.239318 364.654584 
L 649.69383 364.203849 
L 652.148343 364.634551 
L 654.602855 364.304012 
L 657.057368 364.564437 
L 661.966393 364.644568 
L 664.420906 364.314029 
L 666.875418 364.619527 
L 669.329931 364.649576 
L 669.329931 364.649576 
" clip-path="url(#p7b959d1980)" style="fill: none; stroke-dasharray: 3.2,0.8,0.5,0.8; stroke-dashoffset: 0; stroke: #c44e52; stroke-opacity: 0.7; stroke-width: 0.5"/>
   </g>
   <g id="line2d_19">
    <path d="M 82.701425 365.736347 
L 669.329931 365.721323 
L 669.329931 365.721323 
" clip-path="url(#p7b959d1980)" style="fill: none; stroke-dasharray: 0.5,0.825; stroke-dashoffset: 0; stroke: #64b5cd; stroke-opacity: 0.7; stroke-width: 0.5"/>
   </g>
   <g id="line2d_20">
    <path d="M 82.701425 364.659592 
L 90.064963 364.844894 
L 92.519476 364.469282 
L 94.973988 364.849902 
L 97.428501 364.479298 
L 99.883013 364.834878 
L 102.337526 364.504339 
L 104.792038 364.509347 
L 107.246551 364.764764 
L 109.701064 364.82987 
L 114.610089 364.839886 
L 117.064601 364.82987 
L 119.519114 364.429217 
L 124.428139 364.509347 
L 126.882652 364.844894 
L 129.337164 364.464274 
L 131.791677 364.248923 
L 134.246189 364.834878 
L 136.700702 364.729706 
L 139.155215 364.839886 
L 141.609727 364.554421 
L 144.06424 364.784796 
L 148.973265 364.724698 
L 151.427777 364.794813 
L 153.88229 363.888335 
L 156.336803 364.864927 
L 166.154853 364.82987 
L 168.609365 365.025188 
L 171.063878 364.754747 
L 173.518391 365.030196 
L 175.972903 365.025188 
L 178.427416 364.554421 
L 180.881928 365.035204 
L 183.336441 364.103686 
L 185.790953 364.859919 
L 190.699979 364.844894 
L 193.154491 365.030196 
L 200.518029 364.58447 
L 202.972541 360.612996 
L 205.427054 364.724698 
L 207.881567 364.85491 
L 210.336079 364.859919 
L 212.790592 364.238906 
L 215.245104 364.879951 
L 217.699617 364.734715 
L 220.154129 364.849902 
L 225.063155 364.809837 
L 229.97218 364.834878 
L 232.426692 364.859919 
L 234.881205 364.489315 
L 237.335718 364.859919 
L 239.79023 364.344078 
L 242.244743 364.85491 
L 244.699255 364.859919 
L 247.153768 364.524372 
L 249.60828 364.849902 
L 254.517306 364.809837 
L 256.971818 364.138743 
L 259.426331 364.839886 
L 261.880843 364.85491 
L 264.335356 364.319037 
L 266.789868 364.759755 
L 269.244381 364.889968 
L 271.698894 364.504339 
L 274.153406 364.714682 
L 276.607919 364.524372 
L 279.062431 364.789804 
L 283.971456 364.82987 
L 291.334994 364.874943 
L 293.789507 364.834878 
L 296.244019 364.108694 
L 298.698532 364.489315 
L 308.516582 364.869935 
L 323.243658 364.689641 
L 325.69817 360.868412 
L 328.152683 364.744731 
L 335.516221 364.945057 
L 337.970733 364.699657 
L 340.425246 364.288988 
L 342.879758 364.654584 
L 345.334271 364.869935 
L 347.788783 364.58447 
L 350.243296 364.85491 
L 355.152321 364.869935 
L 357.606834 364.47429 
L 360.061346 364.809837 
L 364.970371 364.85491 
L 367.424884 364.814845 
L 369.879397 364.354094 
L 372.333909 364.484306 
L 374.788422 364.799821 
L 377.242934 364.479298 
L 379.697447 364.85491 
L 389.515497 364.869935 
L 391.97001 364.504339 
L 394.424522 364.844894 
L 396.879035 364.168792 
L 399.333547 364.864927 
L 404.242573 364.809837 
L 406.697085 364.278972 
L 409.151598 364.864927 
L 411.60611 364.464274 
L 414.060623 364.47429 
L 416.515136 364.889968 
L 423.878673 364.869935 
L 426.333186 364.579461 
L 428.787698 364.449249 
L 433.696724 364.649576 
L 438.605749 364.499331 
L 441.060261 364.479298 
L 443.514774 364.879951 
L 445.969286 364.489315 
L 448.423799 360.773257 
L 450.878312 365.040213 
L 453.332824 364.869935 
L 458.241849 364.834878 
L 460.696362 364.889968 
L 468.0599 364.544404 
L 470.514412 364.849902 
L 472.968925 364.864927 
L 475.423437 365.050229 
L 477.87795 365.035204 
L 480.332462 364.724698 
L 482.786975 364.915008 
L 485.241488 364.864927 
L 487.696 364.629543 
L 490.150513 364.879951 
L 497.51405 364.869935 
L 499.968563 364.634551 
L 502.423076 364.804829 
L 504.877588 364.554421 
L 507.332101 364.739723 
L 509.786613 364.724698 
L 512.241126 364.899984 
L 517.150151 364.849902 
L 522.059176 364.889968 
L 524.513689 363.307388 
L 526.968201 364.779788 
L 529.422714 364.519364 
L 531.877227 364.839886 
L 534.331739 364.624535 
L 536.786252 364.569445 
L 539.240764 364.864927 
L 544.149789 364.85491 
L 546.604302 364.864927 
L 549.058815 364.694649 
L 551.513327 364.749739 
L 553.96784 364.424208 
L 556.422352 364.709674 
L 558.876865 364.859919 
L 561.331377 364.85491 
L 563.78589 364.218874 
L 566.240403 364.809837 
L 568.694915 364.824861 
L 571.149428 319.941698 
L 573.60394 364.559429 
L 576.058453 364.894976 
L 578.512965 364.834878 
L 580.967478 364.304012 
L 585.876503 364.819853 
L 588.331016 364.759755 
L 590.785528 364.859919 
L 593.240041 364.804829 
L 598.149066 364.859919 
L 600.603579 364.764764 
L 603.058091 364.884959 
L 607.967116 364.699657 
L 610.421629 364.879951 
L 612.876142 364.714682 
L 615.330654 363.758123 
L 617.785167 364.864927 
L 620.239679 365.050229 
L 622.694192 364.52938 
L 625.148704 364.859919 
L 630.05773 364.899984 
L 632.512242 365.040213 
L 639.87578 364.494323 
L 642.330292 364.128727 
L 644.784805 364.874943 
L 647.239318 364.554421 
L 652.148343 364.579461 
L 654.602855 364.844894 
L 657.057368 364.809837 
L 659.51188 364.60951 
L 661.966393 364.85491 
L 669.329931 364.884959 
L 669.329931 364.884959 
" clip-path="url(#p7b959d1980)" style="fill: none; stroke: #ccb974; stroke-opacity: 0.7; stroke-width: 0.5; stroke-linecap: round"/>
   </g>
   <g id="patch_3">
    <path d="M 53.37 381.78 
L 53.37 29.04 
" style="fill: none; stroke: #ffffff; stroke-width: 1.25; stroke-linejoin: miter; stroke-linecap: square"/>
   </g>
   <g id="patch_4">
    <path d="M 698.661356 381.78 
L 698.661356 29.04 
" style="fill: none; stroke: #ffffff; stroke-width: 1.25; stroke-linejoin: miter; stroke-linecap: square"/>
   </g>
   <g id="patch_5">
    <path d="M 53.37 381.78 
L 698.661356 381.78 
" style="fill: none; stroke: #ffffff; stroke-width: 1.25; stroke-linejoin: miter; stroke-linecap: square"/>
   </g>
   <g id="patch_6">
    <path d="M 53.37 29.04 
L 698.661356 29.04 
" style="fill: none; stroke: #ffffff; stroke-width: 1.25; stroke-linejoin: miter; stroke-linecap: square"/>
   </g>
   <g id="text_18">
    <!-- Loop Time -->
    <g style="fill: #262626" transform="translate(345.038803 23.04) scale(0.12 -0.12)">
     <defs>
      <path id="DejaVuSans-4c" d="M 628 4666 
L 1259 4666 
L 1259 531 
L 3531 531 
L 3531 0 
L 628 0 
L 628 4666 
z
" transform="scale(0.015625)"/>
      <path id="DejaVuSans-70" d="M 1159 525 
L 1159 -1331 
L 581 -1331 
L 581 3500 
L 1159 3500 
L 1159 2969 
Q 1341 3281 1617 3432 
Q 1894 3584 2278 3584 
Q 2916 3584 3314 3078 
Q 3713 2572 3713 1747 
Q 3713 922 3314 415 
Q 2916 -91 2278 -91 
Q 1894 -91 1617 61 
Q 1341 213 1159 525 
z
M 3116 1747 
Q 3116 2381 2855 2742 
Q 2594 3103 2138 3103 
Q 1681 3103 1420 2742 
Q 1159 2381 1159 1747 
Q 1159 1113 1420 752 
Q 1681 391 2138 391 
Q 2594 391 2855 752 
Q 3116 1113 3116 1747 
z
" transform="scale(0.015625)"/>
     </defs>
     <use xlink:href="#DejaVuSans-4c"/>
     <use xlink:href="#DejaVuSans-6f" transform="translate(53.962891 0)"/>
     <use xlink:href="#DejaVuSans-6f" transform="translate(115.144531 0)"/>
     <use xlink:href="#DejaVuSans-70" transform="translate(176.326172 0)"/>
     <use xlink:href="#DejaVuSans-20" transform="translate(239.802734 0)"/>
     <use xlink:href="#DejaVuSans-54" transform="translate(271.589844 0)"/>
     <use xlink:href="#DejaVuSans-69" transform="translate(329.548828 0)"/>
     <use xlink:href="#DejaVuSans-6d" transform="translate(357.332031 0)"/>
     <use xlink:href="#DejaVuSans-65" transform="translate(454.744141 0)"/>
    </g>
   </g>
   <g id="legend_1">
    <g id="patch_7">
     <path d="M 599.590887 248.036719 
L 690.961356 248.036719 
Q 693.161356 248.036719 693.161356 245.836719 
L 693.161356 164.983281 
Q 693.161356 162.783281 690.961356 162.783281 
L 599.590887 162.783281 
Q 597.390887 162.783281 597.390887 164.983281 
L 597.390887 245.836719 
Q 597.390887 248.036719 599.590887 248.036719 
z
" style="fill: #eaeaf2; opacity: 0.8; stroke: #cccccc; stroke-linejoin: miter"/>
    </g>
    <g id="line2d_21">
     <path d="M 601.790887 171.691562 
L 612.790887 171.691562 
L 623.790887 171.691562 
" style="fill: none; stroke: #4c72b0; stroke-opacity: 0.7; stroke-width: 0.5; stroke-linecap: round"/>
    </g>
    <g id="text_19">
     <!-- obs_time -->
     <g style="fill: #262626" transform="translate(632.590887 175.541562) scale(0.11 -0.11)">
      <defs>
       <path id="DejaVuSans-62" d="M 3116 1747 
Q 3116 2381 2855 2742 
Q 2594 3103 2138 3103 
Q 1681 3103 1420 2742 
Q 1159 2381 1159 1747 
Q 1159 1113 1420 752 
Q 1681 391 2138 391 
Q 2594 391 2855 752 
Q 3116 1113 3116 1747 
z
M 1159 2969 
Q 1341 3281 1617 3432 
Q 1894 3584 2278 3584 
Q 2916 3584 3314 3078 
Q 3713 2572 3713 1747 
Q 3713 922 3314 415 
Q 2916 -91 2278 -91 
Q 1894 -91 1617 61 
Q 1341 213 1159 525 
L 1159 0 
L 581 0 
L 581 4863 
L 1159 4863 
L 1159 2969 
z
" transform="scale(0.015625)"/>
       <path id="DejaVuSans-5f" d="M 3263 -1063 
L 3263 -1509 
L -63 -1509 
L -63 -1063 
L 3263 -1063 
z
" transform="scale(0.015625)"/>
      </defs>
      <use xlink:href="#DejaVuSans-6f"/>
      <use xlink:href="#DejaVuSans-62" transform="translate(61.181641 0)"/>
      <use xlink:href="#DejaVuSans-73" transform="translate(124.658203 0)"/>
      <use xlink:href="#DejaVuSans-5f" transform="translate(176.757812 0)"/>
      <use xlink:href="#DejaVuSans-74" transform="translate(226.757812 0)"/>
      <use xlink:href="#DejaVuSans-69" transform="translate(265.966797 0)"/>
      <use xlink:href="#DejaVuSans-6d" transform="translate(293.75 0)"/>
      <use xlink:href="#DejaVuSans-65" transform="translate(391.162109 0)"/>
     </g>
    </g>
    <g id="line2d_22">
     <path d="M 601.790887 188.143437 
L 612.790887 188.143437 
L 623.790887 188.143437 
" style="fill: none; stroke-dasharray: 1.85,0.8; stroke-dashoffset: 0; stroke: #55a868; stroke-opacity: 0.7; stroke-width: 0.5"/>
    </g>
    <g id="text_20">
     <!-- inference -->
     <g style="fill: #262626" transform="translate(632.590887 191.993437) scale(0.11 -0.11)">
      <defs>
       <path id="DejaVuSans-66" d="M 2375 4863 
L 2375 4384 
L 1825 4384 
Q 1516 4384 1395 4259 
Q 1275 4134 1275 3809 
L 1275 3500 
L 2222 3500 
L 2222 3053 
L 1275 3053 
L 1275 0 
L 697 0 
L 697 3053 
L 147 3053 
L 147 3500 
L 697 3500 
L 697 3744 
Q 697 4328 969 4595 
Q 1241 4863 1831 4863 
L 2375 4863 
z
" transform="scale(0.015625)"/>
       <path id="DejaVuSans-63" d="M 3122 3366 
L 3122 2828 
Q 2878 2963 2633 3030 
Q 2388 3097 2138 3097 
Q 1578 3097 1268 2742 
Q 959 2388 959 1747 
Q 959 1106 1268 751 
Q 1578 397 2138 397 
Q 2388 397 2633 464 
Q 2878 531 3122 666 
L 3122 134 
Q 2881 22 2623 -34 
Q 2366 -91 2075 -91 
Q 1284 -91 818 406 
Q 353 903 353 1747 
Q 353 2603 823 3093 
Q 1294 3584 2113 3584 
Q 2378 3584 2631 3529 
Q 2884 3475 3122 3366 
z
" transform="scale(0.015625)"/>
      </defs>
      <use xlink:href="#DejaVuSans-69"/>
      <use xlink:href="#DejaVuSans-6e" transform="translate(27.783203 0)"/>
      <use xlink:href="#DejaVuSans-66" transform="translate(91.162109 0)"/>
      <use xlink:href="#DejaVuSans-65" transform="translate(126.367188 0)"/>
      <use xlink:href="#DejaVuSans-72" transform="translate(187.890625 0)"/>
      <use xlink:href="#DejaVuSans-65" transform="translate(226.753906 0)"/>
      <use xlink:href="#DejaVuSans-6e" transform="translate(288.277344 0)"/>
      <use xlink:href="#DejaVuSans-63" transform="translate(351.65625 0)"/>
      <use xlink:href="#DejaVuSans-65" transform="translate(406.636719 0)"/>
     </g>
    </g>
    <g id="line2d_23">
     <path d="M 601.790887 204.289375 
L 612.790887 204.289375 
L 623.790887 204.289375 
" style="fill: none; stroke-dasharray: 3.2,0.8,0.5,0.8; stroke-dashoffset: 0; stroke: #c44e52; stroke-opacity: 0.7; stroke-width: 0.5"/>
    </g>
    <g id="text_21">
     <!-- set_action -->
     <g style="fill: #262626" transform="translate(632.590887 208.139375) scale(0.11 -0.11)">
      <use xlink:href="#DejaVuSans-73"/>
      <use xlink:href="#DejaVuSans-65" transform="translate(52.099609 0)"/>
      <use xlink:href="#DejaVuSans-74" transform="translate(113.623047 0)"/>
      <use xlink:href="#DejaVuSans-5f" transform="translate(152.832031 0)"/>
      <use xlink:href="#DejaVuSans-61" transform="translate(202.832031 0)"/>
      <use xlink:href="#DejaVuSans-63" transform="translate(264.111328 0)"/>
      <use xlink:href="#DejaVuSans-74" transform="translate(319.091797 0)"/>
      <use xlink:href="#DejaVuSans-69" transform="translate(358.300781 0)"/>
      <use xlink:href="#DejaVuSans-6f" transform="translate(386.083984 0)"/>
      <use xlink:href="#DejaVuSans-6e" transform="translate(447.265625 0)"/>
     </g>
    </g>
    <g id="line2d_24">
     <path d="M 601.790887 220.74125 
L 612.790887 220.74125 
L 623.790887 220.74125 
" style="fill: none; stroke-dasharray: 0.5,0.825; stroke-dashoffset: 0; stroke: #64b5cd; stroke-opacity: 0.7; stroke-width: 0.5"/>
    </g>
    <g id="text_22">
     <!-- sim_step -->
     <g style="fill: #262626" transform="translate(632.590887 224.59125) scale(0.11 -0.11)">
      <use xlink:href="#DejaVuSans-73"/>
      <use xlink:href="#DejaVuSans-69" transform="translate(52.099609 0)"/>
      <use xlink:href="#DejaVuSans-6d" transform="translate(79.882812 0)"/>
      <use xlink:href="#DejaVuSans-5f" transform="translate(177.294922 0)"/>
      <use xlink:href="#DejaVuSans-73" transform="translate(227.294922 0)"/>
      <use xlink:href="#DejaVuSans-74" transform="translate(279.394531 0)"/>
      <use xlink:href="#DejaVuSans-65" transform="translate(318.603516 0)"/>
      <use xlink:href="#DejaVuSans-70" transform="translate(380.126953 0)"/>
     </g>
    </g>
    <g id="line2d_25">
     <path d="M 601.790887 237.193125 
L 612.790887 237.193125 
L 623.790887 237.193125 
" style="fill: none; stroke: #ccb974; stroke-opacity: 0.7; stroke-width: 0.5; stroke-linecap: round"/>
    </g>
    <g id="text_23">
     <!-- log_time -->
     <g style="fill: #262626" transform="translate(632.590887 241.043125) scale(0.11 -0.11)">
      <defs>
       <path id="DejaVuSans-6c" d="M 603 4863 
L 1178 4863 
L 1178 0 
L 603 0 
L 603 4863 
z
" transform="scale(0.015625)"/>
       <path id="DejaVuSans-67" d="M 2906 1791 
Q 2906 2416 2648 2759 
Q 2391 3103 1925 3103 
Q 1463 3103 1205 2759 
Q 947 2416 947 1791 
Q 947 1169 1205 825 
Q 1463 481 1925 481 
Q 2391 481 2648 825 
Q 2906 1169 2906 1791 
z
M 3481 434 
Q 3481 -459 3084 -895 
Q 2688 -1331 1869 -1331 
Q 1566 -1331 1297 -1286 
Q 1028 -1241 775 -1147 
L 775 -588 
Q 1028 -725 1275 -790 
Q 1522 -856 1778 -856 
Q 2344 -856 2625 -561 
Q 2906 -266 2906 331 
L 2906 616 
Q 2728 306 2450 153 
Q 2172 0 1784 0 
Q 1141 0 747 490 
Q 353 981 353 1791 
Q 353 2603 747 3093 
Q 1141 3584 1784 3584 
Q 2172 3584 2450 3431 
Q 2728 3278 2906 2969 
L 2906 3500 
L 3481 3500 
L 3481 434 
z
" transform="scale(0.015625)"/>
      </defs>
      <use xlink:href="#DejaVuSans-6c"/>
      <use xlink:href="#DejaVuSans-6f" transform="translate(27.783203 0)"/>
      <use xlink:href="#DejaVuSans-67" transform="translate(88.964844 0)"/>
      <use xlink:href="#DejaVuSans-5f" transform="translate(152.441406 0)"/>
      <use xlink:href="#DejaVuSans-74" transform="translate(202.441406 0)"/>
      <use xlink:href="#DejaVuSans-69" transform="translate(241.650391 0)"/>
      <use xlink:href="#DejaVuSans-6d" transform="translate(269.433594 0)"/>
      <use xlink:href="#DejaVuSans-65" transform="translate(366.845703 0)"/>
     </g>
    </g>
   </g>
  </g>
 </g>
 <defs>
  <clipPath id="p7b959d1980">
   <rect x="53.37" y="29.04" width="645.291356" height="352.74"/>
  </clipPath>
 </defs>
</svg>
