<?xml version="1.0" encoding="utf-8" standalone="no"?>
<!DOCTYPE svg PUBLIC "-//W3C//DTD SVG 1.1//EN"
  "http://www.w3.org/Graphics/SVG/1.1/DTD/svg11.dtd">
<svg xmlns:xlink="http://www.w3.org/1999/xlink" width="1080pt" height="216pt" viewBox="0 0 1080 216" xmlns="http://www.w3.org/2000/svg" version="1.1">
 <metadata>
  <rdf:RDF xmlns:dc="http://purl.org/dc/elements/1.1/" xmlns:cc="http://creativecommons.org/ns#" xmlns:rdf="http://www.w3.org/1999/02/22-rdf-syntax-ns#">
   <cc:Work>
    <dc:type rdf:resource="http://purl.org/dc/dcmitype/StillImage"/>
    <dc:date>2025-06-10T11:33:18.114679</dc:date>
    <dc:format>image/svg+xml</dc:format>
    <dc:creator>
     <cc:Agent>
      <dc:title>Matplotlib v3.10.0, https://matplotlib.org/</dc:title>
     </cc:Agent>
    </dc:creator>
   </cc:Work>
  </rdf:RDF>
 </metadata>
 <defs>
  <style type="text/css">*{stroke-linejoin: round; stroke-linecap: butt}</style>
 </defs>
 <g id="figure_1">
  <g id="patch_1">
   <path d="M 0 216 
L 1080 216 
L 1080 0 
L 0 0 
z
" style="fill: #ffffff"/>
  </g>
  <g id="axes_1">
   <g id="patch_2">
    <path d="M 55.53 165.78 
L 357.401667 165.78 
L 357.401667 29.04 
L 55.53 29.04 
z
" style="fill: #eaeaf2"/>
   </g>
   <g id="matplotlib.axis_1">
    <g id="xtick_1">
     <g id="line2d_1">
      <path d="M 69.250314 165.78 
L 69.250314 29.04 
" clip-path="url(#p6504a5ca76)" style="fill: none; stroke: #ffffff; stroke-linecap: round"/>
     </g>
     <g id="text_1">
      <!-- 0 -->
      <g style="fill: #262626" transform="translate(65.750939 183.638281) scale(0.11 -0.11)">
       <defs>
        <path id="DejaVuSans-30" d="M 2034 4250 
Q 1547 4250 1301 3770 
Q 1056 3291 1056 2328 
Q 1056 1369 1301 889 
Q 1547 409 2034 409 
Q 2525 409 2770 889 
Q 3016 1369 3016 2328 
Q 3016 3291 2770 3770 
Q 2525 4250 2034 4250 
z
M 2034 4750 
Q 2819 4750 3233 4129 
Q 3647 3509 3647 2328 
Q 3647 1150 3233 529 
Q 2819 -91 2034 -91 
Q 1250 -91 836 529 
Q 422 1150 422 2328 
Q 422 3509 836 4129 
Q 1250 4750 2034 4750 
z
" transform="scale(0.015625)"/>
       </defs>
       <use xlink:href="#DejaVuSans-30"/>
      </g>
     </g>
    </g>
    <g id="xtick_2">
     <g id="line2d_2">
      <path d="M 116.31412 165.78 
L 116.31412 29.04 
" clip-path="url(#p6504a5ca76)" style="fill: none; stroke: #ffffff; stroke-linecap: round"/>
     </g>
     <g id="text_2">
      <!-- 20 -->
      <g style="fill: #262626" transform="translate(109.31537 183.638281) scale(0.11 -0.11)">
       <defs>
        <path id="DejaVuSans-32" d="M 1228 531 
L 3431 531 
L 3431 0 
L 469 0 
L 469 531 
Q 828 903 1448 1529 
Q 2069 2156 2228 2338 
Q 2531 2678 2651 2914 
Q 2772 3150 2772 3378 
Q 2772 3750 2511 3984 
Q 2250 4219 1831 4219 
Q 1534 4219 1204 4116 
Q 875 4013 500 3803 
L 500 4441 
Q 881 4594 1212 4672 
Q 1544 4750 1819 4750 
Q 2544 4750 2975 4387 
Q 3406 4025 3406 3419 
Q 3406 3131 3298 2873 
Q 3191 2616 2906 2266 
Q 2828 2175 2409 1742 
Q 1991 1309 1228 531 
z
" transform="scale(0.015625)"/>
       </defs>
       <use xlink:href="#DejaVuSans-32"/>
       <use xlink:href="#DejaVuSans-30" transform="translate(63.623047 0)"/>
      </g>
     </g>
    </g>
    <g id="xtick_3">
     <g id="line2d_3">
      <path d="M 163.377925 165.78 
L 163.377925 29.04 
" clip-path="url(#p6504a5ca76)" style="fill: none; stroke: #ffffff; stroke-linecap: round"/>
     </g>
     <g id="text_3">
      <!-- 40 -->
      <g style="fill: #262626" transform="translate(156.379175 183.638281) scale(0.11 -0.11)">
       <defs>
        <path id="DejaVuSans-34" d="M 2419 4116 
L 825 1625 
L 2419 1625 
L 2419 4116 
z
M 2253 4666 
L 3047 4666 
L 3047 1625 
L 3713 1625 
L 3713 1100 
L 3047 1100 
L 3047 0 
L 2419 0 
L 2419 1100 
L 313 1100 
L 313 1709 
L 2253 4666 
z
" transform="scale(0.015625)"/>
       </defs>
       <use xlink:href="#DejaVuSans-34"/>
       <use xlink:href="#DejaVuSans-30" transform="translate(63.623047 0)"/>
      </g>
     </g>
    </g>
    <g id="xtick_4">
     <g id="line2d_4">
      <path d="M 210.441731 165.78 
L 210.441731 29.04 
" clip-path="url(#p6504a5ca76)" style="fill: none; stroke: #ffffff; stroke-linecap: round"/>
     </g>
     <g id="text_4">
      <!-- 60 -->
      <g style="fill: #262626" transform="translate(203.442981 183.638281) scale(0.11 -0.11)">
       <defs>
        <path id="DejaVuSans-36" d="M 2113 2584 
Q 1688 2584 1439 2293 
Q 1191 2003 1191 1497 
Q 1191 994 1439 701 
Q 1688 409 2113 409 
Q 2538 409 2786 701 
Q 3034 994 3034 1497 
Q 3034 2003 2786 2293 
Q 2538 2584 2113 2584 
z
M 3366 4563 
L 3366 3988 
Q 3128 4100 2886 4159 
Q 2644 4219 2406 4219 
Q 1781 4219 1451 3797 
Q 1122 3375 1075 2522 
Q 1259 2794 1537 2939 
Q 1816 3084 2150 3084 
Q 2853 3084 3261 2657 
Q 3669 2231 3669 1497 
Q 3669 778 3244 343 
Q 2819 -91 2113 -91 
Q 1303 -91 875 529 
Q 447 1150 447 2328 
Q 447 3434 972 4092 
Q 1497 4750 2381 4750 
Q 2619 4750 2861 4703 
Q 3103 4656 3366 4563 
z
" transform="scale(0.015625)"/>
       </defs>
       <use xlink:href="#DejaVuSans-36"/>
       <use xlink:href="#DejaVuSans-30" transform="translate(63.623047 0)"/>
      </g>
     </g>
    </g>
    <g id="xtick_5">
     <g id="line2d_5">
      <path d="M 257.505537 165.78 
L 257.505537 29.04 
" clip-path="url(#p6504a5ca76)" style="fill: none; stroke: #ffffff; stroke-linecap: round"/>
     </g>
     <g id="text_5">
      <!-- 80 -->
      <g style="fill: #262626" transform="translate(250.506787 183.638281) scale(0.11 -0.11)">
       <defs>
        <path id="DejaVuSans-38" d="M 2034 2216 
Q 1584 2216 1326 1975 
Q 1069 1734 1069 1313 
Q 1069 891 1326 650 
Q 1584 409 2034 409 
Q 2484 409 2743 651 
Q 3003 894 3003 1313 
Q 3003 1734 2745 1975 
Q 2488 2216 2034 2216 
z
M 1403 2484 
Q 997 2584 770 2862 
Q 544 3141 544 3541 
Q 544 4100 942 4425 
Q 1341 4750 2034 4750 
Q 2731 4750 3128 4425 
Q 3525 4100 3525 3541 
Q 3525 3141 3298 2862 
Q 3072 2584 2669 2484 
Q 3125 2378 3379 2068 
Q 3634 1759 3634 1313 
Q 3634 634 3220 271 
Q 2806 -91 2034 -91 
Q 1263 -91 848 271 
Q 434 634 434 1313 
Q 434 1759 690 2068 
Q 947 2378 1403 2484 
z
M 1172 3481 
Q 1172 3119 1398 2916 
Q 1625 2713 2034 2713 
Q 2441 2713 2670 2916 
Q 2900 3119 2900 3481 
Q 2900 3844 2670 4047 
Q 2441 4250 2034 4250 
Q 1625 4250 1398 4047 
Q 1172 3844 1172 3481 
z
" transform="scale(0.015625)"/>
       </defs>
       <use xlink:href="#DejaVuSans-38"/>
       <use xlink:href="#DejaVuSans-30" transform="translate(63.623047 0)"/>
      </g>
     </g>
    </g>
    <g id="xtick_6">
     <g id="line2d_6">
      <path d="M 304.569343 165.78 
L 304.569343 29.04 
" clip-path="url(#p6504a5ca76)" style="fill: none; stroke: #ffffff; stroke-linecap: round"/>
     </g>
     <g id="text_6">
      <!-- 100 -->
      <g style="fill: #262626" transform="translate(294.071218 183.638281) scale(0.11 -0.11)">
       <defs>
        <path id="DejaVuSans-31" d="M 794 531 
L 1825 531 
L 1825 4091 
L 703 3866 
L 703 4441 
L 1819 4666 
L 2450 4666 
L 2450 531 
L 3481 531 
L 3481 0 
L 794 0 
L 794 531 
z
" transform="scale(0.015625)"/>
       </defs>
       <use xlink:href="#DejaVuSans-31"/>
       <use xlink:href="#DejaVuSans-30" transform="translate(63.623047 0)"/>
       <use xlink:href="#DejaVuSans-30" transform="translate(127.246094 0)"/>
      </g>
     </g>
    </g>
    <g id="xtick_7">
     <g id="line2d_7">
      <path d="M 351.633148 165.78 
L 351.633148 29.04 
" clip-path="url(#p6504a5ca76)" style="fill: none; stroke: #ffffff; stroke-linecap: round"/>
     </g>
     <g id="text_7">
      <!-- 120 -->
      <g style="fill: #262626" transform="translate(341.135023 183.638281) scale(0.11 -0.11)">
       <use xlink:href="#DejaVuSans-31"/>
       <use xlink:href="#DejaVuSans-32" transform="translate(63.623047 0)"/>
       <use xlink:href="#DejaVuSans-30" transform="translate(127.246094 0)"/>
      </g>
     </g>
    </g>
    <g id="text_8">
     <!-- Time (s) -->
     <g style="fill: #262626" transform="translate(182.071146 199.044062) scale(0.12 -0.12)">
      <defs>
       <path id="DejaVuSans-54" d="M -19 4666 
L 3928 4666 
L 3928 4134 
L 2272 4134 
L 2272 0 
L 1638 0 
L 1638 4134 
L -19 4134 
L -19 4666 
z
" transform="scale(0.015625)"/>
       <path id="DejaVuSans-69" d="M 603 3500 
L 1178 3500 
L 1178 0 
L 603 0 
L 603 3500 
z
M 603 4863 
L 1178 4863 
L 1178 4134 
L 603 4134 
L 603 4863 
z
" transform="scale(0.015625)"/>
       <path id="DejaVuSans-6d" d="M 3328 2828 
Q 3544 3216 3844 3400 
Q 4144 3584 4550 3584 
Q 5097 3584 5394 3201 
Q 5691 2819 5691 2113 
L 5691 0 
L 5113 0 
L 5113 2094 
Q 5113 2597 4934 2840 
Q 4756 3084 4391 3084 
Q 3944 3084 3684 2787 
Q 3425 2491 3425 1978 
L 3425 0 
L 2847 0 
L 2847 2094 
Q 2847 2600 2669 2842 
Q 2491 3084 2119 3084 
Q 1678 3084 1418 2786 
Q 1159 2488 1159 1978 
L 1159 0 
L 581 0 
L 581 3500 
L 1159 3500 
L 1159 2956 
Q 1356 3278 1631 3431 
Q 1906 3584 2284 3584 
Q 2666 3584 2933 3390 
Q 3200 3197 3328 2828 
z
" transform="scale(0.015625)"/>
       <path id="DejaVuSans-65" d="M 3597 1894 
L 3597 1613 
L 953 1613 
Q 991 1019 1311 708 
Q 1631 397 2203 397 
Q 2534 397 2845 478 
Q 3156 559 3463 722 
L 3463 178 
Q 3153 47 2828 -22 
Q 2503 -91 2169 -91 
Q 1331 -91 842 396 
Q 353 884 353 1716 
Q 353 2575 817 3079 
Q 1281 3584 2069 3584 
Q 2775 3584 3186 3129 
Q 3597 2675 3597 1894 
z
M 3022 2063 
Q 3016 2534 2758 2815 
Q 2500 3097 2075 3097 
Q 1594 3097 1305 2825 
Q 1016 2553 972 2059 
L 3022 2063 
z
" transform="scale(0.015625)"/>
       <path id="DejaVuSans-20" transform="scale(0.015625)"/>
       <path id="DejaVuSans-28" d="M 1984 4856 
Q 1566 4138 1362 3434 
Q 1159 2731 1159 2009 
Q 1159 1288 1364 580 
Q 1569 -128 1984 -844 
L 1484 -844 
Q 1016 -109 783 600 
Q 550 1309 550 2009 
Q 550 2706 781 3412 
Q 1013 4119 1484 4856 
L 1984 4856 
z
" transform="scale(0.015625)"/>
       <path id="DejaVuSans-73" d="M 2834 3397 
L 2834 2853 
Q 2591 2978 2328 3040 
Q 2066 3103 1784 3103 
Q 1356 3103 1142 2972 
Q 928 2841 928 2578 
Q 928 2378 1081 2264 
Q 1234 2150 1697 2047 
L 1894 2003 
Q 2506 1872 2764 1633 
Q 3022 1394 3022 966 
Q 3022 478 2636 193 
Q 2250 -91 1575 -91 
Q 1294 -91 989 -36 
Q 684 19 347 128 
L 347 722 
Q 666 556 975 473 
Q 1284 391 1588 391 
Q 1994 391 2212 530 
Q 2431 669 2431 922 
Q 2431 1156 2273 1281 
Q 2116 1406 1581 1522 
L 1381 1569 
Q 847 1681 609 1914 
Q 372 2147 372 2553 
Q 372 3047 722 3315 
Q 1072 3584 1716 3584 
Q 2034 3584 2315 3537 
Q 2597 3491 2834 3397 
z
" transform="scale(0.015625)"/>
       <path id="DejaVuSans-29" d="M 513 4856 
L 1013 4856 
Q 1481 4119 1714 3412 
Q 1947 2706 1947 2009 
Q 1947 1309 1714 600 
Q 1481 -109 1013 -844 
L 513 -844 
Q 928 -128 1133 580 
Q 1338 1288 1338 2009 
Q 1338 2731 1133 3434 
Q 928 4138 513 4856 
z
" transform="scale(0.015625)"/>
      </defs>
      <use xlink:href="#DejaVuSans-54"/>
      <use xlink:href="#DejaVuSans-69" transform="translate(57.958984 0)"/>
      <use xlink:href="#DejaVuSans-6d" transform="translate(85.742188 0)"/>
      <use xlink:href="#DejaVuSans-65" transform="translate(183.154297 0)"/>
      <use xlink:href="#DejaVuSans-20" transform="translate(244.677734 0)"/>
      <use xlink:href="#DejaVuSans-28" transform="translate(276.464844 0)"/>
      <use xlink:href="#DejaVuSans-73" transform="translate(315.478516 0)"/>
      <use xlink:href="#DejaVuSans-29" transform="translate(367.578125 0)"/>
     </g>
    </g>
   </g>
   <g id="matplotlib.axis_2">
    <g id="ytick_1">
     <g id="line2d_8">
      <path d="M 55.53 157.397221 
L 357.401667 157.397221 
" clip-path="url(#p6504a5ca76)" style="fill: none; stroke: #ffffff; stroke-linecap: round"/>
     </g>
     <g id="text_9">
      <!-- −2 -->
      <g style="fill: #262626" transform="translate(29.813594 161.576362) scale(0.11 -0.11)">
       <defs>
        <path id="DejaVuSans-2212" d="M 678 2272 
L 4684 2272 
L 4684 1741 
L 678 1741 
L 678 2272 
z
" transform="scale(0.015625)"/>
       </defs>
       <use xlink:href="#DejaVuSans-2212"/>
       <use xlink:href="#DejaVuSans-32" transform="translate(83.789062 0)"/>
      </g>
     </g>
    </g>
    <g id="ytick_2">
     <g id="line2d_9">
      <path d="M 55.53 126.817248 
L 357.401667 126.817248 
" clip-path="url(#p6504a5ca76)" style="fill: none; stroke: #ffffff; stroke-linecap: round"/>
     </g>
     <g id="text_10">
      <!-- −1 -->
      <g style="fill: #262626" transform="translate(29.813594 130.996389) scale(0.11 -0.11)">
       <use xlink:href="#DejaVuSans-2212"/>
       <use xlink:href="#DejaVuSans-31" transform="translate(83.789062 0)"/>
      </g>
     </g>
    </g>
    <g id="ytick_3">
     <g id="line2d_10">
      <path d="M 55.53 96.237275 
L 357.401667 96.237275 
" clip-path="url(#p6504a5ca76)" style="fill: none; stroke: #ffffff; stroke-linecap: round"/>
     </g>
     <g id="text_11">
      <!-- 0 -->
      <g style="fill: #262626" transform="translate(39.03125 100.416415) scale(0.11 -0.11)">
       <use xlink:href="#DejaVuSans-30"/>
      </g>
     </g>
    </g>
    <g id="ytick_4">
     <g id="line2d_11">
      <path d="M 55.53 65.657302 
L 357.401667 65.657302 
" clip-path="url(#p6504a5ca76)" style="fill: none; stroke: #ffffff; stroke-linecap: round"/>
     </g>
     <g id="text_12">
      <!-- 1 -->
      <g style="fill: #262626" transform="translate(39.03125 69.836442) scale(0.11 -0.11)">
       <use xlink:href="#DejaVuSans-31"/>
      </g>
     </g>
    </g>
    <g id="ytick_5">
     <g id="line2d_12">
      <path d="M 55.53 35.077329 
L 357.401667 35.077329 
" clip-path="url(#p6504a5ca76)" style="fill: none; stroke: #ffffff; stroke-linecap: round"/>
     </g>
     <g id="text_13">
      <!-- 2 -->
      <g style="fill: #262626" transform="translate(39.03125 39.256469) scale(0.11 -0.11)">
       <use xlink:href="#DejaVuSans-32"/>
      </g>
     </g>
    </g>
    <g id="text_14">
     <!-- Velocity (rad/s) -->
     <g style="fill: #262626" transform="translate(23.317969 142.636875) rotate(-90) scale(0.12 -0.12)">
      <defs>
       <path id="DejaVuSans-56" d="M 1831 0 
L 50 4666 
L 709 4666 
L 2188 738 
L 3669 4666 
L 4325 4666 
L 2547 0 
L 1831 0 
z
" transform="scale(0.015625)"/>
       <path id="DejaVuSans-6c" d="M 603 4863 
L 1178 4863 
L 1178 0 
L 603 0 
L 603 4863 
z
" transform="scale(0.015625)"/>
       <path id="DejaVuSans-6f" d="M 1959 3097 
Q 1497 3097 1228 2736 
Q 959 2375 959 1747 
Q 959 1119 1226 758 
Q 1494 397 1959 397 
Q 2419 397 2687 759 
Q 2956 1122 2956 1747 
Q 2956 2369 2687 2733 
Q 2419 3097 1959 3097 
z
M 1959 3584 
Q 2709 3584 3137 3096 
Q 3566 2609 3566 1747 
Q 3566 888 3137 398 
Q 2709 -91 1959 -91 
Q 1206 -91 779 398 
Q 353 888 353 1747 
Q 353 2609 779 3096 
Q 1206 3584 1959 3584 
z
" transform="scale(0.015625)"/>
       <path id="DejaVuSans-63" d="M 3122 3366 
L 3122 2828 
Q 2878 2963 2633 3030 
Q 2388 3097 2138 3097 
Q 1578 3097 1268 2742 
Q 959 2388 959 1747 
Q 959 1106 1268 751 
Q 1578 397 2138 397 
Q 2388 397 2633 464 
Q 2878 531 3122 666 
L 3122 134 
Q 2881 22 2623 -34 
Q 2366 -91 2075 -91 
Q 1284 -91 818 406 
Q 353 903 353 1747 
Q 353 2603 823 3093 
Q 1294 3584 2113 3584 
Q 2378 3584 2631 3529 
Q 2884 3475 3122 3366 
z
" transform="scale(0.015625)"/>
       <path id="DejaVuSans-74" d="M 1172 4494 
L 1172 3500 
L 2356 3500 
L 2356 3053 
L 1172 3053 
L 1172 1153 
Q 1172 725 1289 603 
Q 1406 481 1766 481 
L 2356 481 
L 2356 0 
L 1766 0 
Q 1100 0 847 248 
Q 594 497 594 1153 
L 594 3053 
L 172 3053 
L 172 3500 
L 594 3500 
L 594 4494 
L 1172 4494 
z
" transform="scale(0.015625)"/>
       <path id="DejaVuSans-79" d="M 2059 -325 
Q 1816 -950 1584 -1140 
Q 1353 -1331 966 -1331 
L 506 -1331 
L 506 -850 
L 844 -850 
Q 1081 -850 1212 -737 
Q 1344 -625 1503 -206 
L 1606 56 
L 191 3500 
L 800 3500 
L 1894 763 
L 2988 3500 
L 3597 3500 
L 2059 -325 
z
" transform="scale(0.015625)"/>
       <path id="DejaVuSans-72" d="M 2631 2963 
Q 2534 3019 2420 3045 
Q 2306 3072 2169 3072 
Q 1681 3072 1420 2755 
Q 1159 2438 1159 1844 
L 1159 0 
L 581 0 
L 581 3500 
L 1159 3500 
L 1159 2956 
Q 1341 3275 1631 3429 
Q 1922 3584 2338 3584 
Q 2397 3584 2469 3576 
Q 2541 3569 2628 3553 
L 2631 2963 
z
" transform="scale(0.015625)"/>
       <path id="DejaVuSans-61" d="M 2194 1759 
Q 1497 1759 1228 1600 
Q 959 1441 959 1056 
Q 959 750 1161 570 
Q 1363 391 1709 391 
Q 2188 391 2477 730 
Q 2766 1069 2766 1631 
L 2766 1759 
L 2194 1759 
z
M 3341 1997 
L 3341 0 
L 2766 0 
L 2766 531 
Q 2569 213 2275 61 
Q 1981 -91 1556 -91 
Q 1019 -91 701 211 
Q 384 513 384 1019 
Q 384 1609 779 1909 
Q 1175 2209 1959 2209 
L 2766 2209 
L 2766 2266 
Q 2766 2663 2505 2880 
Q 2244 3097 1772 3097 
Q 1472 3097 1187 3025 
Q 903 2953 641 2809 
L 641 3341 
Q 956 3463 1253 3523 
Q 1550 3584 1831 3584 
Q 2591 3584 2966 3190 
Q 3341 2797 3341 1997 
z
" transform="scale(0.015625)"/>
       <path id="DejaVuSans-64" d="M 2906 2969 
L 2906 4863 
L 3481 4863 
L 3481 0 
L 2906 0 
L 2906 525 
Q 2725 213 2448 61 
Q 2172 -91 1784 -91 
Q 1150 -91 751 415 
Q 353 922 353 1747 
Q 353 2572 751 3078 
Q 1150 3584 1784 3584 
Q 2172 3584 2448 3432 
Q 2725 3281 2906 2969 
z
M 947 1747 
Q 947 1113 1208 752 
Q 1469 391 1925 391 
Q 2381 391 2643 752 
Q 2906 1113 2906 1747 
Q 2906 2381 2643 2742 
Q 2381 3103 1925 3103 
Q 1469 3103 1208 2742 
Q 947 2381 947 1747 
z
" transform="scale(0.015625)"/>
       <path id="DejaVuSans-2f" d="M 1625 4666 
L 2156 4666 
L 531 -594 
L 0 -594 
L 1625 4666 
z
" transform="scale(0.015625)"/>
      </defs>
      <use xlink:href="#DejaVuSans-56"/>
      <use xlink:href="#DejaVuSans-65" transform="translate(60.658203 0)"/>
      <use xlink:href="#DejaVuSans-6c" transform="translate(122.181641 0)"/>
      <use xlink:href="#DejaVuSans-6f" transform="translate(149.964844 0)"/>
      <use xlink:href="#DejaVuSans-63" transform="translate(211.146484 0)"/>
      <use xlink:href="#DejaVuSans-69" transform="translate(266.126953 0)"/>
      <use xlink:href="#DejaVuSans-74" transform="translate(293.910156 0)"/>
      <use xlink:href="#DejaVuSans-79" transform="translate(333.119141 0)"/>
      <use xlink:href="#DejaVuSans-20" transform="translate(392.298828 0)"/>
      <use xlink:href="#DejaVuSans-28" transform="translate(424.085938 0)"/>
      <use xlink:href="#DejaVuSans-72" transform="translate(463.099609 0)"/>
      <use xlink:href="#DejaVuSans-61" transform="translate(504.212891 0)"/>
      <use xlink:href="#DejaVuSans-64" transform="translate(565.492188 0)"/>
      <use xlink:href="#DejaVuSans-2f" transform="translate(628.96875 0)"/>
      <use xlink:href="#DejaVuSans-73" transform="translate(662.660156 0)"/>
      <use xlink:href="#DejaVuSans-29" transform="translate(714.759766 0)"/>
     </g>
    </g>
   </g>
   <g id="line2d_13">
    <path d="M 69.251439 96.237275 
L 74.192584 96.237275 
L 74.428424 86.855456 
L 74.476059 89.200911 
L 74.569637 79.819094 
L 74.616997 82.164548 
L 74.805003 75.128184 
L 74.898595 77.473638 
L 74.945645 72.782728 
L 74.992791 75.128184 
L 75.08764 75.128184 
L 75.181483 72.782728 
L 75.227953 75.128184 
L 75.275026 70.437274 
L 75.323177 72.782728 
L 75.510363 77.473638 
L 75.557544 77.473638 
L 75.839937 96.237275 
L 75.887421 96.237275 
L 76.311015 129.073637 
L 76.734872 147.837276 
L 77.440536 107.964548 
L 77.675326 93.89182 
L 77.722368 93.89182 
L 77.864087 77.473638 
L 78.052657 65.746365 
L 78.099005 65.746365 
L 78.663583 89.200911 
L 79.182244 68.09182 
L 79.793643 103.273638 
L 79.887735 98.582729 
L 79.935895 98.582729 
L 80.217232 86.855456 
L 80.405469 98.582729 
L 80.500847 103.273638 
L 80.641843 115.000912 
L 81.016825 96.237275 
L 81.205298 105.619093 
L 81.3469 115.000912 
L 81.440893 112.655456 
L 81.817884 96.237275 
L 82.052414 110.310002 
L 82.147048 110.310002 
L 82.476144 93.89182 
L 82.523601 96.237275 
L 82.617286 96.237275 
L 82.759718 105.619093 
L 83.228694 86.855456 
L 83.322975 93.89182 
L 83.36996 91.546366 
L 83.417447 93.89182 
L 83.605302 82.164548 
L 83.652822 82.164548 
L 83.699837 79.819094 
L 83.746721 82.164548 
L 83.794067 82.164548 
L 83.981848 91.546366 
L 84.217153 84.510002 
L 84.264258 84.510002 
L 84.593713 96.237275 
L 84.829032 96.237275 
L 85.112024 105.619093 
L 85.205945 98.582729 
L 85.25272 100.928184 
L 85.300121 98.582729 
L 85.441123 105.619093 
L 85.535601 105.619093 
L 85.817424 96.237275 
L 85.91179 96.237275 
L 86.052943 100.928184 
L 86.242106 91.546366 
L 86.382131 96.237275 
L 86.429494 96.237275 
L 86.476509 98.582729 
L 86.523366 96.237275 
L 86.572194 96.237275 
L 86.664883 91.546366 
L 86.853429 96.237275 
L 87.088106 96.237275 
L 87.136731 93.89182 
L 87.182209 96.237275 
L 87.417606 103.273638 
L 87.464507 98.582729 
L 87.511897 103.273638 
L 87.559334 100.928184 
L 87.605768 103.273638 
L 87.653417 103.273638 
L 87.69993 105.619093 
L 87.747198 103.273638 
L 87.794056 103.273638 
L 87.935478 96.237275 
L 87.983899 96.237275 
L 88.123531 100.928184 
L 88.359432 93.89182 
L 88.453501 93.89182 
L 88.500023 96.237275 
L 88.547901 93.89182 
L 88.594139 93.89182 
L 88.641362 84.510002 
L 88.735506 86.855456 
L 88.831187 96.237275 
L 88.876394 93.89182 
L 88.923576 93.89182 
L 89.065375 89.200911 
L 89.300255 96.237275 
L 89.488193 89.200911 
L 89.582439 96.237275 
L 89.676404 93.89182 
L 89.723508 93.89182 
L 89.770639 91.546366 
L 89.817932 93.89182 
L 89.958965 96.237275 
L 90.100394 96.237275 
L 90.194259 93.89182 
L 90.382605 98.582729 
L 90.523961 96.237275 
L 90.712495 103.273638 
L 90.759348 96.237275 
L 90.80631 100.928184 
L 90.99427 107.964548 
L 91.230035 100.928184 
L 91.276783 103.273638 
L 91.418398 96.237275 
L 91.559533 93.89182 
L 91.606205 96.237275 
L 91.653952 91.546366 
L 91.700732 93.89182 
L 91.747437 93.89182 
L 91.794727 84.510002 
L 91.841669 86.855456 
L 91.889193 91.546366 
L 91.936283 89.200911 
L 92.07667 86.855456 
L 92.21803 96.237275 
L 92.406417 91.546366 
L 92.547489 96.237275 
L 92.688992 91.546366 
L 92.830284 96.237275 
L 92.876899 98.582729 
L 92.924154 96.237275 
L 93.018189 96.237275 
L 93.112346 100.928184 
L 93.30098 96.237275 
L 93.347816 96.237275 
L 93.441777 98.582729 
L 93.535836 96.237275 
L 93.724079 100.928184 
L 93.865251 96.237275 
L 94.007089 98.582729 
L 94.053559 98.582729 
L 94.194706 96.237275 
L 94.242144 100.928184 
L 94.288855 98.582729 
L 94.430116 96.237275 
L 94.61866 96.237275 
L 94.712806 91.546366 
L 94.806592 96.237275 
L 94.948093 91.546366 
L 95.089299 96.237275 
L 95.230369 89.200911 
L 95.326114 96.237275 
L 95.371341 93.89182 
L 95.560258 98.582729 
L 95.794937 98.582729 
L 95.936335 96.237275 
L 96.265929 96.237275 
L 96.35999 98.582729 
L 96.501145 96.237275 
L 96.548 98.582729 
L 96.596733 96.237275 
L 96.641893 96.237275 
L 96.689095 93.89182 
L 96.736017 96.237275 
L 96.971491 96.237275 
L 97.206858 103.273638 
L 97.348303 103.273638 
L 97.395048 100.928184 
L 97.443785 103.273638 
L 97.48921 103.273638 
L 98.10129 70.437274 
L 98.289268 82.164548 
L 98.665723 100.928184 
L 98.712841 96.237275 
L 98.760181 100.928184 
L 98.807423 103.273638 
L 98.901026 98.582729 
L 98.995492 100.928184 
L 99.136285 98.582729 
L 99.183328 100.928184 
L 99.230532 98.582729 
L 99.371713 98.582729 
L 99.419097 100.928184 
L 99.465895 98.582729 
L 99.560289 98.582729 
L 99.607038 100.928184 
L 99.65412 98.582729 
L 99.795649 98.582729 
L 99.842324 100.928184 
L 99.889436 98.582729 
L 100.030644 98.582729 
L 100.077683 100.928184 
L 100.126529 98.582729 
L 100.266231 98.582729 
L 100.312992 100.928184 
L 100.36007 98.582729 
L 100.501916 98.582729 
L 100.548368 100.928184 
L 100.595797 98.582729 
L 100.73658 98.582729 
L 100.783657 100.928184 
L 100.83074 98.582729 
L 100.972085 98.582729 
L 101.019244 100.928184 
L 101.066056 98.582729 
L 101.207209 98.582729 
L 101.348705 96.237275 
L 102.430882 96.237275 
L 102.619801 82.164548 
L 102.666209 84.510002 
L 102.807356 70.437274 
L 103.042727 63.400913 
L 103.090165 63.400913 
L 103.231711 58.710001 
L 103.419203 54.019093 
L 103.513345 54.019093 
L 103.560444 56.364547 
L 103.607482 54.019093 
L 103.654564 54.019093 
L 104.266377 89.200911 
L 104.454606 100.928184 
L 104.501694 98.582729 
L 104.642875 117.346366 
L 105.254986 152.528184 
L 105.396148 159.564545 
L 105.536872 152.528184 
L 105.584075 152.528184 
L 105.86651 133.764549 
L 106.384261 107.964548 
L 106.620224 122.037275 
L 106.713612 122.037275 
L 106.760773 124.382729 
L 106.948762 112.655456 
L 106.995832 112.655456 
L 107.231187 96.237275 
L 107.278472 96.237275 
L 107.513625 77.473638 
L 107.560689 77.473638 
L 107.890117 89.200911 
L 107.937339 89.200911 
L 108.408006 63.400913 
L 108.45553 65.746365 
L 108.784316 79.819094 
L 109.161323 65.746365 
L 109.207938 65.746365 
L 109.725782 86.855456 
L 109.915227 79.819094 
L 110.384688 105.619093 
L 110.431749 98.582729 
L 110.525875 100.928184 
L 110.620007 96.237275 
L 110.667047 98.582729 
L 110.855277 107.964548 
L 110.996536 115.000912 
L 111.043574 112.655456 
L 111.090875 112.655456 
L 111.326201 103.273638 
L 111.514956 115.000912 
L 111.561283 115.000912 
L 111.843685 105.619093 
L 111.984851 105.619093 
L 112.126099 110.310002 
L 112.173041 110.310002 
L 112.502368 96.237275 
L 112.690816 105.619093 
L 112.737838 103.273638 
L 113.020249 91.546366 
L 113.161488 96.237275 
L 113.208511 96.237275 
L 113.302658 98.582729 
L 113.538248 89.200911 
L 113.584968 96.237275 
L 113.632092 93.89182 
L 113.914516 84.510002 
L 113.961525 84.510002 
L 114.008871 82.164548 
L 114.149771 93.89182 
L 114.196823 91.546366 
L 114.292054 91.546366 
L 114.431977 86.855456 
L 114.479328 86.855456 
L 114.620572 91.546366 
L 114.667477 91.546366 
L 114.808714 86.855456 
L 114.902749 84.510002 
L 115.138158 93.89182 
L 115.279301 86.855456 
L 115.561512 96.237275 
L 115.70265 91.546366 
L 115.985269 100.928184 
L 116.126502 96.237275 
L 116.408803 107.964548 
L 116.502815 103.273638 
L 116.691421 107.964548 
L 116.87974 103.273638 
L 116.926551 103.273638 
L 117.114775 107.964548 
L 117.255987 100.928184 
L 117.444244 107.964548 
L 117.632232 103.273638 
L 117.726333 103.273638 
L 117.773449 105.619093 
L 117.820726 103.273638 
L 118.056127 96.237275 
L 118.150301 96.237275 
L 118.19721 98.582729 
L 118.24432 96.237275 
L 118.338449 91.546366 
L 118.385456 93.89182 
L 118.432595 96.237275 
L 118.479626 93.89182 
L 118.668184 86.855456 
L 118.808841 93.89182 
L 118.950008 89.200911 
L 119.04416 89.200911 
L 119.185618 96.237275 
L 119.326795 91.546366 
L 119.51512 96.237275 
L 119.705046 96.237275 
L 119.797396 100.928184 
L 119.844471 98.582729 
L 120.032779 91.546366 
L 120.126876 96.237275 
L 120.26782 89.200911 
L 120.409395 96.237275 
L 120.456093 96.237275 
L 120.598423 91.546366 
L 120.73866 96.237275 
L 120.83283 96.237275 
L 120.87989 93.89182 
L 120.926974 96.237275 
L 120.974082 96.237275 
L 121.020937 98.582729 
L 121.06808 96.237275 
L 121.444664 96.237275 
L 121.538796 91.546366 
L 121.679985 96.237275 
L 121.774118 91.546366 
L 121.821236 93.89182 
L 121.868266 93.89182 
L 121.915324 96.237275 
L 121.962445 93.89182 
L 122.00925 93.89182 
L 122.056249 91.546366 
L 122.103882 93.89182 
L 122.151712 93.89182 
L 122.197659 96.237275 
L 122.244782 93.89182 
L 122.291778 93.89182 
L 122.338898 89.200911 
L 122.386739 93.89182 
L 122.480065 93.89182 
L 122.621285 91.546366 
L 122.668372 91.546366 
L 122.762478 96.237275 
L 122.809502 93.89182 
L 122.903634 93.89182 
L 123.044594 96.237275 
L 123.185798 96.237275 
L 123.232979 98.582729 
L 123.279887 96.237275 
L 123.703693 96.237275 
L 123.844641 103.273638 
L 123.891729 103.273638 
L 123.938812 98.582729 
L 123.985849 100.928184 
L 124.080192 100.928184 
L 124.127077 98.582729 
L 124.174208 100.928184 
L 124.362623 100.928184 
L 124.503831 96.237275 
L 124.550932 98.582729 
L 124.598454 96.237275 
L 124.692053 96.237275 
L 124.927218 89.200911 
L 124.974284 93.89182 
L 125.021505 91.546366 
L 125.068351 91.546366 
L 125.209877 89.200911 
L 125.303687 96.237275 
L 125.350787 93.89182 
L 125.398028 93.89182 
L 125.586223 98.582729 
L 125.633349 98.582729 
L 125.727739 103.273638 
L 125.77437 100.928184 
L 125.821614 100.928184 
L 125.868472 103.273638 
L 126.103965 86.855456 
L 126.151054 86.855456 
L 126.43449 68.09182 
L 126.480468 68.09182 
L 126.999107 96.237275 
L 127.186348 107.964548 
L 127.280596 107.964548 
L 127.468817 103.273638 
L 127.609979 103.273638 
L 127.751219 100.928184 
L 127.798294 103.273638 
L 127.845341 100.928184 
L 127.89376 100.928184 
L 128.033597 103.273638 
L 128.174787 100.928184 
L 128.221836 103.273638 
L 128.268924 100.928184 
L 128.315969 100.928184 
L 128.364127 103.273638 
L 128.410117 100.928184 
L 128.457176 100.928184 
L 128.504285 103.273638 
L 128.551302 100.928184 
L 128.598309 100.928184 
L 128.739574 103.273638 
L 128.880744 100.928184 
L 128.975675 100.928184 
L 129.021956 103.273638 
L 129.069062 100.928184 
L 129.115883 100.928184 
L 129.210739 103.273638 
L 129.304102 100.928184 
L 129.351137 103.273638 
L 129.398338 100.928184 
L 129.445522 100.928184 
L 129.5867 98.582729 
L 129.634771 98.582729 
L 129.77497 96.237275 
L 130.669183 96.237275 
L 130.951382 77.473638 
L 131.18688 61.055455 
L 131.233977 61.055455 
L 131.84698 35.255455 
L 132.833932 89.200911 
L 133.023233 103.273638 
L 133.069363 100.928184 
L 133.210608 117.346366 
L 133.823805 152.528184 
L 133.916561 147.837276 
L 133.964852 147.837276 
L 134.199008 131.419095 
L 134.246046 131.419095 
L 134.387498 122.037275 
L 134.528891 122.037275 
L 134.763704 136.110003 
L 135.14016 150.18273 
L 135.752081 117.346366 
L 135.846223 119.691821 
L 136.03448 129.073637 
L 136.08151 126.728185 
L 136.175565 126.728185 
L 136.552292 103.273638 
L 136.740407 91.546366 
L 136.787756 96.237275 
L 136.835169 91.546366 
L 136.882698 91.546366 
L 137.022801 96.237275 
L 137.58754 70.437274 
L 137.776983 79.819094 
L 137.870546 79.819094 
L 138.059629 70.437274 
L 138.293514 63.400913 
L 138.575916 75.128184 
L 138.905191 63.400913 
L 139.328904 79.819094 
L 139.42324 72.782728 
L 139.470968 75.128184 
L 139.5172 72.782728 
L 139.564793 75.128184 
L 139.611169 75.128184 
L 139.846465 89.200911 
L 140.034675 84.510002 
L 140.081773 84.510002 
L 140.129005 82.164548 
L 140.176078 84.510002 
L 140.505506 96.237275 
L 140.552495 96.237275 
L 140.74083 91.546366 
L 140.976651 105.619093 
L 141.023307 103.273638 
L 141.07081 100.928184 
L 141.117458 105.619093 
L 141.164212 103.273638 
L 141.258467 103.273638 
L 141.588114 115.000912 
L 141.729537 107.964548 
L 141.96431 122.037275 
L 142.10567 117.346366 
L 142.246624 112.655456 
L 142.482934 119.691821 
L 142.717448 112.655456 
L 142.764376 112.655456 
L 142.859561 117.346366 
L 143.14096 105.619093 
L 143.282883 107.964548 
L 143.329336 107.964548 
L 143.659621 96.237275 
L 143.799989 96.237275 
L 143.98819 82.164548 
L 144.082254 84.510002 
L 144.177411 89.200911 
L 144.317551 82.164548 
L 144.459909 79.819094 
L 144.553136 84.510002 
L 144.742037 79.819094 
L 144.788119 79.819094 
L 144.976649 86.855456 
L 145.11762 79.819094 
L 145.353077 86.855456 
L 145.494813 82.164548 
L 145.541345 79.819094 
L 145.589323 82.164548 
L 145.729606 86.855456 
L 145.917567 82.164548 
L 145.964962 82.164548 
L 146.153157 86.855456 
L 146.247292 84.510002 
L 146.529796 93.89182 
L 146.623788 93.89182 
L 146.859113 103.273638 
L 146.906114 96.237275 
L 146.952992 98.582729 
L 147.094438 107.964548 
L 147.141675 103.273638 
L 147.188571 105.619093 
L 147.236862 105.619093 
L 147.282671 103.273638 
L 147.329852 105.619093 
L 147.470969 107.964548 
L 147.51799 107.964548 
L 147.612652 105.619093 
L 147.800798 110.310002 
L 147.847602 110.310002 
L 147.941567 107.964548 
L 148.129792 112.655456 
L 148.271705 110.310002 
L 148.412377 112.655456 
L 148.601307 107.964548 
L 148.647465 110.310002 
L 148.694612 107.964548 
L 148.788754 107.964548 
L 148.836312 103.273638 
L 148.882969 105.619093 
L 148.929915 107.964548 
L 148.976998 105.619093 
L 149.071178 105.619093 
L 149.213414 100.928184 
L 149.260197 103.273638 
L 149.306288 100.928184 
L 149.541554 93.89182 
L 149.589657 93.89182 
L 149.777157 84.510002 
L 149.824199 86.855456 
L 149.965155 86.855456 
L 150.012487 84.510002 
L 150.059512 86.855456 
L 150.106668 86.855456 
L 150.200706 89.200911 
L 150.294787 84.510002 
L 150.341916 86.855456 
L 150.482941 89.200911 
L 150.577013 86.855456 
L 150.718348 89.200911 
L 150.859578 89.200911 
L 150.907376 86.855456 
L 150.953642 89.200911 
L 151.095861 91.546366 
L 151.142002 89.200911 
L 151.283112 96.237275 
L 151.424344 91.546366 
L 151.565347 96.237275 
L 151.659408 91.546366 
L 151.706501 93.89182 
L 151.753817 93.89182 
L 151.894954 96.237275 
L 152.03664 96.237275 
L 152.130257 98.582729 
L 152.271368 96.237275 
L 152.365828 100.928184 
L 152.506777 98.582729 
L 152.553831 107.964548 
L 152.600934 105.619093 
L 152.789158 100.928184 
L 152.835971 100.928184 
L 152.977419 96.237275 
L 153.024983 98.582729 
L 153.071668 96.237275 
L 153.165728 96.237275 
L 153.259637 93.89182 
L 153.354573 96.237275 
L 153.401037 93.89182 
L 153.448082 96.237275 
L 153.58925 96.237275 
L 153.824596 103.273638 
L 153.965628 100.928184 
L 154.059718 100.928184 
L 154.483452 75.128184 
L 154.718643 61.055455 
L 154.766196 58.710001 
L 154.812824 61.055455 
L 154.860074 61.055455 
L 155.378159 91.546366 
L 155.708098 117.346366 
L 155.942432 110.310002 
L 155.989472 112.655456 
L 156.1312 107.964548 
L 156.271907 105.619093 
L 156.45998 105.619093 
L 156.507206 103.273638 
L 156.554962 105.619093 
L 156.601357 105.619093 
L 156.742529 103.273638 
L 156.883717 105.619093 
L 156.931284 105.619093 
L 157.072008 103.273638 
L 157.213164 107.964548 
L 157.354272 103.273638 
L 157.495534 105.619093 
L 157.542421 103.273638 
L 157.589472 105.619093 
L 157.636748 105.619093 
L 157.872098 98.582729 
L 157.966468 98.582729 
L 158.10731 96.237275 
L 158.907282 96.237275 
L 159.284073 79.819094 
L 159.33124 82.164548 
L 159.378106 79.819094 
L 159.568755 75.128184 
L 159.755124 75.128184 
L 159.895807 72.782728 
L 159.942854 72.782728 
L 159.989893 75.128184 
L 160.037565 72.782728 
L 160.085441 72.782728 
L 160.696405 103.273638 
L 160.884119 122.037275 
L 160.931207 122.037275 
L 161.213589 140.80091 
L 161.449514 147.837276 
L 162.060766 112.655456 
L 162.296551 96.237275 
L 162.38998 96.237275 
L 162.578487 72.782728 
L 162.625414 72.782728 
L 162.813844 63.400913 
L 162.861433 65.746365 
L 163.048967 75.128184 
L 163.331328 91.546366 
L 163.42538 89.200911 
L 163.660765 72.782728 
L 163.708556 72.782728 
L 163.850037 65.746365 
L 164.273332 89.200911 
L 164.461636 100.928184 
L 164.508949 103.273638 
L 164.651473 98.582729 
L 164.837416 89.200911 
L 164.978857 93.89182 
L 165.214892 110.310002 
L 165.355201 117.346366 
L 165.403276 117.346366 
L 165.685836 96.237275 
L 166.155775 115.000912 
L 166.578922 93.89182 
L 166.625977 96.237275 
L 166.672988 96.237275 
L 166.814291 105.619093 
L 167.237765 84.510002 
L 167.284854 86.855456 
L 167.475189 96.237275 
L 167.56711 96.237275 
L 167.802514 82.164548 
L 167.850401 84.510002 
L 168.178964 96.237275 
L 168.32015 86.855456 
L 168.415117 89.200911 
L 168.649662 103.273638 
L 168.696709 105.619093 
L 168.743855 103.273638 
L 168.979108 96.237275 
L 169.02617 96.237275 
L 169.214468 110.310002 
L 169.449753 96.237275 
L 169.544076 96.237275 
L 169.732982 105.619093 
L 169.920597 96.237275 
L 169.967617 96.237275 
L 170.061609 89.200911 
L 170.203286 96.237275 
L 170.297771 96.237275 
L 170.43811 82.164548 
L 170.484979 84.510002 
L 170.673944 93.89182 
L 170.720289 91.546366 
L 170.814618 91.546366 
L 170.90904 86.855456 
L 171.09698 96.237275 
L 171.238677 96.237275 
L 171.426748 89.200911 
L 171.661582 96.237275 
L 171.709292 96.237275 
L 171.849984 93.89182 
L 171.896866 93.89182 
L 172.085858 100.928184 
L 172.274451 96.237275 
L 172.462386 107.964548 
L 172.508947 103.273638 
L 172.650093 98.582729 
L 172.838224 105.619093 
L 173.073495 98.582729 
L 173.2155 105.619093 
L 173.403997 96.237275 
L 173.450181 96.237275 
L 173.498253 93.89182 
L 173.544296 96.237275 
L 173.638505 96.237275 
L 173.779612 86.855456 
L 173.826809 89.200911 
L 173.968417 96.237275 
L 174.15629 89.200911 
L 174.344416 96.237275 
L 174.533579 91.546366 
L 174.579719 91.546366 
L 174.673803 93.89182 
L 174.862057 86.855456 
L 175.050356 96.237275 
L 175.191334 89.200911 
L 175.380716 98.582729 
L 175.426876 96.237275 
L 175.615132 96.237275 
L 175.709263 103.273638 
L 175.756807 100.928184 
L 175.850792 96.237275 
L 176.038546 105.619093 
L 176.179903 100.928184 
L 176.321599 107.964548 
L 176.462314 96.237275 
L 176.509856 98.582729 
L 176.556562 98.582729 
L 176.603407 103.273638 
L 176.650535 100.928184 
L 176.885817 93.89182 
L 177.027133 96.237275 
L 177.121147 93.89182 
L 177.262329 96.237275 
L 177.309668 96.237275 
L 177.403545 91.546366 
L 177.544753 96.237275 
L 177.591708 96.237275 
L 177.732911 86.855456 
L 177.827637 91.546366 
L 178.015892 86.855456 
L 178.109486 93.89182 
L 178.156551 91.546366 
L 178.297786 89.200911 
L 178.344845 89.200911 
L 178.439328 93.89182 
L 178.580146 89.200911 
L 178.674766 93.89182 
L 178.721708 91.546366 
L 178.768255 91.546366 
L 179.050743 100.928184 
L 179.097598 100.928184 
L 179.145098 98.582729 
L 179.28632 107.964548 
L 179.333207 110.310002 
L 179.380229 107.964548 
L 179.427088 107.964548 
L 179.568497 110.310002 
L 179.662601 107.964548 
L 179.710432 110.310002 
L 179.756708 107.964548 
L 179.803832 107.964548 
L 179.944985 103.273638 
L 180.039253 103.273638 
L 180.36929 91.546366 
L 180.462679 91.546366 
L 180.603884 86.855456 
L 180.650987 84.510002 
L 180.698003 86.855456 
L 180.745307 86.855456 
L 180.792239 91.546366 
L 180.839977 89.200911 
L 180.9333 86.855456 
L 180.980456 89.200911 
L 181.028031 84.510002 
L 181.074284 91.546366 
L 181.121668 84.510002 
L 181.216222 84.510002 
L 181.31037 89.200911 
L 181.356999 86.855456 
L 181.450831 86.855456 
L 181.592238 91.546366 
L 181.686875 91.546366 
L 181.874871 96.237275 
L 181.96925 96.237275 
L 182.062865 100.928184 
L 182.110015 98.582729 
L 182.204053 98.582729 
L 182.297967 105.619093 
L 182.345029 103.273638 
L 182.580551 89.200911 
L 182.768819 77.473638 
L 183.051088 96.237275 
L 183.098599 96.237275 
L 183.23949 100.928184 
L 183.286488 96.237275 
L 183.333552 98.582729 
L 183.4277 100.928184 
L 183.569434 98.582729 
L 183.663081 98.582729 
L 183.710102 100.928184 
L 183.757655 98.582729 
L 183.804217 98.582729 
L 183.898333 100.928184 
L 184.039543 98.582729 
L 184.133499 98.582729 
L 184.180706 100.928184 
L 184.227839 98.582729 
L 184.274864 98.582729 
L 184.368979 100.928184 
L 184.51044 98.582729 
L 184.557198 98.582729 
L 184.604102 100.928184 
L 184.651179 98.582729 
L 184.792653 98.582729 
L 184.839623 100.928184 
L 184.886667 98.582729 
L 185.027977 98.582729 
L 185.074967 100.928184 
L 185.122006 98.582729 
L 185.169581 96.237275 
L 185.263205 100.928184 
L 185.404841 98.582729 
L 185.592629 98.582729 
L 185.640193 100.928184 
L 185.686793 98.582729 
L 185.827981 98.582729 
L 185.875025 100.928184 
L 185.922983 98.582729 
L 185.969123 98.582729 
L 186.11036 96.237275 
L 187.192702 96.237275 
L 187.381095 79.819094 
L 187.569379 68.09182 
L 187.663439 68.09182 
L 187.805857 61.055455 
L 187.85172 61.055455 
L 187.992765 56.364547 
L 188.039966 58.710001 
L 188.181191 54.019093 
L 188.275099 54.019093 
L 189.122434 100.928184 
L 189.1696 98.582729 
L 189.357556 117.346366 
L 189.640082 136.110003 
L 189.687086 136.110003 
L 189.97007 154.873638 
L 190.158365 159.564545 
L 190.393159 143.146368 
L 190.440802 143.146368 
L 190.722614 124.382729 
L 191.052055 107.964548 
L 191.099779 110.310002 
L 191.146341 110.310002 
L 191.381994 124.382729 
L 191.475523 124.382729 
L 192.04088 91.546366 
L 192.275741 77.473638 
L 192.510856 93.89182 
L 192.652206 91.546366 
L 192.934386 72.782728 
L 193.076691 63.400913 
L 193.170452 65.746365 
L 193.499388 82.164548 
L 193.546535 79.819094 
L 193.593337 79.819094 
L 193.828624 65.746365 
L 193.922969 63.400913 
L 194.111701 72.782728 
L 194.393583 84.510002 
L 194.628888 72.782728 
L 194.817388 84.510002 
L 194.864742 84.510002 
L 195.099639 98.582729 
L 195.14679 100.928184 
L 195.287782 96.237275 
L 195.430029 96.237275 
L 195.664302 117.346366 
L 195.946798 105.619093 
L 196.323007 119.691821 
L 196.511257 110.310002 
L 196.558338 110.310002 
L 196.605635 107.964548 
L 196.652441 110.310002 
L 196.699684 110.310002 
L 196.841417 117.346366 
L 196.887941 115.000912 
L 197.170358 100.928184 
L 197.218455 103.273638 
L 197.264454 103.273638 
L 197.405648 110.310002 
L 197.735119 96.237275 
L 197.923402 107.964548 
L 198.111655 96.237275 
L 198.205822 96.237275 
L 198.299854 93.89182 
L 198.440988 96.237275 
L 198.488592 96.237275 
L 198.723213 84.510002 
L 198.7704 86.855456 
L 198.864601 91.546366 
L 198.911648 89.200911 
L 198.958728 89.200911 
L 199.100053 79.819094 
L 199.288194 84.510002 
L 199.382243 84.510002 
L 199.617933 77.473638 
L 199.853073 84.510002 
L 199.899838 84.510002 
L 199.947145 79.819094 
L 199.994197 82.164548 
L 200.08814 82.164548 
L 200.229479 89.200911 
L 200.276769 89.200911 
L 200.370707 82.164548 
L 200.464858 84.510002 
L 200.700071 93.89182 
L 200.747175 89.200911 
L 200.794745 91.546366 
L 201.029373 103.273638 
L 201.076389 100.928184 
L 201.264623 96.237275 
L 201.311758 96.237275 
L 201.45375 107.964548 
L 201.641401 100.928184 
L 201.782584 110.310002 
L 201.830719 110.310002 
L 201.970621 105.619093 
L 202.159978 110.310002 
L 202.205926 110.310002 
L 202.394913 105.619093 
L 202.583154 110.310002 
L 202.723886 103.273638 
L 202.771865 105.619093 
L 202.86504 107.964548 
L 203.006084 100.928184 
L 203.053828 100.928184 
L 203.194551 105.619093 
L 203.383271 96.237275 
L 203.429608 96.237275 
L 203.571539 91.546366 
L 203.618614 93.89182 
L 203.665193 91.546366 
L 203.806331 84.510002 
L 203.947592 89.200911 
L 204.088714 84.510002 
L 204.230343 91.546366 
L 204.277003 91.546366 
L 204.418171 89.200911 
L 204.559614 96.237275 
L 204.70107 91.546366 
L 204.889295 96.237275 
L 204.982897 89.200911 
L 205.030515 93.89182 
L 205.218747 98.582729 
L 205.359427 96.237275 
L 205.501166 100.928184 
L 205.641768 96.237275 
L 205.783358 98.582729 
L 205.829823 98.582729 
L 205.971035 96.237275 
L 206.112467 96.237275 
L 206.253646 91.546366 
L 206.394872 96.237275 
L 206.536233 91.546366 
L 206.677231 96.237275 
L 206.77154 91.546366 
L 206.959603 96.237275 
L 207.101345 91.546366 
L 207.24197 96.237275 
L 207.336152 91.546366 
L 207.383096 93.89182 
L 207.430755 93.89182 
L 207.572452 96.237275 
L 207.665491 96.237275 
L 207.807252 98.582729 
L 207.900882 96.237275 
L 207.947945 100.928184 
L 207.994814 98.582729 
L 208.089791 98.582729 
L 208.18325 96.237275 
L 208.37153 100.928184 
L 208.419083 100.928184 
L 208.512709 103.273638 
L 208.653872 98.582729 
L 208.748015 100.928184 
L 208.936203 96.237275 
L 208.983336 96.237275 
L 209.077516 98.582729 
L 209.218958 96.237275 
L 209.312676 96.237275 
L 209.406656 89.200911 
L 209.501713 91.546366 
L 209.54813 91.546366 
L 209.6893 86.855456 
L 209.830638 89.200911 
L 209.87774 89.200911 
L 210.066394 96.237275 
L 210.112703 93.89182 
L 210.159935 96.237275 
L 210.253862 96.237275 
L 210.442255 103.273638 
L 210.489192 98.582729 
L 210.536261 103.273638 
L 210.865926 84.510002 
L 211.054169 68.09182 
L 211.195366 68.09182 
L 211.477714 86.855456 
L 211.52481 86.855456 
L 211.713061 103.273638 
L 211.760596 103.273638 
L 211.854771 110.310002 
L 211.948389 107.964548 
L 211.995445 107.964548 
L 212.183721 103.273638 
L 212.230736 103.273638 
L 212.371934 100.928184 
L 212.419027 100.928184 
L 212.51394 103.273638 
L 212.654378 100.928184 
L 212.795511 103.273638 
L 212.936507 100.928184 
L 212.984285 100.928184 
L 213.125079 103.273638 
L 213.266166 100.928184 
L 213.407838 103.273638 
L 213.50243 100.928184 
L 213.642442 103.273638 
L 213.783825 100.928184 
L 213.83152 100.928184 
L 213.877988 103.273638 
L 213.925584 100.928184 
L 213.972057 100.928184 
L 214.019035 103.273638 
L 214.067122 100.928184 
L 214.207796 100.928184 
L 214.39569 96.237275 
L 215.383929 96.237275 
L 215.761716 68.09182 
L 216.513337 35.255455 
L 216.560632 35.255455 
L 217.501876 86.855456 
L 217.691124 103.273638 
L 217.737861 98.582729 
L 217.925858 122.037275 
L 217.972534 119.691821 
L 218.160757 133.764549 
L 218.53704 152.528184 
L 218.772574 136.110003 
L 218.819771 140.80091 
L 219.007949 124.382729 
L 219.15 119.691821 
L 219.855084 152.528184 
L 220.043413 140.80091 
L 220.326318 122.037275 
L 220.46687 115.000912 
L 220.702231 129.073637 
L 220.749405 131.419095 
L 220.891744 126.728185 
L 221.221148 105.619093 
L 221.40868 91.546366 
L 221.455296 93.89182 
L 221.549216 89.200911 
L 221.784682 96.237275 
L 222.019932 82.164548 
L 222.208813 70.437274 
L 222.302111 70.437274 
L 222.491194 79.819094 
L 222.584797 79.819094 
L 222.820767 65.746365 
L 222.961273 61.055455 
L 223.290935 75.128184 
L 223.620132 63.400913 
L 223.997639 79.819094 
L 224.23202 72.782728 
L 224.655343 89.200911 
L 224.749514 82.164548 
L 224.843837 84.510002 
L 224.890923 84.510002 
L 225.220329 98.582729 
L 225.455659 91.546366 
L 225.690989 105.619093 
L 225.738755 103.273638 
L 225.785121 107.964548 
L 225.832256 103.273638 
L 225.926352 103.273638 
L 226.255758 115.000912 
L 226.303359 115.000912 
L 226.443998 110.310002 
L 226.49119 110.310002 
L 226.679353 119.691821 
L 226.773993 119.691821 
L 227.00878 112.655456 
L 227.150102 119.691821 
L 227.197857 119.691821 
L 227.433344 110.310002 
L 227.57355 117.346366 
L 227.762345 107.964548 
L 227.808878 107.964548 
L 227.855935 103.273638 
L 227.902816 105.619093 
L 227.950567 105.619093 
L 227.997128 107.964548 
L 228.185181 98.582729 
L 228.374136 93.89182 
L 228.46762 96.237275 
L 228.656519 84.510002 
L 228.703661 84.510002 
L 228.84408 91.546366 
L 228.891869 89.200911 
L 229.12746 82.164548 
L 229.173717 82.164548 
L 229.315457 86.855456 
L 229.455838 82.164548 
L 229.644381 89.200911 
L 229.785576 84.510002 
L 229.87999 82.164548 
L 230.068499 89.200911 
L 230.256187 82.164548 
L 230.397394 86.855456 
L 230.445005 89.200911 
L 230.4916 86.855456 
L 230.633228 82.164548 
L 230.774542 89.200911 
L 230.822163 89.200911 
L 230.915572 86.855456 
L 231.197481 96.237275 
L 231.244536 96.237275 
L 231.292157 93.89182 
L 231.339161 96.237275 
L 231.386229 96.237275 
L 231.526885 100.928184 
L 231.621018 96.237275 
L 231.667945 98.582729 
L 231.856357 107.964548 
L 231.903428 100.928184 
L 231.997747 103.273638 
L 232.044611 103.273638 
L 232.138494 107.964548 
L 232.280469 103.273638 
L 232.468196 110.310002 
L 232.609381 107.964548 
L 232.703481 107.964548 
L 232.75107 110.310002 
L 232.79763 107.964548 
L 232.844487 107.964548 
L 232.986398 103.273638 
L 233.127091 107.964548 
L 233.268447 98.582729 
L 233.456538 103.273638 
L 233.645331 98.582729 
L 233.738883 105.619093 
L 233.880107 96.237275 
L 234.021378 96.237275 
L 234.256936 89.200911 
L 234.303974 89.200911 
L 234.445348 86.855456 
L 234.491911 86.855456 
L 234.587105 91.546366 
L 234.633096 89.200911 
L 234.727085 86.855456 
L 234.915486 91.546366 
L 235.056643 86.855456 
L 235.151613 91.546366 
L 235.198731 89.200911 
L 235.386206 89.200911 
L 235.480086 91.546366 
L 235.621498 86.855456 
L 235.763146 91.546366 
L 235.856785 91.546366 
L 235.998514 96.237275 
L 236.139159 91.546366 
L 236.280341 96.237275 
L 236.421361 91.546366 
L 236.609619 96.237275 
L 236.703741 96.237275 
L 236.797871 100.928184 
L 236.892084 96.237275 
L 237.033187 100.928184 
L 237.127325 96.237275 
L 237.26937 105.619093 
L 237.410406 103.273638 
L 237.55094 107.964548 
L 237.739346 103.273638 
L 237.786384 105.619093 
L 237.880538 98.582729 
L 237.92742 100.928184 
L 238.068779 103.273638 
L 238.115815 103.273638 
L 238.162677 100.928184 
L 238.304017 105.619093 
L 238.445091 100.928184 
L 238.492633 105.619093 
L 238.539936 100.928184 
L 238.587362 100.928184 
L 238.634799 96.237275 
L 238.680538 98.582729 
L 238.774526 98.582729 
L 239.057651 79.819094 
L 239.293267 65.746365 
L 239.527667 56.364547 
L 240.092528 89.200911 
L 240.469024 117.346366 
L 240.657436 112.655456 
L 240.70488 112.655456 
L 240.893461 107.964548 
L 240.939669 107.964548 
L 241.081399 105.619093 
L 241.174747 105.619093 
L 241.221923 103.273638 
L 241.268994 105.619093 
L 241.363175 105.619093 
L 241.504432 103.273638 
L 241.646137 105.619093 
L 241.692742 105.619093 
L 241.833749 103.273638 
L 241.928002 105.619093 
L 242.069102 103.273638 
L 242.210212 105.619093 
L 242.2574 105.619093 
L 242.398655 103.273638 
L 242.446932 103.273638 
L 242.58691 98.582729 
L 242.728088 96.237275 
L 243.433848 96.237275 
L 243.481166 98.582729 
L 243.52798 96.237275 
L 243.575833 96.237275 
L 243.952831 82.164548 
L 244.046403 82.164548 
L 244.188213 77.473638 
L 244.235072 77.473638 
L 244.375346 75.128184 
L 244.422382 75.128184 
L 244.516523 72.782728 
L 244.563371 75.128184 
L 244.610739 70.437274 
L 244.657685 75.128184 
L 244.75161 72.782728 
L 245.457786 112.655456 
L 245.692894 129.073637 
L 245.739956 129.073637 
L 246.02238 147.837276 
L 246.210695 147.837276 
L 246.493111 129.073637 
L 246.869711 105.619093 
L 247.293178 72.782728 
L 247.340185 72.782728 
L 247.52844 63.400913 
L 247.763629 77.473638 
L 248.046259 91.546366 
L 248.093303 89.200911 
L 248.563955 65.746365 
L 248.611005 68.09182 
L 248.98751 91.546366 
L 249.175752 105.619093 
L 249.222828 100.928184 
L 249.276189 103.273638 
L 249.316978 103.273638 
L 249.552299 89.200911 
L 249.693436 93.89182 
L 249.834679 105.619093 
L 249.881815 100.928184 
L 250.022938 117.346366 
L 250.069978 117.346366 
L 250.399348 96.237275 
L 250.493479 100.928184 
L 250.870112 115.000912 
L 251.294713 93.89182 
L 251.341294 96.237275 
L 251.387835 96.237275 
L 251.528911 107.964548 
L 251.811436 86.855456 
L 251.858288 89.200911 
L 251.905416 86.855456 
L 251.952408 84.510002 
L 252.187764 98.582729 
L 252.234916 98.582729 
L 252.517213 82.164548 
L 252.564438 84.510002 
L 252.846589 96.237275 
L 253.034825 82.164548 
L 253.411336 100.928184 
L 253.458609 98.582729 
L 253.694124 91.546366 
L 253.92953 103.273638 
L 253.976333 100.928184 
L 254.211731 91.546366 
L 254.447584 98.582729 
L 254.494049 98.582729 
L 254.729203 91.546366 
L 254.964617 103.273638 
L 255.012302 100.928184 
L 255.152968 96.237275 
L 255.294509 96.237275 
L 255.435695 103.273638 
L 255.717729 93.89182 
L 255.858706 100.928184 
L 255.905809 98.582729 
L 256.141823 89.200911 
L 256.282529 96.237275 
L 256.423656 98.582729 
L 256.51771 93.89182 
L 256.799928 103.273638 
L 256.941213 96.237275 
L 257.177192 103.273638 
L 257.364914 91.546366 
L 257.506806 96.237275 
L 257.553183 98.582729 
L 257.600191 96.237275 
L 257.694142 96.237275 
L 257.741981 91.546366 
L 257.789469 93.89182 
L 257.930399 98.582729 
L 258.118488 93.89182 
L 258.165536 93.89182 
L 258.353779 98.582729 
L 258.494479 91.546366 
L 258.635659 96.237275 
L 258.682664 98.582729 
L 258.729544 96.237275 
L 258.824059 96.237275 
L 258.918065 93.89182 
L 259.058933 100.928184 
L 259.200169 93.89182 
L 259.247226 93.89182 
L 259.38849 96.237275 
L 259.435667 96.237275 
L 259.577287 91.546366 
L 259.624509 89.200911 
L 259.765456 96.237275 
L 259.81233 96.237275 
L 259.859767 91.546366 
L 259.906438 93.89182 
L 260.142094 100.928184 
L 260.236074 96.237275 
L 260.424593 105.619093 
L 260.471823 103.273638 
L 260.518184 103.273638 
L 260.612044 100.928184 
L 260.659215 105.619093 
L 260.706194 103.273638 
L 260.753313 103.273638 
L 260.895402 96.237275 
L 260.942321 96.237275 
L 260.988811 100.928184 
L 261.035905 98.582729 
L 261.08384 98.582729 
L 261.271681 93.89182 
L 261.319005 96.237275 
L 261.365883 93.89182 
L 261.412452 93.89182 
L 261.600458 86.855456 
L 261.6948 91.546366 
L 261.788849 86.855456 
L 261.929908 91.546366 
L 262.024558 91.546366 
L 262.11889 89.200911 
L 262.353456 96.237275 
L 262.400524 96.237275 
L 262.589028 103.273638 
L 262.730734 98.582729 
L 262.824419 105.619093 
L 262.871239 103.273638 
L 262.918367 103.273638 
L 263.012434 100.928184 
L 263.153589 103.273638 
L 263.20088 103.273638 
L 263.24794 98.582729 
L 263.295796 100.928184 
L 263.342075 100.928184 
L 263.43618 103.273638 
L 263.483733 96.237275 
L 263.577437 98.582729 
L 263.671492 98.582729 
L 263.95388 89.200911 
L 264.001667 89.200911 
L 264.094969 84.510002 
L 264.236051 89.200911 
L 264.283083 89.200911 
L 264.330298 84.510002 
L 264.377245 89.200911 
L 264.565492 89.200911 
L 264.612645 86.855456 
L 264.659637 89.200911 
L 264.753727 93.89182 
L 264.800833 91.546366 
L 264.847805 91.546366 
L 265.03635 96.237275 
L 265.178175 96.237275 
L 265.271497 100.928184 
L 265.365983 98.582729 
L 265.506741 105.619093 
L 265.553762 103.273638 
L 265.647947 100.928184 
L 265.742037 103.273638 
L 265.883314 96.237275 
L 266.0717 96.237275 
L 266.118909 91.546366 
L 266.165718 93.89182 
L 266.260737 96.237275 
L 266.354139 93.89182 
L 266.542374 100.928184 
L 266.589551 98.582729 
L 266.730512 103.273638 
L 266.777657 103.273638 
L 266.824699 98.582729 
L 266.871834 100.928184 
L 266.965772 100.928184 
L 267.295361 82.164548 
L 267.437104 72.782728 
L 267.483634 72.782728 
L 267.71899 86.855456 
L 268.143053 103.273638 
L 268.236444 98.582729 
L 268.330648 100.928184 
L 268.42528 96.237275 
L 268.471992 98.582729 
L 268.518963 100.928184 
L 268.565942 98.582729 
L 268.707195 98.582729 
L 268.754199 100.928184 
L 268.801247 98.582729 
L 268.89532 98.582729 
L 268.942611 100.928184 
L 268.990235 98.582729 
L 269.131453 98.582729 
L 269.177756 100.928184 
L 269.225758 98.582729 
L 269.366217 98.582729 
L 269.413263 100.928184 
L 269.460733 98.582729 
L 269.601658 98.582729 
L 269.648577 100.928184 
L 269.695477 98.582729 
L 269.836865 98.582729 
L 269.883957 100.928184 
L 269.930751 98.582729 
L 270.072127 98.582729 
L 270.1192 100.928184 
L 270.166161 98.582729 
L 270.307396 98.582729 
L 270.355355 100.928184 
L 270.401632 98.582729 
L 270.542827 98.582729 
L 270.590397 100.928184 
L 270.730854 96.237275 
L 270.778892 96.237275 
L 270.825189 98.582729 
L 270.872194 96.237275 
L 271.813467 96.237275 
L 272.142958 72.782728 
L 272.425343 63.400913 
L 272.472398 63.400913 
L 272.707851 56.364547 
L 272.755731 56.364547 
L 272.849529 54.019093 
L 272.896513 56.364547 
L 272.943031 54.019093 
L 272.990115 51.673639 
L 273.131242 56.364547 
L 273.413646 70.437274 
L 273.64883 89.200911 
L 273.884217 100.928184 
L 274.025338 115.000912 
L 274.261372 131.419095 
L 274.308563 131.419095 
L 274.543232 147.837276 
L 274.590029 147.837276 
L 274.778566 159.564545 
L 274.825615 159.564545 
L 275.390242 126.728185 
L 275.672604 107.964548 
L 275.76675 107.964548 
L 276.096592 126.728185 
L 276.190215 124.382729 
L 276.661046 96.237275 
L 276.896396 75.128184 
L 277.084606 84.510002 
L 277.225912 91.546366 
L 277.275027 89.200911 
L 277.837663 58.710001 
L 277.884667 61.055455 
L 278.261114 79.819094 
L 278.308346 77.473638 
L 278.403326 77.473638 
L 278.590529 65.746365 
L 278.778957 75.128184 
L 279.014366 91.546366 
L 279.108756 89.200911 
L 279.390642 79.819094 
L 279.673065 98.582729 
L 279.908301 105.619093 
L 280.04944 96.237275 
L 280.427211 117.346366 
L 280.474485 112.655456 
L 280.709133 103.273638 
L 281.038134 117.346366 
L 281.367303 105.619093 
L 281.602563 115.000912 
L 281.791305 100.928184 
L 281.885103 96.237275 
L 281.932095 98.582729 
L 282.121005 107.964548 
L 282.167467 105.619093 
L 282.215473 105.619093 
L 282.402871 93.89182 
L 282.450451 93.89182 
L 282.638041 105.619093 
L 282.685803 100.928184 
L 282.732374 100.928184 
L 282.921423 89.200911 
L 282.967634 91.546366 
L 283.108806 96.237275 
L 283.438005 84.510002 
L 283.485305 84.510002 
L 283.579389 93.89182 
L 283.626652 91.546366 
L 283.673605 91.546366 
L 283.861874 82.164548 
L 283.908912 84.510002 
L 284.004008 91.546366 
L 284.097709 89.200911 
L 284.332448 82.164548 
L 284.474565 91.546366 
L 284.568332 89.200911 
L 284.709518 84.510002 
L 284.944847 96.237275 
L 284.991559 93.89182 
L 285.132386 86.855456 
L 285.367693 100.928184 
L 285.414805 98.582729 
L 285.508858 96.237275 
L 285.7912 107.964548 
L 285.885344 98.582729 
L 285.979565 103.273638 
L 286.026833 103.273638 
L 286.168518 105.619093 
L 286.263368 98.582729 
L 286.35676 100.928184 
L 286.497161 105.619093 
L 286.686238 96.237275 
L 286.827433 105.619093 
L 287.06272 98.582729 
L 287.109494 98.582729 
L 287.250203 105.619093 
L 287.439592 96.237275 
L 287.485825 98.582729 
L 287.579931 103.273638 
L 287.72108 96.237275 
L 287.768681 96.237275 
L 287.815341 91.546366 
L 287.862184 96.237275 
L 287.956139 96.237275 
L 288.05023 89.200911 
L 288.097327 91.546366 
L 288.285534 96.237275 
L 288.332679 96.237275 
L 288.379662 91.546366 
L 288.426837 93.89182 
L 288.473897 93.89182 
L 288.615266 103.273638 
L 288.662389 98.582729 
L 288.757322 96.237275 
L 288.944573 107.964548 
L 288.991752 103.273638 
L 289.038776 103.273638 
L 289.085999 100.928184 
L 289.132993 103.273638 
L 289.180065 103.273638 
L 289.228503 105.619093 
L 289.274053 103.273638 
L 289.415339 96.237275 
L 289.463001 96.237275 
L 289.55718 100.928184 
L 289.839621 91.546366 
L 289.886055 93.89182 
L 290.075078 84.510002 
L 290.215462 89.200911 
L 290.30962 84.510002 
L 290.356692 86.855456 
L 290.498365 89.200911 
L 290.63906 84.510002 
L 290.780162 89.200911 
L 290.921276 84.510002 
L 291.062587 89.200911 
L 291.205109 84.510002 
L 291.345546 89.200911 
L 291.439668 86.855456 
L 291.580895 91.546366 
L 291.721909 89.200911 
L 292.050938 100.928184 
L 292.09795 98.582729 
L 292.239134 107.964548 
L 292.286799 107.964548 
L 292.33334 105.619093 
L 292.474696 110.310002 
L 292.568732 105.619093 
L 292.709796 110.310002 
L 292.851561 105.619093 
L 292.945049 105.619093 
L 293.133956 100.928184 
L 293.228493 105.619093 
L 293.368791 100.928184 
L 293.416539 103.273638 
L 293.464214 100.928184 
L 293.509968 100.928184 
L 293.651093 96.237275 
L 293.745829 100.928184 
L 293.792455 98.582729 
L 293.934454 96.237275 
L 294.028146 96.237275 
L 294.16935 91.546366 
L 294.263472 93.89182 
L 294.357026 84.510002 
L 294.40415 89.200911 
L 294.498424 91.546366 
L 294.545848 89.200911 
L 294.592413 91.546366 
L 294.640416 91.546366 
L 294.733646 96.237275 
L 294.780807 93.89182 
L 294.828936 96.237275 
L 294.921927 96.237275 
L 295.016492 100.928184 
L 295.157203 96.237275 
L 295.204064 98.582729 
L 295.251305 96.237275 
L 295.298135 96.237275 
L 295.533604 77.473638 
L 295.863144 65.746365 
L 296.193552 89.200911 
L 296.616141 110.310002 
L 296.757709 103.273638 
L 296.80439 105.619093 
L 296.851279 100.928184 
L 296.898526 103.273638 
L 296.946631 103.273638 
L 297.086835 100.928184 
L 297.228002 103.273638 
L 297.322358 100.928184 
L 297.369678 103.273638 
L 297.416169 100.928184 
L 297.463302 100.928184 
L 297.604253 103.273638 
L 297.698649 100.928184 
L 297.745492 103.273638 
L 297.793243 100.928184 
L 297.840375 100.928184 
L 297.981028 103.273638 
L 298.122994 100.928184 
L 298.169765 100.928184 
L 298.216578 103.273638 
L 298.264119 100.928184 
L 298.312754 100.928184 
L 298.454 103.273638 
L 298.592654 100.928184 
L 298.639897 100.928184 
L 298.686794 103.273638 
L 298.733841 100.928184 
L 298.780906 100.928184 
L 298.827984 103.273638 
L 298.876254 100.928184 
L 299.016703 96.237275 
L 299.063488 98.582729 
L 299.111865 96.237275 
L 300.052326 96.237275 
L 300.334227 77.473638 
L 300.61651 58.710001 
L 300.66415 58.710001 
L 300.946487 39.946366 
L 300.994093 39.946366 
L 301.134242 35.255455 
L 301.181454 37.600912 
L 301.228949 35.255455 
L 301.276012 35.255455 
L 302.076475 79.819094 
L 302.405898 103.273638 
L 302.452599 103.273638 
L 302.641105 122.037275 
L 302.687887 122.037275 
L 303.111457 147.837276 
L 303.205147 152.528184 
L 303.911562 119.691821 
L 304.193378 138.455456 
L 304.523583 152.528184 
L 304.758202 138.455456 
L 305.181674 117.346366 
L 305.22877 119.691821 
L 305.275805 119.691821 
L 305.416857 131.419095 
L 305.464079 129.073637 
L 306.170102 91.546366 
L 306.217667 84.510002 
L 306.264252 86.855456 
L 306.45252 96.237275 
L 306.500499 96.237275 
L 306.735789 79.819094 
L 306.923114 70.437274 
L 306.970027 70.437274 
L 307.253096 82.164548 
L 307.582079 61.055455 
L 307.67629 63.400913 
L 308.005578 79.819094 
L 308.194575 68.09182 
L 308.335573 63.400913 
L 308.570821 77.473638 
L 308.664469 82.164548 
L 308.712048 79.819094 
L 308.758645 79.819094 
L 308.899775 72.782728 
L 308.947365 72.782728 
L 309.323257 91.546366 
L 309.464566 82.164548 
L 309.889062 100.928184 
L 310.076429 86.855456 
L 310.500492 107.964548 
L 310.594597 100.928184 
L 310.641267 103.273638 
L 310.970469 115.000912 
L 311.017808 115.000912 
L 311.158827 107.964548 
L 311.347091 119.691821 
L 311.488564 119.691821 
L 311.629486 110.310002 
L 311.676419 112.655456 
L 311.865675 119.691821 
L 312.05308 110.310002 
L 312.147031 107.964548 
L 312.288403 115.000912 
L 312.523776 103.273638 
L 312.570799 105.619093 
L 312.618395 105.619093 
L 312.711981 110.310002 
L 313.041643 96.237275 
L 313.136043 100.928184 
L 313.18263 98.582729 
L 313.229699 98.582729 
L 313.465002 82.164548 
L 313.559121 86.855456 
L 313.606704 89.200911 
L 313.794434 77.473638 
L 313.935662 84.510002 
L 313.982734 84.510002 
L 314.029568 86.855456 
L 314.17073 79.819094 
L 314.406299 86.855456 
L 314.547981 82.164548 
L 314.641788 82.164548 
L 314.78328 86.855456 
L 314.971117 82.164548 
L 315.112228 89.200911 
L 315.347554 82.164548 
L 315.53688 89.200911 
L 315.582734 84.510002 
L 315.630491 86.855456 
L 315.723928 86.855456 
L 315.912855 96.237275 
L 316.00629 91.546366 
L 316.053496 93.89182 
L 316.101094 93.89182 
L 316.241749 100.928184 
L 316.38279 96.237275 
L 316.571729 107.964548 
L 316.712616 100.928184 
L 316.854116 107.964548 
L 316.901177 105.619093 
L 316.947544 105.619093 
L 317.042357 103.273638 
L 317.183946 110.310002 
L 317.230144 107.964548 
L 317.2777 107.964548 
L 317.371345 105.619093 
L 317.55941 110.310002 
L 317.701605 105.619093 
L 317.74831 110.310002 
L 317.795029 107.964548 
L 317.842474 107.964548 
L 318.03018 103.273638 
L 318.171349 105.619093 
L 318.313113 100.928184 
L 318.406542 105.619093 
L 318.689592 96.237275 
L 318.78291 96.237275 
L 318.877102 89.200911 
L 318.924142 91.546366 
L 318.971448 93.89182 
L 319.113373 86.855456 
L 319.300935 91.546366 
L 319.44235 89.200911 
L 319.536254 89.200911 
L 319.630872 91.546366 
L 319.724504 86.855456 
L 319.866187 91.546366 
L 319.912866 91.546366 
L 319.960316 86.855456 
L 320.007037 89.200911 
L 320.101499 89.200911 
L 320.195605 91.546366 
L 320.336846 86.855456 
L 320.38441 93.89182 
L 320.477552 91.546366 
L 320.525077 91.546366 
L 320.572151 89.200911 
L 320.713335 96.237275 
L 320.760393 96.237275 
L 320.807454 91.546366 
L 320.854054 93.89182 
L 320.995766 96.237275 
L 321.136384 91.546366 
L 321.277762 96.237275 
L 321.372249 96.237275 
L 321.465847 100.928184 
L 321.513466 98.582729 
L 321.560036 98.582729 
L 321.607024 96.237275 
L 321.654632 98.582729 
L 321.795065 98.582729 
L 321.842937 96.237275 
L 321.983518 105.619093 
L 322.171637 98.582729 
L 322.265905 100.928184 
L 322.407048 96.237275 
L 322.548574 96.237275 
L 322.642548 91.546366 
L 322.831243 96.237275 
L 322.971889 96.237275 
L 323.206972 105.619093 
L 323.348223 103.273638 
L 323.48929 107.964548 
L 323.819025 84.510002 
L 324.148837 65.746365 
L 324.289536 58.710001 
L 324.336665 58.710001 
L 324.571903 75.128184 
L 324.619045 75.128184 
L 324.995425 103.273638 
L 325.043224 103.273638 
L 325.184394 117.346366 
L 325.230749 115.000912 
L 325.278529 117.346366 
L 325.419018 112.655456 
L 325.65534 105.619093 
L 325.701417 107.964548 
L 325.748687 105.619093 
L 325.796182 103.273638 
L 325.842606 107.964548 
L 325.889751 103.273638 
L 326.031537 105.619093 
L 326.07865 105.619093 
L 326.125712 103.273638 
L 326.1721 105.619093 
L 326.219124 105.619093 
L 326.362167 103.273638 
L 326.455151 105.619093 
L 326.548734 103.273638 
L 326.59631 107.964548 
L 326.642863 103.273638 
L 326.784085 105.619093 
L 326.925032 103.273638 
L 327.019098 105.619093 
L 327.30151 96.237275 
L 327.348627 96.237275 
L 327.395796 98.582729 
L 327.442727 96.237275 
L 328.29061 96.237275 
L 328.666977 79.819094 
L 328.761081 82.164548 
L 328.901707 75.128184 
L 328.948988 79.819094 
L 328.995891 75.128184 
L 329.09001 75.128184 
L 329.279436 70.437274 
L 329.325348 75.128184 
L 329.372398 72.782728 
L 329.419373 70.437274 
L 329.561355 77.473638 
L 329.607906 75.128184 
L 329.655491 77.473638 
L 329.937899 96.237275 
L 330.125448 110.310002 
L 330.407952 129.073637 
L 330.879158 150.18273 
L 331.160996 131.419095 
L 331.538 107.964548 
L 331.72564 96.237275 
L 331.772886 96.237275 
L 331.960961 77.473638 
L 332.196483 63.400913 
L 332.291031 65.746365 
L 332.572858 84.510002 
L 332.761169 91.546366 
L 333.231777 65.746365 
L 333.326542 68.09182 
L 333.655866 89.200911 
L 333.891267 105.619093 
L 333.938277 100.928184 
L 333.984788 107.964548 
L 334.032648 103.273638 
L 334.220046 86.855456 
L 334.410093 96.237275 
L 334.45536 96.237275 
L 334.690733 117.346366 
L 334.832539 117.346366 
L 335.114321 96.237275 
L 335.491356 117.346366 
L 335.585028 115.000912 
L 335.961905 91.546366 
L 336.056156 96.237275 
L 336.243994 107.964548 
L 336.290967 105.619093 
L 336.526275 86.855456 
L 336.573359 89.200911 
L 336.620886 82.164548 
L 336.667987 84.510002 
L 336.85562 98.582729 
L 336.95 98.582729 
L 337.09089 86.855456 
L 337.232063 82.164548 
L 337.467482 96.237275 
L 337.608533 96.237275 
L 337.749792 82.164548 
L 337.796964 82.164548 
L 337.844084 79.819094 
L 338.079327 93.89182 
L 338.126383 96.237275 
L 338.17358 93.89182 
L 338.361593 84.510002 
L 338.691043 103.273638 
L 338.738173 98.582729 
L 338.785158 98.582729 
L 338.879978 96.237275 
L 339.115398 110.310002 
L 339.161788 110.310002 
L 339.396964 96.237275 
L 339.491089 96.237275 
L 339.632315 103.273638 
L 339.867619 86.855456 
L 339.961914 89.200911 
L 340.103012 96.237275 
L 340.244306 96.237275 
L 340.338866 86.855456 
L 340.385595 89.200911 
L 340.573582 100.928184 
L 340.856406 89.200911 
L 341.044235 98.582729 
L 341.232641 91.546366 
L 341.468467 103.273638 
L 341.515032 100.928184 
L 341.703294 96.237275 
L 341.797409 105.619093 
L 341.89162 100.928184 
L 342.080082 89.200911 
L 342.126881 93.89182 
L 342.26788 96.237275 
L 342.361944 96.237275 
L 342.503398 91.546366 
L 342.645023 96.237275 
L 342.691823 98.582729 
L 342.73849 96.237275 
L 342.786288 89.200911 
L 342.832874 91.546366 
L 343.020928 98.582729 
L 343.209315 91.546366 
L 343.350521 100.928184 
L 343.444641 98.582729 
L 343.585824 91.546366 
L 343.632727 93.89182 
L 343.680227 96.237275 
L 343.680227 96.237275 
" clip-path="url(#p6504a5ca76)" style="fill: none; stroke: #4c72b0; stroke-opacity: 0.7; stroke-width: 0.5; stroke-linecap: round"/>
   </g>
   <g id="patch_3">
    <path d="M 55.53 165.78 
L 55.53 29.04 
" style="fill: none; stroke: #ffffff; stroke-width: 1.25; stroke-linejoin: miter; stroke-linecap: square"/>
   </g>
   <g id="patch_4">
    <path d="M 357.401667 165.78 
L 357.401667 29.04 
" style="fill: none; stroke: #ffffff; stroke-width: 1.25; stroke-linejoin: miter; stroke-linecap: square"/>
   </g>
   <g id="patch_5">
    <path d="M 55.53 165.78 
L 357.401667 165.78 
" style="fill: none; stroke: #ffffff; stroke-width: 1.25; stroke-linejoin: miter; stroke-linecap: square"/>
   </g>
   <g id="patch_6">
    <path d="M 55.53 29.04 
L 357.401667 29.04 
" style="fill: none; stroke: #ffffff; stroke-width: 1.25; stroke-linejoin: miter; stroke-linecap: square"/>
   </g>
   <g id="text_15">
    <!-- joint_0 -->
    <g style="fill: #262626" transform="translate(186.488646 23.04) scale(0.12 -0.12)">
     <defs>
      <path id="DejaVuSans-6a" d="M 603 3500 
L 1178 3500 
L 1178 -63 
Q 1178 -731 923 -1031 
Q 669 -1331 103 -1331 
L -116 -1331 
L -116 -844 
L 38 -844 
Q 366 -844 484 -692 
Q 603 -541 603 -63 
L 603 3500 
z
M 603 4863 
L 1178 4863 
L 1178 4134 
L 603 4134 
L 603 4863 
z
" transform="scale(0.015625)"/>
      <path id="DejaVuSans-6e" d="M 3513 2113 
L 3513 0 
L 2938 0 
L 2938 2094 
Q 2938 2591 2744 2837 
Q 2550 3084 2163 3084 
Q 1697 3084 1428 2787 
Q 1159 2491 1159 1978 
L 1159 0 
L 581 0 
L 581 3500 
L 1159 3500 
L 1159 2956 
Q 1366 3272 1645 3428 
Q 1925 3584 2291 3584 
Q 2894 3584 3203 3211 
Q 3513 2838 3513 2113 
z
" transform="scale(0.015625)"/>
      <path id="DejaVuSans-5f" d="M 3263 -1063 
L 3263 -1509 
L -63 -1509 
L -63 -1063 
L 3263 -1063 
z
" transform="scale(0.015625)"/>
     </defs>
     <use xlink:href="#DejaVuSans-6a"/>
     <use xlink:href="#DejaVuSans-6f" transform="translate(27.783203 0)"/>
     <use xlink:href="#DejaVuSans-69" transform="translate(88.964844 0)"/>
     <use xlink:href="#DejaVuSans-6e" transform="translate(116.748047 0)"/>
     <use xlink:href="#DejaVuSans-74" transform="translate(180.126953 0)"/>
     <use xlink:href="#DejaVuSans-5f" transform="translate(219.335938 0)"/>
     <use xlink:href="#DejaVuSans-30" transform="translate(269.335938 0)"/>
    </g>
   </g>
   <g id="legend_1">
    <g id="patch_7">
     <path d="M 277.876823 54.291875 
L 349.701667 54.291875 
Q 351.901667 54.291875 351.901667 52.091875 
L 351.901667 36.74 
Q 351.901667 34.54 349.701667 34.54 
L 277.876823 34.54 
Q 275.676823 34.54 275.676823 36.74 
L 275.676823 52.091875 
Q 275.676823 54.291875 277.876823 54.291875 
z
" style="fill: #eaeaf2; opacity: 0.8; stroke: #cccccc; stroke-linejoin: miter"/>
    </g>
    <g id="line2d_14">
     <path d="M 280.076823 43.448281 
L 291.076823 43.448281 
L 302.076823 43.448281 
" style="fill: none; stroke: #4c72b0; stroke-opacity: 0.7; stroke-width: 0.5; stroke-linecap: round"/>
    </g>
    <g id="text_16">
     <!-- joint_0 -->
     <g style="fill: #262626" transform="translate(310.876823 47.298281) scale(0.11 -0.11)">
      <use xlink:href="#DejaVuSans-6a"/>
      <use xlink:href="#DejaVuSans-6f" transform="translate(27.783203 0)"/>
      <use xlink:href="#DejaVuSans-69" transform="translate(88.964844 0)"/>
      <use xlink:href="#DejaVuSans-6e" transform="translate(116.748047 0)"/>
      <use xlink:href="#DejaVuSans-74" transform="translate(180.126953 0)"/>
      <use xlink:href="#DejaVuSans-5f" transform="translate(219.335938 0)"/>
      <use xlink:href="#DejaVuSans-30" transform="translate(269.335938 0)"/>
     </g>
    </g>
   </g>
  </g>
  <g id="axes_2">
   <g id="patch_8">
    <path d="M 406.006667 165.78 
L 707.878333 165.78 
L 707.878333 29.04 
L 406.006667 29.04 
z
" style="fill: #eaeaf2"/>
   </g>
   <g id="matplotlib.axis_3">
    <g id="xtick_8">
     <g id="line2d_15">
      <path d="M 406.006667 165.78 
L 406.006667 29.04 
" clip-path="url(#pbe8984b58f)" style="fill: none; stroke: #ffffff; stroke-linecap: round"/>
     </g>
     <g id="text_17">
      <!-- 0.0 -->
      <g style="fill: #262626" transform="translate(397.259948 183.638281) scale(0.11 -0.11)">
       <defs>
        <path id="DejaVuSans-2e" d="M 684 794 
L 1344 794 
L 1344 0 
L 684 0 
L 684 794 
z
" transform="scale(0.015625)"/>
       </defs>
       <use xlink:href="#DejaVuSans-30"/>
       <use xlink:href="#DejaVuSans-2e" transform="translate(63.623047 0)"/>
       <use xlink:href="#DejaVuSans-30" transform="translate(95.410156 0)"/>
      </g>
     </g>
    </g>
    <g id="xtick_9">
     <g id="line2d_16">
      <path d="M 466.381 165.78 
L 466.381 29.04 
" clip-path="url(#pbe8984b58f)" style="fill: none; stroke: #ffffff; stroke-linecap: round"/>
     </g>
     <g id="text_18">
      <!-- 0.2 -->
      <g style="fill: #262626" transform="translate(457.634281 183.638281) scale(0.11 -0.11)">
       <use xlink:href="#DejaVuSans-30"/>
       <use xlink:href="#DejaVuSans-2e" transform="translate(63.623047 0)"/>
       <use xlink:href="#DejaVuSans-32" transform="translate(95.410156 0)"/>
      </g>
     </g>
    </g>
    <g id="xtick_10">
     <g id="line2d_17">
      <path d="M 526.755333 165.78 
L 526.755333 29.04 
" clip-path="url(#pbe8984b58f)" style="fill: none; stroke: #ffffff; stroke-linecap: round"/>
     </g>
     <g id="text_19">
      <!-- 0.4 -->
      <g style="fill: #262626" transform="translate(518.008615 183.638281) scale(0.11 -0.11)">
       <use xlink:href="#DejaVuSans-30"/>
       <use xlink:href="#DejaVuSans-2e" transform="translate(63.623047 0)"/>
       <use xlink:href="#DejaVuSans-34" transform="translate(95.410156 0)"/>
      </g>
     </g>
    </g>
    <g id="xtick_11">
     <g id="line2d_18">
      <path d="M 587.129667 165.78 
L 587.129667 29.04 
" clip-path="url(#pbe8984b58f)" style="fill: none; stroke: #ffffff; stroke-linecap: round"/>
     </g>
     <g id="text_20">
      <!-- 0.6 -->
      <g style="fill: #262626" transform="translate(578.382948 183.638281) scale(0.11 -0.11)">
       <use xlink:href="#DejaVuSans-30"/>
       <use xlink:href="#DejaVuSans-2e" transform="translate(63.623047 0)"/>
       <use xlink:href="#DejaVuSans-36" transform="translate(95.410156 0)"/>
      </g>
     </g>
    </g>
    <g id="xtick_12">
     <g id="line2d_19">
      <path d="M 647.504 165.78 
L 647.504 29.04 
" clip-path="url(#pbe8984b58f)" style="fill: none; stroke: #ffffff; stroke-linecap: round"/>
     </g>
     <g id="text_21">
      <!-- 0.8 -->
      <g style="fill: #262626" transform="translate(638.757281 183.638281) scale(0.11 -0.11)">
       <use xlink:href="#DejaVuSans-30"/>
       <use xlink:href="#DejaVuSans-2e" transform="translate(63.623047 0)"/>
       <use xlink:href="#DejaVuSans-38" transform="translate(95.410156 0)"/>
      </g>
     </g>
    </g>
    <g id="xtick_13">
     <g id="line2d_20">
      <path d="M 707.878333 165.78 
L 707.878333 29.04 
" clip-path="url(#pbe8984b58f)" style="fill: none; stroke: #ffffff; stroke-linecap: round"/>
     </g>
     <g id="text_22">
      <!-- 1.0 -->
      <g style="fill: #262626" transform="translate(699.131615 183.638281) scale(0.11 -0.11)">
       <use xlink:href="#DejaVuSans-31"/>
       <use xlink:href="#DejaVuSans-2e" transform="translate(63.623047 0)"/>
       <use xlink:href="#DejaVuSans-30" transform="translate(95.410156 0)"/>
      </g>
     </g>
    </g>
   </g>
   <g id="matplotlib.axis_4">
    <g id="ytick_6">
     <g id="line2d_21">
      <path d="M 406.006667 165.78 
L 707.878333 165.78 
" clip-path="url(#pbe8984b58f)" style="fill: none; stroke: #ffffff; stroke-linecap: round"/>
     </g>
     <g id="text_23">
      <!-- 0.0 -->
      <g style="fill: #262626" transform="translate(379.013229 169.959141) scale(0.11 -0.11)">
       <use xlink:href="#DejaVuSans-30"/>
       <use xlink:href="#DejaVuSans-2e" transform="translate(63.623047 0)"/>
       <use xlink:href="#DejaVuSans-30" transform="translate(95.410156 0)"/>
      </g>
     </g>
    </g>
    <g id="ytick_7">
     <g id="line2d_22">
      <path d="M 406.006667 138.432 
L 707.878333 138.432 
" clip-path="url(#pbe8984b58f)" style="fill: none; stroke: #ffffff; stroke-linecap: round"/>
     </g>
     <g id="text_24">
      <!-- 0.2 -->
      <g style="fill: #262626" transform="translate(379.013229 142.611141) scale(0.11 -0.11)">
       <use xlink:href="#DejaVuSans-30"/>
       <use xlink:href="#DejaVuSans-2e" transform="translate(63.623047 0)"/>
       <use xlink:href="#DejaVuSans-32" transform="translate(95.410156 0)"/>
      </g>
     </g>
    </g>
    <g id="ytick_8">
     <g id="line2d_23">
      <path d="M 406.006667 111.084 
L 707.878333 111.084 
" clip-path="url(#pbe8984b58f)" style="fill: none; stroke: #ffffff; stroke-linecap: round"/>
     </g>
     <g id="text_25">
      <!-- 0.4 -->
      <g style="fill: #262626" transform="translate(379.013229 115.263141) scale(0.11 -0.11)">
       <use xlink:href="#DejaVuSans-30"/>
       <use xlink:href="#DejaVuSans-2e" transform="translate(63.623047 0)"/>
       <use xlink:href="#DejaVuSans-34" transform="translate(95.410156 0)"/>
      </g>
     </g>
    </g>
    <g id="ytick_9">
     <g id="line2d_24">
      <path d="M 406.006667 83.736 
L 707.878333 83.736 
" clip-path="url(#pbe8984b58f)" style="fill: none; stroke: #ffffff; stroke-linecap: round"/>
     </g>
     <g id="text_26">
      <!-- 0.6 -->
      <g style="fill: #262626" transform="translate(379.013229 87.915141) scale(0.11 -0.11)">
       <use xlink:href="#DejaVuSans-30"/>
       <use xlink:href="#DejaVuSans-2e" transform="translate(63.623047 0)"/>
       <use xlink:href="#DejaVuSans-36" transform="translate(95.410156 0)"/>
      </g>
     </g>
    </g>
    <g id="ytick_10">
     <g id="line2d_25">
      <path d="M 406.006667 56.388 
L 707.878333 56.388 
" clip-path="url(#pbe8984b58f)" style="fill: none; stroke: #ffffff; stroke-linecap: round"/>
     </g>
     <g id="text_27">
      <!-- 0.8 -->
      <g style="fill: #262626" transform="translate(379.013229 60.567141) scale(0.11 -0.11)">
       <use xlink:href="#DejaVuSans-30"/>
       <use xlink:href="#DejaVuSans-2e" transform="translate(63.623047 0)"/>
       <use xlink:href="#DejaVuSans-38" transform="translate(95.410156 0)"/>
      </g>
     </g>
    </g>
    <g id="ytick_11">
     <g id="line2d_26">
      <path d="M 406.006667 29.04 
L 707.878333 29.04 
" clip-path="url(#pbe8984b58f)" style="fill: none; stroke: #ffffff; stroke-linecap: round"/>
     </g>
     <g id="text_28">
      <!-- 1.0 -->
      <g style="fill: #262626" transform="translate(379.013229 33.219141) scale(0.11 -0.11)">
       <use xlink:href="#DejaVuSans-31"/>
       <use xlink:href="#DejaVuSans-2e" transform="translate(63.623047 0)"/>
       <use xlink:href="#DejaVuSans-30" transform="translate(95.410156 0)"/>
      </g>
     </g>
    </g>
   </g>
   <g id="patch_9">
    <path d="M 406.006667 165.78 
L 406.006667 29.04 
" style="fill: none; stroke: #ffffff; stroke-width: 1.25; stroke-linejoin: miter; stroke-linecap: square"/>
   </g>
   <g id="patch_10">
    <path d="M 707.878333 165.78 
L 707.878333 29.04 
" style="fill: none; stroke: #ffffff; stroke-width: 1.25; stroke-linejoin: miter; stroke-linecap: square"/>
   </g>
   <g id="patch_11">
    <path d="M 406.006667 165.78 
L 707.878333 165.78 
" style="fill: none; stroke: #ffffff; stroke-width: 1.25; stroke-linejoin: miter; stroke-linecap: square"/>
   </g>
   <g id="patch_12">
    <path d="M 406.006667 29.04 
L 707.878333 29.04 
" style="fill: none; stroke: #ffffff; stroke-width: 1.25; stroke-linejoin: miter; stroke-linecap: square"/>
   </g>
  </g>
  <g id="axes_3">
   <g id="patch_13">
    <path d="M 756.483333 165.78 
L 1058.355 165.78 
L 1058.355 29.04 
L 756.483333 29.04 
z
" style="fill: #eaeaf2"/>
   </g>
   <g id="matplotlib.axis_5">
    <g id="xtick_14">
     <g id="line2d_27">
      <path d="M 756.483333 165.78 
L 756.483333 29.04 
" clip-path="url(#pf856e4b392)" style="fill: none; stroke: #ffffff; stroke-linecap: round"/>
     </g>
     <g id="text_29">
      <!-- 0.0 -->
      <g style="fill: #262626" transform="translate(747.736615 183.638281) scale(0.11 -0.11)">
       <use xlink:href="#DejaVuSans-30"/>
       <use xlink:href="#DejaVuSans-2e" transform="translate(63.623047 0)"/>
       <use xlink:href="#DejaVuSans-30" transform="translate(95.410156 0)"/>
      </g>
     </g>
    </g>
    <g id="xtick_15">
     <g id="line2d_28">
      <path d="M 816.857667 165.78 
L 816.857667 29.04 
" clip-path="url(#pf856e4b392)" style="fill: none; stroke: #ffffff; stroke-linecap: round"/>
     </g>
     <g id="text_30">
      <!-- 0.2 -->
      <g style="fill: #262626" transform="translate(808.110948 183.638281) scale(0.11 -0.11)">
       <use xlink:href="#DejaVuSans-30"/>
       <use xlink:href="#DejaVuSans-2e" transform="translate(63.623047 0)"/>
       <use xlink:href="#DejaVuSans-32" transform="translate(95.410156 0)"/>
      </g>
     </g>
    </g>
    <g id="xtick_16">
     <g id="line2d_29">
      <path d="M 877.232 165.78 
L 877.232 29.04 
" clip-path="url(#pf856e4b392)" style="fill: none; stroke: #ffffff; stroke-linecap: round"/>
     </g>
     <g id="text_31">
      <!-- 0.4 -->
      <g style="fill: #262626" transform="translate(868.485281 183.638281) scale(0.11 -0.11)">
       <use xlink:href="#DejaVuSans-30"/>
       <use xlink:href="#DejaVuSans-2e" transform="translate(63.623047 0)"/>
       <use xlink:href="#DejaVuSans-34" transform="translate(95.410156 0)"/>
      </g>
     </g>
    </g>
    <g id="xtick_17">
     <g id="line2d_30">
      <path d="M 937.606333 165.78 
L 937.606333 29.04 
" clip-path="url(#pf856e4b392)" style="fill: none; stroke: #ffffff; stroke-linecap: round"/>
     </g>
     <g id="text_32">
      <!-- 0.6 -->
      <g style="fill: #262626" transform="translate(928.859615 183.638281) scale(0.11 -0.11)">
       <use xlink:href="#DejaVuSans-30"/>
       <use xlink:href="#DejaVuSans-2e" transform="translate(63.623047 0)"/>
       <use xlink:href="#DejaVuSans-36" transform="translate(95.410156 0)"/>
      </g>
     </g>
    </g>
    <g id="xtick_18">
     <g id="line2d_31">
      <path d="M 997.980667 165.78 
L 997.980667 29.04 
" clip-path="url(#pf856e4b392)" style="fill: none; stroke: #ffffff; stroke-linecap: round"/>
     </g>
     <g id="text_33">
      <!-- 0.8 -->
      <g style="fill: #262626" transform="translate(989.233948 183.638281) scale(0.11 -0.11)">
       <use xlink:href="#DejaVuSans-30"/>
       <use xlink:href="#DejaVuSans-2e" transform="translate(63.623047 0)"/>
       <use xlink:href="#DejaVuSans-38" transform="translate(95.410156 0)"/>
      </g>
     </g>
    </g>
    <g id="xtick_19">
     <g id="line2d_32">
      <path d="M 1058.355 165.78 
L 1058.355 29.04 
" clip-path="url(#pf856e4b392)" style="fill: none; stroke: #ffffff; stroke-linecap: round"/>
     </g>
     <g id="text_34">
      <!-- 1.0 -->
      <g style="fill: #262626" transform="translate(1049.608281 183.638281) scale(0.11 -0.11)">
       <use xlink:href="#DejaVuSans-31"/>
       <use xlink:href="#DejaVuSans-2e" transform="translate(63.623047 0)"/>
       <use xlink:href="#DejaVuSans-30" transform="translate(95.410156 0)"/>
      </g>
     </g>
    </g>
   </g>
   <g id="matplotlib.axis_6">
    <g id="ytick_12">
     <g id="line2d_33">
      <path d="M 756.483333 165.78 
L 1058.355 165.78 
" clip-path="url(#pf856e4b392)" style="fill: none; stroke: #ffffff; stroke-linecap: round"/>
     </g>
     <g id="text_35">
      <!-- 0.0 -->
      <g style="fill: #262626" transform="translate(729.489896 169.959141) scale(0.11 -0.11)">
       <use xlink:href="#DejaVuSans-30"/>
       <use xlink:href="#DejaVuSans-2e" transform="translate(63.623047 0)"/>
       <use xlink:href="#DejaVuSans-30" transform="translate(95.410156 0)"/>
      </g>
     </g>
    </g>
    <g id="ytick_13">
     <g id="line2d_34">
      <path d="M 756.483333 138.432 
L 1058.355 138.432 
" clip-path="url(#pf856e4b392)" style="fill: none; stroke: #ffffff; stroke-linecap: round"/>
     </g>
     <g id="text_36">
      <!-- 0.2 -->
      <g style="fill: #262626" transform="translate(729.489896 142.611141) scale(0.11 -0.11)">
       <use xlink:href="#DejaVuSans-30"/>
       <use xlink:href="#DejaVuSans-2e" transform="translate(63.623047 0)"/>
       <use xlink:href="#DejaVuSans-32" transform="translate(95.410156 0)"/>
      </g>
     </g>
    </g>
    <g id="ytick_14">
     <g id="line2d_35">
      <path d="M 756.483333 111.084 
L 1058.355 111.084 
" clip-path="url(#pf856e4b392)" style="fill: none; stroke: #ffffff; stroke-linecap: round"/>
     </g>
     <g id="text_37">
      <!-- 0.4 -->
      <g style="fill: #262626" transform="translate(729.489896 115.263141) scale(0.11 -0.11)">
       <use xlink:href="#DejaVuSans-30"/>
       <use xlink:href="#DejaVuSans-2e" transform="translate(63.623047 0)"/>
       <use xlink:href="#DejaVuSans-34" transform="translate(95.410156 0)"/>
      </g>
     </g>
    </g>
    <g id="ytick_15">
     <g id="line2d_36">
      <path d="M 756.483333 83.736 
L 1058.355 83.736 
" clip-path="url(#pf856e4b392)" style="fill: none; stroke: #ffffff; stroke-linecap: round"/>
     </g>
     <g id="text_38">
      <!-- 0.6 -->
      <g style="fill: #262626" transform="translate(729.489896 87.915141) scale(0.11 -0.11)">
       <use xlink:href="#DejaVuSans-30"/>
       <use xlink:href="#DejaVuSans-2e" transform="translate(63.623047 0)"/>
       <use xlink:href="#DejaVuSans-36" transform="translate(95.410156 0)"/>
      </g>
     </g>
    </g>
    <g id="ytick_16">
     <g id="line2d_37">
      <path d="M 756.483333 56.388 
L 1058.355 56.388 
" clip-path="url(#pf856e4b392)" style="fill: none; stroke: #ffffff; stroke-linecap: round"/>
     </g>
     <g id="text_39">
      <!-- 0.8 -->
      <g style="fill: #262626" transform="translate(729.489896 60.567141) scale(0.11 -0.11)">
       <use xlink:href="#DejaVuSans-30"/>
       <use xlink:href="#DejaVuSans-2e" transform="translate(63.623047 0)"/>
       <use xlink:href="#DejaVuSans-38" transform="translate(95.410156 0)"/>
      </g>
     </g>
    </g>
    <g id="ytick_17">
     <g id="line2d_38">
      <path d="M 756.483333 29.04 
L 1058.355 29.04 
" clip-path="url(#pf856e4b392)" style="fill: none; stroke: #ffffff; stroke-linecap: round"/>
     </g>
     <g id="text_40">
      <!-- 1.0 -->
      <g style="fill: #262626" transform="translate(729.489896 33.219141) scale(0.11 -0.11)">
       <use xlink:href="#DejaVuSans-31"/>
       <use xlink:href="#DejaVuSans-2e" transform="translate(63.623047 0)"/>
       <use xlink:href="#DejaVuSans-30" transform="translate(95.410156 0)"/>
      </g>
     </g>
    </g>
   </g>
   <g id="patch_14">
    <path d="M 756.483333 165.78 
L 756.483333 29.04 
" style="fill: none; stroke: #ffffff; stroke-width: 1.25; stroke-linejoin: miter; stroke-linecap: square"/>
   </g>
   <g id="patch_15">
    <path d="M 1058.355 165.78 
L 1058.355 29.04 
" style="fill: none; stroke: #ffffff; stroke-width: 1.25; stroke-linejoin: miter; stroke-linecap: square"/>
   </g>
   <g id="patch_16">
    <path d="M 756.483333 165.78 
L 1058.355 165.78 
" style="fill: none; stroke: #ffffff; stroke-width: 1.25; stroke-linejoin: miter; stroke-linecap: square"/>
   </g>
   <g id="patch_17">
    <path d="M 756.483333 29.04 
L 1058.355 29.04 
" style="fill: none; stroke: #ffffff; stroke-width: 1.25; stroke-linejoin: miter; stroke-linecap: square"/>
   </g>
  </g>
 </g>
 <defs>
  <clipPath id="p6504a5ca76">
   <rect x="55.53" y="29.04" width="301.871667" height="136.74"/>
  </clipPath>
  <clipPath id="pbe8984b58f">
   <rect x="406.006667" y="29.04" width="301.871667" height="136.74"/>
  </clipPath>
  <clipPath id="pf856e4b392">
   <rect x="756.483333" y="29.04" width="301.871667" height="136.74"/>
  </clipPath>
 </defs>
</svg>
