<?xml version="1.0" encoding="utf-8" standalone="no"?>
<!DOCTYPE svg PUBLIC "-//W3C//DTD SVG 1.1//EN"
  "http://www.w3.org/Graphics/SVG/1.1/DTD/svg11.dtd">
<svg xmlns:xlink="http://www.w3.org/1999/xlink" width="1080pt" height="216pt" viewBox="0 0 1080 216" xmlns="http://www.w3.org/2000/svg" version="1.1">
 <metadata>
  <rdf:RDF xmlns:dc="http://purl.org/dc/elements/1.1/" xmlns:cc="http://creativecommons.org/ns#" xmlns:rdf="http://www.w3.org/1999/02/22-rdf-syntax-ns#">
   <cc:Work>
    <dc:type rdf:resource="http://purl.org/dc/dcmitype/StillImage"/>
    <dc:date>2025-06-10T11:33:17.847908</dc:date>
    <dc:format>image/svg+xml</dc:format>
    <dc:creator>
     <cc:Agent>
      <dc:title>Matplotlib v3.10.0, https://matplotlib.org/</dc:title>
     </cc:Agent>
    </dc:creator>
   </cc:Work>
  </rdf:RDF>
 </metadata>
 <defs>
  <style type="text/css">*{stroke-linejoin: round; stroke-linecap: butt}</style>
 </defs>
 <g id="figure_1">
  <g id="patch_1">
   <path d="M 0 216 
L 1080 216 
L 1080 0 
L 0 0 
z
" style="fill: #ffffff"/>
  </g>
  <g id="axes_1">
   <g id="patch_2">
    <path d="M 60.21 165.78 
L 360.521667 165.78 
L 360.521667 29.04 
L 60.21 29.04 
z
" style="fill: #eaeaf2"/>
   </g>
   <g id="matplotlib.axis_1">
    <g id="xtick_1">
     <g id="line2d_1">
      <path d="M 73.859411 165.78 
L 73.859411 29.04 
" clip-path="url(#pec8feb8d52)" style="fill: none; stroke: #ffffff; stroke-linecap: round"/>
     </g>
     <g id="text_1">
      <!-- 0 -->
      <g style="fill: #262626" transform="translate(70.360036 183.638281) scale(0.11 -0.11)">
       <defs>
        <path id="DejaVuSans-30" d="M 2034 4250 
Q 1547 4250 1301 3770 
Q 1056 3291 1056 2328 
Q 1056 1369 1301 889 
Q 1547 409 2034 409 
Q 2525 409 2770 889 
Q 3016 1369 3016 2328 
Q 3016 3291 2770 3770 
Q 2525 4250 2034 4250 
z
M 2034 4750 
Q 2819 4750 3233 4129 
Q 3647 3509 3647 2328 
Q 3647 1150 3233 529 
Q 2819 -91 2034 -91 
Q 1250 -91 836 529 
Q 422 1150 422 2328 
Q 422 3509 836 4129 
Q 1250 4750 2034 4750 
z
" transform="scale(0.015625)"/>
       </defs>
       <use xlink:href="#DejaVuSans-30"/>
      </g>
     </g>
    </g>
    <g id="xtick_2">
     <g id="line2d_2">
      <path d="M 120.680002 165.78 
L 120.680002 29.04 
" clip-path="url(#pec8feb8d52)" style="fill: none; stroke: #ffffff; stroke-linecap: round"/>
     </g>
     <g id="text_2">
      <!-- 20 -->
      <g style="fill: #262626" transform="translate(113.681252 183.638281) scale(0.11 -0.11)">
       <defs>
        <path id="DejaVuSans-32" d="M 1228 531 
L 3431 531 
L 3431 0 
L 469 0 
L 469 531 
Q 828 903 1448 1529 
Q 2069 2156 2228 2338 
Q 2531 2678 2651 2914 
Q 2772 3150 2772 3378 
Q 2772 3750 2511 3984 
Q 2250 4219 1831 4219 
Q 1534 4219 1204 4116 
Q 875 4013 500 3803 
L 500 4441 
Q 881 4594 1212 4672 
Q 1544 4750 1819 4750 
Q 2544 4750 2975 4387 
Q 3406 4025 3406 3419 
Q 3406 3131 3298 2873 
Q 3191 2616 2906 2266 
Q 2828 2175 2409 1742 
Q 1991 1309 1228 531 
z
" transform="scale(0.015625)"/>
       </defs>
       <use xlink:href="#DejaVuSans-32"/>
       <use xlink:href="#DejaVuSans-30" transform="translate(63.623047 0)"/>
      </g>
     </g>
    </g>
    <g id="xtick_3">
     <g id="line2d_3">
      <path d="M 167.500593 165.78 
L 167.500593 29.04 
" clip-path="url(#pec8feb8d52)" style="fill: none; stroke: #ffffff; stroke-linecap: round"/>
     </g>
     <g id="text_3">
      <!-- 40 -->
      <g style="fill: #262626" transform="translate(160.501843 183.638281) scale(0.11 -0.11)">
       <defs>
        <path id="DejaVuSans-34" d="M 2419 4116 
L 825 1625 
L 2419 1625 
L 2419 4116 
z
M 2253 4666 
L 3047 4666 
L 3047 1625 
L 3713 1625 
L 3713 1100 
L 3047 1100 
L 3047 0 
L 2419 0 
L 2419 1100 
L 313 1100 
L 313 1709 
L 2253 4666 
z
" transform="scale(0.015625)"/>
       </defs>
       <use xlink:href="#DejaVuSans-34"/>
       <use xlink:href="#DejaVuSans-30" transform="translate(63.623047 0)"/>
      </g>
     </g>
    </g>
    <g id="xtick_4">
     <g id="line2d_4">
      <path d="M 214.321185 165.78 
L 214.321185 29.04 
" clip-path="url(#pec8feb8d52)" style="fill: none; stroke: #ffffff; stroke-linecap: round"/>
     </g>
     <g id="text_4">
      <!-- 60 -->
      <g style="fill: #262626" transform="translate(207.322435 183.638281) scale(0.11 -0.11)">
       <defs>
        <path id="DejaVuSans-36" d="M 2113 2584 
Q 1688 2584 1439 2293 
Q 1191 2003 1191 1497 
Q 1191 994 1439 701 
Q 1688 409 2113 409 
Q 2538 409 2786 701 
Q 3034 994 3034 1497 
Q 3034 2003 2786 2293 
Q 2538 2584 2113 2584 
z
M 3366 4563 
L 3366 3988 
Q 3128 4100 2886 4159 
Q 2644 4219 2406 4219 
Q 1781 4219 1451 3797 
Q 1122 3375 1075 2522 
Q 1259 2794 1537 2939 
Q 1816 3084 2150 3084 
Q 2853 3084 3261 2657 
Q 3669 2231 3669 1497 
Q 3669 778 3244 343 
Q 2819 -91 2113 -91 
Q 1303 -91 875 529 
Q 447 1150 447 2328 
Q 447 3434 972 4092 
Q 1497 4750 2381 4750 
Q 2619 4750 2861 4703 
Q 3103 4656 3366 4563 
z
" transform="scale(0.015625)"/>
       </defs>
       <use xlink:href="#DejaVuSans-36"/>
       <use xlink:href="#DejaVuSans-30" transform="translate(63.623047 0)"/>
      </g>
     </g>
    </g>
    <g id="xtick_5">
     <g id="line2d_5">
      <path d="M 261.141776 165.78 
L 261.141776 29.04 
" clip-path="url(#pec8feb8d52)" style="fill: none; stroke: #ffffff; stroke-linecap: round"/>
     </g>
     <g id="text_5">
      <!-- 80 -->
      <g style="fill: #262626" transform="translate(254.143026 183.638281) scale(0.11 -0.11)">
       <defs>
        <path id="DejaVuSans-38" d="M 2034 2216 
Q 1584 2216 1326 1975 
Q 1069 1734 1069 1313 
Q 1069 891 1326 650 
Q 1584 409 2034 409 
Q 2484 409 2743 651 
Q 3003 894 3003 1313 
Q 3003 1734 2745 1975 
Q 2488 2216 2034 2216 
z
M 1403 2484 
Q 997 2584 770 2862 
Q 544 3141 544 3541 
Q 544 4100 942 4425 
Q 1341 4750 2034 4750 
Q 2731 4750 3128 4425 
Q 3525 4100 3525 3541 
Q 3525 3141 3298 2862 
Q 3072 2584 2669 2484 
Q 3125 2378 3379 2068 
Q 3634 1759 3634 1313 
Q 3634 634 3220 271 
Q 2806 -91 2034 -91 
Q 1263 -91 848 271 
Q 434 634 434 1313 
Q 434 1759 690 2068 
Q 947 2378 1403 2484 
z
M 1172 3481 
Q 1172 3119 1398 2916 
Q 1625 2713 2034 2713 
Q 2441 2713 2670 2916 
Q 2900 3119 2900 3481 
Q 2900 3844 2670 4047 
Q 2441 4250 2034 4250 
Q 1625 4250 1398 4047 
Q 1172 3844 1172 3481 
z
" transform="scale(0.015625)"/>
       </defs>
       <use xlink:href="#DejaVuSans-38"/>
       <use xlink:href="#DejaVuSans-30" transform="translate(63.623047 0)"/>
      </g>
     </g>
    </g>
    <g id="xtick_6">
     <g id="line2d_6">
      <path d="M 307.962367 165.78 
L 307.962367 29.04 
" clip-path="url(#pec8feb8d52)" style="fill: none; stroke: #ffffff; stroke-linecap: round"/>
     </g>
     <g id="text_6">
      <!-- 100 -->
      <g style="fill: #262626" transform="translate(297.464242 183.638281) scale(0.11 -0.11)">
       <defs>
        <path id="DejaVuSans-31" d="M 794 531 
L 1825 531 
L 1825 4091 
L 703 3866 
L 703 4441 
L 1819 4666 
L 2450 4666 
L 2450 531 
L 3481 531 
L 3481 0 
L 794 0 
L 794 531 
z
" transform="scale(0.015625)"/>
       </defs>
       <use xlink:href="#DejaVuSans-31"/>
       <use xlink:href="#DejaVuSans-30" transform="translate(63.623047 0)"/>
       <use xlink:href="#DejaVuSans-30" transform="translate(127.246094 0)"/>
      </g>
     </g>
    </g>
    <g id="xtick_7">
     <g id="line2d_7">
      <path d="M 354.782959 165.78 
L 354.782959 29.04 
" clip-path="url(#pec8feb8d52)" style="fill: none; stroke: #ffffff; stroke-linecap: round"/>
     </g>
     <g id="text_7">
      <!-- 120 -->
      <g style="fill: #262626" transform="translate(344.284834 183.638281) scale(0.11 -0.11)">
       <use xlink:href="#DejaVuSans-31"/>
       <use xlink:href="#DejaVuSans-32" transform="translate(63.623047 0)"/>
       <use xlink:href="#DejaVuSans-30" transform="translate(127.246094 0)"/>
      </g>
     </g>
    </g>
    <g id="text_8">
     <!-- Time (s) -->
     <g style="fill: #262626" transform="translate(185.971146 199.044062) scale(0.12 -0.12)">
      <defs>
       <path id="DejaVuSans-54" d="M -19 4666 
L 3928 4666 
L 3928 4134 
L 2272 4134 
L 2272 0 
L 1638 0 
L 1638 4134 
L -19 4134 
L -19 4666 
z
" transform="scale(0.015625)"/>
       <path id="DejaVuSans-69" d="M 603 3500 
L 1178 3500 
L 1178 0 
L 603 0 
L 603 3500 
z
M 603 4863 
L 1178 4863 
L 1178 4134 
L 603 4134 
L 603 4863 
z
" transform="scale(0.015625)"/>
       <path id="DejaVuSans-6d" d="M 3328 2828 
Q 3544 3216 3844 3400 
Q 4144 3584 4550 3584 
Q 5097 3584 5394 3201 
Q 5691 2819 5691 2113 
L 5691 0 
L 5113 0 
L 5113 2094 
Q 5113 2597 4934 2840 
Q 4756 3084 4391 3084 
Q 3944 3084 3684 2787 
Q 3425 2491 3425 1978 
L 3425 0 
L 2847 0 
L 2847 2094 
Q 2847 2600 2669 2842 
Q 2491 3084 2119 3084 
Q 1678 3084 1418 2786 
Q 1159 2488 1159 1978 
L 1159 0 
L 581 0 
L 581 3500 
L 1159 3500 
L 1159 2956 
Q 1356 3278 1631 3431 
Q 1906 3584 2284 3584 
Q 2666 3584 2933 3390 
Q 3200 3197 3328 2828 
z
" transform="scale(0.015625)"/>
       <path id="DejaVuSans-65" d="M 3597 1894 
L 3597 1613 
L 953 1613 
Q 991 1019 1311 708 
Q 1631 397 2203 397 
Q 2534 397 2845 478 
Q 3156 559 3463 722 
L 3463 178 
Q 3153 47 2828 -22 
Q 2503 -91 2169 -91 
Q 1331 -91 842 396 
Q 353 884 353 1716 
Q 353 2575 817 3079 
Q 1281 3584 2069 3584 
Q 2775 3584 3186 3129 
Q 3597 2675 3597 1894 
z
M 3022 2063 
Q 3016 2534 2758 2815 
Q 2500 3097 2075 3097 
Q 1594 3097 1305 2825 
Q 1016 2553 972 2059 
L 3022 2063 
z
" transform="scale(0.015625)"/>
       <path id="DejaVuSans-20" transform="scale(0.015625)"/>
       <path id="DejaVuSans-28" d="M 1984 4856 
Q 1566 4138 1362 3434 
Q 1159 2731 1159 2009 
Q 1159 1288 1364 580 
Q 1569 -128 1984 -844 
L 1484 -844 
Q 1016 -109 783 600 
Q 550 1309 550 2009 
Q 550 2706 781 3412 
Q 1013 4119 1484 4856 
L 1984 4856 
z
" transform="scale(0.015625)"/>
       <path id="DejaVuSans-73" d="M 2834 3397 
L 2834 2853 
Q 2591 2978 2328 3040 
Q 2066 3103 1784 3103 
Q 1356 3103 1142 2972 
Q 928 2841 928 2578 
Q 928 2378 1081 2264 
Q 1234 2150 1697 2047 
L 1894 2003 
Q 2506 1872 2764 1633 
Q 3022 1394 3022 966 
Q 3022 478 2636 193 
Q 2250 -91 1575 -91 
Q 1294 -91 989 -36 
Q 684 19 347 128 
L 347 722 
Q 666 556 975 473 
Q 1284 391 1588 391 
Q 1994 391 2212 530 
Q 2431 669 2431 922 
Q 2431 1156 2273 1281 
Q 2116 1406 1581 1522 
L 1381 1569 
Q 847 1681 609 1914 
Q 372 2147 372 2553 
Q 372 3047 722 3315 
Q 1072 3584 1716 3584 
Q 2034 3584 2315 3537 
Q 2597 3491 2834 3397 
z
" transform="scale(0.015625)"/>
       <path id="DejaVuSans-29" d="M 513 4856 
L 1013 4856 
Q 1481 4119 1714 3412 
Q 1947 2706 1947 2009 
Q 1947 1309 1714 600 
Q 1481 -109 1013 -844 
L 513 -844 
Q 928 -128 1133 580 
Q 1338 1288 1338 2009 
Q 1338 2731 1133 3434 
Q 928 4138 513 4856 
z
" transform="scale(0.015625)"/>
      </defs>
      <use xlink:href="#DejaVuSans-54"/>
      <use xlink:href="#DejaVuSans-69" transform="translate(57.958984 0)"/>
      <use xlink:href="#DejaVuSans-6d" transform="translate(85.742188 0)"/>
      <use xlink:href="#DejaVuSans-65" transform="translate(183.154297 0)"/>
      <use xlink:href="#DejaVuSans-20" transform="translate(244.677734 0)"/>
      <use xlink:href="#DejaVuSans-28" transform="translate(276.464844 0)"/>
      <use xlink:href="#DejaVuSans-73" transform="translate(315.478516 0)"/>
      <use xlink:href="#DejaVuSans-29" transform="translate(367.578125 0)"/>
     </g>
    </g>
   </g>
   <g id="matplotlib.axis_2">
    <g id="ytick_1">
     <g id="line2d_8">
      <path d="M 60.21 159.564545 
L 360.521667 159.564545 
" clip-path="url(#pec8feb8d52)" style="fill: none; stroke: #ffffff; stroke-linecap: round"/>
     </g>
     <g id="text_9">
      <!-- 0 -->
      <g style="fill: #262626" transform="translate(43.71125 163.743686) scale(0.11 -0.11)">
       <use xlink:href="#DejaVuSans-30"/>
      </g>
     </g>
    </g>
    <g id="ytick_2">
     <g id="line2d_9">
      <path d="M 60.21 136.092284 
L 360.521667 136.092284 
" clip-path="url(#pec8feb8d52)" style="fill: none; stroke: #ffffff; stroke-linecap: round"/>
     </g>
     <g id="text_10">
      <!-- 25 -->
      <g style="fill: #262626" transform="translate(36.7125 140.271425) scale(0.11 -0.11)">
       <defs>
        <path id="DejaVuSans-35" d="M 691 4666 
L 3169 4666 
L 3169 4134 
L 1269 4134 
L 1269 2991 
Q 1406 3038 1543 3061 
Q 1681 3084 1819 3084 
Q 2600 3084 3056 2656 
Q 3513 2228 3513 1497 
Q 3513 744 3044 326 
Q 2575 -91 1722 -91 
Q 1428 -91 1123 -41 
Q 819 9 494 109 
L 494 744 
Q 775 591 1075 516 
Q 1375 441 1709 441 
Q 2250 441 2565 725 
Q 2881 1009 2881 1497 
Q 2881 1984 2565 2268 
Q 2250 2553 1709 2553 
Q 1456 2553 1204 2497 
Q 953 2441 691 2322 
L 691 4666 
z
" transform="scale(0.015625)"/>
       </defs>
       <use xlink:href="#DejaVuSans-32"/>
       <use xlink:href="#DejaVuSans-35" transform="translate(63.623047 0)"/>
      </g>
     </g>
    </g>
    <g id="ytick_3">
     <g id="line2d_10">
      <path d="M 60.21 112.620023 
L 360.521667 112.620023 
" clip-path="url(#pec8feb8d52)" style="fill: none; stroke: #ffffff; stroke-linecap: round"/>
     </g>
     <g id="text_11">
      <!-- 50 -->
      <g style="fill: #262626" transform="translate(36.7125 116.799163) scale(0.11 -0.11)">
       <use xlink:href="#DejaVuSans-35"/>
       <use xlink:href="#DejaVuSans-30" transform="translate(63.623047 0)"/>
      </g>
     </g>
    </g>
    <g id="ytick_4">
     <g id="line2d_11">
      <path d="M 60.21 89.147761 
L 360.521667 89.147761 
" clip-path="url(#pec8feb8d52)" style="fill: none; stroke: #ffffff; stroke-linecap: round"/>
     </g>
     <g id="text_12">
      <!-- 75 -->
      <g style="fill: #262626" transform="translate(36.7125 93.326902) scale(0.11 -0.11)">
       <defs>
        <path id="DejaVuSans-37" d="M 525 4666 
L 3525 4666 
L 3525 4397 
L 1831 0 
L 1172 0 
L 2766 4134 
L 525 4134 
L 525 4666 
z
" transform="scale(0.015625)"/>
       </defs>
       <use xlink:href="#DejaVuSans-37"/>
       <use xlink:href="#DejaVuSans-35" transform="translate(63.623047 0)"/>
      </g>
     </g>
    </g>
    <g id="ytick_5">
     <g id="line2d_12">
      <path d="M 60.21 65.6755 
L 360.521667 65.6755 
" clip-path="url(#pec8feb8d52)" style="fill: none; stroke: #ffffff; stroke-linecap: round"/>
     </g>
     <g id="text_13">
      <!-- 100 -->
      <g style="fill: #262626" transform="translate(29.71375 69.85464) scale(0.11 -0.11)">
       <use xlink:href="#DejaVuSans-31"/>
       <use xlink:href="#DejaVuSans-30" transform="translate(63.623047 0)"/>
       <use xlink:href="#DejaVuSans-30" transform="translate(127.246094 0)"/>
      </g>
     </g>
    </g>
    <g id="ytick_6">
     <g id="line2d_13">
      <path d="M 60.21 42.203238 
L 360.521667 42.203238 
" clip-path="url(#pec8feb8d52)" style="fill: none; stroke: #ffffff; stroke-linecap: round"/>
     </g>
     <g id="text_14">
      <!-- 125 -->
      <g style="fill: #262626" transform="translate(29.71375 46.382379) scale(0.11 -0.11)">
       <use xlink:href="#DejaVuSans-31"/>
       <use xlink:href="#DejaVuSans-32" transform="translate(63.623047 0)"/>
       <use xlink:href="#DejaVuSans-35" transform="translate(127.246094 0)"/>
      </g>
     </g>
    </g>
    <g id="text_15">
     <!-- Torque (Nm) or Current (mA) -->
     <g style="fill: #262626" transform="translate(23.218125 183.33375) rotate(-90) scale(0.12 -0.12)">
      <defs>
       <path id="DejaVuSans-6f" d="M 1959 3097 
Q 1497 3097 1228 2736 
Q 959 2375 959 1747 
Q 959 1119 1226 758 
Q 1494 397 1959 397 
Q 2419 397 2687 759 
Q 2956 1122 2956 1747 
Q 2956 2369 2687 2733 
Q 2419 3097 1959 3097 
z
M 1959 3584 
Q 2709 3584 3137 3096 
Q 3566 2609 3566 1747 
Q 3566 888 3137 398 
Q 2709 -91 1959 -91 
Q 1206 -91 779 398 
Q 353 888 353 1747 
Q 353 2609 779 3096 
Q 1206 3584 1959 3584 
z
" transform="scale(0.015625)"/>
       <path id="DejaVuSans-72" d="M 2631 2963 
Q 2534 3019 2420 3045 
Q 2306 3072 2169 3072 
Q 1681 3072 1420 2755 
Q 1159 2438 1159 1844 
L 1159 0 
L 581 0 
L 581 3500 
L 1159 3500 
L 1159 2956 
Q 1341 3275 1631 3429 
Q 1922 3584 2338 3584 
Q 2397 3584 2469 3576 
Q 2541 3569 2628 3553 
L 2631 2963 
z
" transform="scale(0.015625)"/>
       <path id="DejaVuSans-71" d="M 947 1747 
Q 947 1113 1208 752 
Q 1469 391 1925 391 
Q 2381 391 2643 752 
Q 2906 1113 2906 1747 
Q 2906 2381 2643 2742 
Q 2381 3103 1925 3103 
Q 1469 3103 1208 2742 
Q 947 2381 947 1747 
z
M 2906 525 
Q 2725 213 2448 61 
Q 2172 -91 1784 -91 
Q 1150 -91 751 415 
Q 353 922 353 1747 
Q 353 2572 751 3078 
Q 1150 3584 1784 3584 
Q 2172 3584 2448 3432 
Q 2725 3281 2906 2969 
L 2906 3500 
L 3481 3500 
L 3481 -1331 
L 2906 -1331 
L 2906 525 
z
" transform="scale(0.015625)"/>
       <path id="DejaVuSans-75" d="M 544 1381 
L 544 3500 
L 1119 3500 
L 1119 1403 
Q 1119 906 1312 657 
Q 1506 409 1894 409 
Q 2359 409 2629 706 
Q 2900 1003 2900 1516 
L 2900 3500 
L 3475 3500 
L 3475 0 
L 2900 0 
L 2900 538 
Q 2691 219 2414 64 
Q 2138 -91 1772 -91 
Q 1169 -91 856 284 
Q 544 659 544 1381 
z
M 1991 3584 
L 1991 3584 
z
" transform="scale(0.015625)"/>
       <path id="DejaVuSans-4e" d="M 628 4666 
L 1478 4666 
L 3547 763 
L 3547 4666 
L 4159 4666 
L 4159 0 
L 3309 0 
L 1241 3903 
L 1241 0 
L 628 0 
L 628 4666 
z
" transform="scale(0.015625)"/>
       <path id="DejaVuSans-43" d="M 4122 4306 
L 4122 3641 
Q 3803 3938 3442 4084 
Q 3081 4231 2675 4231 
Q 1875 4231 1450 3742 
Q 1025 3253 1025 2328 
Q 1025 1406 1450 917 
Q 1875 428 2675 428 
Q 3081 428 3442 575 
Q 3803 722 4122 1019 
L 4122 359 
Q 3791 134 3420 21 
Q 3050 -91 2638 -91 
Q 1578 -91 968 557 
Q 359 1206 359 2328 
Q 359 3453 968 4101 
Q 1578 4750 2638 4750 
Q 3056 4750 3426 4639 
Q 3797 4528 4122 4306 
z
" transform="scale(0.015625)"/>
       <path id="DejaVuSans-6e" d="M 3513 2113 
L 3513 0 
L 2938 0 
L 2938 2094 
Q 2938 2591 2744 2837 
Q 2550 3084 2163 3084 
Q 1697 3084 1428 2787 
Q 1159 2491 1159 1978 
L 1159 0 
L 581 0 
L 581 3500 
L 1159 3500 
L 1159 2956 
Q 1366 3272 1645 3428 
Q 1925 3584 2291 3584 
Q 2894 3584 3203 3211 
Q 3513 2838 3513 2113 
z
" transform="scale(0.015625)"/>
       <path id="DejaVuSans-74" d="M 1172 4494 
L 1172 3500 
L 2356 3500 
L 2356 3053 
L 1172 3053 
L 1172 1153 
Q 1172 725 1289 603 
Q 1406 481 1766 481 
L 2356 481 
L 2356 0 
L 1766 0 
Q 1100 0 847 248 
Q 594 497 594 1153 
L 594 3053 
L 172 3053 
L 172 3500 
L 594 3500 
L 594 4494 
L 1172 4494 
z
" transform="scale(0.015625)"/>
       <path id="DejaVuSans-41" d="M 2188 4044 
L 1331 1722 
L 3047 1722 
L 2188 4044 
z
M 1831 4666 
L 2547 4666 
L 4325 0 
L 3669 0 
L 3244 1197 
L 1141 1197 
L 716 0 
L 50 0 
L 1831 4666 
z
" transform="scale(0.015625)"/>
      </defs>
      <use xlink:href="#DejaVuSans-54"/>
      <use xlink:href="#DejaVuSans-6f" transform="translate(44.083984 0)"/>
      <use xlink:href="#DejaVuSans-72" transform="translate(105.265625 0)"/>
      <use xlink:href="#DejaVuSans-71" transform="translate(144.628906 0)"/>
      <use xlink:href="#DejaVuSans-75" transform="translate(208.105469 0)"/>
      <use xlink:href="#DejaVuSans-65" transform="translate(271.484375 0)"/>
      <use xlink:href="#DejaVuSans-20" transform="translate(333.007812 0)"/>
      <use xlink:href="#DejaVuSans-28" transform="translate(364.794922 0)"/>
      <use xlink:href="#DejaVuSans-4e" transform="translate(403.808594 0)"/>
      <use xlink:href="#DejaVuSans-6d" transform="translate(478.613281 0)"/>
      <use xlink:href="#DejaVuSans-29" transform="translate(576.025391 0)"/>
      <use xlink:href="#DejaVuSans-20" transform="translate(615.039062 0)"/>
      <use xlink:href="#DejaVuSans-6f" transform="translate(646.826172 0)"/>
      <use xlink:href="#DejaVuSans-72" transform="translate(708.007812 0)"/>
      <use xlink:href="#DejaVuSans-20" transform="translate(749.121094 0)"/>
      <use xlink:href="#DejaVuSans-43" transform="translate(780.908203 0)"/>
      <use xlink:href="#DejaVuSans-75" transform="translate(850.732422 0)"/>
      <use xlink:href="#DejaVuSans-72" transform="translate(914.111328 0)"/>
      <use xlink:href="#DejaVuSans-72" transform="translate(953.474609 0)"/>
      <use xlink:href="#DejaVuSans-65" transform="translate(992.337891 0)"/>
      <use xlink:href="#DejaVuSans-6e" transform="translate(1053.861328 0)"/>
      <use xlink:href="#DejaVuSans-74" transform="translate(1117.240234 0)"/>
      <use xlink:href="#DejaVuSans-20" transform="translate(1156.449219 0)"/>
      <use xlink:href="#DejaVuSans-28" transform="translate(1188.236328 0)"/>
      <use xlink:href="#DejaVuSans-6d" transform="translate(1227.25 0)"/>
      <use xlink:href="#DejaVuSans-41" transform="translate(1324.662109 0)"/>
      <use xlink:href="#DejaVuSans-29" transform="translate(1393.070312 0)"/>
     </g>
    </g>
   </g>
   <g id="line2d_14">
    <path d="M 73.86053 158.813433 
L 74.047288 159.564545 
L 76.200968 159.564545 
L 76.343273 159.188989 
L 78.589394 159.188989 
L 78.635952 159.564545 
L 78.776141 60.229932 
L 79.19836 55.066035 
L 79.24438 55.066035 
L 79.432205 53.469924 
L 79.478503 53.469924 
L 79.666571 52.718808 
L 79.759929 52.718808 
L 79.806159 52.249363 
L 79.852989 52.718808 
L 80.040596 54.690484 
L 80.227611 59.103266 
L 80.321723 62.295495 
L 80.368558 159.188989 
L 80.462218 155.245649 
L 80.789479 145.668966 
L 81.164528 136.092284 
L 81.25821 136.092284 
L 81.492229 141.256182 
L 82.053683 158.437877 
L 82.194553 58.633821 
L 82.42867 51.873813 
L 82.568578 49.057141 
L 82.616265 49.526587 
L 82.943307 56.662153 
L 83.130455 59.478824 
L 83.64591 49.902137 
L 83.69226 50.653252 
L 83.97368 57.03771 
L 84.114206 62.295495 
L 84.160534 158.813433 
L 84.254582 155.996762 
L 84.348254 155.621206 
L 84.44186 158.437877 
L 84.582362 59.478824 
L 84.676003 58.633821 
L 84.816051 63.046604 
L 84.862827 158.437877 
L 84.956918 154.025092 
L 85.09813 150.457308 
L 85.377857 156.372318 
L 85.472082 158.813433 
L 85.519128 157.968432 
L 85.893484 151.208421 
L 85.941225 152.053422 
L 86.03345 153.649535 
L 86.22104 159.188989 
L 86.267344 158.437877 
L 86.595353 152.428978 
L 86.642007 153.18009 
L 86.735582 154.776204 
L 86.829657 158.437877 
L 86.923336 61.82605 
L 86.969799 62.295495 
L 87.016892 63.046604 
L 87.064105 158.813433 
L 87.157305 155.621206 
L 87.25068 155.245649 
L 87.391782 158.437877 
L 87.532286 59.103266 
L 87.672198 57.882706 
L 87.812812 61.450493 
L 87.859347 60.699377 
L 88.000093 58.258264 
L 88.140215 55.441592 
L 88.18749 55.911037 
L 88.280904 57.507156 
L 88.421357 60.229932 
L 88.468747 59.478824 
L 88.562006 58.258264 
L 88.655447 57.03771 
L 88.795766 59.103266 
L 88.889649 62.295495 
L 88.936228 159.564545 
L 89.030317 157.968432 
L 89.123519 159.564545 
L 89.217797 62.671053 
L 89.264159 159.188989 
L 89.357622 155.996762 
L 89.49835 153.649535 
L 89.686923 157.592876 
L 89.732587 157.217319 
L 89.920081 154.025092 
L 89.966549 154.400648 
L 90.153801 159.564545 
L 90.247126 62.295495 
L 90.294047 63.046604 
L 90.340906 158.813433 
L 90.434784 155.996762 
L 90.575208 159.188989 
L 90.715398 61.074935 
L 90.763393 61.82605 
L 90.809068 159.564545 
L 90.902695 158.437877 
L 90.949813 159.564545 
L 91.091776 59.854382 
L 91.13702 59.854382 
L 91.230629 61.450493 
L 91.277222 159.564545 
L 91.371557 158.437877 
L 91.417767 159.188989 
L 91.558845 61.82605 
L 91.605021 159.564545 
L 91.698638 156.841763 
L 91.839067 155.245649 
L 91.932819 156.841763 
L 91.979477 156.372318 
L 92.120008 154.776204 
L 92.213684 155.996762 
L 92.354775 159.564545 
L 92.400905 159.188989 
L 92.541412 156.372318 
L 92.681872 159.188989 
L 92.822884 61.074935 
L 92.869777 61.82605 
L 92.916173 61.450493 
L 93.009642 59.854382 
L 93.103272 58.258264 
L 93.291047 62.295495 
L 93.339094 61.82605 
L 93.478457 59.854382 
L 93.52478 60.229932 
L 93.665682 63.046604 
L 93.712026 62.671053 
L 93.899406 59.478824 
L 94.039946 62.295495 
L 94.086465 61.82605 
L 94.179943 60.229932 
L 94.226804 61.074935 
L 94.273691 62.295495 
L 94.32074 159.564545 
L 94.414198 158.813433 
L 94.461044 159.564545 
L 94.554738 61.450493 
L 94.601743 61.82605 
L 94.648494 63.046604 
L 94.695123 158.813433 
L 94.788792 158.437877 
L 94.835712 159.564545 
L 94.882495 63.046604 
L 94.929449 159.188989 
L 95.116527 155.621206 
L 95.163578 156.841763 
L 95.21068 155.996762 
L 95.397847 154.025092 
L 95.44588 154.400648 
L 95.585042 156.841763 
L 95.67895 156.372318 
L 95.772052 158.813433 
L 95.912936 61.074935 
L 96.006434 62.295495 
L 96.193811 57.882706 
L 96.240274 58.633821 
L 96.381297 59.478824 
L 96.474332 58.633821 
L 96.521303 59.103266 
L 96.661749 61.82605 
L 96.708435 61.450493 
L 96.80206 60.699377 
L 96.942818 62.671053 
L 97.083068 60.699377 
L 97.176963 62.295495 
L 97.223514 159.188989 
L 97.317525 158.437877 
L 97.41091 159.188989 
L 97.552839 157.217319 
L 97.59813 157.592876 
L 97.691704 159.188989 
L 97.738502 158.437877 
L 97.832382 156.841763 
L 97.879027 157.217319 
L 97.972855 157.968432 
L 98.113074 156.372318 
L 98.160272 157.217319 
L 98.253813 159.188989 
L 98.300761 158.437877 
L 98.395617 156.372318 
L 98.440825 157.592876 
L 98.534478 158.813433 
L 98.581619 158.437877 
L 98.674896 156.841763 
L 98.722089 157.592876 
L 98.815598 159.188989 
L 98.862269 158.437877 
L 98.957605 159.564545 
L 99.096659 60.699377 
L 99.143101 62.295495 
L 99.190319 61.82605 
L 99.377201 59.854382 
L 99.42439 61.450493 
L 99.471115 61.074935 
L 99.611348 59.103266 
L 99.845451 62.295495 
L 99.892839 159.564545 
L 99.985895 157.217319 
L 100.033391 156.841763 
L 100.126712 157.592876 
L 100.220016 157.217319 
L 100.31451 159.188989 
L 100.36071 63.046604 
L 100.407525 159.564545 
L 100.502535 158.437877 
L 100.595157 159.564545 
L 100.735415 156.841763 
L 100.782037 157.592876 
L 100.8762 159.564545 
L 100.922592 158.813433 
L 100.969416 158.437877 
L 101.016029 159.564545 
L 101.109437 61.450493 
L 101.156395 62.295495 
L 101.203074 63.046604 
L 101.249959 159.564545 
L 101.296988 63.046604 
L 101.343496 63.046604 
L 101.390511 159.188989 
L 101.484031 157.217319 
L 101.718872 155.245649 
L 101.765137 155.621206 
L 102.046067 158.437877 
L 102.186441 59.478824 
L 102.514317 51.873813 
L 102.888766 62.295495 
L 102.935857 159.188989 
L 103.029224 156.841763 
L 103.216778 155.996762 
L 103.356895 156.841763 
L 103.497435 157.217319 
L 103.590938 157.217319 
L 103.637738 157.592876 
L 103.684698 157.217319 
L 103.82515 157.217319 
L 103.872289 157.592876 
L 103.918845 157.217319 
L 104.012751 157.217319 
L 104.106097 157.592876 
L 104.246895 157.217319 
L 104.387013 157.592876 
L 104.480676 157.217319 
L 104.621437 157.592876 
L 104.715045 157.217319 
L 104.855261 157.592876 
L 104.901976 157.217319 
L 104.949512 157.592876 
L 105.089327 157.592876 
L 105.182964 157.217319 
L 105.323455 157.592876 
L 105.417252 157.217319 
L 105.65116 158.437877 
L 105.698243 158.437877 
L 105.838386 158.813433 
L 106.681223 158.813433 
L 106.727981 159.188989 
L 106.86851 60.229932 
L 107.243038 50.653252 
L 107.6652 45.489355 
L 107.945379 43.893244 
L 108.179569 46.334358 
L 108.741363 63.046604 
L 108.788896 157.968432 
L 108.881776 154.400648 
L 109.115957 147.26508 
L 109.818452 131.679498 
L 110.052683 136.843396 
L 110.614496 152.428978 
L 110.707805 153.649535 
L 110.754736 153.18009 
L 111.129107 147.26508 
L 111.176024 148.016193 
L 111.456952 154.400648 
L 111.597338 159.564545 
L 111.737866 57.507156 
L 111.878273 54.314927 
L 112.019103 56.286595 
L 112.20609 59.854382 
L 112.299533 59.103266 
L 112.627472 51.498255 
L 112.814745 49.057141 
L 112.955109 51.498255 
L 113.18911 55.441592 
L 113.564169 49.526587 
L 113.610543 49.902137 
L 113.79868 54.314927 
L 113.985305 59.103266 
L 114.032365 58.633821 
L 114.172413 56.662153 
L 114.266188 55.441592 
L 114.406687 57.03771 
L 114.548024 61.82605 
L 114.593645 159.564545 
L 114.687297 155.996762 
L 114.82803 154.776204 
L 114.968472 157.968432 
L 115.015315 157.217319 
L 115.108927 155.621206 
L 115.343057 150.832864 
L 115.436694 151.583977 
L 115.670773 154.776204 
L 115.76447 153.18009 
L 115.905639 150.457308 
L 115.999718 150.832864 
L 116.232669 155.245649 
L 116.279429 154.400648 
L 116.513624 152.428978 
L 116.700859 156.841763 
L 116.794527 159.188989 
L 116.841112 158.813433 
L 117.075423 155.245649 
L 117.215892 159.188989 
L 117.356303 60.699377 
L 117.44999 63.046604 
L 117.496782 158.437877 
L 117.590442 156.841763 
L 117.684103 159.188989 
L 117.824511 59.103266 
L 117.871383 59.103266 
L 118.011835 61.074935 
L 118.058645 60.699377 
L 118.199116 58.258264 
L 118.292799 57.03771 
L 118.339565 57.507156 
L 118.433431 59.103266 
L 118.526838 61.074935 
L 118.573647 60.229932 
L 118.620487 60.229932 
L 118.761217 58.258264 
L 118.854692 59.478824 
L 118.948171 61.074935 
L 119.182376 57.03771 
L 119.229431 57.507156 
L 119.416426 61.074935 
L 119.463528 60.699377 
L 119.603704 58.633821 
L 119.650531 59.103266 
L 119.791749 62.671053 
L 119.837727 159.564545 
L 119.88443 63.046604 
L 120.071693 60.699377 
L 120.118529 62.295495 
L 120.165435 159.564545 
L 120.259179 156.841763 
L 120.306253 156.372318 
L 120.399569 157.968432 
L 120.446475 157.217319 
L 120.633778 153.649535 
L 120.821448 155.621206 
L 120.867722 155.245649 
L 121.008288 153.649535 
L 121.195596 155.996762 
L 121.2427 155.245649 
L 121.383119 154.025092 
L 121.429572 154.400648 
L 121.617002 155.996762 
L 121.757293 154.025092 
L 121.804286 154.400648 
L 121.944516 155.996762 
L 121.991302 155.245649 
L 122.084918 154.776204 
L 122.272347 159.564545 
L 122.366129 62.671053 
L 122.413007 159.564545 
L 122.506694 159.188989 
L 122.647278 59.854382 
L 122.78753 61.450493 
L 122.975052 58.633821 
L 123.021901 58.633821 
L 123.161831 60.229932 
L 123.208626 59.854382 
L 123.349113 59.478824 
L 123.489791 62.671053 
L 123.536661 62.295495 
L 123.630239 60.699377 
L 123.677108 61.074935 
L 123.724143 62.295495 
L 123.770751 159.564545 
L 123.86446 157.968432 
L 123.958358 158.813433 
L 124.0983 157.217319 
L 124.145277 157.968432 
L 124.19211 159.188989 
L 124.3326 60.699377 
L 124.426228 61.82605 
L 124.61327 60.229932 
L 124.754113 62.671053 
L 124.894428 61.074935 
L 124.98831 62.671053 
L 125.034907 159.564545 
L 125.081677 63.046604 
L 125.175361 61.82605 
L 125.222178 63.046604 
L 125.269018 159.188989 
L 125.362496 158.437877 
L 125.409395 158.813433 
L 125.549827 62.295495 
L 125.596556 63.046604 
L 125.644601 159.564545 
L 125.691362 62.671053 
L 125.784033 60.699377 
L 125.830798 61.074935 
L 125.92453 63.046604 
L 125.971321 62.295495 
L 126.111784 60.699377 
L 126.205446 62.671053 
L 126.25226 61.82605 
L 126.345702 60.699377 
L 126.392457 61.074935 
L 126.487427 62.671053 
L 126.673646 60.229932 
L 126.767246 61.82605 
L 126.814084 61.450493 
L 126.954574 60.229932 
L 127.049054 62.295495 
L 127.095037 61.450493 
L 127.141817 61.074935 
L 127.188678 62.295495 
L 127.235463 159.564545 
L 127.329866 158.813433 
L 127.375695 159.564545 
L 127.422692 62.671053 
L 127.469322 63.046604 
L 127.609772 159.564545 
L 127.703677 61.82605 
L 127.750314 62.295495 
L 127.890838 159.564545 
L 128.124793 155.996762 
L 128.171607 156.372318 
L 128.218452 156.372318 
L 128.358939 155.621206 
L 128.452584 157.592876 
L 128.499471 156.841763 
L 128.593221 156.372318 
L 128.874248 159.188989 
L 129.01464 61.82605 
L 129.388994 59.478824 
L 129.436032 59.478824 
L 129.482842 59.854382 
L 129.576501 61.82605 
L 129.623114 61.450493 
L 129.66997 61.450493 
L 129.716966 62.671053 
L 129.763728 159.188989 
L 129.858344 157.217319 
L 129.904189 157.217319 
L 130.091364 155.245649 
L 130.138364 155.621206 
L 130.232136 158.813433 
L 130.372508 58.258264 
L 130.699976 50.277695 
L 130.793813 51.498255 
L 131.16838 62.295495 
L 131.215233 159.564545 
L 131.309772 155.245649 
L 131.402502 152.804534 
L 131.449303 153.18009 
L 131.777055 155.621206 
L 131.82383 155.621206 
L 132.011183 156.372318 
L 132.151633 156.372318 
L 132.199802 155.996762 
L 132.245281 156.372318 
L 132.386554 156.372318 
L 132.432385 155.996762 
L 132.479376 156.372318 
L 132.619829 156.372318 
L 132.760306 155.996762 
L 132.807172 156.372318 
L 132.853945 155.996762 
L 132.90071 155.996762 
L 132.994426 156.372318 
L 133.041245 155.996762 
L 133.089098 156.372318 
L 133.228541 156.372318 
L 133.322167 155.996762 
L 133.462601 156.372318 
L 133.602855 155.996762 
L 133.649647 155.996762 
L 133.883993 158.437877 
L 134.024479 158.813433 
L 134.773427 158.813433 
L 134.867239 159.564545 
L 135.007708 59.103266 
L 135.992059 35.912675 
L 136.132592 35.912675 
L 136.273076 37.884336 
L 136.553938 45.113797 
L 137.114444 62.295495 
L 137.161285 159.188989 
L 137.256533 154.776204 
L 137.536003 146.795635 
L 138.05174 134.871727 
L 138.099202 135.247283 
L 138.191478 136.843396 
L 138.659981 147.640637 
L 138.707341 147.26508 
L 138.800644 145.668966 
L 139.268144 134.49617 
L 139.315728 134.871727 
L 139.595923 140.880626 
L 139.92506 149.23675 
L 140.017512 149.23675 
L 140.251601 144.448409 
L 140.345239 144.823965 
L 140.813588 157.968432 
L 140.954565 60.229932 
L 141.047835 58.633821 
L 141.234829 63.046604 
L 141.468959 57.507156 
L 141.70365 51.498255 
L 141.74977 51.873813 
L 141.797249 51.873813 
L 141.984002 55.441592 
L 142.078357 55.066035 
L 142.452074 47.930469 
L 142.779824 53.094366 
L 142.826755 52.718808 
L 143.107658 48.306026 
L 143.435399 55.066035 
L 143.529059 54.314927 
L 143.717181 52.718808 
L 143.810522 53.845481 
L 144.090737 59.103266 
L 144.277975 56.662153 
L 144.32483 57.03771 
L 144.418648 58.258264 
L 144.55896 63.046604 
L 144.699724 159.188989 
L 144.840937 60.229932 
L 144.887857 60.229932 
L 144.980481 62.671053 
L 145.027172 159.188989 
L 145.121824 155.621206 
L 145.261498 154.025092 
L 145.401675 155.621206 
L 145.495443 154.400648 
L 145.682786 150.832864 
L 145.870071 152.428978 
L 145.917391 152.053422 
L 146.197639 148.861195 
L 146.244643 149.23675 
L 146.478493 151.208421 
L 146.61918 148.391749 
L 146.665908 148.861195 
L 146.900034 151.583977 
L 147.088263 149.987863 
L 147.321312 154.400648 
L 147.416129 154.025092 
L 147.461982 154.025092 
L 147.602356 155.621206 
L 147.69603 159.188989 
L 147.78974 62.671053 
L 147.836401 63.046604 
L 147.884188 159.564545 
L 147.930302 63.046604 
L 148.164767 56.662153 
L 148.211059 57.507156 
L 148.304637 58.633821 
L 148.351558 58.258264 
L 148.538718 55.441592 
L 148.585671 55.911037 
L 148.633632 55.911037 
L 148.726885 57.507156 
L 148.773086 57.03771 
L 148.961011 55.441592 
L 149.148016 57.507156 
L 149.288814 55.441592 
L 149.334653 55.911037 
L 149.522123 57.507156 
L 149.662614 55.441592 
L 149.709897 55.911037 
L 149.896642 57.882706 
L 150.083732 56.286595 
L 150.22441 58.258264 
L 150.271762 57.882706 
L 150.317874 57.882706 
L 150.364839 57.507156 
L 150.411735 57.882706 
L 150.506206 59.478824 
L 150.598818 62.295495 
L 150.645731 61.450493 
L 150.692586 60.699377 
L 150.739531 61.074935 
L 150.786205 62.295495 
L 150.833037 159.564545 
L 150.926653 156.372318 
L 150.97373 156.372318 
L 151.067146 156.841763 
L 151.254361 154.025092 
L 151.442943 155.245649 
L 151.582255 153.18009 
L 151.628969 153.649535 
L 151.769486 154.400648 
L 151.956773 152.428978 
L 152.097212 153.18009 
L 152.285307 151.208421 
L 152.377911 152.428978 
L 152.424974 152.053422 
L 152.518612 151.208421 
L 152.659201 153.18009 
L 152.753743 153.649535 
L 152.800336 152.804534 
L 152.846256 153.18009 
L 152.986816 154.776204 
L 153.034128 154.400648 
L 153.127247 154.025092 
L 153.221438 155.245649 
L 153.361381 156.372318 
L 153.40928 156.372318 
L 153.455822 156.841763 
L 153.548683 159.564545 
L 153.688892 61.450493 
L 153.876334 56.662153 
L 153.923241 57.507156 
L 154.016909 58.633821 
L 154.063696 58.258264 
L 154.157137 57.882706 
L 154.297919 59.478824 
L 154.34462 58.633821 
L 154.391471 58.633821 
L 154.438219 58.258264 
L 154.485066 58.633821 
L 154.626022 59.478824 
L 154.719106 58.633821 
L 154.859473 59.854382 
L 154.906438 59.478824 
L 155.000123 58.633821 
L 155.140515 59.854382 
L 155.187459 59.854382 
L 155.234196 59.478824 
L 155.375246 62.671053 
L 155.421501 61.82605 
L 155.561737 60.699377 
L 155.655415 62.671053 
L 155.702392 61.82605 
L 155.795917 60.699377 
L 155.936555 63.046604 
L 155.983316 62.295495 
L 156.030176 62.295495 
L 156.076963 63.046604 
L 156.124116 158.813433 
L 156.217917 157.592876 
L 156.31105 159.188989 
L 156.357922 158.437877 
L 156.451432 156.372318 
L 156.498657 156.841763 
L 156.545404 156.841763 
L 156.685625 154.400648 
L 156.732435 154.776204 
L 156.872862 155.996762 
L 156.921063 155.996762 
L 157.060186 158.813433 
L 157.107067 157.968432 
L 157.153834 158.437877 
L 157.201153 159.188989 
L 157.34117 61.450493 
L 157.434594 62.671053 
L 157.529039 61.450493 
L 157.575263 62.671053 
L 157.622065 159.188989 
L 157.715753 157.968432 
L 157.762503 157.968432 
L 157.903278 155.621206 
L 157.9499 155.996762 
L 157.996633 157.217319 
L 158.043287 156.841763 
L 158.136936 156.372318 
L 158.23054 158.813433 
L 158.370926 59.478824 
L 158.699444 49.902137 
L 158.88606 46.709915 
L 159.02676 48.681584 
L 159.494848 62.295495 
L 159.542168 159.188989 
L 159.636282 155.245649 
L 159.8226 150.457308 
L 159.870401 150.457308 
L 160.150321 153.18009 
L 160.337682 154.776204 
L 160.38547 154.400648 
L 160.431297 154.776204 
L 160.618398 154.776204 
L 160.759045 155.245649 
L 160.899487 155.245649 
L 160.946524 154.776204 
L 160.993663 155.245649 
L 161.133614 155.245649 
L 161.274389 154.776204 
L 161.367689 155.245649 
L 161.414647 154.776204 
L 161.461857 155.245649 
L 161.695246 155.245649 
L 161.742053 154.776204 
L 162.070296 158.813433 
L 162.772808 158.813433 
L 162.865755 158.625655 
L 162.912567 159.0951 
L 163.053053 60.042157 
L 163.334787 56.09882 
L 163.380959 56.09882 
L 163.615067 54.596589 
L 163.896514 52.624921 
L 164.083273 52.624921 
L 164.410768 56.09882 
L 164.598371 62.952716 
L 164.645613 158.15621 
L 164.738805 154.21287 
L 164.972881 147.26508 
L 165.300623 138.908955 
L 165.488531 135.904505 
L 165.534711 135.904505 
L 166.002755 148.29786 
L 166.330537 158.625655 
L 166.471167 57.507156 
L 166.845744 49.151029 
L 166.892529 49.151029 
L 167.033064 51.592143 
L 167.361552 60.042157 
L 167.407543 60.042157 
L 167.547803 57.507156 
L 167.875745 49.620474 
L 168.109892 53.563811 
L 168.391373 62.483271 
L 168.437628 158.625655 
L 168.531241 155.15176 
L 168.578703 154.682315 
L 168.625772 155.15176 
L 168.718704 158.625655 
L 168.859479 59.478824 
L 168.952542 59.009379 
L 169.047337 62.483271 
L 169.093252 158.625655 
L 169.186495 154.21287 
L 169.374027 149.706196 
L 169.561304 152.710645 
L 169.748491 158.15621 
L 169.796577 157.592876 
L 170.170818 150.26953 
L 170.216769 151.208421 
L 170.451972 158.15621 
L 170.591256 60.981047 
L 170.638174 62.483271 
L 170.685048 159.0951 
L 170.778628 154.682315 
L 170.872275 154.682315 
L 171.012714 158.625655 
L 171.153172 58.539934 
L 171.246933 57.03771 
L 171.293529 57.507156 
L 171.387332 61.450493 
L 171.434106 159.564545 
L 171.527619 158.625655 
L 171.576683 159.564545 
L 171.715146 58.539934 
L 171.856473 57.03771 
L 172.043506 62.013825 
L 172.183259 159.0951 
L 172.323511 59.478824 
L 172.417278 59.009379 
L 172.464187 59.478824 
L 172.557805 62.952716 
L 172.605834 158.15621 
L 172.698673 155.15176 
L 172.745087 155.15176 
L 172.838793 156.653985 
L 172.932487 159.564545 
L 172.980089 159.0951 
L 173.213283 153.18009 
L 173.355439 155.15176 
L 173.447431 159.0951 
L 173.541043 62.952716 
L 173.587861 158.625655 
L 173.681534 155.621206 
L 173.77517 155.15176 
L 173.916163 159.0951 
L 174.056231 60.042157 
L 174.149737 62.952716 
L 174.196853 159.564545 
L 174.243933 62.952716 
L 174.430756 57.03771 
L 174.524293 57.507156 
L 174.618038 59.009379 
L 174.758908 61.450493 
L 174.898855 58.539934 
L 174.946707 59.009379 
L 175.039108 62.013825 
L 175.08638 159.564545 
L 175.179758 158.15621 
L 175.226649 159.564545 
L 175.367219 59.009379 
L 175.507822 61.450493 
L 175.554341 159.564545 
L 175.64807 158.625655 
L 175.69529 159.564545 
L 175.788906 60.511602 
L 175.835305 60.981047 
L 175.883102 62.013825 
L 175.928871 159.0951 
L 176.022615 156.18454 
L 176.07022 156.18454 
L 176.209788 159.564545 
L 176.257215 159.0951 
L 176.490768 154.682315 
L 176.63206 157.592876 
L 176.678046 157.12343 
L 176.865375 155.15176 
L 177.005551 158.625655 
L 177.052377 157.592876 
L 177.193034 155.15176 
L 177.239869 155.621206 
L 177.333738 158.15621 
L 177.474852 61.450493 
L 177.520798 62.952716 
L 177.568622 159.564545 
L 177.614426 62.483271 
L 177.754929 58.070488 
L 177.801754 59.009379 
L 177.94275 62.952716 
L 177.989033 62.013825 
L 178.129325 59.009379 
L 178.176074 59.478824 
L 178.316781 62.952716 
L 178.363721 62.483271 
L 178.503868 60.042157 
L 178.550911 60.042157 
L 178.644499 61.450493 
L 178.691317 60.981047 
L 178.879723 58.539934 
L 179.019023 62.013825 
L 179.206313 60.042157 
L 179.252953 62.013825 
L 179.299974 159.0951 
L 179.393525 158.15621 
L 179.441356 159.564545 
L 179.487278 62.483271 
L 179.535036 159.564545 
L 179.674561 155.621206 
L 179.72226 156.18454 
L 179.815503 157.592876 
L 180.002791 154.21287 
L 180.189611 155.621206 
L 180.284092 154.682315 
L 180.377377 155.621206 
L 180.470426 158.15621 
L 180.517365 157.592876 
L 180.611126 156.18454 
L 180.704614 158.15621 
L 180.79813 61.450493 
L 180.845597 62.013825 
L 180.891827 62.952716 
L 180.98553 159.564545 
L 181.079265 61.450493 
L 181.126915 62.013825 
L 181.172794 62.952716 
L 181.220202 159.564545 
L 181.266368 62.952716 
L 181.36034 60.511602 
L 181.406959 61.450493 
L 181.500392 62.952716 
L 181.687611 59.009379 
L 181.734627 59.478824 
L 181.828384 60.511602 
L 182.015592 59.009379 
L 182.109755 60.511602 
L 182.156024 60.042157 
L 182.250057 59.009379 
L 182.343352 60.981047 
L 182.43703 60.042157 
L 182.577605 59.478824 
L 182.670946 61.450493 
L 182.718383 60.981047 
L 182.765083 60.511602 
L 182.858095 62.952716 
L 182.904992 158.15621 
L 182.99932 156.653985 
L 183.045699 156.653985 
L 183.232901 152.710645 
L 183.280499 153.18009 
L 183.326777 153.649535 
L 183.373422 153.18009 
L 183.466817 152.2412 
L 183.513828 152.710645 
L 183.607496 153.649535 
L 183.701114 153.18009 
L 184.075819 157.592876 
L 184.123003 159.564545 
L 184.262959 61.450493 
L 184.450226 58.539934 
L 184.543856 59.009379 
L 184.637532 58.070488 
L 184.778224 59.478824 
L 184.824914 59.009379 
L 184.918426 58.070488 
L 184.965246 58.539934 
L 185.012159 59.009379 
L 185.15264 57.507156 
L 185.340368 59.009379 
L 185.386755 58.539934 
L 185.574085 60.511602 
L 185.620779 60.042157 
L 185.714926 62.952716 
L 185.761224 159.564545 
L 185.808546 62.952716 
L 185.855061 62.952716 
L 185.901951 159.0951 
L 185.995843 156.653985 
L 186.042172 157.12343 
L 186.088974 156.653985 
L 186.13588 156.18454 
L 186.229432 154.21287 
L 186.36968 158.625655 
L 186.510154 58.070488 
L 186.697751 54.596589 
L 186.931557 60.981047 
L 186.978576 62.952716 
L 187.025314 158.625655 
L 187.119356 156.653985 
L 187.213668 157.12343 
L 187.306273 155.621206 
L 187.353094 156.653985 
L 187.49357 157.592876 
L 187.634021 157.12343 
L 187.727699 157.592876 
L 187.821327 157.12343 
L 187.962188 157.592876 
L 188.008594 157.592876 
L 188.102375 157.12343 
L 188.19587 157.592876 
L 188.289541 157.12343 
L 188.430512 157.592876 
L 188.476808 157.592876 
L 188.523901 157.12343 
L 188.570416 157.592876 
L 188.663912 157.592876 
L 188.75759 157.12343 
L 188.851382 157.592876 
L 188.99226 157.12343 
L 189.08551 157.592876 
L 189.225993 157.12343 
L 189.366401 157.592876 
L 189.413679 157.592876 
L 189.553715 157.12343 
L 189.600496 157.592876 
L 189.647815 157.12343 
L 189.787951 157.12343 
L 190.021939 158.625655 
L 190.958065 158.625655 
L 191.051772 159.564545 
L 191.192301 58.539934 
L 191.521334 50.653252 
L 192.222254 44.268794 
L 192.316118 44.268794 
L 192.784287 55.53548 
L 192.971589 62.013825 
L 193.018915 159.0951 
L 193.11206 155.621206 
L 193.299174 149.23675 
L 193.673794 139.847846 
L 194.049471 131.022276 
L 194.189214 133.463391 
L 194.657128 146.32619 
L 194.984705 153.649535 
L 195.172086 150.738976 
L 195.359943 146.32619 
L 195.499871 148.29786 
L 195.875641 159.564545 
L 196.015425 56.568265 
L 196.155237 54.127144 
L 196.529941 60.981047 
L 196.904314 51.592143 
L 197.045883 48.681584 
L 197.091781 49.151029 
L 197.232793 51.592143 
L 197.466396 56.09882 
L 197.840954 48.681584 
L 197.887787 49.151029 
L 198.028183 51.592143 
L 198.309278 57.507156 
L 198.543762 53.094366 
L 198.590058 53.563811 
L 198.683723 55.066035 
L 198.917842 62.483271 
L 198.964628 158.625655 
L 199.058376 156.653985 
L 199.151702 159.564545 
L 199.245547 62.013825 
L 199.292362 159.564545 
L 199.38706 155.621206 
L 199.573344 149.706196 
L 199.666901 150.26953 
L 199.901158 154.682315 
L 199.948383 154.21287 
L 200.275423 148.767305 
L 200.509538 153.649535 
L 200.55659 152.710645 
L 200.743735 150.26953 
L 200.791153 150.738976 
L 200.931036 153.18009 
L 201.071588 156.18454 
L 201.352469 153.18009 
L 201.5864 159.0951 
L 201.634964 158.625655 
L 201.821173 154.682315 
L 201.961136 157.12343 
L 202.008498 158.625655 
L 202.148507 60.511602 
L 202.242054 62.952716 
L 202.335948 159.0951 
L 202.475927 59.478824 
L 202.616497 57.03771 
L 202.803883 60.042157 
L 203.038118 55.53548 
L 203.085724 55.53548 
L 203.225286 58.070488 
L 203.45943 54.127144 
L 203.600784 56.568265 
L 203.740386 58.070488 
L 203.880832 55.53548 
L 204.161707 59.478824 
L 204.208753 58.539934 
L 204.348995 57.507156 
L 204.536326 62.013825 
L 204.629867 60.042157 
L 204.676728 60.511602 
L 204.724052 60.511602 
L 204.770394 62.013825 
L 204.817145 159.0951 
L 204.911203 156.18454 
L 204.957467 156.18454 
L 205.097856 159.0951 
L 205.14472 158.625655 
L 205.332274 154.21287 
L 205.472681 155.621206 
L 205.519382 155.15176 
L 205.706786 152.710645 
L 205.847241 154.682315 
L 205.893851 154.21287 
L 206.035032 152.2412 
L 206.082229 152.710645 
L 206.221634 154.682315 
L 206.409638 152.2412 
L 206.45594 152.710645 
L 206.596412 155.15176 
L 206.643224 154.682315 
L 206.736813 153.649535 
L 206.971461 156.18454 
L 207.065571 155.15176 
L 207.158717 156.653985 
L 207.205556 158.625655 
L 207.345299 60.981047 
L 207.392356 61.450493 
L 207.439409 60.981047 
L 207.62644 57.507156 
L 207.67326 58.070488 
L 207.766914 59.009379 
L 207.813715 58.539934 
L 207.954189 58.070488 
L 208.047886 60.981047 
L 208.09465 60.511602 
L 208.235655 59.009379 
L 208.422902 62.952716 
L 208.469465 62.013825 
L 208.562821 60.981047 
L 208.704355 62.952716 
L 208.750168 62.483271 
L 208.843781 60.511602 
L 208.890561 61.450493 
L 208.937933 62.952716 
L 208.984263 158.625655 
L 209.077897 158.15621 
L 209.17148 159.0951 
L 209.311968 156.18454 
L 209.358786 157.12343 
L 209.452806 159.0951 
L 209.499974 158.15621 
L 209.593029 155.621206 
L 209.639536 156.18454 
L 209.733109 159.564545 
L 209.826791 62.013825 
L 209.873592 62.952716 
L 209.921182 62.952716 
L 210.061148 60.042157 
L 210.107749 60.511602 
L 210.20161 62.483271 
L 210.248207 61.450493 
L 210.341981 60.042157 
L 210.48239 62.952716 
L 210.530381 62.013825 
L 210.622926 60.511602 
L 210.763402 62.952716 
L 210.904365 60.511602 
L 210.998061 62.952716 
L 211.0443 159.564545 
L 211.091654 62.483271 
L 211.184654 60.511602 
L 211.231655 61.450493 
L 211.278356 62.952716 
L 211.325769 159.564545 
L 211.372849 62.483271 
L 211.418835 62.483271 
L 211.466733 159.564545 
L 211.559292 157.12343 
L 211.606116 157.12343 
L 211.70032 159.0951 
L 211.746717 158.625655 
L 211.840286 156.653985 
L 211.886913 157.12343 
L 211.981399 159.0951 
L 212.027335 158.625655 
L 212.168008 156.18454 
L 212.214957 157.12343 
L 212.261682 156.18454 
L 212.356376 155.621206 
L 212.496638 157.12343 
L 212.542565 156.653985 
L 212.589232 156.653985 
L 212.683575 159.0951 
L 212.729872 62.952716 
L 212.777361 159.564545 
L 212.870327 157.12343 
L 212.917105 158.625655 
L 212.964019 159.564545 
L 213.011393 62.483271 
L 213.10473 62.952716 
L 213.479 57.507156 
L 213.854129 62.483271 
L 213.900432 61.450493 
L 213.947787 60.981047 
L 213.993857 62.483271 
L 214.040845 159.0951 
L 214.134286 157.592876 
L 214.181804 157.592876 
L 214.3684 154.682315 
L 214.461979 158.15621 
L 214.602685 58.539934 
L 214.930458 49.620474 
L 215.445993 62.952716 
L 215.492783 158.15621 
L 215.585944 154.21287 
L 215.680121 152.710645 
L 215.726922 153.18009 
L 216.054172 156.18454 
L 216.100945 155.621206 
L 216.148285 156.18454 
L 216.335644 156.18454 
L 216.382685 156.653985 
L 216.429219 155.621206 
L 216.475454 156.18454 
L 216.616494 156.18454 
L 216.6628 155.621206 
L 216.709388 156.18454 
L 216.850599 156.18454 
L 216.897564 155.621206 
L 216.94372 156.18454 
L 216.990665 156.653985 
L 217.037452 156.18454 
L 217.552396 156.18454 
L 217.599216 156.653985 
L 217.646007 155.621206 
L 217.693456 156.18454 
L 217.787034 156.18454 
L 217.880002 156.653985 
L 217.92784 156.18454 
L 217.973791 156.653985 
L 218.161096 158.625655 
L 219.050457 158.625655 
L 219.097262 159.0951 
L 219.237843 59.478824 
L 219.565688 50.653252 
L 220.361414 35.81878 
L 220.64275 40.325457 
L 221.391453 62.952716 
L 221.438503 157.592876 
L 221.533114 153.649535 
L 221.719461 148.29786 
L 222.141386 137.40673 
L 222.281276 133.932837 
L 222.468534 137.40673 
L 222.889783 147.734525 
L 222.937718 148.29786 
L 222.984451 147.734525 
L 223.498382 134.49617 
L 223.592296 134.49617 
L 223.96662 143.791186 
L 224.201337 149.706196 
L 224.388794 146.795635 
L 224.528661 144.354519 
L 224.57559 144.823965 
L 224.66971 146.32619 
L 225.091141 159.0951 
L 225.231459 58.539934 
L 225.277834 58.070488 
L 225.418279 62.952716 
L 225.511896 159.0951 
L 225.653532 60.042157 
L 226.027457 51.122698 
L 226.261028 56.09882 
L 226.308379 55.066035 
L 226.448723 52.624921 
L 226.682939 47.648806 
L 226.729202 48.212139 
L 226.870204 50.653252 
L 227.057904 53.094366 
L 227.198051 50.653252 
L 227.384759 48.212139 
L 227.759277 55.53548 
L 227.807039 54.596589 
L 227.994172 52.624921 
L 228.367914 59.478824 
L 228.414614 59.009379 
L 228.555029 56.568265 
L 228.789389 62.013825 
L 228.836656 158.625655 
L 228.930322 157.592876 
L 228.977129 158.625655 
L 229.117531 60.042157 
L 229.163899 60.042157 
L 229.257524 62.952716 
L 229.304996 158.625655 
L 229.398159 154.21287 
L 229.491638 153.18009 
L 229.632175 156.18454 
L 229.679574 155.15176 
L 229.725785 155.15176 
L 229.95977 150.26953 
L 230.006939 150.738976 
L 230.147148 152.710645 
L 230.334637 149.706196 
L 230.474895 148.29786 
L 230.662087 151.677866 
L 230.710035 151.208421 
L 230.896244 148.767305 
L 230.943211 149.23675 
L 231.037271 150.738976 
L 231.17834 152.2412 
L 231.318792 149.706196 
L 231.598583 155.15176 
L 231.645396 154.682315 
L 231.785859 154.21287 
L 231.92622 158.625655 
L 232.066695 60.981047 
L 232.160919 62.013825 
L 232.394352 57.507156 
L 232.441842 58.070488 
L 232.628434 59.478824 
L 232.815904 56.09882 
L 232.862749 56.568265 
L 233.049872 58.539934 
L 233.190268 56.09882 
L 233.237032 56.568265 
L 233.378028 59.009379 
L 233.4246 58.539934 
L 233.565066 56.09882 
L 233.612085 56.568265 
L 233.799146 59.009379 
L 233.939473 56.568265 
L 234.173721 59.009379 
L 234.314979 57.03771 
L 234.360745 57.507156 
L 234.548921 59.478824 
L 234.64177 58.070488 
L 234.689222 58.539934 
L 234.782904 61.450493 
L 234.82935 159.564545 
L 234.923346 159.0951 
L 235.016486 62.013825 
L 235.06386 62.952716 
L 235.110622 158.625655 
L 235.204254 156.18454 
L 235.250569 156.18454 
L 235.297375 157.592876 
L 235.344196 157.12343 
L 235.48447 154.682315 
L 235.531522 154.682315 
L 235.671972 156.18454 
L 235.718779 155.621206 
L 235.859766 153.649535 
L 235.905823 154.21287 
L 235.999708 155.15176 
L 236.047065 154.682315 
L 236.187307 152.710645 
L 236.233822 153.18009 
L 236.327976 154.21287 
L 236.467892 152.710645 
L 236.515235 153.18009 
L 236.702026 155.15176 
L 236.796204 154.21287 
L 236.889312 155.15176 
L 236.983971 157.592876 
L 237.029937 156.653985 
L 237.123403 155.621206 
L 237.310688 157.12343 
L 237.404874 155.621206 
L 237.544761 159.0951 
L 237.592142 62.952716 
L 237.638437 159.564545 
L 237.686297 159.564545 
L 237.825553 59.009379 
L 237.965965 58.539934 
L 238.013318 59.009379 
L 238.060113 58.539934 
L 238.153947 58.070488 
L 238.247079 60.042157 
L 238.341781 59.478824 
L 238.434211 58.539934 
L 238.574636 60.042157 
L 238.621542 59.478824 
L 238.715148 58.539934 
L 238.855513 60.042157 
L 239.042856 59.009379 
L 239.136752 60.981047 
L 239.183365 60.042157 
L 239.27695 59.009379 
L 239.417638 60.511602 
L 239.464453 60.042157 
L 239.511744 60.042157 
L 239.651924 62.952716 
L 239.698491 62.483271 
L 239.792178 60.511602 
L 239.839017 61.450493 
L 239.932562 62.952716 
L 240.072883 60.511602 
L 240.166558 62.483271 
L 240.213373 159.564545 
L 240.260198 62.483271 
L 240.307014 62.483271 
L 240.353843 159.564545 
L 240.447478 157.12343 
L 240.494259 157.12343 
L 240.587929 158.625655 
L 240.634848 158.15621 
L 240.728406 156.653985 
L 240.775223 157.12343 
L 240.915875 154.682315 
L 240.962691 155.15176 
L 241.010185 155.15176 
L 241.056374 155.621206 
L 241.196552 154.21287 
L 241.243655 154.21287 
L 241.384091 155.15176 
L 241.431403 154.682315 
L 241.571353 157.12343 
L 241.711831 155.621206 
L 241.805462 156.18454 
L 241.945717 154.682315 
L 242.086192 156.18454 
L 242.133152 155.15176 
L 242.17983 155.621206 
L 242.321365 158.15621 
L 242.368557 157.592876 
L 242.41406 157.592876 
L 242.460737 158.625655 
L 242.601378 59.009379 
L 243.116994 45.207685 
L 243.209863 45.207685 
L 243.725101 58.539934 
L 243.818753 62.952716 
L 243.866242 158.15621 
L 243.959231 154.21287 
L 244.146333 150.26953 
L 244.193304 149.706196 
L 244.240148 150.26953 
L 244.474239 153.18009 
L 244.708345 154.682315 
L 244.755166 154.682315 
L 244.802514 155.15176 
L 244.848632 154.682315 
L 244.89538 154.682315 
L 245.035825 155.15176 
L 245.223361 155.15176 
L 245.364333 154.682315 
L 245.457315 155.15176 
L 245.504844 154.682315 
L 245.550977 155.15176 
L 245.785113 155.15176 
L 245.832595 154.682315 
L 245.879463 155.15176 
L 246.019135 155.15176 
L 246.16099 157.592876 
L 246.347165 158.625655 
L 247.049891 158.625655 
L 247.142807 158.437877 
L 247.189879 159.564545 
L 247.330804 59.948269 
L 247.564269 56.380483 
L 247.659107 56.380483 
L 247.93989 54.033257 
L 247.985746 54.033257 
L 248.126232 52.343258 
L 248.407257 52.343258 
L 248.687828 57.03771 
L 248.828475 61.732163 
L 248.875935 159.001211 
L 248.968844 154.870093 
L 249.390178 143.133962 
L 249.483844 140.786736 
L 249.717962 135.528949 
L 249.764738 136.092284 
L 249.811596 136.092284 
L 249.952087 139.096734 
L 250.607569 159.001211 
L 250.748112 55.253817 
L 250.795701 55.253817 
L 251.122609 48.775471 
L 251.263142 51.122698 
L 251.59071 61.074935 
L 251.684802 59.948269 
L 252.199582 49.338804 
L 252.620961 62.295495 
L 252.667768 159.564545 
L 252.761436 155.527316 
L 252.90187 154.306759 
L 252.995534 159.564545 
L 253.143287 58.727709 
L 253.229638 58.727709 
L 253.276437 61.074935 
L 253.323264 159.564545 
L 253.416885 155.527316 
L 253.650972 149.048973 
L 253.744643 151.396199 
L 254.025633 158.437877 
L 254.07231 157.217319 
L 254.400055 149.612306 
L 254.446836 150.832864 
L 254.540641 151.959532 
L 254.727762 159.001211 
L 254.86824 61.074935 
L 254.915263 62.858828 
L 254.963048 158.437877 
L 255.055689 154.306759 
L 255.102365 153.743425 
L 255.290323 159.564545 
L 255.430063 58.164376 
L 255.4771 56.380483 
L 255.523711 57.03771 
L 255.664336 62.295495 
L 255.710966 159.001211 
L 255.804614 157.874543 
L 255.851484 159.001211 
L 255.992081 58.727709 
L 256.08679 57.03771 
L 256.132387 57.601043 
L 256.179231 57.601043 
L 256.320163 62.858828 
L 256.366501 159.001211 
L 256.413486 62.858828 
L 256.6474 57.03771 
L 256.787767 59.384936 
L 256.834708 61.074935 
L 256.88167 159.564545 
L 256.975128 156.653985 
L 257.022051 156.653985 
L 257.068733 158.437877 
L 257.209287 59.384936 
L 257.303011 61.732163 
L 257.35006 159.564545 
L 257.443633 155.527316 
L 257.490391 154.870093 
L 257.537033 155.527316 
L 257.584249 155.527316 
L 257.678139 159.564545 
L 257.817923 59.948269 
L 257.911586 62.295495 
L 257.958599 158.437877 
L 258.052971 156.653985 
L 258.099626 158.437877 
L 258.239642 59.384936 
L 258.332929 61.074935 
L 258.379789 62.858828 
L 258.426623 157.874543 
L 258.520284 154.870093 
L 258.661426 157.217319 
L 258.708217 159.564545 
L 258.801365 62.295495 
L 258.848657 159.564545 
L 258.942174 156.090651 
L 259.036412 155.527316 
L 259.129081 159.001211 
L 259.269501 61.074935 
L 259.316364 62.858828 
L 259.363208 158.437877 
L 259.456762 156.653985 
L 259.503456 159.001211 
L 259.644896 59.384936 
L 259.785109 62.295495 
L 259.831441 159.001211 
L 259.925089 156.653985 
L 259.97184 158.437877 
L 260.112752 61.732163 
L 260.159054 62.858828 
L 260.205752 157.874543 
L 260.299395 154.870093 
L 260.393032 157.217319 
L 260.486724 159.001211 
L 260.720832 155.527316 
L 260.815128 159.001211 
L 260.955147 61.074935 
L 261.00188 62.295495 
L 261.048743 159.001211 
L 261.143039 157.874543 
L 261.189176 159.564545 
L 261.28283 60.511602 
L 261.329406 61.074935 
L 261.376998 62.858828 
L 261.42424 158.437877 
L 261.517426 157.217319 
L 261.564443 159.001211 
L 261.657423 60.511602 
L 261.704189 61.074935 
L 261.75156 62.295495 
L 261.798364 159.001211 
L 261.891575 157.217319 
L 261.938257 159.001211 
L 262.032458 60.511602 
L 262.079297 61.732163 
L 262.125608 62.295495 
L 262.172358 159.001211 
L 262.266058 157.874543 
L 262.31282 159.001211 
L 262.40651 60.511602 
L 262.453484 61.074935 
L 262.500513 62.858828 
L 262.547004 158.437877 
L 262.640428 157.217319 
L 262.687145 158.437877 
L 262.780792 61.732163 
L 262.827651 62.295495 
L 262.874464 159.564545 
L 262.921374 159.001211 
L 263.061931 59.948269 
L 263.155622 58.164376 
L 263.249797 62.295495 
L 263.296046 159.001211 
L 263.342877 62.858828 
L 263.436648 61.074935 
L 263.53027 62.858828 
L 263.577089 157.874543 
L 263.670646 156.653985 
L 263.764708 159.001211 
L 263.951644 153.743425 
L 263.99819 154.306759 
L 264.138855 156.090651 
L 264.23223 154.870093 
L 264.419573 159.564545 
L 264.467143 159.001211 
L 264.5608 156.653985 
L 264.60705 157.217319 
L 264.6539 159.001211 
L 264.794386 60.511602 
L 264.888457 62.858828 
L 264.935537 62.295495 
L 265.075137 57.601043 
L 265.122167 58.727709 
L 265.215535 60.511602 
L 265.262513 59.948269 
L 265.30939 58.727709 
L 265.355998 59.384936 
L 265.402953 59.384936 
L 265.449819 61.074935 
L 265.496691 60.511602 
L 265.637444 59.384936 
L 265.731288 61.074935 
L 265.777366 62.858828 
L 265.917869 159.564545 
L 266.105334 154.870093 
L 266.152689 155.527316 
L 266.246824 156.090651 
L 266.38624 154.870093 
L 266.526634 156.653985 
L 266.573669 156.090651 
L 266.713844 155.527316 
L 266.807687 157.217319 
L 266.948152 155.527316 
L 267.089078 158.437877 
L 267.182298 157.217319 
L 267.229585 159.001211 
L 267.370002 59.384936 
L 267.463671 59.384936 
L 267.556795 57.03771 
L 267.604336 57.601043 
L 267.74409 59.948269 
L 267.884297 58.164376 
L 267.931269 58.727709 
L 268.024841 59.948269 
L 268.071566 59.384936 
L 268.165246 58.727709 
L 268.305741 61.074935 
L 268.399372 60.511602 
L 268.446101 61.732163 
L 268.494209 159.001211 
L 268.586805 158.437877 
L 268.680344 62.858828 
L 268.727297 159.001211 
L 268.82168 156.653985 
L 268.867604 157.217319 
L 268.915415 156.653985 
L 269.054761 154.306759 
L 269.14841 156.653985 
L 269.195252 156.090651 
L 269.242108 155.527316 
L 269.288849 156.090651 
L 269.429391 159.564545 
L 269.476259 158.437877 
L 269.523034 157.874543 
L 269.570092 159.564545 
L 269.663671 60.511602 
L 269.710636 61.074935 
L 269.804158 62.858828 
L 269.897862 61.732163 
L 269.944651 62.858828 
L 269.992248 158.437877 
L 270.085613 156.653985 
L 270.131913 157.217319 
L 270.272379 154.870093 
L 270.600142 159.564545 
L 270.740584 58.164376 
L 270.975427 51.68603 
L 271.161995 55.253817 
L 271.34919 62.295495 
L 271.396086 159.001211 
L 271.489696 156.090651 
L 271.5364 156.090651 
L 271.630198 154.870093 
L 271.770719 157.217319 
L 271.817228 156.653985 
L 271.864046 157.217319 
L 271.957946 157.874543 
L 272.098287 157.217319 
L 272.238646 157.217319 
L 272.285547 156.653985 
L 272.332308 157.217319 
L 272.941163 157.217319 
L 272.987966 157.874543 
L 273.035191 157.217319 
L 274.111693 157.217319 
L 274.25188 158.437877 
L 274.346538 158.437877 
L 274.486694 159.001211 
L 275.235177 159.001211 
L 275.282182 159.564545 
L 275.4226 59.384936 
L 275.937549 48.212139 
L 276.313161 44.081019 
L 276.453216 44.644352 
L 276.546333 44.081019 
L 276.735634 46.991578 
L 277.108122 57.601043 
L 277.248567 62.295495 
L 277.295322 157.874543 
L 277.389031 153.743425 
L 277.576207 149.048973 
L 278.325542 130.834497 
L 279.21496 154.306759 
L 279.261763 153.743425 
L 279.636757 146.138412 
L 279.6833 146.138412 
L 280.104837 158.437877 
L 280.246222 58.727709 
L 280.385433 54.033257 
L 280.713478 59.948269 
L 280.809102 58.727709 
L 280.947381 55.81715 
L 281.275131 46.991578 
L 281.321928 46.428245 
L 281.368831 46.991578 
L 281.556225 51.122698 
L 281.697138 55.81715 
L 281.744599 55.253817 
L 281.790094 55.253817 
L 281.931571 52.343258 
L 282.024199 49.338804 
L 282.117806 49.996032 
L 282.586319 59.948269 
L 282.820178 55.253817 
L 283.007558 58.727709 
L 283.101167 62.295495 
L 283.147949 158.437877 
L 283.241553 154.306759 
L 283.335243 153.743425 
L 283.382106 154.306759 
L 283.522423 159.564545 
L 283.569178 158.437877 
L 283.897226 150.832864 
L 283.944996 151.396199 
L 284.084455 154.306759 
L 284.178167 156.090651 
L 284.225461 155.527316 
L 284.505584 149.612306 
L 284.646234 152.522867 
L 284.7865 154.870093 
L 285.067624 151.396199 
L 285.348637 159.001211 
L 285.395354 157.874543 
L 285.582756 153.743425 
L 285.724018 156.653985 
L 285.770131 159.001211 
L 285.864476 61.074935 
L 285.910446 61.732163 
L 285.95778 159.564545 
L 286.051045 155.527316 
L 286.144401 155.527316 
L 286.238247 159.001211 
L 286.378434 58.727709 
L 286.519102 61.732163 
L 286.565941 62.858828 
L 286.612733 61.732163 
L 286.893702 57.03771 
L 287.080885 61.074935 
L 287.127904 60.511602 
L 287.315077 57.03771 
L 287.455536 59.948269 
L 287.549177 58.727709 
L 287.78361 55.81715 
L 287.971435 59.948269 
L 288.017485 59.384936 
L 288.15785 57.03771 
L 288.391775 62.295495 
L 288.579288 58.727709 
L 288.675035 60.511602 
L 288.719753 62.858828 
L 288.767077 157.874543 
L 288.859947 157.217319 
L 288.953545 159.001211 
L 289.18794 152.522867 
L 289.234714 153.743425 
L 289.374923 157.217319 
L 289.422029 156.090651 
L 289.609254 154.306759 
L 289.702821 157.874543 
L 289.750993 157.217319 
L 289.936876 154.306759 
L 289.983579 155.527316 
L 290.124119 157.874543 
L 290.171678 156.653985 
L 290.358428 154.870093 
L 290.452015 158.437877 
L 290.546215 157.217319 
L 290.68606 154.870093 
L 290.873397 159.001211 
L 290.921139 157.217319 
L 291.014449 156.653985 
L 291.107529 159.001211 
L 291.201172 61.074935 
L 291.248527 61.732163 
L 291.294946 159.564545 
L 291.341548 159.001211 
L 291.483174 59.384936 
L 291.528621 58.727709 
L 291.575475 59.384936 
L 291.622235 59.948269 
L 291.669072 62.295495 
L 291.715882 159.564545 
L 291.76271 62.295495 
L 291.856351 60.511602 
L 291.903282 62.295495 
L 291.950099 159.564545 
L 292.043923 156.653985 
L 292.090738 156.653985 
L 292.184583 158.437877 
L 292.371501 153.743425 
L 292.418343 154.870093 
L 292.559038 156.090651 
L 292.652617 154.870093 
L 292.840635 159.564545 
L 292.886676 158.437877 
L 292.980418 157.217319 
L 293.074191 159.001211 
L 293.214329 61.074935 
L 293.261935 61.074935 
L 293.402026 57.03771 
L 293.448538 57.601043 
L 293.4959 57.601043 
L 293.589027 59.384936 
L 293.636376 58.727709 
L 293.731674 57.601043 
L 293.869814 59.384936 
L 293.917844 58.727709 
L 294.010552 57.03771 
L 294.057315 57.601043 
L 294.198213 59.384936 
L 294.244446 58.727709 
L 294.338161 57.601043 
L 294.478616 59.384936 
L 294.61906 57.601043 
L 294.760634 59.384936 
L 294.900544 58.164376 
L 295.041041 59.948269 
L 295.134136 59.948269 
L 295.22786 62.858828 
L 295.275512 158.437877 
L 295.368747 157.217319 
L 295.415693 157.217319 
L 295.602832 153.18009 
L 295.649992 153.743425 
L 295.695878 154.870093 
L 295.743297 153.743425 
L 295.884624 153.18009 
L 296.023773 154.306759 
L 296.118253 153.18009 
L 296.25766 154.870093 
L 296.305141 154.306759 
L 296.351471 154.306759 
L 296.491955 156.090651 
L 296.538777 155.527316 
L 296.632444 154.870093 
L 296.960145 159.564545 
L 297.007427 62.858828 
L 297.053525 159.001211 
L 297.147914 157.217319 
L 297.241172 159.564545 
L 297.288436 62.858828 
L 297.334681 159.001211 
L 297.382437 159.001211 
L 297.522946 60.511602 
L 297.616119 60.511602 
L 297.709755 57.601043 
L 297.756577 58.164376 
L 297.896546 60.511602 
L 297.990672 59.948269 
L 298.130657 62.858828 
L 298.177499 62.295495 
L 298.224416 62.295495 
L 298.272296 159.564545 
L 298.364807 156.653985 
L 298.505073 159.564545 
L 298.598867 158.437877 
L 298.739071 59.384936 
L 299.162038 48.775471 
L 299.207442 49.338804 
L 299.675584 62.295495 
L 299.722572 157.874543 
L 299.81609 153.743425 
L 299.909584 151.959532 
L 299.956649 152.522867 
L 300.143823 154.870093 
L 300.331191 156.090651 
L 300.518527 156.090651 
L 300.658965 156.653985 
L 300.799909 156.090651 
L 300.986449 156.090651 
L 301.033272 156.653985 
L 301.080855 156.090651 
L 301.12718 156.090651 
L 301.17378 156.653985 
L 301.221285 156.090651 
L 301.361755 156.090651 
L 301.408099 156.653985 
L 301.455139 156.090651 
L 301.595861 156.090651 
L 301.738111 156.653985 
L 301.878628 156.090651 
L 301.923185 156.090651 
L 301.96979 156.653985 
L 302.016565 156.090651 
L 302.063564 156.090651 
L 302.110219 156.653985 
L 302.157023 156.090651 
L 302.203844 156.090651 
L 302.533093 159.001211 
L 303.327584 159.001211 
L 303.374552 159.564545 
L 303.515525 59.384936 
L 303.890103 49.338804 
L 304.545018 35.912675 
L 304.591986 35.912675 
L 304.639237 35.255455 
L 304.686055 35.912675 
L 304.82599 38.823227 
L 305.528778 58.164376 
L 305.621923 61.732163 
L 305.668787 159.001211 
L 305.762899 154.870093 
L 305.997037 147.828415 
L 306.136821 144.917854 
L 306.512015 134.402282 
L 306.558384 133.745058 
L 307.213619 148.485638 
L 307.822255 133.745058 
L 308.009661 137.876176 
L 308.477807 150.832864 
L 308.524934 149.612306 
L 308.85248 144.354519 
L 309.275374 155.527316 
L 309.368171 159.564545 
L 309.50853 57.03771 
L 309.602173 59.384936 
L 309.648518 61.074935 
L 309.695325 159.564545 
L 309.788965 159.001211 
L 309.929357 58.727709 
L 310.25737 51.122698 
L 310.303975 51.68603 
L 310.538597 56.380483 
L 310.632252 55.253817 
L 310.959535 47.648806 
L 311.334234 54.033257 
L 311.474991 51.122698 
L 311.661781 48.212139 
L 311.943167 55.81715 
L 312.036331 55.81715 
L 312.223461 52.906591 
L 312.411435 56.380483 
L 312.598142 60.511602 
L 312.644932 59.948269 
L 312.832294 56.380483 
L 313.019556 60.511602 
L 313.066328 159.564545 
L 313.159849 157.217319 
L 313.206816 157.217319 
L 313.254596 159.001211 
L 313.394183 58.727709 
L 313.487904 61.074935 
L 313.53468 62.858828 
L 313.581933 157.874543 
L 313.675003 154.306759 
L 313.76873 153.18009 
L 313.956485 156.090651 
L 314.236944 150.175641 
L 314.424182 153.18009 
L 314.47101 151.959532 
L 314.70509 148.485638 
L 314.753 149.048973 
L 314.939235 151.959532 
L 314.986025 151.396199 
L 315.173321 149.048973 
L 315.40743 153.743425 
L 315.454206 153.18009 
L 315.547875 150.832864 
L 315.641537 151.396199 
L 315.82954 155.527316 
L 315.969824 152.522867 
L 316.017788 153.18009 
L 316.062926 153.18009 
L 316.296858 159.564545 
L 316.343844 158.437877 
L 316.437705 156.653985 
L 316.531143 159.564545 
L 316.671731 58.164376 
L 316.719901 56.380483 
L 316.765369 57.601043 
L 316.905688 58.727709 
L 317.092935 55.253817 
L 317.280284 58.164376 
L 317.327112 57.601043 
L 317.467373 55.81715 
L 317.514137 55.81715 
L 317.701647 58.164376 
L 317.795638 55.81715 
L 317.842104 56.380483 
L 317.889438 56.380483 
L 318.029414 58.727709 
L 318.076742 58.164376 
L 318.263471 56.380483 
L 318.45077 58.727709 
L 318.591754 56.380483 
L 318.731998 59.384936 
L 318.825834 58.727709 
L 318.918844 58.164376 
L 319.059309 61.074935 
L 319.106091 62.858828 
L 319.153129 159.564545 
L 319.19998 62.295495 
L 319.293376 61.074935 
L 319.340211 61.732163 
L 319.387173 159.564545 
L 319.480837 157.217319 
L 319.528183 157.217319 
L 319.621281 159.001211 
L 319.809464 153.743425 
L 319.855393 154.870093 
L 319.949024 156.653985 
L 319.996355 156.090651 
L 320.136824 153.743425 
L 320.276601 155.527316 
L 320.464553 153.18009 
L 320.511782 153.743425 
L 320.605051 154.870093 
L 320.65137 154.306759 
L 320.791739 152.522867 
L 320.93279 154.870093 
L 321.073229 153.18009 
L 321.259886 156.090651 
L 321.307358 155.527316 
L 321.353642 154.306759 
L 321.401029 154.870093 
L 321.587692 156.090651 
L 321.681447 154.870093 
L 321.775537 156.653985 
L 321.869173 159.001211 
L 321.915398 158.437877 
L 321.962135 157.874543 
L 322.009647 159.001211 
L 322.149387 58.727709 
L 322.290046 59.384936 
L 322.336813 59.384936 
L 322.383759 58.164376 
L 322.431237 58.727709 
L 322.524134 60.511602 
L 322.617831 59.948269 
L 322.71194 58.727709 
L 322.851933 60.511602 
L 322.898689 59.948269 
L 322.992375 58.727709 
L 323.13281 60.511602 
L 323.273804 58.727709 
L 323.414257 60.511602 
L 323.46161 59.948269 
L 323.554738 58.727709 
L 323.695706 61.074935 
L 323.788367 60.511602 
L 323.835646 61.732163 
L 323.882477 159.564545 
L 323.928617 159.001211 
L 324.069746 60.511602 
L 324.162923 62.858828 
L 324.210189 159.001211 
L 324.257295 62.858828 
L 324.349975 61.074935 
L 324.396958 61.732163 
L 324.443794 159.564545 
L 324.491122 159.001211 
L 324.584442 62.858828 
L 324.631043 158.437877 
L 324.725256 156.653985 
L 324.865257 159.001211 
L 324.912002 157.874543 
L 325.053003 156.653985 
L 325.239746 154.870093 
L 325.380766 157.217319 
L 325.473698 156.653985 
L 325.567478 159.001211 
L 325.614871 62.858828 
L 325.662218 159.001211 
L 325.707891 159.001211 
L 325.848686 59.948269 
L 325.989386 62.858828 
L 326.082433 61.732163 
L 326.129895 62.858828 
L 326.176042 158.437877 
L 326.269813 157.217319 
L 326.410194 154.870093 
L 326.503682 155.527316 
L 326.551242 155.527316 
L 326.738013 154.306759 
L 326.878184 159.564545 
L 327.019436 57.601043 
L 327.346673 48.775471 
L 327.487686 45.864912 
L 327.534535 46.428245 
L 327.674394 49.338804 
L 328.095599 62.295495 
L 328.143184 158.437877 
L 328.2368 154.306759 
L 328.470885 149.612306 
L 328.657403 152.522867 
L 328.704297 152.522867 
L 328.939397 154.870093 
L 328.985237 154.870093 
L 329.079512 154.306759 
L 329.26686 155.527316 
L 329.407338 154.870093 
L 329.453487 155.527316 
L 329.500268 154.870093 
L 329.547232 154.870093 
L 329.687687 155.527316 
L 329.828174 154.870093 
L 329.875505 154.870093 
L 330.015947 155.527316 
L 330.155874 154.870093 
L 330.296108 154.870093 
L 330.670859 159.001211 
L 331.420567 158.907322 
L 331.466905 159.564545 
L 331.608241 59.384936 
L 331.982434 55.253817 
L 332.029089 55.253817 
L 332.262685 53.282148 
L 332.309524 53.282148 
L 332.496776 51.873813 
L 332.637246 52.531033 
L 332.731011 52.531033 
L 333.105516 62.764941 
L 333.152937 158.250099 
L 333.246173 154.118981 
L 333.52761 146.701746 
L 333.995728 135.059504 
L 334.323513 141.913406 
L 334.650702 152.147311 
L 334.884701 159.564545 
L 335.025329 55.253817 
L 335.399831 48.493801 
L 335.493995 49.808249 
L 335.821168 59.384936 
L 335.914843 60.699377 
L 336.430485 49.151029 
L 336.617458 53.282148 
L 336.898578 62.107713 
L 336.945413 158.907322 
L 337.039082 154.870093 
L 337.132763 153.461757 
L 337.273414 159.564545 
L 337.413771 58.727709 
L 337.459843 58.727709 
L 337.553578 61.450493 
L 337.600352 159.564545 
L 337.693941 154.118981 
L 337.881825 148.673416 
L 337.928097 149.424528 
L 338.116004 153.461757 
L 338.302664 158.250099 
L 338.677281 149.424528 
L 338.864599 153.461757 
L 339.005317 158.907322 
L 339.098638 60.699377 
L 339.145465 62.107713 
L 339.1927 159.564545 
L 339.286465 154.870093 
L 339.42722 154.118981 
L 339.566901 158.907322 
L 339.70734 57.319373 
L 339.754154 56.004925 
L 339.800994 57.319373 
L 339.942657 62.764941 
L 339.988244 157.592876 
L 340.081797 156.841763 
L 340.129195 158.907322 
L 340.26913 57.976601 
L 340.362639 56.004925 
L 340.55062 61.450493 
L 340.690497 158.907322 
L 340.830819 57.976601 
L 340.971348 56.004925 
L 341.11309 59.384936 
L 341.252909 62.764941 
L 341.48631 57.976601 
L 341.533199 57.976601 
L 341.626809 60.699377 
L 341.673653 62.764941 
L 341.720436 158.250099 
L 341.814057 154.870093 
L 342.001364 158.907322 
L 342.048355 157.592876 
L 342.189442 154.118981 
L 342.236124 152.147311 
L 342.282396 152.804534 
L 342.422862 155.527316 
L 342.516506 159.564545 
L 342.563166 62.764941 
L 342.610008 158.907322 
L 342.75048 155.527316 
L 342.844143 158.250099 
L 342.984722 58.727709 
L 343.078231 58.727709 
L 343.172038 60.699377 
L 343.21885 159.564545 
L 343.312407 158.907322 
L 343.452971 58.727709 
L 343.547042 60.699377 
L 343.59353 159.564545 
L 343.686845 156.841763 
L 343.733693 158.250099 
L 343.874202 58.727709 
L 343.921167 58.727709 
L 344.014837 60.699377 
L 344.061908 62.764941 
L 344.108804 158.250099 
L 344.201894 157.592876 
L 344.248767 159.564545 
L 344.342558 59.384936 
L 344.389415 60.699377 
L 344.436198 62.764941 
L 344.483012 158.250099 
L 344.576757 154.870093 
L 344.670806 156.841763 
L 344.763891 159.564545 
L 344.811279 158.907322 
L 344.904419 154.870093 
L 344.951646 155.527316 
L 345.045135 157.592876 
L 345.185874 59.384936 
L 345.27926 62.107713 
L 345.325817 158.907322 
L 345.419354 158.250099 
L 345.466087 159.564545 
L 345.606603 59.384936 
L 345.653989 62.107713 
L 345.700389 158.907322 
L 345.794038 158.250099 
L 345.934266 60.042157 
L 346.028162 62.107713 
L 346.07544 158.907322 
L 346.168586 158.250099 
L 346.309 60.042157 
L 346.402658 62.764941 
L 346.543134 158.250099 
L 346.684135 60.042157 
L 346.730304 61.450493 
L 346.777221 159.564545 
L 346.871136 156.18454 
" clip-path="url(#pec8feb8d52)" style="fill: none; stroke: #4c72b0; stroke-opacity: 0.7; stroke-width: 0.5; stroke-linecap: round"/>
   </g>
   <g id="patch_3">
    <path d="M 60.21 165.78 
L 60.21 29.04 
" style="fill: none; stroke: #ffffff; stroke-width: 1.25; stroke-linejoin: miter; stroke-linecap: square"/>
   </g>
   <g id="patch_4">
    <path d="M 360.521667 165.78 
L 360.521667 29.04 
" style="fill: none; stroke: #ffffff; stroke-width: 1.25; stroke-linejoin: miter; stroke-linecap: square"/>
   </g>
   <g id="patch_5">
    <path d="M 60.21 165.78 
L 360.521667 165.78 
" style="fill: none; stroke: #ffffff; stroke-width: 1.25; stroke-linejoin: miter; stroke-linecap: square"/>
   </g>
   <g id="patch_6">
    <path d="M 60.21 29.04 
L 360.521667 29.04 
" style="fill: none; stroke: #ffffff; stroke-width: 1.25; stroke-linejoin: miter; stroke-linecap: square"/>
   </g>
   <g id="text_16">
    <!-- joint_0 -->
    <g style="fill: #262626" transform="translate(190.388646 23.04) scale(0.12 -0.12)">
     <defs>
      <path id="DejaVuSans-6a" d="M 603 3500 
L 1178 3500 
L 1178 -63 
Q 1178 -731 923 -1031 
Q 669 -1331 103 -1331 
L -116 -1331 
L -116 -844 
L 38 -844 
Q 366 -844 484 -692 
Q 603 -541 603 -63 
L 603 3500 
z
M 603 4863 
L 1178 4863 
L 1178 4134 
L 603 4134 
L 603 4863 
z
" transform="scale(0.015625)"/>
      <path id="DejaVuSans-5f" d="M 3263 -1063 
L 3263 -1509 
L -63 -1509 
L -63 -1063 
L 3263 -1063 
z
" transform="scale(0.015625)"/>
     </defs>
     <use xlink:href="#DejaVuSans-6a"/>
     <use xlink:href="#DejaVuSans-6f" transform="translate(27.783203 0)"/>
     <use xlink:href="#DejaVuSans-69" transform="translate(88.964844 0)"/>
     <use xlink:href="#DejaVuSans-6e" transform="translate(116.748047 0)"/>
     <use xlink:href="#DejaVuSans-74" transform="translate(180.126953 0)"/>
     <use xlink:href="#DejaVuSans-5f" transform="translate(219.335938 0)"/>
     <use xlink:href="#DejaVuSans-30" transform="translate(269.335938 0)"/>
    </g>
   </g>
   <g id="legend_1">
    <g id="patch_7">
     <path d="M 280.996823 107.285937 
L 352.821667 107.285937 
Q 355.021667 107.285937 355.021667 105.085937 
L 355.021667 89.734062 
Q 355.021667 87.534062 352.821667 87.534062 
L 280.996823 87.534062 
Q 278.796823 87.534062 278.796823 89.734062 
L 278.796823 105.085937 
Q 278.796823 107.285937 280.996823 107.285937 
z
" style="fill: #eaeaf2; opacity: 0.8; stroke: #cccccc; stroke-linejoin: miter"/>
    </g>
    <g id="line2d_15">
     <path d="M 283.196823 96.442344 
L 294.196823 96.442344 
L 305.196823 96.442344 
" style="fill: none; stroke: #4c72b0; stroke-opacity: 0.7; stroke-width: 0.5; stroke-linecap: round"/>
    </g>
    <g id="text_17">
     <!-- joint_0 -->
     <g style="fill: #262626" transform="translate(313.996823 100.292344) scale(0.11 -0.11)">
      <use xlink:href="#DejaVuSans-6a"/>
      <use xlink:href="#DejaVuSans-6f" transform="translate(27.783203 0)"/>
      <use xlink:href="#DejaVuSans-69" transform="translate(88.964844 0)"/>
      <use xlink:href="#DejaVuSans-6e" transform="translate(116.748047 0)"/>
      <use xlink:href="#DejaVuSans-74" transform="translate(180.126953 0)"/>
      <use xlink:href="#DejaVuSans-5f" transform="translate(219.335938 0)"/>
      <use xlink:href="#DejaVuSans-30" transform="translate(269.335938 0)"/>
     </g>
    </g>
   </g>
  </g>
  <g id="axes_2">
   <g id="patch_8">
    <path d="M 409.126667 165.78 
L 709.438333 165.78 
L 709.438333 29.04 
L 409.126667 29.04 
z
" style="fill: #eaeaf2"/>
   </g>
   <g id="matplotlib.axis_3">
    <g id="xtick_8">
     <g id="line2d_16">
      <path d="M 409.126667 165.78 
L 409.126667 29.04 
" clip-path="url(#p41421034ef)" style="fill: none; stroke: #ffffff; stroke-linecap: round"/>
     </g>
     <g id="text_18">
      <!-- 0.0 -->
      <g style="fill: #262626" transform="translate(400.379948 183.638281) scale(0.11 -0.11)">
       <defs>
        <path id="DejaVuSans-2e" d="M 684 794 
L 1344 794 
L 1344 0 
L 684 0 
L 684 794 
z
" transform="scale(0.015625)"/>
       </defs>
       <use xlink:href="#DejaVuSans-30"/>
       <use xlink:href="#DejaVuSans-2e" transform="translate(63.623047 0)"/>
       <use xlink:href="#DejaVuSans-30" transform="translate(95.410156 0)"/>
      </g>
     </g>
    </g>
    <g id="xtick_9">
     <g id="line2d_17">
      <path d="M 469.189 165.78 
L 469.189 29.04 
" clip-path="url(#p41421034ef)" style="fill: none; stroke: #ffffff; stroke-linecap: round"/>
     </g>
     <g id="text_19">
      <!-- 0.2 -->
      <g style="fill: #262626" transform="translate(460.442281 183.638281) scale(0.11 -0.11)">
       <use xlink:href="#DejaVuSans-30"/>
       <use xlink:href="#DejaVuSans-2e" transform="translate(63.623047 0)"/>
       <use xlink:href="#DejaVuSans-32" transform="translate(95.410156 0)"/>
      </g>
     </g>
    </g>
    <g id="xtick_10">
     <g id="line2d_18">
      <path d="M 529.251333 165.78 
L 529.251333 29.04 
" clip-path="url(#p41421034ef)" style="fill: none; stroke: #ffffff; stroke-linecap: round"/>
     </g>
     <g id="text_20">
      <!-- 0.4 -->
      <g style="fill: #262626" transform="translate(520.504615 183.638281) scale(0.11 -0.11)">
       <use xlink:href="#DejaVuSans-30"/>
       <use xlink:href="#DejaVuSans-2e" transform="translate(63.623047 0)"/>
       <use xlink:href="#DejaVuSans-34" transform="translate(95.410156 0)"/>
      </g>
     </g>
    </g>
    <g id="xtick_11">
     <g id="line2d_19">
      <path d="M 589.313667 165.78 
L 589.313667 29.04 
" clip-path="url(#p41421034ef)" style="fill: none; stroke: #ffffff; stroke-linecap: round"/>
     </g>
     <g id="text_21">
      <!-- 0.6 -->
      <g style="fill: #262626" transform="translate(580.566948 183.638281) scale(0.11 -0.11)">
       <use xlink:href="#DejaVuSans-30"/>
       <use xlink:href="#DejaVuSans-2e" transform="translate(63.623047 0)"/>
       <use xlink:href="#DejaVuSans-36" transform="translate(95.410156 0)"/>
      </g>
     </g>
    </g>
    <g id="xtick_12">
     <g id="line2d_20">
      <path d="M 649.376 165.78 
L 649.376 29.04 
" clip-path="url(#p41421034ef)" style="fill: none; stroke: #ffffff; stroke-linecap: round"/>
     </g>
     <g id="text_22">
      <!-- 0.8 -->
      <g style="fill: #262626" transform="translate(640.629281 183.638281) scale(0.11 -0.11)">
       <use xlink:href="#DejaVuSans-30"/>
       <use xlink:href="#DejaVuSans-2e" transform="translate(63.623047 0)"/>
       <use xlink:href="#DejaVuSans-38" transform="translate(95.410156 0)"/>
      </g>
     </g>
    </g>
    <g id="xtick_13">
     <g id="line2d_21">
      <path d="M 709.438333 165.78 
L 709.438333 29.04 
" clip-path="url(#p41421034ef)" style="fill: none; stroke: #ffffff; stroke-linecap: round"/>
     </g>
     <g id="text_23">
      <!-- 1.0 -->
      <g style="fill: #262626" transform="translate(700.691615 183.638281) scale(0.11 -0.11)">
       <use xlink:href="#DejaVuSans-31"/>
       <use xlink:href="#DejaVuSans-2e" transform="translate(63.623047 0)"/>
       <use xlink:href="#DejaVuSans-30" transform="translate(95.410156 0)"/>
      </g>
     </g>
    </g>
   </g>
   <g id="matplotlib.axis_4">
    <g id="ytick_7">
     <g id="line2d_22">
      <path d="M 409.126667 165.78 
L 709.438333 165.78 
" clip-path="url(#p41421034ef)" style="fill: none; stroke: #ffffff; stroke-linecap: round"/>
     </g>
     <g id="text_24">
      <!-- 0.0 -->
      <g style="fill: #262626" transform="translate(382.133229 169.959141) scale(0.11 -0.11)">
       <use xlink:href="#DejaVuSans-30"/>
       <use xlink:href="#DejaVuSans-2e" transform="translate(63.623047 0)"/>
       <use xlink:href="#DejaVuSans-30" transform="translate(95.410156 0)"/>
      </g>
     </g>
    </g>
    <g id="ytick_8">
     <g id="line2d_23">
      <path d="M 409.126667 138.432 
L 709.438333 138.432 
" clip-path="url(#p41421034ef)" style="fill: none; stroke: #ffffff; stroke-linecap: round"/>
     </g>
     <g id="text_25">
      <!-- 0.2 -->
      <g style="fill: #262626" transform="translate(382.133229 142.611141) scale(0.11 -0.11)">
       <use xlink:href="#DejaVuSans-30"/>
       <use xlink:href="#DejaVuSans-2e" transform="translate(63.623047 0)"/>
       <use xlink:href="#DejaVuSans-32" transform="translate(95.410156 0)"/>
      </g>
     </g>
    </g>
    <g id="ytick_9">
     <g id="line2d_24">
      <path d="M 409.126667 111.084 
L 709.438333 111.084 
" clip-path="url(#p41421034ef)" style="fill: none; stroke: #ffffff; stroke-linecap: round"/>
     </g>
     <g id="text_26">
      <!-- 0.4 -->
      <g style="fill: #262626" transform="translate(382.133229 115.263141) scale(0.11 -0.11)">
       <use xlink:href="#DejaVuSans-30"/>
       <use xlink:href="#DejaVuSans-2e" transform="translate(63.623047 0)"/>
       <use xlink:href="#DejaVuSans-34" transform="translate(95.410156 0)"/>
      </g>
     </g>
    </g>
    <g id="ytick_10">
     <g id="line2d_25">
      <path d="M 409.126667 83.736 
L 709.438333 83.736 
" clip-path="url(#p41421034ef)" style="fill: none; stroke: #ffffff; stroke-linecap: round"/>
     </g>
     <g id="text_27">
      <!-- 0.6 -->
      <g style="fill: #262626" transform="translate(382.133229 87.915141) scale(0.11 -0.11)">
       <use xlink:href="#DejaVuSans-30"/>
       <use xlink:href="#DejaVuSans-2e" transform="translate(63.623047 0)"/>
       <use xlink:href="#DejaVuSans-36" transform="translate(95.410156 0)"/>
      </g>
     </g>
    </g>
    <g id="ytick_11">
     <g id="line2d_26">
      <path d="M 409.126667 56.388 
L 709.438333 56.388 
" clip-path="url(#p41421034ef)" style="fill: none; stroke: #ffffff; stroke-linecap: round"/>
     </g>
     <g id="text_28">
      <!-- 0.8 -->
      <g style="fill: #262626" transform="translate(382.133229 60.567141) scale(0.11 -0.11)">
       <use xlink:href="#DejaVuSans-30"/>
       <use xlink:href="#DejaVuSans-2e" transform="translate(63.623047 0)"/>
       <use xlink:href="#DejaVuSans-38" transform="translate(95.410156 0)"/>
      </g>
     </g>
    </g>
    <g id="ytick_12">
     <g id="line2d_27">
      <path d="M 409.126667 29.04 
L 709.438333 29.04 
" clip-path="url(#p41421034ef)" style="fill: none; stroke: #ffffff; stroke-linecap: round"/>
     </g>
     <g id="text_29">
      <!-- 1.0 -->
      <g style="fill: #262626" transform="translate(382.133229 33.219141) scale(0.11 -0.11)">
       <use xlink:href="#DejaVuSans-31"/>
       <use xlink:href="#DejaVuSans-2e" transform="translate(63.623047 0)"/>
       <use xlink:href="#DejaVuSans-30" transform="translate(95.410156 0)"/>
      </g>
     </g>
    </g>
   </g>
   <g id="patch_9">
    <path d="M 409.126667 165.78 
L 409.126667 29.04 
" style="fill: none; stroke: #ffffff; stroke-width: 1.25; stroke-linejoin: miter; stroke-linecap: square"/>
   </g>
   <g id="patch_10">
    <path d="M 709.438333 165.78 
L 709.438333 29.04 
" style="fill: none; stroke: #ffffff; stroke-width: 1.25; stroke-linejoin: miter; stroke-linecap: square"/>
   </g>
   <g id="patch_11">
    <path d="M 409.126667 165.78 
L 709.438333 165.78 
" style="fill: none; stroke: #ffffff; stroke-width: 1.25; stroke-linejoin: miter; stroke-linecap: square"/>
   </g>
   <g id="patch_12">
    <path d="M 409.126667 29.04 
L 709.438333 29.04 
" style="fill: none; stroke: #ffffff; stroke-width: 1.25; stroke-linejoin: miter; stroke-linecap: square"/>
   </g>
  </g>
  <g id="axes_3">
   <g id="patch_13">
    <path d="M 758.043333 165.78 
L 1058.355 165.78 
L 1058.355 29.04 
L 758.043333 29.04 
z
" style="fill: #eaeaf2"/>
   </g>
   <g id="matplotlib.axis_5">
    <g id="xtick_14">
     <g id="line2d_28">
      <path d="M 758.043333 165.78 
L 758.043333 29.04 
" clip-path="url(#pc36c42646d)" style="fill: none; stroke: #ffffff; stroke-linecap: round"/>
     </g>
     <g id="text_30">
      <!-- 0.0 -->
      <g style="fill: #262626" transform="translate(749.296615 183.638281) scale(0.11 -0.11)">
       <use xlink:href="#DejaVuSans-30"/>
       <use xlink:href="#DejaVuSans-2e" transform="translate(63.623047 0)"/>
       <use xlink:href="#DejaVuSans-30" transform="translate(95.410156 0)"/>
      </g>
     </g>
    </g>
    <g id="xtick_15">
     <g id="line2d_29">
      <path d="M 818.105667 165.78 
L 818.105667 29.04 
" clip-path="url(#pc36c42646d)" style="fill: none; stroke: #ffffff; stroke-linecap: round"/>
     </g>
     <g id="text_31">
      <!-- 0.2 -->
      <g style="fill: #262626" transform="translate(809.358948 183.638281) scale(0.11 -0.11)">
       <use xlink:href="#DejaVuSans-30"/>
       <use xlink:href="#DejaVuSans-2e" transform="translate(63.623047 0)"/>
       <use xlink:href="#DejaVuSans-32" transform="translate(95.410156 0)"/>
      </g>
     </g>
    </g>
    <g id="xtick_16">
     <g id="line2d_30">
      <path d="M 878.168 165.78 
L 878.168 29.04 
" clip-path="url(#pc36c42646d)" style="fill: none; stroke: #ffffff; stroke-linecap: round"/>
     </g>
     <g id="text_32">
      <!-- 0.4 -->
      <g style="fill: #262626" transform="translate(869.421281 183.638281) scale(0.11 -0.11)">
       <use xlink:href="#DejaVuSans-30"/>
       <use xlink:href="#DejaVuSans-2e" transform="translate(63.623047 0)"/>
       <use xlink:href="#DejaVuSans-34" transform="translate(95.410156 0)"/>
      </g>
     </g>
    </g>
    <g id="xtick_17">
     <g id="line2d_31">
      <path d="M 938.230333 165.78 
L 938.230333 29.04 
" clip-path="url(#pc36c42646d)" style="fill: none; stroke: #ffffff; stroke-linecap: round"/>
     </g>
     <g id="text_33">
      <!-- 0.6 -->
      <g style="fill: #262626" transform="translate(929.483615 183.638281) scale(0.11 -0.11)">
       <use xlink:href="#DejaVuSans-30"/>
       <use xlink:href="#DejaVuSans-2e" transform="translate(63.623047 0)"/>
       <use xlink:href="#DejaVuSans-36" transform="translate(95.410156 0)"/>
      </g>
     </g>
    </g>
    <g id="xtick_18">
     <g id="line2d_32">
      <path d="M 998.292667 165.78 
L 998.292667 29.04 
" clip-path="url(#pc36c42646d)" style="fill: none; stroke: #ffffff; stroke-linecap: round"/>
     </g>
     <g id="text_34">
      <!-- 0.8 -->
      <g style="fill: #262626" transform="translate(989.545948 183.638281) scale(0.11 -0.11)">
       <use xlink:href="#DejaVuSans-30"/>
       <use xlink:href="#DejaVuSans-2e" transform="translate(63.623047 0)"/>
       <use xlink:href="#DejaVuSans-38" transform="translate(95.410156 0)"/>
      </g>
     </g>
    </g>
    <g id="xtick_19">
     <g id="line2d_33">
      <path d="M 1058.355 165.78 
L 1058.355 29.04 
" clip-path="url(#pc36c42646d)" style="fill: none; stroke: #ffffff; stroke-linecap: round"/>
     </g>
     <g id="text_35">
      <!-- 1.0 -->
      <g style="fill: #262626" transform="translate(1049.608281 183.638281) scale(0.11 -0.11)">
       <use xlink:href="#DejaVuSans-31"/>
       <use xlink:href="#DejaVuSans-2e" transform="translate(63.623047 0)"/>
       <use xlink:href="#DejaVuSans-30" transform="translate(95.410156 0)"/>
      </g>
     </g>
    </g>
   </g>
   <g id="matplotlib.axis_6">
    <g id="ytick_13">
     <g id="line2d_34">
      <path d="M 758.043333 165.78 
L 1058.355 165.78 
" clip-path="url(#pc36c42646d)" style="fill: none; stroke: #ffffff; stroke-linecap: round"/>
     </g>
     <g id="text_36">
      <!-- 0.0 -->
      <g style="fill: #262626" transform="translate(731.049896 169.959141) scale(0.11 -0.11)">
       <use xlink:href="#DejaVuSans-30"/>
       <use xlink:href="#DejaVuSans-2e" transform="translate(63.623047 0)"/>
       <use xlink:href="#DejaVuSans-30" transform="translate(95.410156 0)"/>
      </g>
     </g>
    </g>
    <g id="ytick_14">
     <g id="line2d_35">
      <path d="M 758.043333 138.432 
L 1058.355 138.432 
" clip-path="url(#pc36c42646d)" style="fill: none; stroke: #ffffff; stroke-linecap: round"/>
     </g>
     <g id="text_37">
      <!-- 0.2 -->
      <g style="fill: #262626" transform="translate(731.049896 142.611141) scale(0.11 -0.11)">
       <use xlink:href="#DejaVuSans-30"/>
       <use xlink:href="#DejaVuSans-2e" transform="translate(63.623047 0)"/>
       <use xlink:href="#DejaVuSans-32" transform="translate(95.410156 0)"/>
      </g>
     </g>
    </g>
    <g id="ytick_15">
     <g id="line2d_36">
      <path d="M 758.043333 111.084 
L 1058.355 111.084 
" clip-path="url(#pc36c42646d)" style="fill: none; stroke: #ffffff; stroke-linecap: round"/>
     </g>
     <g id="text_38">
      <!-- 0.4 -->
      <g style="fill: #262626" transform="translate(731.049896 115.263141) scale(0.11 -0.11)">
       <use xlink:href="#DejaVuSans-30"/>
       <use xlink:href="#DejaVuSans-2e" transform="translate(63.623047 0)"/>
       <use xlink:href="#DejaVuSans-34" transform="translate(95.410156 0)"/>
      </g>
     </g>
    </g>
    <g id="ytick_16">
     <g id="line2d_37">
      <path d="M 758.043333 83.736 
L 1058.355 83.736 
" clip-path="url(#pc36c42646d)" style="fill: none; stroke: #ffffff; stroke-linecap: round"/>
     </g>
     <g id="text_39">
      <!-- 0.6 -->
      <g style="fill: #262626" transform="translate(731.049896 87.915141) scale(0.11 -0.11)">
       <use xlink:href="#DejaVuSans-30"/>
       <use xlink:href="#DejaVuSans-2e" transform="translate(63.623047 0)"/>
       <use xlink:href="#DejaVuSans-36" transform="translate(95.410156 0)"/>
      </g>
     </g>
    </g>
    <g id="ytick_17">
     <g id="line2d_38">
      <path d="M 758.043333 56.388 
L 1058.355 56.388 
" clip-path="url(#pc36c42646d)" style="fill: none; stroke: #ffffff; stroke-linecap: round"/>
     </g>
     <g id="text_40">
      <!-- 0.8 -->
      <g style="fill: #262626" transform="translate(731.049896 60.567141) scale(0.11 -0.11)">
       <use xlink:href="#DejaVuSans-30"/>
       <use xlink:href="#DejaVuSans-2e" transform="translate(63.623047 0)"/>
       <use xlink:href="#DejaVuSans-38" transform="translate(95.410156 0)"/>
      </g>
     </g>
    </g>
    <g id="ytick_18">
     <g id="line2d_39">
      <path d="M 758.043333 29.04 
L 1058.355 29.04 
" clip-path="url(#pc36c42646d)" style="fill: none; stroke: #ffffff; stroke-linecap: round"/>
     </g>
     <g id="text_41">
      <!-- 1.0 -->
      <g style="fill: #262626" transform="translate(731.049896 33.219141) scale(0.11 -0.11)">
       <use xlink:href="#DejaVuSans-31"/>
       <use xlink:href="#DejaVuSans-2e" transform="translate(63.623047 0)"/>
       <use xlink:href="#DejaVuSans-30" transform="translate(95.410156 0)"/>
      </g>
     </g>
    </g>
   </g>
   <g id="patch_14">
    <path d="M 758.043333 165.78 
L 758.043333 29.04 
" style="fill: none; stroke: #ffffff; stroke-width: 1.25; stroke-linejoin: miter; stroke-linecap: square"/>
   </g>
   <g id="patch_15">
    <path d="M 1058.355 165.78 
L 1058.355 29.04 
" style="fill: none; stroke: #ffffff; stroke-width: 1.25; stroke-linejoin: miter; stroke-linecap: square"/>
   </g>
   <g id="patch_16">
    <path d="M 758.043333 165.78 
L 1058.355 165.78 
" style="fill: none; stroke: #ffffff; stroke-width: 1.25; stroke-linejoin: miter; stroke-linecap: square"/>
   </g>
   <g id="patch_17">
    <path d="M 758.043333 29.04 
L 1058.355 29.04 
" style="fill: none; stroke: #ffffff; stroke-width: 1.25; stroke-linejoin: miter; stroke-linecap: square"/>
   </g>
  </g>
 </g>
 <defs>
  <clipPath id="pec8feb8d52">
   <rect x="60.21" y="29.04" width="300.311667" height="136.74"/>
  </clipPath>
  <clipPath id="p41421034ef">
   <rect x="409.126667" y="29.04" width="300.311667" height="136.74"/>
  </clipPath>
  <clipPath id="pc36c42646d">
   <rect x="758.043333" y="29.04" width="300.311667" height="136.74"/>
  </clipPath>
 </defs>
</svg>
