<?xml version="1.0" encoding="utf-8" standalone="no"?>
<!DOCTYPE svg PUBLIC "-//W3C//DTD SVG 1.1//EN"
  "http://www.w3.org/Graphics/SVG/1.1/DTD/svg11.dtd">
<svg xmlns:xlink="http://www.w3.org/1999/xlink" width="720pt" height="432pt" viewBox="0 0 720 432" xmlns="http://www.w3.org/2000/svg" version="1.1">
 <metadata>
  <rdf:RDF xmlns:dc="http://purl.org/dc/elements/1.1/" xmlns:cc="http://creativecommons.org/ns#" xmlns:rdf="http://www.w3.org/1999/02/22-rdf-syntax-ns#">
   <cc:Work>
    <dc:type rdf:resource="http://purl.org/dc/dcmitype/StillImage"/>
    <dc:date>2025-06-10T11:33:17.226986</dc:date>
    <dc:format>image/svg+xml</dc:format>
    <dc:creator>
     <cc:Agent>
      <dc:title>Matplotlib v3.10.0, https://matplotlib.org/</dc:title>
     </cc:Agent>
    </dc:creator>
   </cc:Work>
  </rdf:RDF>
 </metadata>
 <defs>
  <style type="text/css">*{stroke-linejoin: round; stroke-linecap: butt}</style>
 </defs>
 <g id="figure_1">
  <g id="patch_1">
   <path d="M 0 432 
L 720 432 
L 720 0 
L 0 0 
z
" style="fill: #ffffff"/>
  </g>
  <g id="axes_1">
   <g id="patch_2">
    <path d="M 60.21 381.78 
L 707.04 381.78 
L 707.04 29.04 
L 60.21 29.04 
z
" style="fill: #eaeaf2"/>
   </g>
   <g id="matplotlib.axis_1">
    <g id="xtick_1">
     <g id="line2d_1">
      <path d="M 89.608952 381.78 
L 89.608952 29.04 
" clip-path="url(#p913489b668)" style="fill: none; stroke: #ffffff; stroke-linecap: round"/>
     </g>
     <g id="text_1">
      <!-- 0 -->
      <g style="fill: #262626" transform="translate(86.109577 399.638281) scale(0.11 -0.11)">
       <defs>
        <path id="DejaVuSans-30" d="M 2034 4250 
Q 1547 4250 1301 3770 
Q 1056 3291 1056 2328 
Q 1056 1369 1301 889 
Q 1547 409 2034 409 
Q 2525 409 2770 889 
Q 3016 1369 3016 2328 
Q 3016 3291 2770 3770 
Q 2525 4250 2034 4250 
z
M 2034 4750 
Q 2819 4750 3233 4129 
Q 3647 3509 3647 2328 
Q 3647 1150 3233 529 
Q 2819 -91 2034 -91 
Q 1250 -91 836 529 
Q 422 1150 422 2328 
Q 422 3509 836 4129 
Q 1250 4750 2034 4750 
z
" transform="scale(0.015625)"/>
       </defs>
       <use xlink:href="#DejaVuSans-30"/>
      </g>
     </g>
    </g>
    <g id="xtick_2">
     <g id="line2d_2">
      <path d="M 190.454062 381.78 
L 190.454062 29.04 
" clip-path="url(#p913489b668)" style="fill: none; stroke: #ffffff; stroke-linecap: round"/>
     </g>
     <g id="text_2">
      <!-- 20 -->
      <g style="fill: #262626" transform="translate(183.455312 399.638281) scale(0.11 -0.11)">
       <defs>
        <path id="DejaVuSans-32" d="M 1228 531 
L 3431 531 
L 3431 0 
L 469 0 
L 469 531 
Q 828 903 1448 1529 
Q 2069 2156 2228 2338 
Q 2531 2678 2651 2914 
Q 2772 3150 2772 3378 
Q 2772 3750 2511 3984 
Q 2250 4219 1831 4219 
Q 1534 4219 1204 4116 
Q 875 4013 500 3803 
L 500 4441 
Q 881 4594 1212 4672 
Q 1544 4750 1819 4750 
Q 2544 4750 2975 4387 
Q 3406 4025 3406 3419 
Q 3406 3131 3298 2873 
Q 3191 2616 2906 2266 
Q 2828 2175 2409 1742 
Q 1991 1309 1228 531 
z
" transform="scale(0.015625)"/>
       </defs>
       <use xlink:href="#DejaVuSans-32"/>
       <use xlink:href="#DejaVuSans-30" transform="translate(63.623047 0)"/>
      </g>
     </g>
    </g>
    <g id="xtick_3">
     <g id="line2d_3">
      <path d="M 291.299172 381.78 
L 291.299172 29.04 
" clip-path="url(#p913489b668)" style="fill: none; stroke: #ffffff; stroke-linecap: round"/>
     </g>
     <g id="text_3">
      <!-- 40 -->
      <g style="fill: #262626" transform="translate(284.300422 399.638281) scale(0.11 -0.11)">
       <defs>
        <path id="DejaVuSans-34" d="M 2419 4116 
L 825 1625 
L 2419 1625 
L 2419 4116 
z
M 2253 4666 
L 3047 4666 
L 3047 1625 
L 3713 1625 
L 3713 1100 
L 3047 1100 
L 3047 0 
L 2419 0 
L 2419 1100 
L 313 1100 
L 313 1709 
L 2253 4666 
z
" transform="scale(0.015625)"/>
       </defs>
       <use xlink:href="#DejaVuSans-34"/>
       <use xlink:href="#DejaVuSans-30" transform="translate(63.623047 0)"/>
      </g>
     </g>
    </g>
    <g id="xtick_4">
     <g id="line2d_4">
      <path d="M 392.144282 381.78 
L 392.144282 29.04 
" clip-path="url(#p913489b668)" style="fill: none; stroke: #ffffff; stroke-linecap: round"/>
     </g>
     <g id="text_4">
      <!-- 60 -->
      <g style="fill: #262626" transform="translate(385.145532 399.638281) scale(0.11 -0.11)">
       <defs>
        <path id="DejaVuSans-36" d="M 2113 2584 
Q 1688 2584 1439 2293 
Q 1191 2003 1191 1497 
Q 1191 994 1439 701 
Q 1688 409 2113 409 
Q 2538 409 2786 701 
Q 3034 994 3034 1497 
Q 3034 2003 2786 2293 
Q 2538 2584 2113 2584 
z
M 3366 4563 
L 3366 3988 
Q 3128 4100 2886 4159 
Q 2644 4219 2406 4219 
Q 1781 4219 1451 3797 
Q 1122 3375 1075 2522 
Q 1259 2794 1537 2939 
Q 1816 3084 2150 3084 
Q 2853 3084 3261 2657 
Q 3669 2231 3669 1497 
Q 3669 778 3244 343 
Q 2819 -91 2113 -91 
Q 1303 -91 875 529 
Q 447 1150 447 2328 
Q 447 3434 972 4092 
Q 1497 4750 2381 4750 
Q 2619 4750 2861 4703 
Q 3103 4656 3366 4563 
z
" transform="scale(0.015625)"/>
       </defs>
       <use xlink:href="#DejaVuSans-36"/>
       <use xlink:href="#DejaVuSans-30" transform="translate(63.623047 0)"/>
      </g>
     </g>
    </g>
    <g id="xtick_5">
     <g id="line2d_5">
      <path d="M 492.989393 381.78 
L 492.989393 29.04 
" clip-path="url(#p913489b668)" style="fill: none; stroke: #ffffff; stroke-linecap: round"/>
     </g>
     <g id="text_5">
      <!-- 80 -->
      <g style="fill: #262626" transform="translate(485.990643 399.638281) scale(0.11 -0.11)">
       <defs>
        <path id="DejaVuSans-38" d="M 2034 2216 
Q 1584 2216 1326 1975 
Q 1069 1734 1069 1313 
Q 1069 891 1326 650 
Q 1584 409 2034 409 
Q 2484 409 2743 651 
Q 3003 894 3003 1313 
Q 3003 1734 2745 1975 
Q 2488 2216 2034 2216 
z
M 1403 2484 
Q 997 2584 770 2862 
Q 544 3141 544 3541 
Q 544 4100 942 4425 
Q 1341 4750 2034 4750 
Q 2731 4750 3128 4425 
Q 3525 4100 3525 3541 
Q 3525 3141 3298 2862 
Q 3072 2584 2669 2484 
Q 3125 2378 3379 2068 
Q 3634 1759 3634 1313 
Q 3634 634 3220 271 
Q 2806 -91 2034 -91 
Q 1263 -91 848 271 
Q 434 634 434 1313 
Q 434 1759 690 2068 
Q 947 2378 1403 2484 
z
M 1172 3481 
Q 1172 3119 1398 2916 
Q 1625 2713 2034 2713 
Q 2441 2713 2670 2916 
Q 2900 3119 2900 3481 
Q 2900 3844 2670 4047 
Q 2441 4250 2034 4250 
Q 1625 4250 1398 4047 
Q 1172 3844 1172 3481 
z
" transform="scale(0.015625)"/>
       </defs>
       <use xlink:href="#DejaVuSans-38"/>
       <use xlink:href="#DejaVuSans-30" transform="translate(63.623047 0)"/>
      </g>
     </g>
    </g>
    <g id="xtick_6">
     <g id="line2d_6">
      <path d="M 593.834503 381.78 
L 593.834503 29.04 
" clip-path="url(#p913489b668)" style="fill: none; stroke: #ffffff; stroke-linecap: round"/>
     </g>
     <g id="text_6">
      <!-- 100 -->
      <g style="fill: #262626" transform="translate(583.336378 399.638281) scale(0.11 -0.11)">
       <defs>
        <path id="DejaVuSans-31" d="M 794 531 
L 1825 531 
L 1825 4091 
L 703 3866 
L 703 4441 
L 1819 4666 
L 2450 4666 
L 2450 531 
L 3481 531 
L 3481 0 
L 794 0 
L 794 531 
z
" transform="scale(0.015625)"/>
       </defs>
       <use xlink:href="#DejaVuSans-31"/>
       <use xlink:href="#DejaVuSans-30" transform="translate(63.623047 0)"/>
       <use xlink:href="#DejaVuSans-30" transform="translate(127.246094 0)"/>
      </g>
     </g>
    </g>
    <g id="xtick_7">
     <g id="line2d_7">
      <path d="M 694.679613 381.78 
L 694.679613 29.04 
" clip-path="url(#p913489b668)" style="fill: none; stroke: #ffffff; stroke-linecap: round"/>
     </g>
     <g id="text_7">
      <!-- 120 -->
      <g style="fill: #262626" transform="translate(684.181488 399.638281) scale(0.11 -0.11)">
       <use xlink:href="#DejaVuSans-31"/>
       <use xlink:href="#DejaVuSans-32" transform="translate(63.623047 0)"/>
       <use xlink:href="#DejaVuSans-30" transform="translate(127.246094 0)"/>
      </g>
     </g>
    </g>
    <g id="text_8">
     <!-- Time (s) -->
     <g style="fill: #262626" transform="translate(359.230312 415.044062) scale(0.12 -0.12)">
      <defs>
       <path id="DejaVuSans-54" d="M -19 4666 
L 3928 4666 
L 3928 4134 
L 2272 4134 
L 2272 0 
L 1638 0 
L 1638 4134 
L -19 4134 
L -19 4666 
z
" transform="scale(0.015625)"/>
       <path id="DejaVuSans-69" d="M 603 3500 
L 1178 3500 
L 1178 0 
L 603 0 
L 603 3500 
z
M 603 4863 
L 1178 4863 
L 1178 4134 
L 603 4134 
L 603 4863 
z
" transform="scale(0.015625)"/>
       <path id="DejaVuSans-6d" d="M 3328 2828 
Q 3544 3216 3844 3400 
Q 4144 3584 4550 3584 
Q 5097 3584 5394 3201 
Q 5691 2819 5691 2113 
L 5691 0 
L 5113 0 
L 5113 2094 
Q 5113 2597 4934 2840 
Q 4756 3084 4391 3084 
Q 3944 3084 3684 2787 
Q 3425 2491 3425 1978 
L 3425 0 
L 2847 0 
L 2847 2094 
Q 2847 2600 2669 2842 
Q 2491 3084 2119 3084 
Q 1678 3084 1418 2786 
Q 1159 2488 1159 1978 
L 1159 0 
L 581 0 
L 581 3500 
L 1159 3500 
L 1159 2956 
Q 1356 3278 1631 3431 
Q 1906 3584 2284 3584 
Q 2666 3584 2933 3390 
Q 3200 3197 3328 2828 
z
" transform="scale(0.015625)"/>
       <path id="DejaVuSans-65" d="M 3597 1894 
L 3597 1613 
L 953 1613 
Q 991 1019 1311 708 
Q 1631 397 2203 397 
Q 2534 397 2845 478 
Q 3156 559 3463 722 
L 3463 178 
Q 3153 47 2828 -22 
Q 2503 -91 2169 -91 
Q 1331 -91 842 396 
Q 353 884 353 1716 
Q 353 2575 817 3079 
Q 1281 3584 2069 3584 
Q 2775 3584 3186 3129 
Q 3597 2675 3597 1894 
z
M 3022 2063 
Q 3016 2534 2758 2815 
Q 2500 3097 2075 3097 
Q 1594 3097 1305 2825 
Q 1016 2553 972 2059 
L 3022 2063 
z
" transform="scale(0.015625)"/>
       <path id="DejaVuSans-20" transform="scale(0.015625)"/>
       <path id="DejaVuSans-28" d="M 1984 4856 
Q 1566 4138 1362 3434 
Q 1159 2731 1159 2009 
Q 1159 1288 1364 580 
Q 1569 -128 1984 -844 
L 1484 -844 
Q 1016 -109 783 600 
Q 550 1309 550 2009 
Q 550 2706 781 3412 
Q 1013 4119 1484 4856 
L 1984 4856 
z
" transform="scale(0.015625)"/>
       <path id="DejaVuSans-73" d="M 2834 3397 
L 2834 2853 
Q 2591 2978 2328 3040 
Q 2066 3103 1784 3103 
Q 1356 3103 1142 2972 
Q 928 2841 928 2578 
Q 928 2378 1081 2264 
Q 1234 2150 1697 2047 
L 1894 2003 
Q 2506 1872 2764 1633 
Q 3022 1394 3022 966 
Q 3022 478 2636 193 
Q 2250 -91 1575 -91 
Q 1294 -91 989 -36 
Q 684 19 347 128 
L 347 722 
Q 666 556 975 473 
Q 1284 391 1588 391 
Q 1994 391 2212 530 
Q 2431 669 2431 922 
Q 2431 1156 2273 1281 
Q 2116 1406 1581 1522 
L 1381 1569 
Q 847 1681 609 1914 
Q 372 2147 372 2553 
Q 372 3047 722 3315 
Q 1072 3584 1716 3584 
Q 2034 3584 2315 3537 
Q 2597 3491 2834 3397 
z
" transform="scale(0.015625)"/>
       <path id="DejaVuSans-29" d="M 513 4856 
L 1013 4856 
Q 1481 4119 1714 3412 
Q 1947 2706 1947 2009 
Q 1947 1309 1714 600 
Q 1481 -109 1013 -844 
L 513 -844 
Q 928 -128 1133 580 
Q 1338 1288 1338 2009 
Q 1338 2731 1133 3434 
Q 928 4138 513 4856 
z
" transform="scale(0.015625)"/>
      </defs>
      <use xlink:href="#DejaVuSans-54"/>
      <use xlink:href="#DejaVuSans-69" transform="translate(57.958984 0)"/>
      <use xlink:href="#DejaVuSans-6d" transform="translate(85.742188 0)"/>
      <use xlink:href="#DejaVuSans-65" transform="translate(183.154297 0)"/>
      <use xlink:href="#DejaVuSans-20" transform="translate(244.677734 0)"/>
      <use xlink:href="#DejaVuSans-28" transform="translate(276.464844 0)"/>
      <use xlink:href="#DejaVuSans-73" transform="translate(315.478516 0)"/>
      <use xlink:href="#DejaVuSans-29" transform="translate(367.578125 0)"/>
     </g>
    </g>
   </g>
   <g id="matplotlib.axis_2">
    <g id="ytick_1">
     <g id="line2d_8">
      <path d="M 60.21 365.746364 
L 707.04 365.746364 
" clip-path="url(#p913489b668)" style="fill: none; stroke: #ffffff; stroke-linecap: round"/>
     </g>
     <g id="text_9">
      <!-- 0 -->
      <g style="fill: #262626" transform="translate(43.71125 369.925504) scale(0.11 -0.11)">
       <use xlink:href="#DejaVuSans-30"/>
      </g>
     </g>
    </g>
    <g id="ytick_2">
     <g id="line2d_9">
      <path d="M 60.21 317.306372 
L 707.04 317.306372 
" clip-path="url(#p913489b668)" style="fill: none; stroke: #ffffff; stroke-linecap: round"/>
     </g>
     <g id="text_10">
      <!-- 20 -->
      <g style="fill: #262626" transform="translate(36.7125 321.485513) scale(0.11 -0.11)">
       <use xlink:href="#DejaVuSans-32"/>
       <use xlink:href="#DejaVuSans-30" transform="translate(63.623047 0)"/>
      </g>
     </g>
    </g>
    <g id="ytick_3">
     <g id="line2d_10">
      <path d="M 60.21 268.866381 
L 707.04 268.866381 
" clip-path="url(#p913489b668)" style="fill: none; stroke: #ffffff; stroke-linecap: round"/>
     </g>
     <g id="text_11">
      <!-- 40 -->
      <g style="fill: #262626" transform="translate(36.7125 273.045522) scale(0.11 -0.11)">
       <use xlink:href="#DejaVuSans-34"/>
       <use xlink:href="#DejaVuSans-30" transform="translate(63.623047 0)"/>
      </g>
     </g>
    </g>
    <g id="ytick_4">
     <g id="line2d_11">
      <path d="M 60.21 220.42639 
L 707.04 220.42639 
" clip-path="url(#p913489b668)" style="fill: none; stroke: #ffffff; stroke-linecap: round"/>
     </g>
     <g id="text_12">
      <!-- 60 -->
      <g style="fill: #262626" transform="translate(36.7125 224.605531) scale(0.11 -0.11)">
       <use xlink:href="#DejaVuSans-36"/>
       <use xlink:href="#DejaVuSans-30" transform="translate(63.623047 0)"/>
      </g>
     </g>
    </g>
    <g id="ytick_5">
     <g id="line2d_12">
      <path d="M 60.21 171.986399 
L 707.04 171.986399 
" clip-path="url(#p913489b668)" style="fill: none; stroke: #ffffff; stroke-linecap: round"/>
     </g>
     <g id="text_13">
      <!-- 80 -->
      <g style="fill: #262626" transform="translate(36.7125 176.165539) scale(0.11 -0.11)">
       <use xlink:href="#DejaVuSans-38"/>
       <use xlink:href="#DejaVuSans-30" transform="translate(63.623047 0)"/>
      </g>
     </g>
    </g>
    <g id="ytick_6">
     <g id="line2d_13">
      <path d="M 60.21 123.546407 
L 707.04 123.546407 
" clip-path="url(#p913489b668)" style="fill: none; stroke: #ffffff; stroke-linecap: round"/>
     </g>
     <g id="text_14">
      <!-- 100 -->
      <g style="fill: #262626" transform="translate(29.71375 127.725548) scale(0.11 -0.11)">
       <use xlink:href="#DejaVuSans-31"/>
       <use xlink:href="#DejaVuSans-30" transform="translate(63.623047 0)"/>
       <use xlink:href="#DejaVuSans-30" transform="translate(127.246094 0)"/>
      </g>
     </g>
    </g>
    <g id="ytick_7">
     <g id="line2d_14">
      <path d="M 60.21 75.106416 
L 707.04 75.106416 
" clip-path="url(#p913489b668)" style="fill: none; stroke: #ffffff; stroke-linecap: round"/>
     </g>
     <g id="text_15">
      <!-- 120 -->
      <g style="fill: #262626" transform="translate(29.71375 79.285557) scale(0.11 -0.11)">
       <use xlink:href="#DejaVuSans-31"/>
       <use xlink:href="#DejaVuSans-32" transform="translate(63.623047 0)"/>
       <use xlink:href="#DejaVuSans-30" transform="translate(127.246094 0)"/>
      </g>
     </g>
    </g>
    <g id="text_16">
     <!-- Torque (Nm) or Current (mA) -->
     <g style="fill: #262626" transform="translate(23.218125 291.33375) rotate(-90) scale(0.12 -0.12)">
      <defs>
       <path id="DejaVuSans-6f" d="M 1959 3097 
Q 1497 3097 1228 2736 
Q 959 2375 959 1747 
Q 959 1119 1226 758 
Q 1494 397 1959 397 
Q 2419 397 2687 759 
Q 2956 1122 2956 1747 
Q 2956 2369 2687 2733 
Q 2419 3097 1959 3097 
z
M 1959 3584 
Q 2709 3584 3137 3096 
Q 3566 2609 3566 1747 
Q 3566 888 3137 398 
Q 2709 -91 1959 -91 
Q 1206 -91 779 398 
Q 353 888 353 1747 
Q 353 2609 779 3096 
Q 1206 3584 1959 3584 
z
" transform="scale(0.015625)"/>
       <path id="DejaVuSans-72" d="M 2631 2963 
Q 2534 3019 2420 3045 
Q 2306 3072 2169 3072 
Q 1681 3072 1420 2755 
Q 1159 2438 1159 1844 
L 1159 0 
L 581 0 
L 581 3500 
L 1159 3500 
L 1159 2956 
Q 1341 3275 1631 3429 
Q 1922 3584 2338 3584 
Q 2397 3584 2469 3576 
Q 2541 3569 2628 3553 
L 2631 2963 
z
" transform="scale(0.015625)"/>
       <path id="DejaVuSans-71" d="M 947 1747 
Q 947 1113 1208 752 
Q 1469 391 1925 391 
Q 2381 391 2643 752 
Q 2906 1113 2906 1747 
Q 2906 2381 2643 2742 
Q 2381 3103 1925 3103 
Q 1469 3103 1208 2742 
Q 947 2381 947 1747 
z
M 2906 525 
Q 2725 213 2448 61 
Q 2172 -91 1784 -91 
Q 1150 -91 751 415 
Q 353 922 353 1747 
Q 353 2572 751 3078 
Q 1150 3584 1784 3584 
Q 2172 3584 2448 3432 
Q 2725 3281 2906 2969 
L 2906 3500 
L 3481 3500 
L 3481 -1331 
L 2906 -1331 
L 2906 525 
z
" transform="scale(0.015625)"/>
       <path id="DejaVuSans-75" d="M 544 1381 
L 544 3500 
L 1119 3500 
L 1119 1403 
Q 1119 906 1312 657 
Q 1506 409 1894 409 
Q 2359 409 2629 706 
Q 2900 1003 2900 1516 
L 2900 3500 
L 3475 3500 
L 3475 0 
L 2900 0 
L 2900 538 
Q 2691 219 2414 64 
Q 2138 -91 1772 -91 
Q 1169 -91 856 284 
Q 544 659 544 1381 
z
M 1991 3584 
L 1991 3584 
z
" transform="scale(0.015625)"/>
       <path id="DejaVuSans-4e" d="M 628 4666 
L 1478 4666 
L 3547 763 
L 3547 4666 
L 4159 4666 
L 4159 0 
L 3309 0 
L 1241 3903 
L 1241 0 
L 628 0 
L 628 4666 
z
" transform="scale(0.015625)"/>
       <path id="DejaVuSans-43" d="M 4122 4306 
L 4122 3641 
Q 3803 3938 3442 4084 
Q 3081 4231 2675 4231 
Q 1875 4231 1450 3742 
Q 1025 3253 1025 2328 
Q 1025 1406 1450 917 
Q 1875 428 2675 428 
Q 3081 428 3442 575 
Q 3803 722 4122 1019 
L 4122 359 
Q 3791 134 3420 21 
Q 3050 -91 2638 -91 
Q 1578 -91 968 557 
Q 359 1206 359 2328 
Q 359 3453 968 4101 
Q 1578 4750 2638 4750 
Q 3056 4750 3426 4639 
Q 3797 4528 4122 4306 
z
" transform="scale(0.015625)"/>
       <path id="DejaVuSans-6e" d="M 3513 2113 
L 3513 0 
L 2938 0 
L 2938 2094 
Q 2938 2591 2744 2837 
Q 2550 3084 2163 3084 
Q 1697 3084 1428 2787 
Q 1159 2491 1159 1978 
L 1159 0 
L 581 0 
L 581 3500 
L 1159 3500 
L 1159 2956 
Q 1366 3272 1645 3428 
Q 1925 3584 2291 3584 
Q 2894 3584 3203 3211 
Q 3513 2838 3513 2113 
z
" transform="scale(0.015625)"/>
       <path id="DejaVuSans-74" d="M 1172 4494 
L 1172 3500 
L 2356 3500 
L 2356 3053 
L 1172 3053 
L 1172 1153 
Q 1172 725 1289 603 
Q 1406 481 1766 481 
L 2356 481 
L 2356 0 
L 1766 0 
Q 1100 0 847 248 
Q 594 497 594 1153 
L 594 3053 
L 172 3053 
L 172 3500 
L 594 3500 
L 594 4494 
L 1172 4494 
z
" transform="scale(0.015625)"/>
       <path id="DejaVuSans-41" d="M 2188 4044 
L 1331 1722 
L 3047 1722 
L 2188 4044 
z
M 1831 4666 
L 2547 4666 
L 4325 0 
L 3669 0 
L 3244 1197 
L 1141 1197 
L 716 0 
L 50 0 
L 1831 4666 
z
" transform="scale(0.015625)"/>
      </defs>
      <use xlink:href="#DejaVuSans-54"/>
      <use xlink:href="#DejaVuSans-6f" transform="translate(44.083984 0)"/>
      <use xlink:href="#DejaVuSans-72" transform="translate(105.265625 0)"/>
      <use xlink:href="#DejaVuSans-71" transform="translate(144.628906 0)"/>
      <use xlink:href="#DejaVuSans-75" transform="translate(208.105469 0)"/>
      <use xlink:href="#DejaVuSans-65" transform="translate(271.484375 0)"/>
      <use xlink:href="#DejaVuSans-20" transform="translate(333.007812 0)"/>
      <use xlink:href="#DejaVuSans-28" transform="translate(364.794922 0)"/>
      <use xlink:href="#DejaVuSans-4e" transform="translate(403.808594 0)"/>
      <use xlink:href="#DejaVuSans-6d" transform="translate(478.613281 0)"/>
      <use xlink:href="#DejaVuSans-29" transform="translate(576.025391 0)"/>
      <use xlink:href="#DejaVuSans-20" transform="translate(615.039062 0)"/>
      <use xlink:href="#DejaVuSans-6f" transform="translate(646.826172 0)"/>
      <use xlink:href="#DejaVuSans-72" transform="translate(708.007812 0)"/>
      <use xlink:href="#DejaVuSans-20" transform="translate(749.121094 0)"/>
      <use xlink:href="#DejaVuSans-43" transform="translate(780.908203 0)"/>
      <use xlink:href="#DejaVuSans-75" transform="translate(850.732422 0)"/>
      <use xlink:href="#DejaVuSans-72" transform="translate(914.111328 0)"/>
      <use xlink:href="#DejaVuSans-72" transform="translate(953.474609 0)"/>
      <use xlink:href="#DejaVuSans-65" transform="translate(992.337891 0)"/>
      <use xlink:href="#DejaVuSans-6e" transform="translate(1053.861328 0)"/>
      <use xlink:href="#DejaVuSans-74" transform="translate(1117.240234 0)"/>
      <use xlink:href="#DejaVuSans-20" transform="translate(1156.449219 0)"/>
      <use xlink:href="#DejaVuSans-28" transform="translate(1188.236328 0)"/>
      <use xlink:href="#DejaVuSans-6d" transform="translate(1227.25 0)"/>
      <use xlink:href="#DejaVuSans-41" transform="translate(1324.662109 0)"/>
      <use xlink:href="#DejaVuSans-29" transform="translate(1393.070312 0)"/>
     </g>
    </g>
   </g>
   <g id="line2d_15">
    <path d="M 89.611364 363.808764 
L 89.915008 365.746364 
L 94.652345 365.746364 
L 94.854066 364.777564 
L 99.796685 364.777564 
L 99.896965 365.746364 
L 100.09931 112.647409 
L 100.401137 106.59241 
L 100.806321 99.326412 
L 101.611984 92.060413 
L 101.711703 92.060413 
L 102.01417 90.122806 
L 102.317856 90.122806 
L 102.417429 88.911806 
L 102.621468 91.09161 
L 102.721145 91.09161 
L 103.224332 102.475019 
L 103.527883 114.827213 
L 103.628759 364.777564 
L 103.728747 358.722565 
L 104.637985 325.783371 
L 104.837962 319.486171 
L 105.34317 305.196375 
L 105.544948 305.196375 
L 105.746791 310.282575 
L 107.057259 353.394166 
L 107.258288 362.839964 
L 107.460801 112.647409 
L 107.762292 96.177805 
L 107.967787 91.09161 
L 108.367299 80.677023 
L 108.569322 83.825611 
L 108.97354 94.240216 
L 109.476614 107.561214 
L 109.577507 107.561214 
L 110.183554 93.029217 
L 110.587423 82.856807 
L 110.687724 82.856807 
L 110.98936 88.911806 
L 111.69637 114.827213 
L 111.796153 363.808764 
L 111.901076 358.722565 
L 112.098583 355.573966 
L 112.200477 355.573966 
L 112.402092 362.839964 
L 112.602364 111.678606 
L 112.80458 106.59241 
L 112.906403 105.381411 
L 113.208047 116.764801 
L 113.308797 362.839964 
L 113.410614 356.542765 
L 113.715826 343.221767 
L 113.815606 342.252968 
L 114.317096 353.394166 
L 114.621049 363.808764 
L 115.12446 351.456566 
L 115.427436 344.190568 
L 115.528691 344.190568 
L 115.931583 353.394166 
L 116.2342 364.777564 
L 116.537883 357.511565 
L 116.939329 347.339167 
L 117.040419 347.339167 
L 117.342453 353.394166 
L 117.545077 362.839964 
L 117.746848 113.616213 
L 117.948357 116.764801 
L 118.050046 363.808764 
L 118.151704 359.691365 
L 118.351137 354.605166 
L 118.451903 354.605166 
L 118.653764 359.691365 
L 118.755818 362.839964 
L 118.957031 111.678606 
L 119.158197 104.412607 
L 119.359795 103.443804 
L 119.662657 112.647409 
L 120.166839 101.264019 
L 120.36784 97.146608 
L 120.570403 99.326412 
L 120.97338 109.498803 
L 121.477579 101.264019 
L 121.678872 103.443804 
L 121.982017 114.827213 
L 122.082343 365.746364 
L 122.184691 362.839964 
L 122.284997 361.628964 
L 122.485741 365.746364 
L 122.688802 115.796016 
L 122.78866 364.777564 
L 122.891413 360.660165 
L 123.192205 350.487766 
L 123.293075 350.487766 
L 123.393735 352.425366 
L 123.699236 360.660165 
L 123.797589 359.691365 
L 124.201425 351.456566 
L 124.301512 352.425366 
L 124.704827 365.746364 
L 124.905835 114.827213 
L 125.006896 116.764801 
L 125.107824 363.808764 
L 125.209139 358.722565 
L 125.310026 356.542765 
L 125.612478 364.777564 
L 125.81362 112.647409 
L 125.914429 111.678606 
L 126.017805 113.616213 
L 126.116182 365.746364 
L 126.216999 362.839964 
L 126.31784 362.839964 
L 126.419327 365.746364 
L 126.620468 110.709802 
L 126.822544 108.530018 
L 127.024167 112.647409 
L 127.124521 365.746364 
L 127.226109 363.808764 
L 127.327705 362.839964 
L 127.427235 364.777564 
L 127.628501 113.616213 
L 127.731099 113.616213 
L 127.830555 365.746364 
L 127.934745 362.839964 
L 128.237345 354.605166 
L 128.334658 354.605166 
L 128.536586 358.722565 
L 128.939766 353.394166 
L 129.141531 356.542765 
L 129.445421 365.746364 
L 129.54478 364.777564 
L 129.847412 357.511565 
L 130.149944 364.777564 
L 130.352112 111.678606 
L 130.453664 111.678606 
L 130.554665 113.616213 
L 130.75623 111.678606 
L 131.05758 104.412607 
L 131.26264 108.530018 
L 131.462023 114.827213 
L 131.662377 111.678606 
L 131.865677 108.530018 
L 131.965452 109.498803 
L 132.268934 116.764801 
L 132.368753 115.796016 
L 132.671055 108.530018 
L 132.772343 107.561214 
L 133.075048 114.827213 
L 133.175242 113.616213 
L 133.376583 109.498803 
L 133.578503 114.827213 
L 133.67984 365.746364 
L 133.780549 363.808764 
L 133.881136 363.808764 
L 133.982035 365.746364 
L 134.183839 112.647409 
L 134.285081 113.616213 
L 134.385777 116.764801 
L 134.486208 363.808764 
L 134.587602 362.839964 
L 134.687958 362.839964 
L 134.789019 365.746364 
L 134.889782 116.764801 
L 134.990915 364.777564 
L 135.092538 360.660165 
L 135.293656 356.542765 
L 135.393854 355.573966 
L 135.495197 358.722565 
L 135.898123 352.425366 
L 135.999779 351.456566 
L 136.103235 352.425366 
L 136.402972 358.722565 
L 136.605236 357.511565 
L 136.805766 363.808764 
L 137.008285 112.647409 
L 137.10921 111.678606 
L 137.310592 114.827213 
L 137.714176 103.443804 
L 138.016165 107.561214 
L 138.117996 107.561214 
L 138.318381 105.381411 
L 138.51971 108.530018 
L 138.72205 113.616213 
L 139.02426 110.709802 
L 139.327434 115.796016 
L 139.528549 110.709802 
L 139.629514 110.709802 
L 139.731322 111.678606 
L 139.831751 114.827213 
L 139.932015 364.777564 
L 140.032896 361.628964 
L 140.335641 364.777564 
L 140.641337 359.691365 
L 140.738886 360.660165 
L 140.940432 364.777564 
L 141.243434 358.722565 
L 141.545993 361.628964 
L 141.747066 358.722565 
L 141.848005 357.511565 
L 142.151137 364.777564 
L 142.456564 357.511565 
L 142.755652 363.808764 
L 142.857187 362.839964 
L 143.058092 358.722565 
L 143.361145 364.777564 
L 143.461668 362.839964 
L 143.667008 365.746364 
L 143.864736 111.678606 
L 143.966511 110.709802 
L 144.066541 114.827213 
L 144.168242 113.616213 
L 144.3692 109.498803 
L 144.570761 108.530018 
L 144.672399 112.647409 
L 144.773039 111.678606 
L 145.07508 106.59241 
L 145.17972 108.530018 
L 145.377252 114.827213 
L 145.482396 112.647409 
L 145.579307 114.827213 
L 145.681373 365.746364 
L 145.780982 362.839964 
L 145.984104 358.722565 
L 146.185105 360.660165 
L 146.386069 359.691365 
L 146.589595 364.777564 
L 146.689103 116.764801 
L 146.789936 365.746364 
L 146.890263 363.808764 
L 146.994576 362.839964 
L 147.194071 365.746364 
L 147.496167 358.722565 
L 147.596583 360.660165 
L 147.799397 365.746364 
L 148.000173 362.839964 
L 148.10057 365.746364 
L 148.301759 112.647409 
L 148.50344 116.764801 
L 148.604424 365.746364 
L 148.80589 116.764801 
L 148.907153 364.777564 
L 149.007999 360.660165 
L 149.614398 354.605166 
L 149.915568 356.542765 
L 150.019997 356.542765 
L 150.117331 357.511565 
L 150.319132 362.839964 
L 150.5213 111.678606 
L 151.126074 88.911806 
L 151.327677 87.943021 
L 152.134189 114.827213 
L 152.235616 364.777564 
L 152.33583 360.660165 
L 152.538223 357.511565 
L 152.638283 357.511565 
L 152.840681 356.542765 
L 153.045315 358.722565 
L 153.142473 358.722565 
L 153.34489 359.691365 
L 153.646571 359.691365 
L 153.74737 360.660165 
L 153.949112 359.691365 
L 154.151031 359.691365 
L 154.252561 360.660165 
L 154.453606 359.691365 
L 154.555097 359.691365 
L 154.756152 360.660165 
L 154.957779 359.691365 
L 155.059411 359.691365 
L 155.260371 360.660165 
L 155.361207 360.660165 
L 155.562942 359.691365 
L 155.768398 360.660165 
L 155.866124 360.660165 
L 156.067742 359.691365 
L 156.268814 360.660165 
L 156.369747 360.660165 
L 156.470365 359.691365 
L 156.672286 360.660165 
L 156.873894 360.660165 
L 157.075574 359.691365 
L 157.277333 360.660165 
L 157.378174 360.660165 
L 157.580199 359.691365 
L 157.781553 360.660165 
L 157.886275 360.660165 
L 158.28617 363.808764 
L 160.302618 363.808764 
L 160.403329 364.777564 
L 160.60879 113.616213 
L 161.21025 91.09161 
L 161.715888 81.888022 
L 162.017027 77.770612 
L 162.319507 72.44222 
L 162.823715 68.32481 
L 162.924614 68.32481 
L 163.025436 67.356025 
L 163.428834 71.473417 
L 163.630527 77.770612 
L 164.437235 103.443804 
L 164.739877 116.764801 
L 164.842256 361.628964 
L 164.941496 357.511565 
L 165.445717 336.92457 
L 166.958395 293.812975 
L 167.059778 293.812975 
L 167.261814 297.930376 
L 167.664374 311.251373 
L 167.866527 317.548573 
L 168.572031 341.041969 
L 168.874442 349.276766 
L 168.975323 350.487766 
L 169.17704 347.339167 
L 169.882749 334.018168 
L 170.285837 342.252968 
L 170.891254 365.746364 
L 171.093094 107.561214 
L 171.395476 94.240216 
L 171.49635 94.240216 
L 171.697809 97.146608 
L 172.202421 108.530018 
L 172.403685 106.59241 
L 172.807453 96.177805 
L 173.414944 80.677023 
L 173.513381 80.677023 
L 173.715086 83.825611 
L 174.218912 97.146608 
L 174.319712 97.146608 
L 174.723548 87.943021 
L 175.02609 81.888022 
L 175.127538 81.888022 
L 175.328907 84.794414 
L 176.034607 106.59241 
L 176.337023 102.475019 
L 176.639589 97.146608 
L 176.942204 101.264019 
L 177.246626 113.616213 
L 177.344886 365.746364 
L 177.445767 360.660165 
L 177.647419 353.394166 
L 177.74888 354.605166 
L 177.849721 353.394166 
L 178.152212 361.628964 
L 178.656744 350.487766 
L 178.959017 343.221767 
L 179.160697 345.159367 
L 179.564065 353.394166 
L 179.664873 353.394166 
L 179.766292 352.425366 
L 180.170742 342.252968 
L 180.471764 345.159367 
L 180.875119 354.605166 
L 181.1776 349.276766 
L 181.480256 347.339167 
L 181.782576 353.394166 
L 182.085285 364.777564 
L 182.185621 363.808764 
L 182.690294 354.605166 
L 182.791049 356.542765 
L 182.992845 364.777564 
L 183.194498 111.678606 
L 183.295272 110.709802 
L 183.497062 116.764801 
L 183.597844 362.839964 
L 183.698819 359.691365 
L 183.799575 358.722565 
L 184.001307 364.777564 
L 184.203521 108.530018 
L 184.404683 106.59241 
L 184.707197 111.678606 
L 184.908827 109.498803 
L 185.312356 101.264019 
L 185.514533 103.443804 
L 185.816444 111.678606 
L 186.121317 106.59241 
L 186.321264 104.412607 
L 186.421136 105.381411 
L 186.723936 111.678606 
L 187.228381 101.264019 
L 187.429873 104.412607 
L 187.732493 111.678606 
L 187.833946 110.709802 
L 188.135864 105.381411 
L 188.337542 108.530018 
L 188.540887 115.796016 
L 188.639917 365.746364 
L 188.841426 113.616213 
L 189.043475 110.709802 
L 189.143848 110.709802 
L 189.244726 114.827213 
L 189.345755 365.746364 
L 189.446877 360.660165 
L 189.649057 357.511565 
L 189.850049 361.628964 
L 190.052048 356.542765 
L 190.354502 350.487766 
L 190.556118 352.425366 
L 190.758717 355.573966 
L 190.858386 354.605166 
L 191.060472 351.456566 
L 191.161145 350.487766 
L 191.362627 353.394166 
L 191.56458 356.542765 
L 191.86704 351.456566 
L 191.968479 351.456566 
L 192.169651 353.394166 
L 192.371847 356.542765 
L 192.472232 356.542765 
L 192.774399 351.456566 
L 192.976385 353.394166 
L 193.177652 356.542765 
L 193.379336 353.394166 
L 193.480057 353.394166 
L 193.682314 356.542765 
L 193.883754 365.746364 
L 194.085749 115.796016 
L 194.186716 365.746364 
L 194.287513 363.808764 
L 194.388506 364.777564 
L 194.589963 110.709802 
L 194.691303 108.530018 
L 194.791658 109.498803 
L 194.993387 112.647409 
L 195.29595 105.381411 
L 195.498189 105.381411 
L 195.597862 106.59241 
L 195.79958 109.498803 
L 196.102063 107.561214 
L 196.202959 107.561214 
L 196.505962 115.796016 
L 196.606914 114.827213 
L 196.808467 110.709802 
L 196.909416 111.678606 
L 197.010723 114.827213 
L 197.11111 365.746364 
L 197.211932 362.839964 
L 197.312947 361.628964 
L 197.515191 363.808764 
L 197.615014 362.839964 
L 197.816607 359.691365 
L 198.018658 364.777564 
L 198.220385 111.678606 
L 198.321256 110.709802 
L 198.522917 113.616213 
L 198.825397 109.498803 
L 198.92578 109.498803 
L 199.229138 115.796016 
L 199.430001 111.678606 
L 199.531357 111.678606 
L 199.733565 115.796016 
L 199.833929 365.746364 
L 200.035553 114.827213 
L 200.136446 113.616213 
L 200.237284 116.764801 
L 200.338171 364.777564 
L 200.439112 361.628964 
L 200.640524 363.808764 
L 200.842075 114.827213 
L 200.942994 114.827213 
L 201.043643 116.764801 
L 201.147125 365.746364 
L 201.346462 112.647409 
L 201.447443 110.709802 
L 201.548168 111.678606 
L 201.750054 116.764801 
L 202.153374 110.709802 
L 202.355108 115.796016 
L 202.6572 110.709802 
L 202.757904 111.678606 
L 202.962456 115.796016 
L 203.26258 109.498803 
L 203.363546 109.498803 
L 203.565149 113.616213 
L 203.76688 110.709802 
L 203.968626 109.498803 
L 204.172123 114.827213 
L 204.371923 111.678606 
L 204.472855 114.827213 
L 204.573624 365.746364 
L 204.674481 363.808764 
L 204.776955 363.808764 
L 204.875663 365.746364 
L 204.976887 115.796016 
L 205.077324 116.764801 
L 205.279322 363.808764 
L 205.379832 365.746364 
L 205.582091 113.616213 
L 205.682542 114.827213 
L 205.784459 365.746364 
L 205.884263 364.777564 
L 205.985211 365.746364 
L 206.489118 356.542765 
L 206.690846 357.511565 
L 206.993436 355.573966 
L 207.195134 360.660165 
L 207.396924 357.511565 
L 207.498048 357.511565 
L 207.599045 358.722565 
L 207.800557 363.808764 
L 208.002416 361.628964 
L 208.103341 364.777564 
L 208.304802 113.616213 
L 208.405726 113.616213 
L 208.608111 110.709802 
L 208.808802 107.561214 
L 209.01047 108.530018 
L 209.111652 108.530018 
L 209.313346 107.561214 
L 209.414168 108.530018 
L 209.615896 113.616213 
L 209.817216 112.647409 
L 209.91844 115.796016 
L 210.019159 364.777564 
L 210.12009 361.628964 
L 210.523563 355.573966 
L 210.724842 354.605166 
L 210.826071 355.573966 
L 211.028044 363.808764 
L 211.229423 109.498803 
L 211.733271 88.911806 
L 211.935203 83.825611 
L 212.035708 83.825611 
L 212.1393 84.794414 
L 212.643541 98.357608 
L 212.943853 108.530018 
L 213.044585 114.827213 
L 213.1455 365.746364 
L 213.24639 360.660165 
L 213.548851 348.307967 
L 213.952279 352.425366 
L 214.156169 354.605166 
L 214.355587 355.573966 
L 214.456334 355.573966 
L 214.658058 357.511565 
L 214.760914 356.542765 
L 214.960699 357.511565 
L 215.162377 357.511565 
L 215.266125 356.542765 
L 215.464864 357.511565 
L 215.668363 357.511565 
L 215.767077 356.542765 
L 215.969105 357.511565 
L 216.170805 357.511565 
L 216.273996 356.542765 
L 216.37254 357.511565 
L 216.473375 356.542765 
L 216.574317 357.511565 
L 216.775785 356.542765 
L 216.977638 357.511565 
L 217.078478 356.542765 
L 217.280105 357.511565 
L 217.481888 357.511565 
L 217.683546 356.542765 
L 217.884808 357.511565 
L 217.986021 357.511565 
L 218.088057 356.542765 
L 218.188669 357.511565 
L 218.388893 356.542765 
L 218.591135 359.691365 
L 218.691931 360.660165 
L 218.893641 362.839964 
L 219.095339 363.808764 
L 220.809361 363.808764 
L 221.011418 365.746364 
L 221.213113 109.498803 
L 222.423314 71.473417 
L 223.231924 48.948813 
L 223.434125 46.769029 
L 223.736814 46.769029 
L 223.837071 47.737814 
L 224.44201 63.238615 
L 225.047178 83.825611 
L 225.751141 109.498803 
L 225.851589 114.827213 
L 225.952478 364.777564 
L 226.05545 359.691365 
L 226.459264 341.041969 
L 227.870395 302.047777 
L 228.070588 303.985375 
L 229.079023 334.98697 
L 229.180463 334.98697 
L 229.381588 332.807169 
L 230.490362 301.078973 
L 230.692489 303.985375 
L 230.793217 305.196375 
L 231.600157 330.869571 
L 231.905268 339.104368 
L 232.104398 339.104368 
L 232.608592 326.75217 
L 232.709504 327.720971 
L 232.810276 327.720971 
L 233.819036 361.628964 
L 234.023158 111.678606 
L 234.323572 105.381411 
L 234.62618 116.764801 
L 234.72633 116.764801 
L 234.930675 111.678606 
L 235.736106 86.974218 
L 236.037295 90.122806 
L 236.138224 92.060413 
L 236.339945 97.146608 
L 236.543173 96.177805 
L 237.146667 78.739415 
L 237.348108 77.770612 
L 237.752306 86.974218 
L 237.954743 91.09161 
L 238.054036 91.09161 
L 238.155119 90.122806 
L 238.760146 78.739415 
L 239.165813 87.943021 
L 239.466055 96.177805 
L 239.667787 94.240216 
L 239.869255 90.122806 
L 240.072976 90.122806 
L 240.274019 93.029217 
L 240.778205 106.59241 
L 240.877565 106.59241 
L 241.079321 103.443804 
L 241.280848 100.295215 
L 241.482972 102.475019 
L 241.583838 104.412607 
L 241.886052 116.764801 
L 241.98948 363.808764 
L 242.089149 362.839964 
L 242.189239 364.777564 
L 242.390398 111.678606 
L 242.594451 109.498803 
L 242.79395 115.796016 
L 242.894515 364.777564 
L 242.995707 359.691365 
L 243.197365 353.394166 
L 243.399221 351.456566 
L 243.600962 355.573966 
L 243.701144 355.573966 
L 243.802431 354.605166 
L 244.306617 343.221767 
L 244.508326 344.190568 
L 244.710003 347.339167 
L 244.912484 345.159367 
L 245.315014 338.13557 
L 245.41554 338.13557 
L 245.617681 341.041969 
L 245.820008 344.190568 
L 246.020462 344.190568 
L 246.323481 336.92457 
L 246.526811 340.073167 
L 246.827693 345.159367 
L 246.928404 345.159367 
L 247.129865 342.252968 
L 247.333823 341.041969 
L 247.835777 352.425366 
L 248.04 351.456566 
L 248.13876 351.456566 
L 248.340423 353.394166 
L 248.441108 355.573966 
L 248.642869 364.777564 
L 248.844708 115.796016 
L 248.945209 116.764801 
L 249.048135 365.746364 
L 249.249176 113.616213 
L 249.550599 101.264019 
L 249.652464 100.295215 
L 249.953725 105.381411 
L 250.15762 102.475019 
L 250.457902 97.146608 
L 250.863188 102.475019 
L 251.06285 99.326412 
L 251.264373 97.146608 
L 251.367463 97.146608 
L 251.669688 102.475019 
L 251.770247 102.475019 
L 252.073507 97.146608 
L 252.576021 102.475019 
L 252.87862 97.146608 
L 253.080165 100.295215 
L 253.281683 103.443804 
L 253.382683 103.443804 
L 253.483558 102.475019 
L 253.684957 99.326412 
L 253.785649 99.326412 
L 254.088651 104.412607 
L 254.391115 102.475019 
L 254.592819 104.412607 
L 254.895074 114.827213 
L 255.097039 110.709802 
L 255.198152 111.678606 
L 255.29868 114.827213 
L 255.399551 365.746364 
L 255.500083 361.628964 
L 255.702583 357.511565 
L 255.903788 358.722565 
L 256.206331 352.425366 
L 256.307024 351.456566 
L 256.408026 352.425366 
L 256.609728 354.605166 
L 256.713204 354.605166 
L 257.013263 349.276766 
L 257.315584 352.425366 
L 257.416532 352.425366 
L 257.720323 347.339167 
L 257.819922 347.339167 
L 258.021857 349.276766 
L 258.122408 349.276766 
L 258.424934 345.159367 
L 258.52754 344.190568 
L 258.726996 347.339167 
L 258.828363 346.370367 
L 259.030047 344.190568 
L 259.232017 346.370367 
L 259.434556 350.487766 
L 259.536485 350.487766 
L 259.636842 348.307967 
L 259.836771 350.487766 
L 260.038492 353.394166 
L 260.340962 351.456566 
L 260.441848 352.425366 
L 260.74438 357.511565 
L 260.948424 357.511565 
L 261.048668 358.722565 
L 261.248677 365.746364 
L 261.449828 114.827213 
L 261.754612 107.561214 
L 261.954392 100.295215 
L 262.257172 105.381411 
L 262.559204 103.443804 
L 262.761385 105.381411 
L 262.862428 107.561214 
L 263.063927 105.381411 
L 263.164616 104.412607 
L 263.265517 105.381411 
L 263.467206 107.561214 
L 263.569117 107.561214 
L 263.769608 105.381411 
L 264.071939 108.530018 
L 264.37488 105.381411 
L 264.57813 108.530018 
L 264.778375 108.530018 
L 264.879041 107.561214 
L 265.182842 115.796016 
L 265.484109 110.709802 
L 265.584518 110.709802 
L 265.786289 115.796016 
L 266.088909 110.709802 
L 266.391826 116.764801 
L 266.593472 114.827213 
L 266.694244 116.764801 
L 266.795807 363.808764 
L 266.895947 360.660165 
L 266.997841 360.660165 
L 267.198437 364.777564 
L 267.500799 357.511565 
L 267.602516 358.722565 
L 267.703203 358.722565 
L 268.005218 352.425366 
L 268.106042 353.394166 
L 268.307694 356.542765 
L 268.51232 356.542765 
L 268.811972 363.808764 
L 268.912947 361.628964 
L 269.115594 364.777564 
L 269.316288 112.647409 
L 269.417174 112.647409 
L 269.618395 115.796016 
L 269.821817 112.647409 
L 269.921377 115.796016 
L 270.022182 364.777564 
L 270.123038 362.839964 
L 270.425602 358.722565 
L 270.627876 355.573966 
L 270.728293 356.542765 
L 270.82895 359.691365 
L 271.131143 357.511565 
L 271.332753 363.808764 
L 271.534299 112.647409 
L 272.03903 91.09161 
L 272.644136 74.622024 
L 272.744654 74.622024 
L 272.946457 76.559612 
L 273.955896 108.530018 
L 274.055899 114.827213 
L 274.15782 364.777564 
L 274.257634 359.691365 
L 274.660983 343.221767 
L 274.864789 342.252968 
L 275.064387 345.159367 
L 275.569447 351.456566 
L 275.669468 350.487766 
L 276.072882 353.394166 
L 276.47587 353.394166 
L 276.577064 354.605166 
L 276.679391 353.394166 
L 276.880782 354.605166 
L 277.081298 354.605166 
L 277.182609 353.394166 
L 277.383825 354.605166 
L 277.585574 354.605166 
L 277.687524 353.394166 
L 277.787282 354.605166 
L 277.888785 353.394166 
L 278.089741 354.605166 
L 278.190881 353.394166 
L 278.3921 354.605166 
L 278.795253 354.605166 
L 278.89607 353.394166 
L 279.301012 360.660165 
L 279.70387 363.808764 
L 281.116173 363.808764 
L 281.316368 363.324364 
L 281.417195 364.535364 
L 281.619034 114.100605 
L 281.820552 106.350214 
L 281.921848 106.350214 
L 282.326599 98.842019 
L 282.426047 98.842019 
L 282.628212 96.177805 
L 282.728631 96.177805 
L 283.233173 91.09161 
L 283.435625 91.09161 
L 283.636196 89.88061 
L 283.938735 89.88061 
L 284.244261 92.302609 
L 284.343265 92.302609 
L 284.846493 106.350214 
L 285.048186 116.522605 
L 285.149937 362.113364 
L 285.249991 355.573966 
L 286.358704 318.759573 
L 286.560739 312.462373 
L 286.863355 304.711973 
L 287.064932 304.711973 
L 287.670015 322.634773 
L 288.779032 363.324364 
L 288.982078 110.22541 
L 289.283294 94.966805 
L 289.384413 93.755805 
L 289.888717 80.919219 
L 289.989485 80.919219 
L 290.090496 82.130219 
L 290.695207 100.053019 
L 290.897031 109.01441 
L 291.098754 109.01441 
L 291.199326 107.561214 
L 291.602578 96.177805 
L 291.905221 87.216414 
L 292.107198 82.130219 
L 292.409558 86.005414 
L 293.217789 115.311605 
L 293.317417 363.324364 
L 293.417903 357.027165 
L 293.621273 353.151966 
L 293.722653 354.362966 
L 293.922816 363.324364 
L 294.123782 109.01441 
L 294.32592 106.350214 
L 294.426469 106.350214 
L 294.630645 115.311605 
L 294.729539 363.324364 
L 294.830261 357.027165 
L 295.235299 340.315368 
L 295.33429 340.315368 
L 295.638956 345.401568 
L 295.939323 355.573966 
L 296.140835 362.113364 
L 296.342706 358.238165 
L 297.050469 341.768569 
L 297.453129 353.151966 
L 297.656035 362.113364 
L 297.855483 112.647409 
L 297.956034 111.43641 
L 298.057089 115.311605 
L 298.158049 364.535364 
L 298.258876 359.449165 
L 298.461157 353.151966 
L 298.56131 353.151966 
L 298.7633 358.238165 
L 298.863797 363.324364 
L 299.065489 110.22541 
L 299.268389 103.928215 
L 299.368271 101.264019 
L 299.468634 102.475019 
L 299.670673 112.647409 
L 299.771417 365.746364 
L 299.873565 363.324364 
L 299.972832 363.324364 
L 300.078509 365.746364 
L 300.275471 110.22541 
L 300.477197 102.475019 
L 300.681138 101.264019 
L 301.083981 114.100605 
L 301.183583 364.535364 
L 301.284554 363.324364 
L 301.384989 364.535364 
L 301.586511 111.43641 
L 301.789892 106.350214 
L 301.889035 106.350214 
L 301.99007 107.561214 
L 302.191711 116.522605 
L 302.295158 362.113364 
L 302.393397 357.027165 
L 302.595089 354.362966 
L 302.6959 355.573966 
L 302.998723 365.746364 
L 303.101251 364.535364 
L 303.50265 349.276766 
L 303.60352 349.276766 
L 303.805317 351.940967 
L 303.909704 354.362966 
L 304.107842 364.535364 
L 304.309469 116.522605 
L 304.410309 363.324364 
L 304.511579 359.449165 
L 304.71426 354.362966 
L 304.813747 354.362966 
L 305.117427 364.535364 
L 305.318362 109.01441 
L 305.419114 109.01441 
L 305.620513 116.522605 
L 305.721994 365.746364 
L 305.924088 112.647409 
L 306.22579 101.264019 
L 306.629169 106.350214 
L 306.830669 112.647409 
L 306.932584 112.647409 
L 307.234009 105.139214 
L 307.337076 106.350214 
L 307.536096 114.100605 
L 307.637912 365.746364 
L 307.73934 362.113364 
L 307.839036 362.113364 
L 307.940034 365.746364 
L 308.142654 107.561214 
L 308.242802 106.350214 
L 308.444356 109.01441 
L 308.54564 112.647409 
L 308.645837 365.746364 
L 308.747741 363.324364 
L 308.847716 363.324364 
L 308.94942 365.746364 
L 309.151056 110.22541 
L 309.250994 111.43641 
L 309.353943 114.100605 
L 309.452521 364.535364 
L 309.552977 359.449165 
L 309.756968 357.027165 
L 310.057578 365.746364 
L 310.15973 364.535364 
L 310.561904 353.151966 
L 310.662771 353.151966 
L 310.764734 355.573966 
L 310.967095 360.660165 
L 311.166941 357.027165 
L 311.370804 354.362966 
L 311.469623 354.362966 
L 311.771543 363.324364 
L 312.175355 354.362966 
L 312.276231 355.573966 
L 312.478413 362.113364 
L 312.679591 114.100605 
L 312.782353 112.647409 
L 312.881313 116.522605 
L 312.98432 365.746364 
L 313.184163 111.43641 
L 313.385601 103.928215 
L 313.587197 110.22541 
L 313.790141 116.522605 
L 314.191998 106.350214 
L 314.292688 107.561214 
L 314.595753 116.522605 
L 314.696855 115.311605 
L 314.897844 109.01441 
L 315.100036 109.01441 
L 315.301612 112.647409 
L 315.503207 109.01441 
L 315.705206 105.139214 
L 315.808251 105.139214 
L 316.108285 114.100605 
L 316.410665 109.01441 
L 316.511681 109.01441 
L 316.612138 114.100605 
L 316.713415 364.535364 
L 316.815339 362.113364 
L 316.914911 362.113364 
L 317.017933 365.746364 
L 317.116841 115.311605 
L 317.219705 365.746364 
L 317.318607 363.324364 
L 317.520224 355.573966 
L 317.823794 360.660165 
L 318.12524 353.151966 
L 318.227185 351.940967 
L 318.62957 355.573966 
L 318.833069 353.151966 
L 319.033992 355.573966 
L 319.234406 362.113364 
L 319.537454 357.027165 
L 319.738815 362.113364 
L 319.940237 112.647409 
L 320.142047 116.522605 
L 320.343871 365.746364 
L 320.545762 112.647409 
L 320.74721 116.522605 
L 320.849322 365.746364 
L 321.049725 112.647409 
L 321.151159 110.22541 
L 321.452812 116.522605 
L 321.654882 110.22541 
L 321.856057 106.350214 
L 321.957322 107.561214 
L 322.159261 110.22541 
L 322.562481 106.350214 
L 322.765297 110.22541 
L 322.864954 109.01441 
L 323.067487 106.350214 
L 323.1675 107.561214 
L 323.268431 111.43641 
L 323.672811 107.561214 
L 323.77298 107.561214 
L 323.974023 112.647409 
L 324.176782 110.22541 
L 324.377117 116.522605 
L 324.478128 362.113364 
L 324.579846 358.238165 
L 324.781191 358.238165 
L 325.184398 348.065766 
L 325.386594 350.487766 
L 325.688221 346.854767 
L 325.991224 350.487766 
L 326.192864 349.276766 
L 326.394509 351.940967 
L 326.596312 355.573966 
L 326.797936 355.573966 
L 327.101555 365.746364 
L 327.302171 114.100605 
L 327.503875 110.22541 
L 327.806349 105.139214 
L 328.008015 106.350214 
L 328.209781 103.928215 
L 328.512811 107.561214 
L 328.814787 103.928215 
L 329.016674 106.350214 
L 329.217721 102.475019 
L 329.319253 102.475019 
L 329.621828 106.350214 
L 329.723591 106.350214 
L 329.823504 105.139214 
L 330.125401 110.22541 
L 330.226985 110.22541 
L 330.327558 109.01441 
L 330.530339 116.522605 
L 330.630059 365.746364 
L 330.832171 116.522605 
L 330.933165 364.535364 
L 331.03351 360.660165 
L 331.135394 358.238165 
L 331.23518 359.449165 
L 331.437016 357.027165 
L 331.638512 351.940967 
L 331.839746 358.238165 
L 331.940588 363.324364 
L 332.142279 111.43641 
L 332.344962 101.264019 
L 332.547932 94.966805 
L 332.647209 94.966805 
L 333.050019 106.350214 
L 333.252067 116.522605 
L 333.352733 363.324364 
L 333.453482 359.449165 
L 333.555286 358.238165 
L 333.758422 359.449165 
L 333.857177 358.238165 
L 333.957882 355.573966 
L 334.159616 359.449165 
L 334.26046 359.449165 
L 334.361292 360.660165 
L 334.564159 359.449165 
L 334.663805 359.449165 
L 334.865573 360.660165 
L 335.067236 359.449165 
L 335.2689 360.660165 
L 335.470583 360.660165 
L 335.672575 359.449165 
L 335.87395 360.660165 
L 336.075705 359.449165 
L 336.27737 360.660165 
L 336.479053 360.660165 
L 336.580483 359.449165 
L 336.781174 360.660165 
L 336.882048 360.660165 
L 337.083817 359.449165 
L 337.285832 360.660165 
L 337.386636 359.449165 
L 337.487729 360.660165 
L 337.589264 359.449165 
L 337.790112 360.660165 
L 337.992845 359.449165 
L 338.092694 359.449165 
L 338.294355 360.660165 
L 338.496943 360.660165 
L 338.697717 359.449165 
L 338.798561 359.449165 
L 338.899322 360.660165 
L 339.101091 359.449165 
L 339.303074 359.449165 
L 339.706047 363.324364 
L 341.823337 363.324364 
L 342.02517 365.746364 
L 342.226854 107.561214 
L 342.529845 98.842019 
L 342.833433 87.216414 
L 343.235801 82.130219 
L 343.437565 77.044023 
L 343.53858 77.044023 
L 343.841871 71.957809 
L 343.94132 71.957809 
L 344.345174 68.32481 
L 344.748397 68.32481 
L 345.55549 89.88061 
L 346.160192 114.100605 
L 346.262126 364.535364 
L 346.361776 359.449165 
L 347.370343 323.845773 
L 347.672645 314.884373 
L 348.37893 292.117578 
L 348.481801 292.117578 
L 348.580564 293.328578 
L 349.287657 313.673373 
L 350.294953 349.276766 
L 350.395675 349.276766 
L 350.496167 350.487766 
L 350.699669 348.065766 
L 351.202487 332.807169 
L 351.304378 331.596169 
L 351.504785 334.018168 
L 352.210738 355.573966 
L 352.415121 365.746364 
L 352.61424 106.350214 
L 352.816041 94.966805 
L 352.917978 94.966805 
L 353.017331 93.755805 
L 353.824391 111.43641 
L 354.227958 100.053019 
L 354.832834 80.919219 
L 354.93566 79.708219 
L 355.136564 82.130219 
L 355.841387 98.842019 
L 356.648135 79.708219 
L 356.850099 82.130219 
L 357.35507 97.388805 
L 357.556947 102.475019 
L 357.656838 102.475019 
L 358.161885 91.09161 
L 358.365145 93.755805 
L 358.766973 106.350214 
L 358.967602 115.311605 
L 359.068373 363.324364 
L 359.168991 359.449165 
L 359.270294 358.238165 
L 359.471303 365.746364 
L 359.673435 114.100605 
L 359.774266 365.746364 
L 359.875085 362.113364 
L 360.280581 342.979569 
L 360.379463 340.315368 
L 360.783108 345.401568 
L 361.085529 353.151966 
L 361.187245 351.940967 
L 361.791714 337.893369 
L 361.891645 337.893369 
L 362.395895 350.487766 
L 362.799612 341.768569 
L 362.900324 341.768569 
L 363.102147 344.190568 
L 363.606476 357.027165 
L 363.908913 351.940967 
L 364.112369 349.276766 
L 364.211453 349.276766 
L 364.514006 359.449165 
L 364.715309 364.535364 
L 364.819908 363.324364 
L 365.119307 354.362966 
L 365.220978 353.151966 
L 365.421283 354.362966 
L 365.624451 363.324364 
L 365.825018 111.43641 
L 365.926011 110.22541 
L 366.127497 116.522605 
L 366.329732 364.535364 
L 366.531913 111.43641 
L 366.833441 101.264019 
L 366.933996 101.264019 
L 367.236801 109.01441 
L 367.337599 109.01441 
L 367.742177 97.388805 
L 367.944646 97.388805 
L 368.245244 103.928215 
L 368.648952 96.177805 
L 368.749558 93.755805 
L 368.951787 97.388805 
L 369.255771 103.928215 
L 369.354698 103.928215 
L 369.555832 98.842019 
L 369.6572 97.388805 
L 369.858767 101.264019 
L 370.06044 106.350214 
L 370.262166 107.561214 
L 370.463454 102.475019 
L 370.564779 103.928215 
L 370.665558 102.475019 
L 371.069043 114.100605 
L 371.270519 109.01441 
L 371.47338 110.22541 
L 371.573193 114.100605 
L 371.673889 364.535364 
L 371.774857 359.449165 
L 371.976124 357.027165 
L 372.278502 364.535364 
L 372.379441 363.324364 
L 372.783405 351.940967 
L 373.085823 355.573966 
L 373.287536 351.940967 
L 373.590053 348.065766 
L 373.892573 353.151966 
L 374.094767 350.487766 
L 374.297051 346.854767 
L 374.497161 350.487766 
L 374.698964 353.151966 
L 374.902109 350.487766 
L 375.103899 346.854767 
L 375.30546 350.487766 
L 375.506186 354.362966 
L 375.607012 353.151966 
L 375.80859 350.487766 
L 376.010223 354.362966 
L 376.211685 357.027165 
L 376.313988 357.027165 
L 376.516688 354.362966 
L 376.61552 355.573966 
L 376.818197 363.324364 
L 377.019895 112.647409 
L 377.119184 111.43641 
L 377.220539 112.647409 
L 377.423304 109.01441 
L 377.623978 102.475019 
L 377.724723 102.475019 
L 378.027285 106.350214 
L 378.330399 103.928215 
L 378.430649 103.928215 
L 378.632461 111.43641 
L 379.036889 106.350214 
L 379.440193 116.522605 
L 379.74156 111.43641 
L 379.843585 112.647409 
L 380.046404 116.522605 
L 380.145079 115.311605 
L 380.346708 110.22541 
L 380.549498 116.522605 
L 380.649288 363.324364 
L 380.751288 360.660165 
L 381.052527 364.535364 
L 381.355119 357.027165 
L 381.658465 364.535364 
L 381.960486 355.573966 
L 382.060656 357.027165 
L 382.2622 365.746364 
L 382.463977 114.100605 
L 382.667282 116.522605 
L 382.968749 109.01441 
L 383.069122 110.22541 
L 383.271286 115.311605 
L 383.573626 109.01441 
L 383.876048 116.522605 
L 384.178743 110.22541 
L 384.481308 116.522605 
L 384.784923 110.22541 
L 384.986732 116.522605 
L 385.086324 365.746364 
L 385.288053 112.647409 
L 385.388627 110.22541 
L 385.590448 116.522605 
L 385.692569 365.746364 
L 385.89302 115.311605 
L 385.996187 365.746364 
L 386.094928 362.113364 
L 386.296398 359.449165 
L 386.499301 364.535364 
L 386.599234 363.324364 
L 386.800769 358.238165 
L 386.901195 359.449165 
L 387.104707 364.535364 
L 387.203646 363.324364 
L 387.406861 357.027165 
L 387.506636 357.027165 
L 387.607758 359.449165 
L 387.810291 355.573966 
L 387.912355 355.573966 
L 388.21446 359.449165 
L 388.413896 358.238165 
L 388.617097 364.535364 
L 388.716813 116.522605 
L 388.819099 365.746364 
L 388.91834 362.113364 
L 389.019334 359.449165 
L 389.221134 365.746364 
L 389.323171 115.311605 
L 389.422622 116.522605 
L 389.524207 116.522605 
L 389.82558 109.01441 
L 389.926393 110.22541 
L 390.130075 107.561214 
L 390.330333 102.475019 
L 390.431117 103.928215 
L 390.632806 109.01441 
L 390.834875 106.350214 
L 391.138309 115.311605 
L 391.340035 111.43641 
L 391.439263 115.311605 
L 391.540469 364.535364 
L 391.640933 362.113364 
L 392.044707 355.573966 
L 392.245979 353.151966 
L 392.447534 362.113364 
L 392.649318 110.22541 
L 393.053217 92.302609 
L 393.254883 88.66961 
L 393.456573 82.130219 
L 394.364116 107.561214 
L 394.566965 116.522605 
L 394.667744 362.113364 
L 394.76751 355.573966 
L 395.071244 348.065766 
L 395.876899 357.027165 
L 395.977641 355.573966 
L 396.179404 357.027165 
L 396.483151 357.027165 
L 396.58447 358.238165 
L 396.684699 355.573966 
L 396.88539 357.027165 
L 397.088062 357.027165 
L 397.1878 355.573966 
L 397.389482 357.027165 
L 397.592292 357.027165 
L 397.69345 355.573966 
L 397.893976 358.238165 
L 398.095463 357.027165 
L 399.103866 357.027165 
L 399.20471 358.238165 
L 399.305493 355.573966 
L 399.50726 357.027165 
L 399.609245 357.027165 
L 399.809486 358.238165 
L 399.912522 357.027165 
L 400.112356 360.660165 
L 400.314075 363.324364 
L 402.330484 363.324364 
L 402.431296 364.535364 
L 402.632984 112.647409 
L 402.937151 101.264019 
L 403.036524 98.842019 
L 403.238507 89.88061 
L 404.246993 60.574419 
L 404.650383 49.191028 
L 404.95403 46.526814 
L 405.154106 46.526814 
L 405.558036 53.066205 
L 405.860521 61.785419 
L 406.971129 100.053019 
L 407.172676 107.561214 
L 407.372668 116.522605 
L 407.474006 360.660165 
L 407.574893 355.573966 
L 407.978302 340.315368 
L 408.885739 311.251373 
L 409.289224 299.625777 
L 409.59223 304.711973 
L 410.196717 325.056773 
L 410.703109 336.682369 
L 410.803766 335.229168 
L 411.50781 312.462373 
L 411.608667 311.251373 
L 411.910702 301.078973 
L 412.11298 301.078973 
L 412.515832 312.462373 
L 413.120973 332.807169 
L 413.424771 340.315368 
L 413.726476 336.682369 
L 414.029842 327.720971 
L 414.129782 326.509969 
L 414.331972 328.931971 
L 414.836826 344.190568 
L 415.341285 364.535364 
L 415.541689 110.22541 
L 415.743397 103.928215 
L 415.844413 106.350214 
L 416.045896 116.522605 
L 416.247536 364.535364 
L 416.449183 112.647409 
L 417.256067 86.005414 
L 417.357982 86.005414 
L 417.861062 98.842019 
L 418.769799 77.044023 
L 419.071539 80.919219 
L 419.374842 91.09161 
L 419.577423 91.09161 
L 419.676678 89.88061 
L 420.182491 78.497219 
L 420.281424 78.497219 
L 421.088084 97.388805 
L 421.491452 89.88061 
L 421.594016 89.88061 
L 421.99565 100.053019 
L 422.198502 106.350214 
L 422.399003 107.561214 
L 422.600239 103.928215 
L 422.802024 100.053019 
L 423.306804 114.100605 
L 423.40861 363.324364 
L 423.50808 359.449165 
L 423.610354 360.660165 
L 423.71117 363.324364 
L 423.912836 111.43641 
L 424.113447 109.01441 
L 424.21536 111.43641 
L 424.315102 116.522605 
L 424.417351 363.324364 
L 424.516325 357.027165 
L 424.718748 350.487766 
L 424.819351 349.276766 
L 425.122049 357.027165 
L 425.728064 342.979569 
L 425.827642 341.768569 
L 426.029501 345.401568 
L 426.231229 348.065766 
L 426.432847 345.401568 
L 426.836246 336.682369 
L 426.93715 336.682369 
L 427.340337 345.401568 
L 427.54176 342.979569 
L 427.84468 337.893369 
L 428.048166 340.315368 
L 428.348912 346.854767 
L 428.452274 346.854767 
L 428.754789 340.315368 
L 429.35742 354.362966 
L 429.558703 351.940967 
L 429.66102 353.151966 
L 429.760788 351.940967 
L 430.063105 363.324364 
L 430.266088 111.43641 
L 430.36567 111.43641 
L 430.568615 114.100605 
L 431.071398 102.475019 
L 431.475226 107.561214 
L 431.575579 107.561214 
L 431.979363 98.842019 
L 432.182787 101.264019 
L 432.382651 105.139214 
L 432.483297 105.139214 
L 432.785691 98.842019 
L 432.987496 102.475019 
L 433.190101 106.350214 
L 433.290409 105.139214 
L 433.592954 98.842019 
L 433.795257 102.475019 
L 433.996305 106.350214 
L 434.097131 106.350214 
L 434.298815 101.264019 
L 434.399376 100.053019 
L 434.703465 106.350214 
L 434.903914 106.350214 
L 435.208163 101.264019 
L 435.409243 103.928215 
L 435.609771 107.561214 
L 435.712042 107.561214 
L 435.912027 103.928215 
L 436.014232 105.139214 
L 436.216011 112.647409 
L 436.316048 365.746364 
L 436.416782 363.324364 
L 436.518503 364.535364 
L 436.719113 114.100605 
L 436.821151 116.522605 
L 436.921869 363.324364 
L 437.022722 358.238165 
L 437.223296 357.027165 
L 437.32411 360.660165 
L 437.424955 359.449165 
L 437.626364 354.362966 
L 437.828431 353.151966 
L 438.130941 357.027165 
L 438.535422 350.487766 
L 438.836838 354.362966 
L 439.039728 351.940967 
L 439.240901 348.065766 
L 439.341088 349.276766 
L 439.543882 351.940967 
L 439.845241 348.065766 
L 440.046976 350.487766 
L 440.248981 354.362966 
L 440.349535 354.362966 
L 440.55238 351.940967 
L 440.752923 354.362966 
L 440.956806 360.660165 
L 441.257122 355.573966 
L 441.561571 359.449165 
L 441.660508 359.449165 
L 441.863372 355.573966 
L 442.16467 364.535364 
L 442.266721 116.522605 
L 442.469518 365.746364 
L 442.669141 109.01441 
L 442.870178 105.139214 
L 443.071885 105.139214 
L 443.173877 106.350214 
L 443.476772 103.928215 
L 443.577593 105.139214 
L 443.677366 109.01441 
L 443.979888 105.139214 
L 444.080423 105.139214 
L 444.181281 106.350214 
L 444.38288 109.01441 
L 444.685522 105.139214 
L 444.887435 109.01441 
L 444.98785 109.01441 
L 445.191891 107.561214 
L 445.39136 106.350214 
L 445.593599 111.43641 
L 445.895567 106.350214 
L 445.99909 107.561214 
L 446.19859 110.22541 
L 446.401281 109.01441 
L 446.703209 116.522605 
L 446.803507 115.311605 
L 447.005297 110.22541 
L 447.307665 116.522605 
L 447.609896 110.22541 
L 447.811661 115.311605 
L 447.912494 365.746364 
L 448.114182 115.311605 
L 448.215045 365.746364 
L 448.316038 362.113364 
L 448.517482 359.449165 
L 448.719236 363.324364 
L 448.820292 362.113364 
L 449.021803 358.238165 
L 449.12264 359.449165 
L 449.425585 353.151966 
L 449.7282 355.573966 
L 449.930918 351.940967 
L 450.131578 351.940967 
L 450.332879 354.362966 
L 450.434058 354.362966 
L 450.535961 353.151966 
L 450.837395 359.449165 
L 451.038741 357.027165 
L 451.139966 355.573966 
L 451.341634 357.027165 
L 451.542832 353.151966 
L 451.643724 353.151966 
L 451.946287 357.027165 
L 452.047433 354.362966 
L 452.14797 355.573966 
L 452.452818 362.113364 
L 452.65247 360.660165 
L 452.753006 363.324364 
L 452.956649 110.22541 
L 453.862472 78.497219 
L 454.265589 70.74681 
L 454.36652 70.74681 
L 454.972053 88.66961 
L 455.677985 116.522605 
L 455.780269 362.113364 
L 455.879598 357.027165 
L 456.284126 341.768569 
L 456.383548 341.768569 
L 456.484717 340.315368 
L 456.888432 346.854767 
L 457.089811 349.276766 
L 457.493181 353.151966 
L 457.694889 353.151966 
L 457.796871 354.362966 
L 457.99689 353.151966 
L 458.198838 354.362966 
L 458.703318 354.362966 
L 458.806045 353.151966 
L 458.905026 354.362966 
L 459.006953 353.151966 
L 459.207223 354.362966 
L 459.309592 353.151966 
L 459.509623 354.362966 
L 459.913255 354.362966 
L 460.015524 353.151966 
L 460.215614 354.362966 
L 460.417305 354.362966 
L 460.51863 355.573966 
L 460.921605 363.324364 
L 462.637412 363.324364 
L 462.837539 362.839964 
L 462.938927 365.746364 
L 463.141775 111.678606 
L 463.645951 99.568608 
L 463.949579 99.568608 
L 464.453939 93.513609 
L 464.653115 93.513609 
L 464.854915 90.607217 
L 465.056503 89.154021 
L 465.56099 89.154021 
L 465.963667 95.20902 
L 466.367259 107.319018 
L 466.468237 113.374017 
L 466.57046 364.293164 
L 466.671277 358.238165 
L 467.174295 338.619969 
L 468.384069 303.743174 
L 468.686517 306.891776 
L 469.190794 325.056773 
L 469.291708 326.509969 
L 469.795883 344.674968 
L 470.098809 355.331765 
L 470.300161 364.293164 
L 470.50216 107.319018 
L 470.70537 96.662216 
L 471.107048 86.005414 
L 471.20777 84.552218 
L 471.409485 79.950415 
L 471.611151 83.099022 
L 472.317052 105.623607 
L 472.417712 111.678606 
L 472.620372 108.772214 
L 473.527543 81.403611 
L 473.729138 81.403611 
L 474.031619 90.607217 
L 474.233743 98.115412 
L 474.636729 114.827213 
L 474.737545 365.746364 
L 474.838324 359.691365 
L 475.040133 352.183166 
L 475.241769 352.183166 
L 475.443508 365.746364 
L 475.645092 107.319018 
L 475.847071 105.623607 
L 475.947737 105.623607 
L 476.048535 111.678606 
L 476.149394 365.746364 
L 476.250155 361.386765 
L 476.653802 341.526368 
L 476.855233 338.619969 
L 476.956189 340.073167 
L 477.359555 353.636366 
L 477.6622 362.839964 
L 478.468654 340.073167 
L 479.17449 364.293164 
L 479.376032 111.678606 
L 479.47706 111.678606 
L 479.578341 116.280409 
L 479.681264 362.839964 
L 479.781074 356.784965 
L 479.981333 350.729967 
L 480.283819 359.691365 
L 480.386169 365.746364 
L 480.58629 107.319018 
L 480.788461 99.568608 
L 480.888854 101.264019 
L 481.090527 108.772214 
L 481.191741 114.827213 
L 481.292175 364.293164 
L 481.393511 359.691365 
L 481.594832 364.293164 
L 481.796902 107.319018 
L 481.897658 105.623607 
L 482.101649 101.264019 
L 482.401944 105.623607 
L 482.604301 116.280409 
L 482.704108 364.293164 
L 482.905664 111.678606 
L 483.208288 101.264019 
L 483.309126 101.264019 
L 483.510764 104.170411 
L 483.712561 111.678606 
L 483.81371 365.746364 
L 483.914336 361.386765 
L 484.116072 358.238165 
L 484.216619 362.839964 
L 484.418528 111.678606 
L 484.519353 107.319018 
L 484.620148 108.772214 
L 484.721222 113.374017 
L 484.822557 365.746364 
L 484.924511 359.691365 
L 485.124811 353.636366 
L 485.427255 359.691365 
L 485.529196 365.746364 
L 485.729375 108.772214 
L 485.830271 108.772214 
L 485.931651 110.22541 
L 486.032007 114.827213 
L 486.133267 362.839964 
L 486.234168 359.691365 
L 486.336531 358.238165 
L 486.43702 362.839964 
L 486.639602 110.22541 
L 486.738595 107.319018 
L 486.939522 111.678606 
L 487.040453 116.280409 
L 487.141327 361.386765 
L 487.242179 353.636366 
L 487.343059 353.636366 
L 487.647059 359.691365 
L 487.747841 365.746364 
L 487.948469 114.827213 
L 488.05033 365.746364 
L 488.150127 361.386765 
L 488.35174 355.331765 
L 488.454728 355.331765 
L 488.654324 364.293164 
L 488.855698 111.678606 
L 488.956769 111.678606 
L 489.057705 116.280409 
L 489.158601 362.839964 
L 489.25906 358.238165 
L 489.360105 358.238165 
L 489.460677 364.293164 
L 489.662753 108.772214 
L 489.765319 107.319018 
L 489.965159 110.22541 
L 490.067319 114.827213 
L 490.167111 364.293164 
L 490.269694 359.691365 
L 490.368816 358.238165 
L 490.469511 362.839964 
L 490.671211 113.374017 
L 490.773017 113.374017 
L 490.872745 116.280409 
L 490.973325 361.386765 
L 491.074099 355.331765 
L 491.175019 353.636366 
L 491.27574 355.331765 
L 491.578501 364.293164 
L 491.981588 355.331765 
L 492.082737 355.331765 
L 492.285837 364.293164 
L 492.48758 111.678606 
L 492.58742 111.678606 
L 492.688075 114.827213 
L 492.789012 364.293164 
L 492.890026 361.386765 
L 492.992112 361.386765 
L 493.091485 365.746364 
L 493.293203 110.22541 
L 493.393523 111.678606 
L 493.496028 116.280409 
L 493.597782 362.839964 
L 493.696599 359.691365 
L 493.798491 359.691365 
L 493.899759 364.293164 
L 494.100026 110.22541 
L 494.200752 111.678606 
L 494.302783 114.827213 
L 494.403593 364.293164 
L 494.50478 359.691365 
L 494.604357 359.691365 
L 494.704902 364.293164 
L 494.907798 110.22541 
L 495.10843 114.827213 
L 495.209125 364.293164 
L 495.311182 359.691365 
L 495.511661 364.293164 
L 495.713455 110.22541 
L 495.814631 111.678606 
L 495.915926 116.280409 
L 496.016061 362.839964 
L 496.116522 358.238165 
L 496.217282 359.691365 
L 496.317904 362.839964 
L 496.519608 113.374017 
L 496.620534 114.827213 
L 496.721365 365.746364 
L 496.822402 364.293164 
L 497.024055 111.678606 
L 497.32694 104.170411 
L 497.52978 114.827213 
L 497.629394 364.293164 
L 497.831793 111.678606 
L 497.932231 111.678606 
L 498.133879 116.280409 
L 498.234721 361.386765 
L 498.336657 356.784965 
L 498.436232 358.238165 
L 498.638828 364.293164 
L 499.041461 350.729967 
L 499.141716 352.183166 
L 499.345348 356.784965 
L 499.444688 356.784965 
L 499.645804 353.636366 
L 500.049317 365.746364 
L 500.151775 364.293164 
L 500.3535 358.238165 
L 500.453115 359.691365 
L 500.554025 364.293164 
L 500.755845 110.22541 
L 500.856612 110.22541 
L 501.059229 116.280409 
L 501.160633 114.827213 
L 501.46131 102.717215 
L 501.763709 110.22541 
L 501.864893 108.772214 
L 501.96586 105.623607 
L 502.268325 111.678606 
L 502.672443 107.319018 
L 502.87457 111.678606 
L 502.973815 116.280409 
L 503.176196 365.746364 
L 503.27644 365.746364 
L 503.680213 353.636366 
L 503.88195 356.784965 
L 503.984964 356.784965 
L 504.185587 353.636366 
L 504.285246 353.636366 
L 504.587636 358.238165 
L 504.890035 355.331765 
L 504.99086 355.331765 
L 505.192984 359.691365 
L 505.396365 355.331765 
L 505.495528 355.331765 
L 505.799063 362.839964 
L 505.999846 359.691365 
L 506.101696 364.293164 
L 506.304306 108.772214 
L 506.505043 107.319018 
L 506.605883 107.319018 
L 506.806461 101.264019 
L 507.008256 105.623607 
L 507.209869 108.772214 
L 507.310636 107.319018 
L 507.511855 104.170411 
L 507.814567 108.772214 
L 508.116981 105.623607 
L 508.419587 111.678606 
L 508.621255 110.22541 
L 508.721902 113.374017 
L 508.825521 364.293164 
L 508.923814 361.386765 
L 509.02496 362.839964 
L 509.22643 116.280409 
L 509.327562 364.293164 
L 509.429799 359.691365 
L 509.530849 358.238165 
L 509.629762 359.691365 
L 509.832219 355.331765 
L 510.032873 352.183166 
L 510.23458 358.238165 
L 510.436394 355.331765 
L 510.638002 359.691365 
L 510.839775 365.746364 
L 511.041469 361.386765 
L 511.142826 365.746364 
L 511.344381 110.22541 
L 511.445538 111.678606 
L 511.646972 116.280409 
L 511.848797 113.374017 
L 511.949573 116.280409 
L 512.052091 362.839964 
L 512.152332 358.238165 
L 512.253187 358.238165 
L 512.352911 359.691365 
L 512.655454 353.636366 
L 512.75604 355.331765 
L 512.857059 359.691365 
L 513.058855 358.238165 
L 513.159699 358.238165 
L 513.36141 365.746364 
L 513.563067 107.319018 
L 513.867115 95.20902 
L 514.067383 89.154021 
L 514.169723 87.45861 
L 514.470502 93.513609 
L 514.874083 107.319018 
L 514.974757 114.827213 
L 515.075766 364.293164 
L 515.17625 358.238165 
L 515.58001 353.636366 
L 515.782736 359.691365 
L 515.882673 359.691365 
L 515.982848 358.238165 
L 516.285934 361.386765 
L 516.487564 359.691365 
L 516.890524 359.691365 
L 516.991541 358.238165 
L 517.193069 359.691365 
L 518.403648 359.691365 
L 518.504455 361.386765 
L 518.705879 359.691365 
L 520.924808 359.691365 
L 521.128687 362.839964 
L 521.430632 362.839964 
L 521.630552 364.293164 
L 523.344639 364.293164 
L 523.445882 365.746364 
L 523.647449 110.22541 
L 524.051262 96.662216 
L 524.35346 86.005414 
L 525.666467 67.840417 
L 525.765379 69.293614 
L 525.867452 67.840417 
L 525.968126 69.293614 
L 526.168688 67.840417 
L 526.371582 70.989024 
L 527.580139 108.772214 
L 527.681204 114.827213 
L 527.781907 361.386765 
L 527.882936 356.784965 
L 528.185182 343.221767 
L 528.386895 338.619969 
L 530.000859 291.633176 
L 531.916543 352.183166 
L 532.017351 350.729967 
L 532.723557 331.111769 
L 532.925283 331.111769 
L 533.731729 356.784965 
L 533.833216 362.839964 
L 534.034509 108.772214 
L 534.137741 105.623607 
L 534.337331 95.20902 
L 534.437582 93.513609 
L 534.842569 101.264019 
L 535.144146 108.772214 
L 535.446318 104.170411 
L 536.454664 73.895416 
L 536.555685 75.348612 
L 536.757086 79.950415 
L 537.262813 98.115412 
L 537.365038 96.662216 
L 537.463027 96.662216 
L 537.564232 95.20902 
L 537.967257 81.403611 
L 538.370688 89.154021 
L 538.978309 108.772214 
L 539.077043 107.319018 
L 539.177986 108.772214 
L 539.38061 102.717215 
L 539.480389 101.264019 
L 539.681686 96.662216 
L 539.782454 98.115412 
L 540.286898 114.827213 
L 540.38766 362.839964 
L 540.488458 356.784965 
L 540.69 350.729967 
L 540.791065 350.729967 
L 540.892003 352.183166 
L 541.194225 365.746364 
L 542.001501 343.221767 
L 542.205686 346.128166 
L 542.606608 356.784965 
L 542.708474 355.331765 
L 543.311819 340.073167 
L 543.513745 343.221767 
L 543.816149 352.183166 
L 543.916874 353.636366 
L 544.118756 349.276766 
L 544.426226 344.674968 
L 544.522376 344.674968 
L 545.12764 364.293164 
L 545.631899 350.729967 
L 545.733738 352.183166 
L 546.03548 364.293164 
L 546.238687 111.678606 
L 546.3377 113.374017 
L 546.439651 365.746364 
L 546.539407 361.386765 
L 546.742365 355.331765 
L 546.841606 355.331765 
L 546.943948 358.238165 
L 547.043737 364.293164 
L 547.246423 108.772214 
L 547.34568 105.623607 
L 547.547836 110.22541 
L 547.749546 116.280409 
L 548.3542 101.264019 
L 548.455497 101.264019 
L 548.858663 111.678606 
L 549.060543 107.319018 
L 549.36308 101.264019 
L 549.564743 105.623607 
L 549.665609 108.772214 
L 550.069861 102.717215 
L 550.27177 99.568608 
L 550.372237 98.115412 
L 550.776786 108.772214 
L 550.875971 107.319018 
L 551.178299 101.264019 
L 551.682139 114.827213 
L 552.086017 105.623607 
L 552.292243 110.22541 
L 552.38856 116.280409 
L 552.49049 361.386765 
L 552.589752 358.238165 
L 552.690518 359.691365 
L 552.892116 364.293164 
L 553.39697 347.581367 
L 553.799707 359.691365 
L 554.102879 353.636366 
L 554.304423 352.183166 
L 554.505952 361.386765 
L 555.010075 352.183166 
L 555.41337 361.386765 
L 555.71656 353.636366 
L 555.91804 353.636366 
L 556.119614 362.839964 
L 556.220387 361.386765 
L 556.422731 356.784965 
L 556.623714 353.636366 
L 556.830242 358.238165 
L 557.027212 364.293164 
L 557.229107 358.238165 
L 557.331018 358.238165 
L 557.430752 359.691365 
L 557.531501 364.293164 
L 557.733195 111.678606 
L 557.835191 113.374017 
L 557.935171 365.746364 
L 558.035545 364.293164 
L 558.236864 111.678606 
L 558.438475 105.623607 
L 558.640107 108.772214 
L 558.740986 114.827213 
L 558.841809 365.746364 
L 559.043688 111.678606 
L 559.14436 110.22541 
L 559.245443 114.827213 
L 559.346281 365.746364 
L 559.447043 359.691365 
L 559.649197 358.238165 
L 559.851327 362.839964 
L 560.253922 350.729967 
L 560.556664 356.784965 
L 560.65785 356.784965 
L 560.859408 353.636366 
L 561.264373 365.746364 
L 561.565446 359.691365 
L 561.767421 364.293164 
L 561.970654 111.678606 
L 562.171794 111.678606 
L 562.473532 101.264019 
L 562.675723 102.717215 
L 562.876306 107.319018 
L 563.183549 102.717215 
L 563.481083 107.319018 
L 563.784213 101.264019 
L 563.985644 104.170411 
L 564.188408 107.319018 
L 564.489838 102.717215 
L 564.691134 107.319018 
L 564.792358 107.319018 
L 565.094855 102.717215 
L 565.296188 107.319018 
L 565.399786 107.319018 
L 565.599827 104.170411 
L 565.701133 104.170411 
L 565.90216 108.772214 
L 566.204258 108.772214 
L 566.406126 116.280409 
L 566.508763 362.839964 
L 566.607605 359.691365 
L 566.810692 359.691365 
L 567.213764 349.276766 
L 567.414173 353.636366 
L 567.616031 349.276766 
L 567.820705 349.276766 
L 568.021627 352.183166 
L 568.120414 352.183166 
L 568.32391 349.276766 
L 568.624175 353.636366 
L 568.826229 352.183166 
L 569.128812 356.784965 
L 569.431406 353.636366 
L 569.734951 358.238165 
L 569.834725 356.784965 
L 569.937037 358.238165 
L 570.13723 365.746364 
L 570.239069 116.280409 
L 570.338357 364.293164 
L 570.439622 359.691365 
L 570.541658 359.691365 
L 570.742524 365.746364 
L 570.844323 116.280409 
L 571.046789 364.293164 
L 571.247546 110.22541 
L 571.550108 110.22541 
L 571.751786 102.717215 
L 571.852634 104.170411 
L 572.15411 110.22541 
L 572.356843 108.772214 
L 572.658352 116.280409 
L 572.860297 114.827213 
L 572.963423 365.746364 
L 573.061779 361.386765 
L 573.162679 358.238165 
L 573.263379 359.691365 
L 573.464793 365.746364 
L 573.666811 362.839964 
L 573.868447 111.678606 
L 574.37486 93.513609 
L 574.879804 79.950415 
L 575.179454 86.005414 
L 575.887431 110.22541 
L 575.985913 114.827213 
L 576.087118 361.386765 
L 576.187546 356.784965 
L 576.389368 347.581367 
L 576.489915 346.128166 
L 576.591287 347.581367 
L 576.792925 352.183166 
L 576.893815 352.183166 
L 577.196293 355.331765 
L 577.296763 355.331765 
L 577.501077 356.784965 
L 577.801496 356.784965 
L 577.902185 358.238165 
L 578.00313 356.784965 
L 578.10398 358.238165 
L 578.306158 356.784965 
L 578.809334 356.784965 
L 578.910185 358.238165 
L 579.112449 356.784965 
L 579.212821 358.238165 
L 579.41613 356.784965 
L 579.617693 356.784965 
L 579.717511 358.238165 
L 579.920314 356.784965 
L 580.121924 356.784965 
L 580.222231 358.238165 
L 580.3241 356.784965 
L 580.428312 358.238165 
L 580.627938 356.784965 
L 580.826936 356.784965 
L 580.927316 358.238165 
L 581.129292 356.784965 
L 581.22978 358.238165 
L 581.431435 356.784965 
L 581.532311 358.238165 
L 581.73547 362.839964 
L 581.936684 362.839964 
L 582.140592 364.293164 
L 583.851816 364.293164 
L 583.95298 365.746364 
L 584.155747 110.22541 
L 584.458288 101.264019 
L 584.65927 92.060413 
L 584.759786 90.607217 
L 586.173702 48.222206 
L 586.373104 46.769029 
L 586.575166 46.769029 
L 586.676936 45.073636 
L 586.978258 51.128635 
L 588.592887 104.170411 
L 588.793507 113.374017 
L 588.894446 364.293164 
L 588.995169 358.238165 
L 589.601453 335.471369 
L 589.803048 331.111769 
L 590.810517 299.141376 
L 592.120897 337.166768 
L 592.221801 337.166768 
L 593.532719 299.141376 
L 593.736452 303.743174 
L 594.944689 343.221767 
L 595.549676 326.509969 
L 595.751683 326.509969 
L 596.662539 355.331765 
L 596.862411 365.746364 
L 597.063961 105.623607 
L 597.164725 101.264019 
L 597.2645 102.717215 
L 597.46624 111.678606 
L 597.567055 365.746364 
L 597.669754 362.839964 
L 597.768742 364.293164 
L 597.972452 108.772214 
L 598.777621 86.005414 
L 598.978525 89.154021 
L 599.383347 99.568608 
L 599.687927 93.513609 
L 600.289989 77.044023 
L 600.896047 93.513609 
L 601.097039 93.513609 
L 601.298303 89.154021 
L 601.702795 78.497219 
L 601.802529 78.497219 
L 602.105145 87.45861 
L 602.509517 98.115412 
L 602.609261 98.115412 
L 602.91182 90.607217 
L 603.012311 90.607217 
L 603.315177 95.20902 
L 603.71815 108.772214 
L 603.819323 110.22541 
L 603.920103 108.772214 
L 604.323654 99.568608 
L 604.626071 105.623607 
L 604.726992 110.22541 
L 604.827732 365.746364 
L 604.928715 361.386765 
L 605.130322 359.691365 
L 605.233234 364.293164 
L 605.433135 108.772214 
L 605.533886 105.623607 
L 605.634712 107.319018 
L 605.836497 116.280409 
L 605.938274 361.386765 
L 606.039114 356.784965 
L 606.23975 349.276766 
L 606.340608 349.276766 
L 606.643071 356.784965 
L 606.745006 356.784965 
L 607.249325 343.221767 
L 607.349077 341.526368 
L 607.752362 349.276766 
L 608.155819 338.619969 
L 608.357399 337.166768 
L 608.558744 340.073167 
L 608.861715 346.128166 
L 608.962495 344.674968 
L 609.265277 338.619969 
L 609.365904 338.619969 
L 609.870144 350.729967 
L 610.071455 347.581367 
L 610.172643 343.221767 
L 610.475238 347.581367 
L 610.779311 355.331765 
L 611.081463 347.581367 
L 611.486727 355.331765 
L 611.686423 364.293164 
L 611.785848 365.746364 
L 612.089213 358.238165 
L 612.290466 365.746364 
L 612.492093 107.319018 
L 612.697025 99.568608 
L 612.895515 105.623607 
L 613.097185 105.623607 
L 613.500489 96.662216 
L 613.6014 98.115412 
L 613.904013 104.170411 
L 614.004875 102.717215 
L 614.206576 98.115412 
L 614.407701 98.115412 
L 614.711854 104.170411 
L 614.811571 104.170411 
L 615.014014 98.115412 
L 615.316877 101.264019 
L 615.517537 105.623607 
L 615.720229 102.717215 
L 615.921024 99.568608 
L 616.021663 99.568608 
L 616.324728 105.623607 
L 616.425078 105.623607 
L 616.72874 99.568608 
L 616.929318 102.717215 
L 617.030805 107.319018 
L 617.232915 105.623607 
L 617.433246 104.170411 
L 617.535575 105.623607 
L 617.836549 116.280409 
L 617.937863 365.746364 
L 618.140606 111.678606 
L 618.239936 111.678606 
L 618.340812 113.374017 
L 618.441962 365.746364 
L 618.543952 361.386765 
L 618.745678 359.691365 
L 618.946199 364.293164 
L 619.351519 350.729967 
L 619.652111 358.238165 
L 619.754056 356.784965 
L 620.056606 350.729967 
L 620.258316 355.331765 
L 620.357668 355.331765 
L 620.76249 349.276766 
L 621.065104 353.636366 
L 621.164868 352.183166 
L 621.366573 347.581367 
L 621.467203 347.581367 
L 621.771007 353.636366 
L 621.973417 349.276766 
L 622.073494 349.276766 
L 622.275262 353.636366 
L 622.475528 356.784965 
L 622.577776 355.331765 
L 622.677465 352.183166 
L 623.080693 356.784965 
L 623.181576 356.784965 
L 623.383512 353.636366 
L 623.586169 358.238165 
L 623.787849 364.293164 
L 623.988076 361.386765 
L 624.090409 364.293164 
L 624.290364 108.772214 
L 624.391391 105.623607 
L 624.592987 107.319018 
L 624.795081 107.319018 
L 624.896195 104.170411 
L 625.101429 107.319018 
L 625.198544 110.22541 
L 625.603053 105.623607 
L 625.904578 110.22541 
L 626.20707 105.623607 
L 626.410218 110.22541 
L 626.509548 110.22541 
L 626.711557 107.319018 
L 626.813229 105.623607 
L 627.115747 110.22541 
L 627.418323 105.623607 
L 627.620032 111.678606 
L 627.721949 111.678606 
L 627.921528 110.22541 
L 628.023361 113.374017 
L 628.124227 365.746364 
L 628.223607 364.293164 
L 628.426747 111.678606 
L 628.52758 110.22541 
L 628.728271 116.280409 
L 628.830074 364.293164 
L 629.031921 111.678606 
L 629.131154 111.678606 
L 629.232349 113.374017 
L 629.333228 365.746364 
L 629.435166 364.293164 
L 629.636163 116.280409 
L 629.736536 362.839964 
L 629.838624 359.691365 
L 629.939457 358.238165 
L 630.039179 359.691365 
L 630.241001 364.293164 
L 630.543247 358.238165 
L 630.645379 358.238165 
L 630.744605 356.784965 
L 630.947901 353.636366 
L 631.047598 353.636366 
L 631.351336 359.691365 
L 631.551498 358.238165 
L 631.753488 364.293164 
L 631.855566 116.280409 
L 632.055919 364.293164 
L 632.257813 110.22541 
L 632.359172 108.772214 
L 632.662221 116.280409 
L 632.86263 113.374017 
L 632.964857 116.280409 
L 633.064251 362.839964 
L 633.165378 359.691365 
L 633.266222 359.691365 
L 633.468978 356.784965 
L 633.568583 353.636366 
L 633.769942 355.331765 
L 633.872381 355.331765 
L 634.072606 352.183166 
L 634.274659 352.183166 
L 634.47573 361.386765 
L 634.576568 365.746364 
L 634.779578 105.623607 
L 634.98165 98.115412 
L 635.385166 84.552218 
L 635.485951 83.099022 
L 635.889351 72.44222 
L 636.089587 75.348612 
L 637.098195 108.772214 
L 637.198713 114.827213 
L 637.301204 362.839964 
L 637.401954 358.238165 
L 637.704539 343.221767 
L 637.906257 340.073167 
L 638.007027 340.073167 
L 638.208734 343.221767 
L 639.016138 353.636366 
L 639.11487 353.636366 
L 639.317925 352.183166 
L 639.518419 353.636366 
L 639.61914 353.636366 
L 639.721447 355.331765 
L 639.923178 353.636366 
L 640.024018 353.636366 
L 640.123416 355.331765 
L 640.32533 353.636366 
L 640.426169 355.331765 
L 640.530679 353.636366 
L 640.627851 355.331765 
L 640.829597 353.636366 
L 641.032386 353.636366 
L 641.132135 355.331765 
L 641.234114 353.636366 
L 641.334879 355.331765 
L 641.536746 353.636366 
L 641.938306 353.636366 
L 642.140084 358.238165 
L 642.343498 362.839964 
L 642.543439 362.839964 
L 642.745468 364.293164 
L 644.158598 364.293164 
L 644.360236 364.050964 
L 644.460043 365.746364 
L 644.662814 112.647409 
L 644.964046 101.990608 
L 645.16596 98.599805 
L 645.267844 100.295215 
L 645.57042 96.662216 
L 645.670909 96.662216 
L 646.073544 91.576021 
L 646.274928 91.576021 
L 646.476982 89.638414 
L 646.577384 89.638414 
L 646.678243 87.943021 
L 646.87998 89.638414 
L 647.182752 89.638414 
L 647.38568 93.271413 
L 647.485427 94.966805 
L 647.989384 116.038212 
L 648.091523 362.355564 
L 648.192514 355.331765 
L 649.098449 325.54117 
L 649.30021 320.212774 
L 649.804863 304.469777 
L 649.906778 302.532174 
L 650.410947 313.188971 
L 650.813282 328.931971 
L 651.821505 365.746364 
L 652.023164 101.990608 
L 652.225057 94.966805 
L 652.325833 94.966805 
L 652.830006 80.919219 
L 652.931022 79.223808 
L 653.939479 110.709802 
L 654.040288 110.709802 
L 654.644963 93.271413 
L 654.746153 91.576021 
L 655.15091 80.919219 
L 655.453467 87.943021 
L 656.159118 114.342802 
L 656.259994 364.050964 
L 656.359716 357.027165 
L 656.663521 350.003366 
L 656.863911 360.660165 
L 656.966463 365.746364 
L 657.167587 107.319018 
L 657.368006 105.623607 
L 657.470137 107.319018 
L 657.569898 112.647409 
L 657.670642 365.746364 
L 657.775226 357.027165 
L 658.174958 339.588768 
L 658.276896 337.651168 
L 658.680413 346.612567 
L 659.183326 362.355564 
L 659.789636 342.979569 
L 659.990199 339.588768 
L 660.191493 344.674968 
L 660.696745 364.050964 
L 660.897745 110.709802 
L 660.998603 114.342802 
L 661.100341 365.746364 
L 661.200885 360.660165 
L 661.401817 351.698766 
L 661.605464 351.698766 
L 661.906319 364.050964 
L 662.109283 105.623607 
L 662.309635 98.599805 
L 662.613287 110.709802 
L 662.715646 116.038212 
L 662.813834 360.660165 
L 662.914642 357.027165 
L 663.015334 358.722565 
L 663.117422 364.050964 
L 663.318105 105.623607 
L 663.62023 98.599805 
L 664.025114 112.647409 
L 664.124811 364.050964 
L 664.22561 362.355564 
L 664.32639 364.050964 
L 664.527719 107.319018 
L 664.832031 100.295215 
L 664.931304 98.599805 
L 665.133346 103.686018 
L 665.537748 116.038212 
L 665.93995 103.686018 
L 666.141455 103.686018 
L 666.24223 105.623607 
L 666.443972 116.038212 
L 666.544736 362.355564 
L 666.645645 355.331765 
L 666.746384 353.636366 
L 666.948152 357.027165 
L 667.149816 364.050964 
L 667.655457 346.612567 
L 668.057666 355.331765 
L 668.259361 365.746364 
L 668.35986 116.038212 
L 668.460752 364.050964 
L 668.562143 358.722565 
L 668.76331 355.331765 
L 668.864637 357.027165 
L 668.965047 362.355564 
L 669.167085 110.709802 
L 669.368798 105.623607 
L 669.469239 105.623607 
L 669.671288 110.709802 
L 669.772115 365.746364 
L 669.874149 362.355564 
L 669.973623 364.050964 
L 670.175139 110.709802 
L 670.276379 105.623607 
L 670.478995 110.709802 
L 670.579122 365.746364 
L 670.679574 360.660165 
L 670.78011 358.722565 
L 670.881015 362.355564 
L 671.083142 110.709802 
L 671.284808 105.623607 
L 671.48656 110.709802 
L 671.587945 116.038212 
L 671.688954 362.355564 
L 671.789075 360.660165 
L 671.889455 360.660165 
L 671.990413 365.746364 
L 672.192427 107.319018 
L 672.394115 116.038212 
L 672.494944 362.355564 
L 672.595875 355.331765 
L 672.696858 353.636366 
L 672.899428 358.722565 
L 673.099919 365.746364 
L 673.201987 364.050964 
L 673.402599 353.636366 
L 673.604262 357.027165 
L 673.705681 360.660165 
L 673.907907 109.01441 
L 674.008813 107.319018 
L 674.209954 114.342802 
L 674.310232 364.050964 
L 674.412178 360.660165 
L 674.612354 365.746364 
L 674.813908 107.319018 
L 674.915005 107.319018 
L 675.017069 114.342802 
L 675.117007 364.050964 
L 675.21896 360.660165 
L 675.318714 362.355564 
L 675.52075 109.01441 
L 675.620745 109.01441 
L 675.723164 110.709802 
L 675.822985 114.342802 
L 675.924817 364.050964 
L 676.025652 360.660165 
L 676.125439 362.355564 
L 676.326699 110.709802 
L 676.427872 109.01441 
L 676.528494 110.709802 
L 676.629598 116.038212 
L 676.731524 360.660165 
L 676.831286 358.722565 
L 676.932163 362.355564 
L 677.133838 110.709802 
L 677.235862 109.01441 
L 677.335302 112.647409 
L 677.436356 365.746364 
L 677.536856 360.660165 
L 677.638636 357.027165 
L 677.638636 357.027165 
" clip-path="url(#p913489b668)" style="fill: none; stroke: #4c72b0; stroke-opacity: 0.7; stroke-width: 0.5; stroke-linecap: round"/>
   </g>
   <g id="patch_3">
    <path d="M 60.21 381.78 
L 60.21 29.04 
" style="fill: none; stroke: #ffffff; stroke-width: 1.25; stroke-linejoin: miter; stroke-linecap: square"/>
   </g>
   <g id="patch_4">
    <path d="M 707.04 381.78 
L 707.04 29.04 
" style="fill: none; stroke: #ffffff; stroke-width: 1.25; stroke-linejoin: miter; stroke-linecap: square"/>
   </g>
   <g id="patch_5">
    <path d="M 60.21 381.78 
L 707.04 381.78 
" style="fill: none; stroke: #ffffff; stroke-width: 1.25; stroke-linejoin: miter; stroke-linecap: square"/>
   </g>
   <g id="patch_6">
    <path d="M 60.21 29.04 
L 707.04 29.04 
" style="fill: none; stroke: #ffffff; stroke-width: 1.25; stroke-linejoin: miter; stroke-linecap: square"/>
   </g>
   <g id="text_17">
    <!-- Total Torque or Current  Over Time -->
    <g style="fill: #262626" transform="translate(280.408125 23.04) scale(0.12 -0.12)">
     <defs>
      <path id="DejaVuSans-61" d="M 2194 1759 
Q 1497 1759 1228 1600 
Q 959 1441 959 1056 
Q 959 750 1161 570 
Q 1363 391 1709 391 
Q 2188 391 2477 730 
Q 2766 1069 2766 1631 
L 2766 1759 
L 2194 1759 
z
M 3341 1997 
L 3341 0 
L 2766 0 
L 2766 531 
Q 2569 213 2275 61 
Q 1981 -91 1556 -91 
Q 1019 -91 701 211 
Q 384 513 384 1019 
Q 384 1609 779 1909 
Q 1175 2209 1959 2209 
L 2766 2209 
L 2766 2266 
Q 2766 2663 2505 2880 
Q 2244 3097 1772 3097 
Q 1472 3097 1187 3025 
Q 903 2953 641 2809 
L 641 3341 
Q 956 3463 1253 3523 
Q 1550 3584 1831 3584 
Q 2591 3584 2966 3190 
Q 3341 2797 3341 1997 
z
" transform="scale(0.015625)"/>
      <path id="DejaVuSans-6c" d="M 603 4863 
L 1178 4863 
L 1178 0 
L 603 0 
L 603 4863 
z
" transform="scale(0.015625)"/>
      <path id="DejaVuSans-4f" d="M 2522 4238 
Q 1834 4238 1429 3725 
Q 1025 3213 1025 2328 
Q 1025 1447 1429 934 
Q 1834 422 2522 422 
Q 3209 422 3611 934 
Q 4013 1447 4013 2328 
Q 4013 3213 3611 3725 
Q 3209 4238 2522 4238 
z
M 2522 4750 
Q 3503 4750 4090 4092 
Q 4678 3434 4678 2328 
Q 4678 1225 4090 567 
Q 3503 -91 2522 -91 
Q 1538 -91 948 565 
Q 359 1222 359 2328 
Q 359 3434 948 4092 
Q 1538 4750 2522 4750 
z
" transform="scale(0.015625)"/>
      <path id="DejaVuSans-76" d="M 191 3500 
L 800 3500 
L 1894 563 
L 2988 3500 
L 3597 3500 
L 2284 0 
L 1503 0 
L 191 3500 
z
" transform="scale(0.015625)"/>
     </defs>
     <use xlink:href="#DejaVuSans-54"/>
     <use xlink:href="#DejaVuSans-6f" transform="translate(44.083984 0)"/>
     <use xlink:href="#DejaVuSans-74" transform="translate(105.265625 0)"/>
     <use xlink:href="#DejaVuSans-61" transform="translate(144.474609 0)"/>
     <use xlink:href="#DejaVuSans-6c" transform="translate(205.753906 0)"/>
     <use xlink:href="#DejaVuSans-20" transform="translate(233.537109 0)"/>
     <use xlink:href="#DejaVuSans-54" transform="translate(265.324219 0)"/>
     <use xlink:href="#DejaVuSans-6f" transform="translate(309.408203 0)"/>
     <use xlink:href="#DejaVuSans-72" transform="translate(370.589844 0)"/>
     <use xlink:href="#DejaVuSans-71" transform="translate(409.953125 0)"/>
     <use xlink:href="#DejaVuSans-75" transform="translate(473.429688 0)"/>
     <use xlink:href="#DejaVuSans-65" transform="translate(536.808594 0)"/>
     <use xlink:href="#DejaVuSans-20" transform="translate(598.332031 0)"/>
     <use xlink:href="#DejaVuSans-6f" transform="translate(630.119141 0)"/>
     <use xlink:href="#DejaVuSans-72" transform="translate(691.300781 0)"/>
     <use xlink:href="#DejaVuSans-20" transform="translate(732.414062 0)"/>
     <use xlink:href="#DejaVuSans-43" transform="translate(764.201172 0)"/>
     <use xlink:href="#DejaVuSans-75" transform="translate(834.025391 0)"/>
     <use xlink:href="#DejaVuSans-72" transform="translate(897.404297 0)"/>
     <use xlink:href="#DejaVuSans-72" transform="translate(936.767578 0)"/>
     <use xlink:href="#DejaVuSans-65" transform="translate(975.630859 0)"/>
     <use xlink:href="#DejaVuSans-6e" transform="translate(1037.154297 0)"/>
     <use xlink:href="#DejaVuSans-74" transform="translate(1100.533203 0)"/>
     <use xlink:href="#DejaVuSans-20" transform="translate(1139.742188 0)"/>
     <use xlink:href="#DejaVuSans-20" transform="translate(1171.529297 0)"/>
     <use xlink:href="#DejaVuSans-4f" transform="translate(1203.316406 0)"/>
     <use xlink:href="#DejaVuSans-76" transform="translate(1282.027344 0)"/>
     <use xlink:href="#DejaVuSans-65" transform="translate(1341.207031 0)"/>
     <use xlink:href="#DejaVuSans-72" transform="translate(1402.730469 0)"/>
     <use xlink:href="#DejaVuSans-20" transform="translate(1443.84375 0)"/>
     <use xlink:href="#DejaVuSans-54" transform="translate(1475.630859 0)"/>
     <use xlink:href="#DejaVuSans-69" transform="translate(1533.589844 0)"/>
     <use xlink:href="#DejaVuSans-6d" transform="translate(1561.373047 0)"/>
     <use xlink:href="#DejaVuSans-65" transform="translate(1658.785156 0)"/>
    </g>
   </g>
   <g id="legend_1">
    <g id="patch_7">
     <path d="M 506.613125 215.132969 
L 699.34 215.132969 
Q 701.54 215.132969 701.54 212.932969 
L 701.54 197.887031 
Q 701.54 195.687031 699.34 195.687031 
L 506.613125 195.687031 
Q 504.413125 195.687031 504.413125 197.887031 
L 504.413125 212.932969 
Q 504.413125 215.132969 506.613125 215.132969 
z
" style="fill: #eaeaf2; opacity: 0.8; stroke: #cccccc; stroke-linejoin: miter"/>
    </g>
    <g id="line2d_16">
     <path d="M 508.813125 204.595312 
L 519.813125 204.595312 
L 530.813125 204.595312 
" style="fill: none; stroke: #4c72b0; stroke-opacity: 0.7; stroke-width: 0.5; stroke-linecap: round"/>
    </g>
    <g id="text_18">
     <!-- Torque (Nm) or Current (mA) -->
     <g style="fill: #262626" transform="translate(539.613125 208.445312) scale(0.11 -0.11)">
      <use xlink:href="#DejaVuSans-54"/>
      <use xlink:href="#DejaVuSans-6f" transform="translate(44.083984 0)"/>
      <use xlink:href="#DejaVuSans-72" transform="translate(105.265625 0)"/>
      <use xlink:href="#DejaVuSans-71" transform="translate(144.628906 0)"/>
      <use xlink:href="#DejaVuSans-75" transform="translate(208.105469 0)"/>
      <use xlink:href="#DejaVuSans-65" transform="translate(271.484375 0)"/>
      <use xlink:href="#DejaVuSans-20" transform="translate(333.007812 0)"/>
      <use xlink:href="#DejaVuSans-28" transform="translate(364.794922 0)"/>
      <use xlink:href="#DejaVuSans-4e" transform="translate(403.808594 0)"/>
      <use xlink:href="#DejaVuSans-6d" transform="translate(478.613281 0)"/>
      <use xlink:href="#DejaVuSans-29" transform="translate(576.025391 0)"/>
      <use xlink:href="#DejaVuSans-20" transform="translate(615.039062 0)"/>
      <use xlink:href="#DejaVuSans-6f" transform="translate(646.826172 0)"/>
      <use xlink:href="#DejaVuSans-72" transform="translate(708.007812 0)"/>
      <use xlink:href="#DejaVuSans-20" transform="translate(749.121094 0)"/>
      <use xlink:href="#DejaVuSans-43" transform="translate(780.908203 0)"/>
      <use xlink:href="#DejaVuSans-75" transform="translate(850.732422 0)"/>
      <use xlink:href="#DejaVuSans-72" transform="translate(914.111328 0)"/>
      <use xlink:href="#DejaVuSans-72" transform="translate(953.474609 0)"/>
      <use xlink:href="#DejaVuSans-65" transform="translate(992.337891 0)"/>
      <use xlink:href="#DejaVuSans-6e" transform="translate(1053.861328 0)"/>
      <use xlink:href="#DejaVuSans-74" transform="translate(1117.240234 0)"/>
      <use xlink:href="#DejaVuSans-20" transform="translate(1156.449219 0)"/>
      <use xlink:href="#DejaVuSans-28" transform="translate(1188.236328 0)"/>
      <use xlink:href="#DejaVuSans-6d" transform="translate(1227.25 0)"/>
      <use xlink:href="#DejaVuSans-41" transform="translate(1324.662109 0)"/>
      <use xlink:href="#DejaVuSans-29" transform="translate(1393.070312 0)"/>
     </g>
    </g>
   </g>
  </g>
 </g>
 <defs>
  <clipPath id="p913489b668">
   <rect x="60.21" y="29.04" width="646.83" height="352.74"/>
  </clipPath>
 </defs>
</svg>
