<?xml version="1.0" encoding="utf-8" standalone="no"?>
<!DOCTYPE svg PUBLIC "-//W3C//DTD SVG 1.1//EN"
  "http://www.w3.org/Graphics/SVG/1.1/DTD/svg11.dtd">
<svg xmlns:xlink="http://www.w3.org/1999/xlink" width="720pt" height="432pt" viewBox="0 0 720 432" xmlns="http://www.w3.org/2000/svg" version="1.1">
 <metadata>
  <rdf:RDF xmlns:dc="http://purl.org/dc/elements/1.1/" xmlns:cc="http://creativecommons.org/ns#" xmlns:rdf="http://www.w3.org/1999/02/22-rdf-syntax-ns#">
   <cc:Work>
    <dc:type rdf:resource="http://purl.org/dc/dcmitype/StillImage"/>
    <dc:date>2025-06-10T08:53:09.017476</dc:date>
    <dc:format>image/svg+xml</dc:format>
    <dc:creator>
     <cc:Agent>
      <dc:title>Matplotlib v3.10.0, https://matplotlib.org/</dc:title>
     </cc:Agent>
    </dc:creator>
   </cc:Work>
  </rdf:RDF>
 </metadata>
 <defs>
  <style type="text/css">*{stroke-linejoin: round; stroke-linecap: butt}</style>
 </defs>
 <g id="figure_1">
  <g id="patch_1">
   <path d="M 0 432 
L 720 432 
L 720 0 
L 0 0 
z
" style="fill: #ffffff"/>
  </g>
  <g id="axes_1">
   <g id="patch_2">
    <path d="M 53.28 381.78 
L 707.04 381.78 
L 707.04 29.04 
L 53.28 29.04 
z
" style="fill: #eaeaf2"/>
   </g>
   <g id="matplotlib.axis_1">
    <g id="xtick_1">
     <g id="line2d_1">
      <path d="M 82.996364 381.78 
L 82.996364 29.04 
" clip-path="url(#p1b4ec7ce50)" style="fill: none; stroke: #ffffff; stroke-linecap: round"/>
     </g>
     <g id="text_1">
      <!-- 0 -->
      <g style="fill: #262626" transform="translate(79.496989 399.638281) scale(0.11 -0.11)">
       <defs>
        <path id="DejaVuSans-30" d="M 2034 4250 
Q 1547 4250 1301 3770 
Q 1056 3291 1056 2328 
Q 1056 1369 1301 889 
Q 1547 409 2034 409 
Q 2525 409 2770 889 
Q 3016 1369 3016 2328 
Q 3016 3291 2770 3770 
Q 2525 4250 2034 4250 
z
M 2034 4750 
Q 2819 4750 3233 4129 
Q 3647 3509 3647 2328 
Q 3647 1150 3233 529 
Q 2819 -91 2034 -91 
Q 1250 -91 836 529 
Q 422 1150 422 2328 
Q 422 3509 836 4129 
Q 1250 4750 2034 4750 
z
" transform="scale(0.015625)"/>
       </defs>
       <use xlink:href="#DejaVuSans-30"/>
      </g>
     </g>
    </g>
    <g id="xtick_2">
     <g id="line2d_2">
      <path d="M 208.117895 381.78 
L 208.117895 29.04 
" clip-path="url(#p1b4ec7ce50)" style="fill: none; stroke: #ffffff; stroke-linecap: round"/>
     </g>
     <g id="text_2">
      <!-- 20 -->
      <g style="fill: #262626" transform="translate(201.119145 399.638281) scale(0.11 -0.11)">
       <defs>
        <path id="DejaVuSans-32" d="M 1228 531 
L 3431 531 
L 3431 0 
L 469 0 
L 469 531 
Q 828 903 1448 1529 
Q 2069 2156 2228 2338 
Q 2531 2678 2651 2914 
Q 2772 3150 2772 3378 
Q 2772 3750 2511 3984 
Q 2250 4219 1831 4219 
Q 1534 4219 1204 4116 
Q 875 4013 500 3803 
L 500 4441 
Q 881 4594 1212 4672 
Q 1544 4750 1819 4750 
Q 2544 4750 2975 4387 
Q 3406 4025 3406 3419 
Q 3406 3131 3298 2873 
Q 3191 2616 2906 2266 
Q 2828 2175 2409 1742 
Q 1991 1309 1228 531 
z
" transform="scale(0.015625)"/>
       </defs>
       <use xlink:href="#DejaVuSans-32"/>
       <use xlink:href="#DejaVuSans-30" transform="translate(63.623047 0)"/>
      </g>
     </g>
    </g>
    <g id="xtick_3">
     <g id="line2d_3">
      <path d="M 333.239426 381.78 
L 333.239426 29.04 
" clip-path="url(#p1b4ec7ce50)" style="fill: none; stroke: #ffffff; stroke-linecap: round"/>
     </g>
     <g id="text_3">
      <!-- 40 -->
      <g style="fill: #262626" transform="translate(326.240676 399.638281) scale(0.11 -0.11)">
       <defs>
        <path id="DejaVuSans-34" d="M 2419 4116 
L 825 1625 
L 2419 1625 
L 2419 4116 
z
M 2253 4666 
L 3047 4666 
L 3047 1625 
L 3713 1625 
L 3713 1100 
L 3047 1100 
L 3047 0 
L 2419 0 
L 2419 1100 
L 313 1100 
L 313 1709 
L 2253 4666 
z
" transform="scale(0.015625)"/>
       </defs>
       <use xlink:href="#DejaVuSans-34"/>
       <use xlink:href="#DejaVuSans-30" transform="translate(63.623047 0)"/>
      </g>
     </g>
    </g>
    <g id="xtick_4">
     <g id="line2d_4">
      <path d="M 458.360957 381.78 
L 458.360957 29.04 
" clip-path="url(#p1b4ec7ce50)" style="fill: none; stroke: #ffffff; stroke-linecap: round"/>
     </g>
     <g id="text_4">
      <!-- 60 -->
      <g style="fill: #262626" transform="translate(451.362207 399.638281) scale(0.11 -0.11)">
       <defs>
        <path id="DejaVuSans-36" d="M 2113 2584 
Q 1688 2584 1439 2293 
Q 1191 2003 1191 1497 
Q 1191 994 1439 701 
Q 1688 409 2113 409 
Q 2538 409 2786 701 
Q 3034 994 3034 1497 
Q 3034 2003 2786 2293 
Q 2538 2584 2113 2584 
z
M 3366 4563 
L 3366 3988 
Q 3128 4100 2886 4159 
Q 2644 4219 2406 4219 
Q 1781 4219 1451 3797 
Q 1122 3375 1075 2522 
Q 1259 2794 1537 2939 
Q 1816 3084 2150 3084 
Q 2853 3084 3261 2657 
Q 3669 2231 3669 1497 
Q 3669 778 3244 343 
Q 2819 -91 2113 -91 
Q 1303 -91 875 529 
Q 447 1150 447 2328 
Q 447 3434 972 4092 
Q 1497 4750 2381 4750 
Q 2619 4750 2861 4703 
Q 3103 4656 3366 4563 
z
" transform="scale(0.015625)"/>
       </defs>
       <use xlink:href="#DejaVuSans-36"/>
       <use xlink:href="#DejaVuSans-30" transform="translate(63.623047 0)"/>
      </g>
     </g>
    </g>
    <g id="xtick_5">
     <g id="line2d_5">
      <path d="M 583.482488 381.78 
L 583.482488 29.04 
" clip-path="url(#p1b4ec7ce50)" style="fill: none; stroke: #ffffff; stroke-linecap: round"/>
     </g>
     <g id="text_5">
      <!-- 80 -->
      <g style="fill: #262626" transform="translate(576.483738 399.638281) scale(0.11 -0.11)">
       <defs>
        <path id="DejaVuSans-38" d="M 2034 2216 
Q 1584 2216 1326 1975 
Q 1069 1734 1069 1313 
Q 1069 891 1326 650 
Q 1584 409 2034 409 
Q 2484 409 2743 651 
Q 3003 894 3003 1313 
Q 3003 1734 2745 1975 
Q 2488 2216 2034 2216 
z
M 1403 2484 
Q 997 2584 770 2862 
Q 544 3141 544 3541 
Q 544 4100 942 4425 
Q 1341 4750 2034 4750 
Q 2731 4750 3128 4425 
Q 3525 4100 3525 3541 
Q 3525 3141 3298 2862 
Q 3072 2584 2669 2484 
Q 3125 2378 3379 2068 
Q 3634 1759 3634 1313 
Q 3634 634 3220 271 
Q 2806 -91 2034 -91 
Q 1263 -91 848 271 
Q 434 634 434 1313 
Q 434 1759 690 2068 
Q 947 2378 1403 2484 
z
M 1172 3481 
Q 1172 3119 1398 2916 
Q 1625 2713 2034 2713 
Q 2441 2713 2670 2916 
Q 2900 3119 2900 3481 
Q 2900 3844 2670 4047 
Q 2441 4250 2034 4250 
Q 1625 4250 1398 4047 
Q 1172 3844 1172 3481 
z
" transform="scale(0.015625)"/>
       </defs>
       <use xlink:href="#DejaVuSans-38"/>
       <use xlink:href="#DejaVuSans-30" transform="translate(63.623047 0)"/>
      </g>
     </g>
    </g>
    <g id="text_6">
     <!-- Iterations -->
     <g style="fill: #262626" transform="translate(351.584062 415.044062) scale(0.12 -0.12)">
      <defs>
       <path id="DejaVuSans-49" d="M 628 4666 
L 1259 4666 
L 1259 0 
L 628 0 
L 628 4666 
z
" transform="scale(0.015625)"/>
       <path id="DejaVuSans-74" d="M 1172 4494 
L 1172 3500 
L 2356 3500 
L 2356 3053 
L 1172 3053 
L 1172 1153 
Q 1172 725 1289 603 
Q 1406 481 1766 481 
L 2356 481 
L 2356 0 
L 1766 0 
Q 1100 0 847 248 
Q 594 497 594 1153 
L 594 3053 
L 172 3053 
L 172 3500 
L 594 3500 
L 594 4494 
L 1172 4494 
z
" transform="scale(0.015625)"/>
       <path id="DejaVuSans-65" d="M 3597 1894 
L 3597 1613 
L 953 1613 
Q 991 1019 1311 708 
Q 1631 397 2203 397 
Q 2534 397 2845 478 
Q 3156 559 3463 722 
L 3463 178 
Q 3153 47 2828 -22 
Q 2503 -91 2169 -91 
Q 1331 -91 842 396 
Q 353 884 353 1716 
Q 353 2575 817 3079 
Q 1281 3584 2069 3584 
Q 2775 3584 3186 3129 
Q 3597 2675 3597 1894 
z
M 3022 2063 
Q 3016 2534 2758 2815 
Q 2500 3097 2075 3097 
Q 1594 3097 1305 2825 
Q 1016 2553 972 2059 
L 3022 2063 
z
" transform="scale(0.015625)"/>
       <path id="DejaVuSans-72" d="M 2631 2963 
Q 2534 3019 2420 3045 
Q 2306 3072 2169 3072 
Q 1681 3072 1420 2755 
Q 1159 2438 1159 1844 
L 1159 0 
L 581 0 
L 581 3500 
L 1159 3500 
L 1159 2956 
Q 1341 3275 1631 3429 
Q 1922 3584 2338 3584 
Q 2397 3584 2469 3576 
Q 2541 3569 2628 3553 
L 2631 2963 
z
" transform="scale(0.015625)"/>
       <path id="DejaVuSans-61" d="M 2194 1759 
Q 1497 1759 1228 1600 
Q 959 1441 959 1056 
Q 959 750 1161 570 
Q 1363 391 1709 391 
Q 2188 391 2477 730 
Q 2766 1069 2766 1631 
L 2766 1759 
L 2194 1759 
z
M 3341 1997 
L 3341 0 
L 2766 0 
L 2766 531 
Q 2569 213 2275 61 
Q 1981 -91 1556 -91 
Q 1019 -91 701 211 
Q 384 513 384 1019 
Q 384 1609 779 1909 
Q 1175 2209 1959 2209 
L 2766 2209 
L 2766 2266 
Q 2766 2663 2505 2880 
Q 2244 3097 1772 3097 
Q 1472 3097 1187 3025 
Q 903 2953 641 2809 
L 641 3341 
Q 956 3463 1253 3523 
Q 1550 3584 1831 3584 
Q 2591 3584 2966 3190 
Q 3341 2797 3341 1997 
z
" transform="scale(0.015625)"/>
       <path id="DejaVuSans-69" d="M 603 3500 
L 1178 3500 
L 1178 0 
L 603 0 
L 603 3500 
z
M 603 4863 
L 1178 4863 
L 1178 4134 
L 603 4134 
L 603 4863 
z
" transform="scale(0.015625)"/>
       <path id="DejaVuSans-6f" d="M 1959 3097 
Q 1497 3097 1228 2736 
Q 959 2375 959 1747 
Q 959 1119 1226 758 
Q 1494 397 1959 397 
Q 2419 397 2687 759 
Q 2956 1122 2956 1747 
Q 2956 2369 2687 2733 
Q 2419 3097 1959 3097 
z
M 1959 3584 
Q 2709 3584 3137 3096 
Q 3566 2609 3566 1747 
Q 3566 888 3137 398 
Q 2709 -91 1959 -91 
Q 1206 -91 779 398 
Q 353 888 353 1747 
Q 353 2609 779 3096 
Q 1206 3584 1959 3584 
z
" transform="scale(0.015625)"/>
       <path id="DejaVuSans-6e" d="M 3513 2113 
L 3513 0 
L 2938 0 
L 2938 2094 
Q 2938 2591 2744 2837 
Q 2550 3084 2163 3084 
Q 1697 3084 1428 2787 
Q 1159 2491 1159 1978 
L 1159 0 
L 581 0 
L 581 3500 
L 1159 3500 
L 1159 2956 
Q 1366 3272 1645 3428 
Q 1925 3584 2291 3584 
Q 2894 3584 3203 3211 
Q 3513 2838 3513 2113 
z
" transform="scale(0.015625)"/>
       <path id="DejaVuSans-73" d="M 2834 3397 
L 2834 2853 
Q 2591 2978 2328 3040 
Q 2066 3103 1784 3103 
Q 1356 3103 1142 2972 
Q 928 2841 928 2578 
Q 928 2378 1081 2264 
Q 1234 2150 1697 2047 
L 1894 2003 
Q 2506 1872 2764 1633 
Q 3022 1394 3022 966 
Q 3022 478 2636 193 
Q 2250 -91 1575 -91 
Q 1294 -91 989 -36 
Q 684 19 347 128 
L 347 722 
Q 666 556 975 473 
Q 1284 391 1588 391 
Q 1994 391 2212 530 
Q 2431 669 2431 922 
Q 2431 1156 2273 1281 
Q 2116 1406 1581 1522 
L 1381 1569 
Q 847 1681 609 1914 
Q 372 2147 372 2553 
Q 372 3047 722 3315 
Q 1072 3584 1716 3584 
Q 2034 3584 2315 3537 
Q 2597 3491 2834 3397 
z
" transform="scale(0.015625)"/>
      </defs>
      <use xlink:href="#DejaVuSans-49"/>
      <use xlink:href="#DejaVuSans-74" transform="translate(29.492188 0)"/>
      <use xlink:href="#DejaVuSans-65" transform="translate(68.701172 0)"/>
      <use xlink:href="#DejaVuSans-72" transform="translate(130.224609 0)"/>
      <use xlink:href="#DejaVuSans-61" transform="translate(171.337891 0)"/>
      <use xlink:href="#DejaVuSans-74" transform="translate(232.617188 0)"/>
      <use xlink:href="#DejaVuSans-69" transform="translate(271.826172 0)"/>
      <use xlink:href="#DejaVuSans-6f" transform="translate(299.609375 0)"/>
      <use xlink:href="#DejaVuSans-6e" transform="translate(360.791016 0)"/>
      <use xlink:href="#DejaVuSans-73" transform="translate(424.169922 0)"/>
     </g>
    </g>
   </g>
   <g id="matplotlib.axis_2">
    <g id="ytick_1">
     <g id="line2d_6">
      <path d="M 53.28 365.752157 
L 707.04 365.752157 
" clip-path="url(#p1b4ec7ce50)" style="fill: none; stroke: #ffffff; stroke-linecap: round"/>
     </g>
     <g id="text_7">
      <!-- 0 -->
      <g style="fill: #262626" transform="translate(36.78125 369.931298) scale(0.11 -0.11)">
       <use xlink:href="#DejaVuSans-30"/>
      </g>
     </g>
    </g>
    <g id="ytick_2">
     <g id="line2d_7">
      <path d="M 53.28 305.001335 
L 707.04 305.001335 
" clip-path="url(#p1b4ec7ce50)" style="fill: none; stroke: #ffffff; stroke-linecap: round"/>
     </g>
     <g id="text_8">
      <!-- 5 -->
      <g style="fill: #262626" transform="translate(36.78125 309.180476) scale(0.11 -0.11)">
       <defs>
        <path id="DejaVuSans-35" d="M 691 4666 
L 3169 4666 
L 3169 4134 
L 1269 4134 
L 1269 2991 
Q 1406 3038 1543 3061 
Q 1681 3084 1819 3084 
Q 2600 3084 3056 2656 
Q 3513 2228 3513 1497 
Q 3513 744 3044 326 
Q 2575 -91 1722 -91 
Q 1428 -91 1123 -41 
Q 819 9 494 109 
L 494 744 
Q 775 591 1075 516 
Q 1375 441 1709 441 
Q 2250 441 2565 725 
Q 2881 1009 2881 1497 
Q 2881 1984 2565 2268 
Q 2250 2553 1709 2553 
Q 1456 2553 1204 2497 
Q 953 2441 691 2322 
L 691 4666 
z
" transform="scale(0.015625)"/>
       </defs>
       <use xlink:href="#DejaVuSans-35"/>
      </g>
     </g>
    </g>
    <g id="ytick_3">
     <g id="line2d_8">
      <path d="M 53.28 244.250513 
L 707.04 244.250513 
" clip-path="url(#p1b4ec7ce50)" style="fill: none; stroke: #ffffff; stroke-linecap: round"/>
     </g>
     <g id="text_9">
      <!-- 10 -->
      <g style="fill: #262626" transform="translate(29.7825 248.429654) scale(0.11 -0.11)">
       <defs>
        <path id="DejaVuSans-31" d="M 794 531 
L 1825 531 
L 1825 4091 
L 703 3866 
L 703 4441 
L 1819 4666 
L 2450 4666 
L 2450 531 
L 3481 531 
L 3481 0 
L 794 0 
L 794 531 
z
" transform="scale(0.015625)"/>
       </defs>
       <use xlink:href="#DejaVuSans-31"/>
       <use xlink:href="#DejaVuSans-30" transform="translate(63.623047 0)"/>
      </g>
     </g>
    </g>
    <g id="ytick_4">
     <g id="line2d_9">
      <path d="M 53.28 183.499691 
L 707.04 183.499691 
" clip-path="url(#p1b4ec7ce50)" style="fill: none; stroke: #ffffff; stroke-linecap: round"/>
     </g>
     <g id="text_10">
      <!-- 15 -->
      <g style="fill: #262626" transform="translate(29.7825 187.678831) scale(0.11 -0.11)">
       <use xlink:href="#DejaVuSans-31"/>
       <use xlink:href="#DejaVuSans-35" transform="translate(63.623047 0)"/>
      </g>
     </g>
    </g>
    <g id="ytick_5">
     <g id="line2d_10">
      <path d="M 53.28 122.748869 
L 707.04 122.748869 
" clip-path="url(#p1b4ec7ce50)" style="fill: none; stroke: #ffffff; stroke-linecap: round"/>
     </g>
     <g id="text_11">
      <!-- 20 -->
      <g style="fill: #262626" transform="translate(29.7825 126.928009) scale(0.11 -0.11)">
       <use xlink:href="#DejaVuSans-32"/>
       <use xlink:href="#DejaVuSans-30" transform="translate(63.623047 0)"/>
      </g>
     </g>
    </g>
    <g id="ytick_6">
     <g id="line2d_11">
      <path d="M 53.28 61.998046 
L 707.04 61.998046 
" clip-path="url(#p1b4ec7ce50)" style="fill: none; stroke: #ffffff; stroke-linecap: round"/>
     </g>
     <g id="text_12">
      <!-- 25 -->
      <g style="fill: #262626" transform="translate(29.7825 66.177187) scale(0.11 -0.11)">
       <use xlink:href="#DejaVuSans-32"/>
       <use xlink:href="#DejaVuSans-35" transform="translate(63.623047 0)"/>
      </g>
     </g>
    </g>
    <g id="text_13">
     <!-- Time (ms) -->
     <g style="fill: #262626" transform="translate(23.286875 235.649062) rotate(-90) scale(0.12 -0.12)">
      <defs>
       <path id="DejaVuSans-54" d="M -19 4666 
L 3928 4666 
L 3928 4134 
L 2272 4134 
L 2272 0 
L 1638 0 
L 1638 4134 
L -19 4134 
L -19 4666 
z
" transform="scale(0.015625)"/>
       <path id="DejaVuSans-6d" d="M 3328 2828 
Q 3544 3216 3844 3400 
Q 4144 3584 4550 3584 
Q 5097 3584 5394 3201 
Q 5691 2819 5691 2113 
L 5691 0 
L 5113 0 
L 5113 2094 
Q 5113 2597 4934 2840 
Q 4756 3084 4391 3084 
Q 3944 3084 3684 2787 
Q 3425 2491 3425 1978 
L 3425 0 
L 2847 0 
L 2847 2094 
Q 2847 2600 2669 2842 
Q 2491 3084 2119 3084 
Q 1678 3084 1418 2786 
Q 1159 2488 1159 1978 
L 1159 0 
L 581 0 
L 581 3500 
L 1159 3500 
L 1159 2956 
Q 1356 3278 1631 3431 
Q 1906 3584 2284 3584 
Q 2666 3584 2933 3390 
Q 3200 3197 3328 2828 
z
" transform="scale(0.015625)"/>
       <path id="DejaVuSans-20" transform="scale(0.015625)"/>
       <path id="DejaVuSans-28" d="M 1984 4856 
Q 1566 4138 1362 3434 
Q 1159 2731 1159 2009 
Q 1159 1288 1364 580 
Q 1569 -128 1984 -844 
L 1484 -844 
Q 1016 -109 783 600 
Q 550 1309 550 2009 
Q 550 2706 781 3412 
Q 1013 4119 1484 4856 
L 1984 4856 
z
" transform="scale(0.015625)"/>
       <path id="DejaVuSans-29" d="M 513 4856 
L 1013 4856 
Q 1481 4119 1714 3412 
Q 1947 2706 1947 2009 
Q 1947 1309 1714 600 
Q 1481 -109 1013 -844 
L 513 -844 
Q 928 -128 1133 580 
Q 1338 1288 1338 2009 
Q 1338 2731 1133 3434 
Q 928 4138 513 4856 
z
" transform="scale(0.015625)"/>
      </defs>
      <use xlink:href="#DejaVuSans-54"/>
      <use xlink:href="#DejaVuSans-69" transform="translate(57.958984 0)"/>
      <use xlink:href="#DejaVuSans-6d" transform="translate(85.742188 0)"/>
      <use xlink:href="#DejaVuSans-65" transform="translate(183.154297 0)"/>
      <use xlink:href="#DejaVuSans-20" transform="translate(244.677734 0)"/>
      <use xlink:href="#DejaVuSans-28" transform="translate(276.464844 0)"/>
      <use xlink:href="#DejaVuSans-6d" transform="translate(315.478516 0)"/>
      <use xlink:href="#DejaVuSans-73" transform="translate(412.890625 0)"/>
      <use xlink:href="#DejaVuSans-29" transform="translate(464.990234 0)"/>
     </g>
    </g>
   </g>
   <g id="line2d_12">
    <path d="M 82.996364 209.558253 
L 89.25244 57.112841 
L 95.508517 173.391394 
L 101.764593 175.850798 
L 108.02067 206.603492 
L 114.276746 60.018356 
L 120.532823 173.753497 
L 126.7889 173.460918 
L 133.044976 206.131309 
L 139.301053 54.731651 
L 145.557129 171.777862 
L 151.813206 173.704251 
L 158.069282 196.537025 
L 164.325359 53.772802 
L 170.581435 174.005521 
L 176.837512 173.736116 
L 183.093589 204.879881 
L 189.349665 59.551967 
L 195.605742 192.40905 
L 201.861818 193.2752 
L 208.117895 206.290635 
L 214.373971 58.173079 
L 220.630048 159.741555 
L 226.886124 180.659528 
L 233.142201 198.159247 
L 239.398278 49.088636 
L 245.654354 173.5681 
L 251.910431 179.483417 
L 258.166507 202.895556 
L 264.422584 59.943039 
L 270.67866 172.913418 
L 276.934737 172.800442 
L 283.190813 205.824246 
L 289.44689 59.137721 
L 295.702967 174.251751 
L 301.959043 173.5681 
L 308.21512 199.622144 
L 314.471196 45.073636 
L 320.727273 185.778217 
L 326.983349 177.174647 
L 333.239426 206.093651 
L 339.495502 59.612801 
L 345.751579 173.350838 
L 352.007656 173.098815 
L 358.263732 206.412301 
L 364.519809 58.787206 
L 370.775885 170.32945 
L 377.031962 177.785877 
L 383.288038 204.297619 
L 389.544115 54.259468 
L 395.800191 177.151473 
L 402.056268 173.779568 
L 408.312344 206.44127 
L 414.568421 59.195658 
L 420.824498 175.824727 
L 427.080574 172.670085 
L 433.336651 206.273254 
L 439.592727 58.31792 
L 445.848804 174.315481 
L 452.10488 170.38449 
L 458.360957 207.643452 
L 464.617033 55.736849 
L 470.87311 178.634647 
L 477.129187 168.736196 
L 483.385263 204.963889 
L 489.64134 57.695103 
L 495.897416 175.543735 
L 502.153493 174.159053 
L 508.409569 206.14869 
L 514.665646 61.460975 
L 520.921722 172.600561 
L 527.177799 174.747108 
L 533.433876 206.116825 
L 539.689952 61.727483 
L 545.946029 171.714132 
L 552.202105 171.54322 
L 558.458182 206.473135 
L 564.714258 58.766928 
L 570.970335 175.688576 
L 577.226411 173.217584 
L 583.482488 206.835238 
L 589.738565 53.277445 
L 595.994641 171.731513 
L 602.250718 179.12421 
L 608.506794 206.226905 
L 614.762871 52.953 
L 621.018947 176.325878 
L 627.275024 177.809052 
L 633.5311 204.135397 
L 639.787177 60.551372 
L 646.043254 173.999727 
L 652.29933 172.985838 
L 658.555407 206.363055 
L 664.811483 59.966213 
L 671.06756 171.960362 
L 677.323636 175.361235 
" clip-path="url(#p1b4ec7ce50)" style="fill: none; stroke: #4c72b0; stroke-opacity: 0.7; stroke-width: 0.5; stroke-linecap: round"/>
   </g>
   <g id="line2d_13">
    <path d="M 82.996364 344.028867 
L 89.25244 365.282872 
L 95.508517 365.114856 
L 101.764593 365.282872 
L 108.02067 365.352395 
L 114.276746 365.384261 
L 120.532823 365.398745 
L 126.7889 365.32053 
L 133.044976 365.485649 
L 139.301053 365.303149 
L 145.557129 365.332118 
L 151.813206 365.314737 
L 158.069282 365.329221 
L 164.325359 365.332118 
L 170.581435 365.355292 
L 176.837512 365.323427 
L 183.093589 365.323427 
L 189.349665 365.491443 
L 195.605742 365.413229 
L 201.861818 365.520411 
L 208.117895 365.517514 
L 214.373971 365.326324 
L 220.630048 365.149618 
L 226.886124 365.308943 
L 233.142201 365.337911 
L 239.398278 365.340808 
L 245.654354 365.326324 
L 251.910431 365.126443 
L 258.166507 365.332118 
L 264.422584 365.471165 
L 270.67866 365.43061 
L 276.934737 365.517514 
L 283.190813 365.517514 
L 289.44689 365.346602 
L 295.702967 365.453784 
L 301.959043 365.54938 
L 308.21512 365.146721 
L 314.471196 365.059816 
L 320.727273 365.329221 
L 326.983349 365.335014 
L 333.239426 365.314737 
L 339.495502 365.419022 
L 345.751579 365.407435 
L 352.007656 365.497237 
L 358.263732 365.505927 
L 364.519809 365.332118 
L 370.775885 365.329221 
L 377.031962 365.343705 
L 383.288038 365.326324 
L 389.544115 365.114856 
L 395.800191 365.335014 
L 402.056268 365.326324 
L 408.312344 365.413229 
L 414.568421 365.358189 
L 420.824498 365.424816 
L 427.080574 365.37557 
L 433.336651 365.427713 
L 439.592727 365.404538 
L 445.848804 365.378467 
L 452.10488 365.398745 
L 458.360957 365.456681 
L 464.617033 365.323427 
L 470.87311 365.335014 
L 477.129187 365.306046 
L 483.385263 365.395848 
L 489.64134 365.445094 
L 495.897416 365.433507 
L 502.153493 365.303149 
L 508.409569 365.352395 
L 514.665646 365.404538 
L 520.921722 365.355292 
L 527.177799 365.421919 
L 533.433876 365.4393 
L 539.689952 365.43061 
L 545.946029 365.317634 
L 552.202105 365.166999 
L 558.458182 365.369776 
L 564.714258 365.398745 
L 570.970335 365.427713 
L 577.226411 365.410332 
L 583.482488 365.50303 
L 589.738565 365.149618 
L 595.994641 365.335014 
L 602.250718 365.317634 
L 608.506794 365.253903 
L 614.762871 365.323427 
L 621.018947 365.308943 
L 627.275024 365.337911 
L 633.5311 365.332118 
L 639.787177 365.404538 
L 646.043254 365.488546 
L 652.29933 365.416126 
L 658.555407 365.410332 
L 664.811483 365.329221 
L 671.06756 365.326324 
L 677.323636 365.300253 
" clip-path="url(#p1b4ec7ce50)" style="fill: none; stroke-dasharray: 1.85,0.8; stroke-dashoffset: 0; stroke: #55a868; stroke-opacity: 0.7; stroke-width: 0.5"/>
   </g>
   <g id="line2d_14">
    <path d="M 82.996364 365.0743 
L 89.25244 361.574936 
L 95.508517 365.054022 
L 101.764593 365.051126 
L 108.02067 365.19307 
L 114.276746 365.222038 
L 120.532823 365.155411 
L 126.7889 365.149618 
L 133.044976 365.358189 
L 139.301053 365.062713 
L 145.557129 365.080094 
L 151.813206 365.088784 
L 158.069282 365.0743 
L 164.325359 364.880213 
L 170.581435 365.085888 
L 176.837512 364.914975 
L 183.093589 365.0743 
L 189.349665 365.346602 
L 195.605742 365.236522 
L 201.861818 365.369776 
L 208.117895 365.381364 
L 214.373971 365.103268 
L 220.630048 364.796205 
L 226.886124 365.054022 
L 233.142201 365.103268 
L 239.398278 365.210451 
L 245.654354 365.030848 
L 251.910431 365.022157 
L 258.166507 365.106165 
L 264.422584 365.361086 
L 270.67866 365.262594 
L 276.934737 365.378467 
L 283.190813 365.390054 
L 289.44689 365.155411 
L 295.702967 365.300253 
L 301.959043 365.474062 
L 308.21512 364.552872 
L 314.471196 364.712197 
L 320.727273 365.080094 
L 326.983349 365.085888 
L 333.239426 365.082991 
L 339.495502 365.358189 
L 345.751579 365.262594 
L 352.007656 365.372673 
L 358.263732 365.384261 
L 364.519809 364.952634 
L 370.775885 365.004776 
L 377.031962 365.007673 
L 383.288038 365.103268 
L 389.544115 364.862832 
L 395.800191 365.109062 
L 402.056268 365.030848 
L 408.312344 365.233626 
L 414.568421 365.175689 
L 420.824498 365.279975 
L 427.080574 365.308943 
L 433.336651 365.181483 
L 439.592727 365.213348 
L 445.848804 365.19307 
L 452.10488 365.219141 
L 458.360957 365.297356 
L 464.617033 365.071403 
L 470.87311 365.088784 
L 477.129187 365.00188 
L 483.385263 365.216245 
L 489.64134 365.314737 
L 495.897416 365.343705 
L 502.153493 365.114856 
L 508.409569 365.109062 
L 514.665646 365.207554 
L 520.921722 365.239419 
L 527.177799 365.271284 
L 533.433876 365.274181 
L 539.689952 365.268388 
L 545.946029 365.068507 
L 552.202105 364.784618 
L 558.458182 365.126443 
L 564.714258 365.210451 
L 570.970335 365.265491 
L 577.226411 365.2568 
L 583.482488 365.372673 
L 589.738565 365.007673 
L 595.994641 365.097475 
L 602.250718 365.082991 
L 608.506794 365.077197 
L 614.762871 365.007673 
L 621.018947 365.103268 
L 627.275024 365.109062 
L 633.5311 365.085888 
L 639.787177 365.253903 
L 646.043254 365.358189 
L 652.29933 365.251007 
L 658.555407 365.253903 
L 664.811483 365.378467 
L 671.06756 365.080094 
L 677.323636 364.972911 
" clip-path="url(#p1b4ec7ce50)" style="fill: none; stroke-dasharray: 3.2,0.8,0.5,0.8; stroke-dashoffset: 0; stroke: #c44e52; stroke-opacity: 0.7; stroke-width: 0.5"/>
   </g>
   <g id="line2d_15">
    <path d="M 82.996364 365.743467 
L 89.25244 365.737673 
L 95.508517 365.737673 
L 101.764593 365.74057 
L 108.02067 365.743467 
L 114.276746 365.743467 
L 120.532823 365.74057 
L 126.7889 365.743467 
L 133.044976 365.743467 
L 139.301053 365.734776 
L 145.557129 365.73188 
L 151.813206 365.73188 
L 158.069282 365.734776 
L 164.325359 365.737673 
L 170.581435 365.734776 
L 176.837512 365.737673 
L 183.093589 365.734776 
L 189.349665 365.743467 
L 195.605742 365.74057 
L 201.861818 365.746364 
L 208.117895 365.743467 
L 214.373971 365.734776 
L 220.630048 365.723189 
L 226.886124 365.734776 
L 233.142201 365.734776 
L 239.398278 365.737673 
L 245.654354 365.73188 
L 251.910431 365.74057 
L 258.166507 365.737673 
L 264.422584 365.746364 
L 270.67866 365.743467 
L 276.934737 365.746364 
L 283.190813 365.743467 
L 289.44689 365.74057 
L 295.702967 365.743467 
L 301.959043 365.746364 
L 308.21512 365.726086 
L 314.471196 365.714499 
L 320.727273 365.737673 
L 326.983349 365.74057 
L 333.239426 365.734776 
L 339.495502 365.74057 
L 345.751579 365.74057 
L 352.007656 365.743467 
L 358.263732 365.743467 
L 364.519809 365.73188 
L 370.775885 365.737673 
L 377.031962 365.737673 
L 383.288038 365.737673 
L 389.544115 365.73188 
L 395.800191 365.73188 
L 402.056268 365.734776 
L 408.312344 365.734776 
L 414.568421 365.74057 
L 420.824498 365.74057 
L 427.080574 365.746364 
L 433.336651 365.743467 
L 439.592727 365.743467 
L 445.848804 365.743467 
L 452.10488 365.74057 
L 458.360957 365.746364 
L 464.617033 365.737673 
L 470.87311 365.734776 
L 477.129187 365.737673 
L 483.385263 365.737673 
L 489.64134 365.743467 
L 495.897416 365.743467 
L 502.153493 365.737673 
L 508.409569 365.74057 
L 514.665646 365.737673 
L 520.921722 365.743467 
L 527.177799 365.743467 
L 533.433876 365.743467 
L 539.689952 365.743467 
L 545.946029 365.737673 
L 552.202105 365.734776 
L 558.458182 365.743467 
L 564.714258 365.743467 
L 570.970335 365.743467 
L 577.226411 365.743467 
L 583.482488 365.746364 
L 589.738565 365.734776 
L 595.994641 365.73188 
L 602.250718 365.734776 
L 608.506794 365.723189 
L 614.762871 365.734776 
L 621.018947 365.728983 
L 627.275024 365.734776 
L 633.5311 365.73188 
L 639.787177 365.737673 
L 646.043254 365.746364 
L 652.29933 365.743467 
L 658.555407 365.743467 
L 664.811483 365.74057 
L 671.06756 365.737673 
L 677.323636 365.737673 
" clip-path="url(#p1b4ec7ce50)" style="fill: none; stroke-dasharray: 0.5,0.825; stroke-dashoffset: 0; stroke: #64b5cd; stroke-opacity: 0.7; stroke-width: 0.5"/>
   </g>
   <g id="line2d_16">
    <path d="M 82.996364 365.210451 
L 89.25244 365.274181 
L 95.508517 365.019261 
L 101.764593 365.236522 
L 108.02067 365.285768 
L 114.276746 365.314737 
L 120.532823 365.300253 
L 126.7889 365.317634 
L 133.044976 365.413229 
L 139.301053 365.178586 
L 145.557129 365.233626 
L 151.813206 365.233626 
L 158.069282 365.242316 
L 164.325359 365.213348 
L 170.581435 365.31184 
L 176.837512 365.219141 
L 183.093589 365.201761 
L 189.349665 365.413229 
L 195.605742 365.326324 
L 201.861818 365.43061 
L 208.117895 365.358189 
L 214.373971 365.245213 
L 220.630048 365.062713 
L 226.886124 365.210451 
L 233.142201 365.242316 
L 239.398278 365.352395 
L 245.654354 365.32053 
L 251.910431 365.126443 
L 258.166507 365.245213 
L 264.422584 365.419022 
L 270.67866 365.337911 
L 276.934737 365.4393 
L 283.190813 365.445094 
L 289.44689 365.259697 
L 295.702967 365.346602 
L 301.959043 365.50303 
L 308.21512 365.022157 
L 314.471196 364.94684 
L 320.727273 364.938149 
L 326.983349 365.24811 
L 333.239426 365.2568 
L 339.495502 365.407435 
L 345.751579 365.32053 
L 352.007656 365.445094 
L 358.263732 365.445094 
L 364.519809 365.222038 
L 370.775885 365.207554 
L 377.031962 365.216245 
L 383.288038 365.24811 
L 389.544115 363.504221 
L 395.800191 365.251007 
L 402.056268 365.227832 
L 408.312344 365.349499 
L 414.568421 365.132237 
L 420.824498 365.335014 
L 427.080574 365.37557 
L 433.336651 365.207554 
L 439.592727 365.303149 
L 445.848804 365.279975 
L 452.10488 365.300253 
L 458.360957 365.37557 
L 464.617033 365.210451 
L 470.87311 365.251007 
L 477.129187 365.2568 
L 483.385263 365.337911 
L 489.64134 365.390054 
L 495.897416 365.419022 
L 502.153493 365.158308 
L 508.409569 365.132237 
L 514.665646 365.317634 
L 520.921722 365.303149 
L 527.177799 365.207554 
L 533.433876 365.24811 
L 539.689952 365.352395 
L 545.946029 365.071403 
L 552.202105 365.242316 
L 558.458182 365.210451 
L 564.714258 365.317634 
L 570.970335 365.335014 
L 577.226411 365.343705 
L 583.482488 365.4393 
L 589.738565 365.19307 
L 595.994641 365.2568 
L 602.250718 365.227832 
L 608.506794 365.227832 
L 614.762871 365.251007 
L 621.018947 365.2568 
L 627.275024 365.262594 
L 633.5311 365.251007 
L 639.787177 365.361086 
L 646.043254 365.427713 
L 652.29933 365.332118 
L 658.555407 365.224935 
L 664.811483 365.450887 
L 671.06756 365.233626 
L 677.323636 365.181483 
" clip-path="url(#p1b4ec7ce50)" style="fill: none; stroke: #ccb974; stroke-opacity: 0.7; stroke-width: 0.5; stroke-linecap: round"/>
   </g>
   <g id="patch_3">
    <path d="M 53.28 381.78 
L 53.28 29.04 
" style="fill: none; stroke: #ffffff; stroke-width: 1.25; stroke-linejoin: miter; stroke-linecap: square"/>
   </g>
   <g id="patch_4">
    <path d="M 707.04 381.78 
L 707.04 29.04 
" style="fill: none; stroke: #ffffff; stroke-width: 1.25; stroke-linejoin: miter; stroke-linecap: square"/>
   </g>
   <g id="patch_5">
    <path d="M 53.28 381.78 
L 707.04 381.78 
" style="fill: none; stroke: #ffffff; stroke-width: 1.25; stroke-linejoin: miter; stroke-linecap: square"/>
   </g>
   <g id="patch_6">
    <path d="M 53.28 29.04 
L 707.04 29.04 
" style="fill: none; stroke: #ffffff; stroke-width: 1.25; stroke-linejoin: miter; stroke-linecap: square"/>
   </g>
   <g id="text_14">
    <!-- Loop Time -->
    <g style="fill: #262626" transform="translate(349.183125 23.04) scale(0.12 -0.12)">
     <defs>
      <path id="DejaVuSans-4c" d="M 628 4666 
L 1259 4666 
L 1259 531 
L 3531 531 
L 3531 0 
L 628 0 
L 628 4666 
z
" transform="scale(0.015625)"/>
      <path id="DejaVuSans-70" d="M 1159 525 
L 1159 -1331 
L 581 -1331 
L 581 3500 
L 1159 3500 
L 1159 2969 
Q 1341 3281 1617 3432 
Q 1894 3584 2278 3584 
Q 2916 3584 3314 3078 
Q 3713 2572 3713 1747 
Q 3713 922 3314 415 
Q 2916 -91 2278 -91 
Q 1894 -91 1617 61 
Q 1341 213 1159 525 
z
M 3116 1747 
Q 3116 2381 2855 2742 
Q 2594 3103 2138 3103 
Q 1681 3103 1420 2742 
Q 1159 2381 1159 1747 
Q 1159 1113 1420 752 
Q 1681 391 2138 391 
Q 2594 391 2855 752 
Q 3116 1113 3116 1747 
z
" transform="scale(0.015625)"/>
     </defs>
     <use xlink:href="#DejaVuSans-4c"/>
     <use xlink:href="#DejaVuSans-6f" transform="translate(53.962891 0)"/>
     <use xlink:href="#DejaVuSans-6f" transform="translate(115.144531 0)"/>
     <use xlink:href="#DejaVuSans-70" transform="translate(176.326172 0)"/>
     <use xlink:href="#DejaVuSans-20" transform="translate(239.802734 0)"/>
     <use xlink:href="#DejaVuSans-54" transform="translate(271.589844 0)"/>
     <use xlink:href="#DejaVuSans-69" transform="translate(329.548828 0)"/>
     <use xlink:href="#DejaVuSans-6d" transform="translate(357.332031 0)"/>
     <use xlink:href="#DejaVuSans-65" transform="translate(454.744141 0)"/>
    </g>
   </g>
   <g id="legend_1">
    <g id="patch_7">
     <path d="M 607.969531 119.793437 
L 699.34 119.793437 
Q 701.54 119.793437 701.54 117.593437 
L 701.54 36.74 
Q 701.54 34.54 699.34 34.54 
L 607.969531 34.54 
Q 605.769531 34.54 605.769531 36.74 
L 605.769531 117.593437 
Q 605.769531 119.793437 607.969531 119.793437 
z
" style="fill: #eaeaf2; opacity: 0.8; stroke: #cccccc; stroke-linejoin: miter"/>
    </g>
    <g id="line2d_17">
     <path d="M 610.169531 43.448281 
L 621.169531 43.448281 
L 632.169531 43.448281 
" style="fill: none; stroke: #4c72b0; stroke-opacity: 0.7; stroke-width: 0.5; stroke-linecap: round"/>
    </g>
    <g id="text_15">
     <!-- obs_time -->
     <g style="fill: #262626" transform="translate(640.969531 47.298281) scale(0.11 -0.11)">
      <defs>
       <path id="DejaVuSans-62" d="M 3116 1747 
Q 3116 2381 2855 2742 
Q 2594 3103 2138 3103 
Q 1681 3103 1420 2742 
Q 1159 2381 1159 1747 
Q 1159 1113 1420 752 
Q 1681 391 2138 391 
Q 2594 391 2855 752 
Q 3116 1113 3116 1747 
z
M 1159 2969 
Q 1341 3281 1617 3432 
Q 1894 3584 2278 3584 
Q 2916 3584 3314 3078 
Q 3713 2572 3713 1747 
Q 3713 922 3314 415 
Q 2916 -91 2278 -91 
Q 1894 -91 1617 61 
Q 1341 213 1159 525 
L 1159 0 
L 581 0 
L 581 4863 
L 1159 4863 
L 1159 2969 
z
" transform="scale(0.015625)"/>
       <path id="DejaVuSans-5f" d="M 3263 -1063 
L 3263 -1509 
L -63 -1509 
L -63 -1063 
L 3263 -1063 
z
" transform="scale(0.015625)"/>
      </defs>
      <use xlink:href="#DejaVuSans-6f"/>
      <use xlink:href="#DejaVuSans-62" transform="translate(61.181641 0)"/>
      <use xlink:href="#DejaVuSans-73" transform="translate(124.658203 0)"/>
      <use xlink:href="#DejaVuSans-5f" transform="translate(176.757812 0)"/>
      <use xlink:href="#DejaVuSans-74" transform="translate(226.757812 0)"/>
      <use xlink:href="#DejaVuSans-69" transform="translate(265.966797 0)"/>
      <use xlink:href="#DejaVuSans-6d" transform="translate(293.75 0)"/>
      <use xlink:href="#DejaVuSans-65" transform="translate(391.162109 0)"/>
     </g>
    </g>
    <g id="line2d_18">
     <path d="M 610.169531 59.900156 
L 621.169531 59.900156 
L 632.169531 59.900156 
" style="fill: none; stroke-dasharray: 1.85,0.8; stroke-dashoffset: 0; stroke: #55a868; stroke-opacity: 0.7; stroke-width: 0.5"/>
    </g>
    <g id="text_16">
     <!-- inference -->
     <g style="fill: #262626" transform="translate(640.969531 63.750156) scale(0.11 -0.11)">
      <defs>
       <path id="DejaVuSans-66" d="M 2375 4863 
L 2375 4384 
L 1825 4384 
Q 1516 4384 1395 4259 
Q 1275 4134 1275 3809 
L 1275 3500 
L 2222 3500 
L 2222 3053 
L 1275 3053 
L 1275 0 
L 697 0 
L 697 3053 
L 147 3053 
L 147 3500 
L 697 3500 
L 697 3744 
Q 697 4328 969 4595 
Q 1241 4863 1831 4863 
L 2375 4863 
z
" transform="scale(0.015625)"/>
       <path id="DejaVuSans-63" d="M 3122 3366 
L 3122 2828 
Q 2878 2963 2633 3030 
Q 2388 3097 2138 3097 
Q 1578 3097 1268 2742 
Q 959 2388 959 1747 
Q 959 1106 1268 751 
Q 1578 397 2138 397 
Q 2388 397 2633 464 
Q 2878 531 3122 666 
L 3122 134 
Q 2881 22 2623 -34 
Q 2366 -91 2075 -91 
Q 1284 -91 818 406 
Q 353 903 353 1747 
Q 353 2603 823 3093 
Q 1294 3584 2113 3584 
Q 2378 3584 2631 3529 
Q 2884 3475 3122 3366 
z
" transform="scale(0.015625)"/>
      </defs>
      <use xlink:href="#DejaVuSans-69"/>
      <use xlink:href="#DejaVuSans-6e" transform="translate(27.783203 0)"/>
      <use xlink:href="#DejaVuSans-66" transform="translate(91.162109 0)"/>
      <use xlink:href="#DejaVuSans-65" transform="translate(126.367188 0)"/>
      <use xlink:href="#DejaVuSans-72" transform="translate(187.890625 0)"/>
      <use xlink:href="#DejaVuSans-65" transform="translate(226.753906 0)"/>
      <use xlink:href="#DejaVuSans-6e" transform="translate(288.277344 0)"/>
      <use xlink:href="#DejaVuSans-63" transform="translate(351.65625 0)"/>
      <use xlink:href="#DejaVuSans-65" transform="translate(406.636719 0)"/>
     </g>
    </g>
    <g id="line2d_19">
     <path d="M 610.169531 76.046094 
L 621.169531 76.046094 
L 632.169531 76.046094 
" style="fill: none; stroke-dasharray: 3.2,0.8,0.5,0.8; stroke-dashoffset: 0; stroke: #c44e52; stroke-opacity: 0.7; stroke-width: 0.5"/>
    </g>
    <g id="text_17">
     <!-- set_action -->
     <g style="fill: #262626" transform="translate(640.969531 79.896094) scale(0.11 -0.11)">
      <use xlink:href="#DejaVuSans-73"/>
      <use xlink:href="#DejaVuSans-65" transform="translate(52.099609 0)"/>
      <use xlink:href="#DejaVuSans-74" transform="translate(113.623047 0)"/>
      <use xlink:href="#DejaVuSans-5f" transform="translate(152.832031 0)"/>
      <use xlink:href="#DejaVuSans-61" transform="translate(202.832031 0)"/>
      <use xlink:href="#DejaVuSans-63" transform="translate(264.111328 0)"/>
      <use xlink:href="#DejaVuSans-74" transform="translate(319.091797 0)"/>
      <use xlink:href="#DejaVuSans-69" transform="translate(358.300781 0)"/>
      <use xlink:href="#DejaVuSans-6f" transform="translate(386.083984 0)"/>
      <use xlink:href="#DejaVuSans-6e" transform="translate(447.265625 0)"/>
     </g>
    </g>
    <g id="line2d_20">
     <path d="M 610.169531 92.497969 
L 621.169531 92.497969 
L 632.169531 92.497969 
" style="fill: none; stroke-dasharray: 0.5,0.825; stroke-dashoffset: 0; stroke: #64b5cd; stroke-opacity: 0.7; stroke-width: 0.5"/>
    </g>
    <g id="text_18">
     <!-- sim_step -->
     <g style="fill: #262626" transform="translate(640.969531 96.347969) scale(0.11 -0.11)">
      <use xlink:href="#DejaVuSans-73"/>
      <use xlink:href="#DejaVuSans-69" transform="translate(52.099609 0)"/>
      <use xlink:href="#DejaVuSans-6d" transform="translate(79.882812 0)"/>
      <use xlink:href="#DejaVuSans-5f" transform="translate(177.294922 0)"/>
      <use xlink:href="#DejaVuSans-73" transform="translate(227.294922 0)"/>
      <use xlink:href="#DejaVuSans-74" transform="translate(279.394531 0)"/>
      <use xlink:href="#DejaVuSans-65" transform="translate(318.603516 0)"/>
      <use xlink:href="#DejaVuSans-70" transform="translate(380.126953 0)"/>
     </g>
    </g>
    <g id="line2d_21">
     <path d="M 610.169531 108.949844 
L 621.169531 108.949844 
L 632.169531 108.949844 
" style="fill: none; stroke: #ccb974; stroke-opacity: 0.7; stroke-width: 0.5; stroke-linecap: round"/>
    </g>
    <g id="text_19">
     <!-- log_time -->
     <g style="fill: #262626" transform="translate(640.969531 112.799844) scale(0.11 -0.11)">
      <defs>
       <path id="DejaVuSans-6c" d="M 603 4863 
L 1178 4863 
L 1178 0 
L 603 0 
L 603 4863 
z
" transform="scale(0.015625)"/>
       <path id="DejaVuSans-67" d="M 2906 1791 
Q 2906 2416 2648 2759 
Q 2391 3103 1925 3103 
Q 1463 3103 1205 2759 
Q 947 2416 947 1791 
Q 947 1169 1205 825 
Q 1463 481 1925 481 
Q 2391 481 2648 825 
Q 2906 1169 2906 1791 
z
M 3481 434 
Q 3481 -459 3084 -895 
Q 2688 -1331 1869 -1331 
Q 1566 -1331 1297 -1286 
Q 1028 -1241 775 -1147 
L 775 -588 
Q 1028 -725 1275 -790 
Q 1522 -856 1778 -856 
Q 2344 -856 2625 -561 
Q 2906 -266 2906 331 
L 2906 616 
Q 2728 306 2450 153 
Q 2172 0 1784 0 
Q 1141 0 747 490 
Q 353 981 353 1791 
Q 353 2603 747 3093 
Q 1141 3584 1784 3584 
Q 2172 3584 2450 3431 
Q 2728 3278 2906 2969 
L 2906 3500 
L 3481 3500 
L 3481 434 
z
" transform="scale(0.015625)"/>
      </defs>
      <use xlink:href="#DejaVuSans-6c"/>
      <use xlink:href="#DejaVuSans-6f" transform="translate(27.783203 0)"/>
      <use xlink:href="#DejaVuSans-67" transform="translate(88.964844 0)"/>
      <use xlink:href="#DejaVuSans-5f" transform="translate(152.441406 0)"/>
      <use xlink:href="#DejaVuSans-74" transform="translate(202.441406 0)"/>
      <use xlink:href="#DejaVuSans-69" transform="translate(241.650391 0)"/>
      <use xlink:href="#DejaVuSans-6d" transform="translate(269.433594 0)"/>
      <use xlink:href="#DejaVuSans-65" transform="translate(366.845703 0)"/>
     </g>
    </g>
   </g>
  </g>
 </g>
 <defs>
  <clipPath id="p1b4ec7ce50">
   <rect x="53.28" y="29.04" width="653.76" height="352.74"/>
  </clipPath>
 </defs>
</svg>
