<?xml version="1.0" encoding="utf-8" standalone="no"?>
<!DOCTYPE svg PUBLIC "-//W3C//DTD SVG 1.1//EN"
  "http://www.w3.org/Graphics/SVG/1.1/DTD/svg11.dtd">
<svg xmlns:xlink="http://www.w3.org/1999/xlink" width="1080pt" height="216pt" viewBox="0 0 1080 216" xmlns="http://www.w3.org/2000/svg" version="1.1">
 <metadata>
  <rdf:RDF xmlns:dc="http://purl.org/dc/elements/1.1/" xmlns:cc="http://creativecommons.org/ns#" xmlns:rdf="http://www.w3.org/1999/02/22-rdf-syntax-ns#">
   <cc:Work>
    <dc:type rdf:resource="http://purl.org/dc/dcmitype/StillImage"/>
    <dc:date>2025-06-10T08:53:10.165343</dc:date>
    <dc:format>image/svg+xml</dc:format>
    <dc:creator>
     <cc:Agent>
      <dc:title>Matplotlib v3.10.0, https://matplotlib.org/</dc:title>
     </cc:Agent>
    </dc:creator>
   </cc:Work>
  </rdf:RDF>
 </metadata>
 <defs>
  <style type="text/css">*{stroke-linejoin: round; stroke-linecap: butt}</style>
 </defs>
 <g id="figure_1">
  <g id="patch_1">
   <path d="M 0 216 
L 1080 216 
L 1080 0 
L 0 0 
z
" style="fill: #ffffff"/>
  </g>
  <g id="axes_1">
   <g id="patch_2">
    <path d="M 65.795048 165.78 
L 364.245032 165.78 
L 364.245032 29.04 
L 65.795048 29.04 
z
" style="fill: #eaeaf2"/>
   </g>
   <g id="matplotlib.axis_1">
    <g id="xtick_1">
     <g id="line2d_1">
      <path d="M 79.360957 165.78 
L 79.360957 29.04 
" clip-path="url(#p7cb014745f)" style="fill: none; stroke: #ffffff; stroke-linecap: round"/>
     </g>
     <g id="text_1">
      <!-- 0 -->
      <g style="fill: #262626" transform="translate(75.861582 183.638281) scale(0.11 -0.11)">
       <defs>
        <path id="DejaVuSans-30" d="M 2034 4250 
Q 1547 4250 1301 3770 
Q 1056 3291 1056 2328 
Q 1056 1369 1301 889 
Q 1547 409 2034 409 
Q 2525 409 2770 889 
Q 3016 1369 3016 2328 
Q 3016 3291 2770 3770 
Q 2525 4250 2034 4250 
z
M 2034 4750 
Q 2819 4750 3233 4129 
Q 3647 3509 3647 2328 
Q 3647 1150 3233 529 
Q 2819 -91 2034 -91 
Q 1250 -91 836 529 
Q 422 1150 422 2328 
Q 422 3509 836 4129 
Q 1250 4750 2034 4750 
z
" transform="scale(0.015625)"/>
       </defs>
       <use xlink:href="#DejaVuSans-30"/>
      </g>
     </g>
    </g>
    <g id="xtick_2">
     <g id="line2d_2">
      <path d="M 134.892406 165.78 
L 134.892406 29.04 
" clip-path="url(#p7cb014745f)" style="fill: none; stroke: #ffffff; stroke-linecap: round"/>
     </g>
     <g id="text_2">
      <!-- 5 -->
      <g style="fill: #262626" transform="translate(131.393031 183.638281) scale(0.11 -0.11)">
       <defs>
        <path id="DejaVuSans-35" d="M 691 4666 
L 3169 4666 
L 3169 4134 
L 1269 4134 
L 1269 2991 
Q 1406 3038 1543 3061 
Q 1681 3084 1819 3084 
Q 2600 3084 3056 2656 
Q 3513 2228 3513 1497 
Q 3513 744 3044 326 
Q 2575 -91 1722 -91 
Q 1428 -91 1123 -41 
Q 819 9 494 109 
L 494 744 
Q 775 591 1075 516 
Q 1375 441 1709 441 
Q 2250 441 2565 725 
Q 2881 1009 2881 1497 
Q 2881 1984 2565 2268 
Q 2250 2553 1709 2553 
Q 1456 2553 1204 2497 
Q 953 2441 691 2322 
L 691 4666 
z
" transform="scale(0.015625)"/>
       </defs>
       <use xlink:href="#DejaVuSans-35"/>
      </g>
     </g>
    </g>
    <g id="xtick_3">
     <g id="line2d_3">
      <path d="M 190.423856 165.78 
L 190.423856 29.04 
" clip-path="url(#p7cb014745f)" style="fill: none; stroke: #ffffff; stroke-linecap: round"/>
     </g>
     <g id="text_3">
      <!-- 10 -->
      <g style="fill: #262626" transform="translate(183.425106 183.638281) scale(0.11 -0.11)">
       <defs>
        <path id="DejaVuSans-31" d="M 794 531 
L 1825 531 
L 1825 4091 
L 703 3866 
L 703 4441 
L 1819 4666 
L 2450 4666 
L 2450 531 
L 3481 531 
L 3481 0 
L 794 0 
L 794 531 
z
" transform="scale(0.015625)"/>
       </defs>
       <use xlink:href="#DejaVuSans-31"/>
       <use xlink:href="#DejaVuSans-30" transform="translate(63.623047 0)"/>
      </g>
     </g>
    </g>
    <g id="xtick_4">
     <g id="line2d_4">
      <path d="M 245.955305 165.78 
L 245.955305 29.04 
" clip-path="url(#p7cb014745f)" style="fill: none; stroke: #ffffff; stroke-linecap: round"/>
     </g>
     <g id="text_4">
      <!-- 15 -->
      <g style="fill: #262626" transform="translate(238.956555 183.638281) scale(0.11 -0.11)">
       <use xlink:href="#DejaVuSans-31"/>
       <use xlink:href="#DejaVuSans-35" transform="translate(63.623047 0)"/>
      </g>
     </g>
    </g>
    <g id="xtick_5">
     <g id="line2d_5">
      <path d="M 301.486754 165.78 
L 301.486754 29.04 
" clip-path="url(#p7cb014745f)" style="fill: none; stroke: #ffffff; stroke-linecap: round"/>
     </g>
     <g id="text_5">
      <!-- 20 -->
      <g style="fill: #262626" transform="translate(294.488004 183.638281) scale(0.11 -0.11)">
       <defs>
        <path id="DejaVuSans-32" d="M 1228 531 
L 3431 531 
L 3431 0 
L 469 0 
L 469 531 
Q 828 903 1448 1529 
Q 2069 2156 2228 2338 
Q 2531 2678 2651 2914 
Q 2772 3150 2772 3378 
Q 2772 3750 2511 3984 
Q 2250 4219 1831 4219 
Q 1534 4219 1204 4116 
Q 875 4013 500 3803 
L 500 4441 
Q 881 4594 1212 4672 
Q 1544 4750 1819 4750 
Q 2544 4750 2975 4387 
Q 3406 4025 3406 3419 
Q 3406 3131 3298 2873 
Q 3191 2616 2906 2266 
Q 2828 2175 2409 1742 
Q 1991 1309 1228 531 
z
" transform="scale(0.015625)"/>
       </defs>
       <use xlink:href="#DejaVuSans-32"/>
       <use xlink:href="#DejaVuSans-30" transform="translate(63.623047 0)"/>
      </g>
     </g>
    </g>
    <g id="xtick_6">
     <g id="line2d_6">
      <path d="M 357.018204 165.78 
L 357.018204 29.04 
" clip-path="url(#p7cb014745f)" style="fill: none; stroke: #ffffff; stroke-linecap: round"/>
     </g>
     <g id="text_6">
      <!-- 25 -->
      <g style="fill: #262626" transform="translate(350.019454 183.638281) scale(0.11 -0.11)">
       <use xlink:href="#DejaVuSans-32"/>
       <use xlink:href="#DejaVuSans-35" transform="translate(63.623047 0)"/>
      </g>
     </g>
    </g>
    <g id="text_7">
     <!-- Frequency (Hz) -->
     <g style="fill: #262626" transform="translate(169.774415 199.044062) scale(0.12 -0.12)">
      <defs>
       <path id="DejaVuSans-46" d="M 628 4666 
L 3309 4666 
L 3309 4134 
L 1259 4134 
L 1259 2759 
L 3109 2759 
L 3109 2228 
L 1259 2228 
L 1259 0 
L 628 0 
L 628 4666 
z
" transform="scale(0.015625)"/>
       <path id="DejaVuSans-72" d="M 2631 2963 
Q 2534 3019 2420 3045 
Q 2306 3072 2169 3072 
Q 1681 3072 1420 2755 
Q 1159 2438 1159 1844 
L 1159 0 
L 581 0 
L 581 3500 
L 1159 3500 
L 1159 2956 
Q 1341 3275 1631 3429 
Q 1922 3584 2338 3584 
Q 2397 3584 2469 3576 
Q 2541 3569 2628 3553 
L 2631 2963 
z
" transform="scale(0.015625)"/>
       <path id="DejaVuSans-65" d="M 3597 1894 
L 3597 1613 
L 953 1613 
Q 991 1019 1311 708 
Q 1631 397 2203 397 
Q 2534 397 2845 478 
Q 3156 559 3463 722 
L 3463 178 
Q 3153 47 2828 -22 
Q 2503 -91 2169 -91 
Q 1331 -91 842 396 
Q 353 884 353 1716 
Q 353 2575 817 3079 
Q 1281 3584 2069 3584 
Q 2775 3584 3186 3129 
Q 3597 2675 3597 1894 
z
M 3022 2063 
Q 3016 2534 2758 2815 
Q 2500 3097 2075 3097 
Q 1594 3097 1305 2825 
Q 1016 2553 972 2059 
L 3022 2063 
z
" transform="scale(0.015625)"/>
       <path id="DejaVuSans-71" d="M 947 1747 
Q 947 1113 1208 752 
Q 1469 391 1925 391 
Q 2381 391 2643 752 
Q 2906 1113 2906 1747 
Q 2906 2381 2643 2742 
Q 2381 3103 1925 3103 
Q 1469 3103 1208 2742 
Q 947 2381 947 1747 
z
M 2906 525 
Q 2725 213 2448 61 
Q 2172 -91 1784 -91 
Q 1150 -91 751 415 
Q 353 922 353 1747 
Q 353 2572 751 3078 
Q 1150 3584 1784 3584 
Q 2172 3584 2448 3432 
Q 2725 3281 2906 2969 
L 2906 3500 
L 3481 3500 
L 3481 -1331 
L 2906 -1331 
L 2906 525 
z
" transform="scale(0.015625)"/>
       <path id="DejaVuSans-75" d="M 544 1381 
L 544 3500 
L 1119 3500 
L 1119 1403 
Q 1119 906 1312 657 
Q 1506 409 1894 409 
Q 2359 409 2629 706 
Q 2900 1003 2900 1516 
L 2900 3500 
L 3475 3500 
L 3475 0 
L 2900 0 
L 2900 538 
Q 2691 219 2414 64 
Q 2138 -91 1772 -91 
Q 1169 -91 856 284 
Q 544 659 544 1381 
z
M 1991 3584 
L 1991 3584 
z
" transform="scale(0.015625)"/>
       <path id="DejaVuSans-6e" d="M 3513 2113 
L 3513 0 
L 2938 0 
L 2938 2094 
Q 2938 2591 2744 2837 
Q 2550 3084 2163 3084 
Q 1697 3084 1428 2787 
Q 1159 2491 1159 1978 
L 1159 0 
L 581 0 
L 581 3500 
L 1159 3500 
L 1159 2956 
Q 1366 3272 1645 3428 
Q 1925 3584 2291 3584 
Q 2894 3584 3203 3211 
Q 3513 2838 3513 2113 
z
" transform="scale(0.015625)"/>
       <path id="DejaVuSans-63" d="M 3122 3366 
L 3122 2828 
Q 2878 2963 2633 3030 
Q 2388 3097 2138 3097 
Q 1578 3097 1268 2742 
Q 959 2388 959 1747 
Q 959 1106 1268 751 
Q 1578 397 2138 397 
Q 2388 397 2633 464 
Q 2878 531 3122 666 
L 3122 134 
Q 2881 22 2623 -34 
Q 2366 -91 2075 -91 
Q 1284 -91 818 406 
Q 353 903 353 1747 
Q 353 2603 823 3093 
Q 1294 3584 2113 3584 
Q 2378 3584 2631 3529 
Q 2884 3475 3122 3366 
z
" transform="scale(0.015625)"/>
       <path id="DejaVuSans-79" d="M 2059 -325 
Q 1816 -950 1584 -1140 
Q 1353 -1331 966 -1331 
L 506 -1331 
L 506 -850 
L 844 -850 
Q 1081 -850 1212 -737 
Q 1344 -625 1503 -206 
L 1606 56 
L 191 3500 
L 800 3500 
L 1894 763 
L 2988 3500 
L 3597 3500 
L 2059 -325 
z
" transform="scale(0.015625)"/>
       <path id="DejaVuSans-20" transform="scale(0.015625)"/>
       <path id="DejaVuSans-28" d="M 1984 4856 
Q 1566 4138 1362 3434 
Q 1159 2731 1159 2009 
Q 1159 1288 1364 580 
Q 1569 -128 1984 -844 
L 1484 -844 
Q 1016 -109 783 600 
Q 550 1309 550 2009 
Q 550 2706 781 3412 
Q 1013 4119 1484 4856 
L 1984 4856 
z
" transform="scale(0.015625)"/>
       <path id="DejaVuSans-48" d="M 628 4666 
L 1259 4666 
L 1259 2753 
L 3553 2753 
L 3553 4666 
L 4184 4666 
L 4184 0 
L 3553 0 
L 3553 2222 
L 1259 2222 
L 1259 0 
L 628 0 
L 628 4666 
z
" transform="scale(0.015625)"/>
       <path id="DejaVuSans-7a" d="M 353 3500 
L 3084 3500 
L 3084 2975 
L 922 459 
L 3084 459 
L 3084 0 
L 275 0 
L 275 525 
L 2438 3041 
L 353 3041 
L 353 3500 
z
" transform="scale(0.015625)"/>
       <path id="DejaVuSans-29" d="M 513 4856 
L 1013 4856 
Q 1481 4119 1714 3412 
Q 1947 2706 1947 2009 
Q 1947 1309 1714 600 
Q 1481 -109 1013 -844 
L 513 -844 
Q 928 -128 1133 580 
Q 1338 1288 1338 2009 
Q 1338 2731 1133 3434 
Q 928 4138 513 4856 
z
" transform="scale(0.015625)"/>
      </defs>
      <use xlink:href="#DejaVuSans-46"/>
      <use xlink:href="#DejaVuSans-72" transform="translate(50.269531 0)"/>
      <use xlink:href="#DejaVuSans-65" transform="translate(89.132812 0)"/>
      <use xlink:href="#DejaVuSans-71" transform="translate(150.65625 0)"/>
      <use xlink:href="#DejaVuSans-75" transform="translate(214.132812 0)"/>
      <use xlink:href="#DejaVuSans-65" transform="translate(277.511719 0)"/>
      <use xlink:href="#DejaVuSans-6e" transform="translate(339.035156 0)"/>
      <use xlink:href="#DejaVuSans-63" transform="translate(402.414062 0)"/>
      <use xlink:href="#DejaVuSans-79" transform="translate(457.394531 0)"/>
      <use xlink:href="#DejaVuSans-20" transform="translate(516.574219 0)"/>
      <use xlink:href="#DejaVuSans-28" transform="translate(548.361328 0)"/>
      <use xlink:href="#DejaVuSans-48" transform="translate(587.375 0)"/>
      <use xlink:href="#DejaVuSans-7a" transform="translate(662.570312 0)"/>
      <use xlink:href="#DejaVuSans-29" transform="translate(715.060547 0)"/>
     </g>
    </g>
   </g>
   <g id="matplotlib.axis_2">
    <g id="ytick_1">
     <g id="line2d_7">
      <path d="M 65.795048 162.717078 
L 364.245032 162.717078 
" clip-path="url(#p7cb014745f)" style="fill: none; stroke: #ffffff; stroke-linecap: round"/>
     </g>
     <g id="text_8">
      <!-- $\mathdefault{10^{-7}}$ -->
      <g style="fill: #262626" transform="translate(30.445048 166.896219) scale(0.11 -0.11)">
       <defs>
        <path id="DejaVuSans-2212" d="M 678 2272 
L 4684 2272 
L 4684 1741 
L 678 1741 
L 678 2272 
z
" transform="scale(0.015625)"/>
        <path id="DejaVuSans-37" d="M 525 4666 
L 3525 4666 
L 3525 4397 
L 1831 0 
L 1172 0 
L 2766 4134 
L 525 4134 
L 525 4666 
z
" transform="scale(0.015625)"/>
       </defs>
       <use xlink:href="#DejaVuSans-31" transform="translate(0 0.684375)"/>
       <use xlink:href="#DejaVuSans-30" transform="translate(63.623047 0.684375)"/>
       <use xlink:href="#DejaVuSans-2212" transform="translate(128.203125 38.965625) scale(0.7)"/>
       <use xlink:href="#DejaVuSans-37" transform="translate(186.855469 38.965625) scale(0.7)"/>
      </g>
     </g>
    </g>
    <g id="ytick_2">
     <g id="line2d_8">
      <path d="M 65.795048 108.699019 
L 364.245032 108.699019 
" clip-path="url(#p7cb014745f)" style="fill: none; stroke: #ffffff; stroke-linecap: round"/>
     </g>
     <g id="text_9">
      <!-- $\mathdefault{10^{-6}}$ -->
      <g style="fill: #262626" transform="translate(30.445048 112.87816) scale(0.11 -0.11)">
       <defs>
        <path id="DejaVuSans-36" d="M 2113 2584 
Q 1688 2584 1439 2293 
Q 1191 2003 1191 1497 
Q 1191 994 1439 701 
Q 1688 409 2113 409 
Q 2538 409 2786 701 
Q 3034 994 3034 1497 
Q 3034 2003 2786 2293 
Q 2538 2584 2113 2584 
z
M 3366 4563 
L 3366 3988 
Q 3128 4100 2886 4159 
Q 2644 4219 2406 4219 
Q 1781 4219 1451 3797 
Q 1122 3375 1075 2522 
Q 1259 2794 1537 2939 
Q 1816 3084 2150 3084 
Q 2853 3084 3261 2657 
Q 3669 2231 3669 1497 
Q 3669 778 3244 343 
Q 2819 -91 2113 -91 
Q 1303 -91 875 529 
Q 447 1150 447 2328 
Q 447 3434 972 4092 
Q 1497 4750 2381 4750 
Q 2619 4750 2861 4703 
Q 3103 4656 3366 4563 
z
" transform="scale(0.015625)"/>
       </defs>
       <use xlink:href="#DejaVuSans-31" transform="translate(0 0.765625)"/>
       <use xlink:href="#DejaVuSans-30" transform="translate(63.623047 0.765625)"/>
       <use xlink:href="#DejaVuSans-2212" transform="translate(128.203125 39.046875) scale(0.7)"/>
       <use xlink:href="#DejaVuSans-36" transform="translate(186.855469 39.046875) scale(0.7)"/>
      </g>
     </g>
    </g>
    <g id="ytick_3">
     <g id="line2d_9">
      <path d="M 65.795048 54.68096 
L 364.245032 54.68096 
" clip-path="url(#p7cb014745f)" style="fill: none; stroke: #ffffff; stroke-linecap: round"/>
     </g>
     <g id="text_10">
      <!-- $\mathdefault{10^{-5}}$ -->
      <g style="fill: #262626" transform="translate(30.445048 58.860101) scale(0.11 -0.11)">
       <use xlink:href="#DejaVuSans-31" transform="translate(0 0.684375)"/>
       <use xlink:href="#DejaVuSans-30" transform="translate(63.623047 0.684375)"/>
       <use xlink:href="#DejaVuSans-2212" transform="translate(128.203125 38.965625) scale(0.7)"/>
       <use xlink:href="#DejaVuSans-35" transform="translate(186.855469 38.965625) scale(0.7)"/>
      </g>
     </g>
    </g>
    <g id="ytick_4"/>
    <g id="ytick_5"/>
    <g id="ytick_6"/>
    <g id="ytick_7"/>
    <g id="ytick_8"/>
    <g id="ytick_9"/>
    <g id="ytick_10"/>
    <g id="ytick_11"/>
    <g id="ytick_12"/>
    <g id="ytick_13"/>
    <g id="ytick_14"/>
    <g id="ytick_15"/>
    <g id="ytick_16"/>
    <g id="ytick_17"/>
    <g id="ytick_18"/>
    <g id="ytick_19"/>
    <g id="ytick_20"/>
    <g id="ytick_21"/>
    <g id="text_11">
     <!-- Magnitude -->
     <g style="fill: #262626" transform="translate(23.949423 129.197812) rotate(-90) scale(0.12 -0.12)">
      <defs>
       <path id="DejaVuSans-4d" d="M 628 4666 
L 1569 4666 
L 2759 1491 
L 3956 4666 
L 4897 4666 
L 4897 0 
L 4281 0 
L 4281 4097 
L 3078 897 
L 2444 897 
L 1241 4097 
L 1241 0 
L 628 0 
L 628 4666 
z
" transform="scale(0.015625)"/>
       <path id="DejaVuSans-61" d="M 2194 1759 
Q 1497 1759 1228 1600 
Q 959 1441 959 1056 
Q 959 750 1161 570 
Q 1363 391 1709 391 
Q 2188 391 2477 730 
Q 2766 1069 2766 1631 
L 2766 1759 
L 2194 1759 
z
M 3341 1997 
L 3341 0 
L 2766 0 
L 2766 531 
Q 2569 213 2275 61 
Q 1981 -91 1556 -91 
Q 1019 -91 701 211 
Q 384 513 384 1019 
Q 384 1609 779 1909 
Q 1175 2209 1959 2209 
L 2766 2209 
L 2766 2266 
Q 2766 2663 2505 2880 
Q 2244 3097 1772 3097 
Q 1472 3097 1187 3025 
Q 903 2953 641 2809 
L 641 3341 
Q 956 3463 1253 3523 
Q 1550 3584 1831 3584 
Q 2591 3584 2966 3190 
Q 3341 2797 3341 1997 
z
" transform="scale(0.015625)"/>
       <path id="DejaVuSans-67" d="M 2906 1791 
Q 2906 2416 2648 2759 
Q 2391 3103 1925 3103 
Q 1463 3103 1205 2759 
Q 947 2416 947 1791 
Q 947 1169 1205 825 
Q 1463 481 1925 481 
Q 2391 481 2648 825 
Q 2906 1169 2906 1791 
z
M 3481 434 
Q 3481 -459 3084 -895 
Q 2688 -1331 1869 -1331 
Q 1566 -1331 1297 -1286 
Q 1028 -1241 775 -1147 
L 775 -588 
Q 1028 -725 1275 -790 
Q 1522 -856 1778 -856 
Q 2344 -856 2625 -561 
Q 2906 -266 2906 331 
L 2906 616 
Q 2728 306 2450 153 
Q 2172 0 1784 0 
Q 1141 0 747 490 
Q 353 981 353 1791 
Q 353 2603 747 3093 
Q 1141 3584 1784 3584 
Q 2172 3584 2450 3431 
Q 2728 3278 2906 2969 
L 2906 3500 
L 3481 3500 
L 3481 434 
z
" transform="scale(0.015625)"/>
       <path id="DejaVuSans-69" d="M 603 3500 
L 1178 3500 
L 1178 0 
L 603 0 
L 603 3500 
z
M 603 4863 
L 1178 4863 
L 1178 4134 
L 603 4134 
L 603 4863 
z
" transform="scale(0.015625)"/>
       <path id="DejaVuSans-74" d="M 1172 4494 
L 1172 3500 
L 2356 3500 
L 2356 3053 
L 1172 3053 
L 1172 1153 
Q 1172 725 1289 603 
Q 1406 481 1766 481 
L 2356 481 
L 2356 0 
L 1766 0 
Q 1100 0 847 248 
Q 594 497 594 1153 
L 594 3053 
L 172 3053 
L 172 3500 
L 594 3500 
L 594 4494 
L 1172 4494 
z
" transform="scale(0.015625)"/>
       <path id="DejaVuSans-64" d="M 2906 2969 
L 2906 4863 
L 3481 4863 
L 3481 0 
L 2906 0 
L 2906 525 
Q 2725 213 2448 61 
Q 2172 -91 1784 -91 
Q 1150 -91 751 415 
Q 353 922 353 1747 
Q 353 2572 751 3078 
Q 1150 3584 1784 3584 
Q 2172 3584 2448 3432 
Q 2725 3281 2906 2969 
z
M 947 1747 
Q 947 1113 1208 752 
Q 1469 391 1925 391 
Q 2381 391 2643 752 
Q 2906 1113 2906 1747 
Q 2906 2381 2643 2742 
Q 2381 3103 1925 3103 
Q 1469 3103 1208 2742 
Q 947 2381 947 1747 
z
" transform="scale(0.015625)"/>
      </defs>
      <use xlink:href="#DejaVuSans-4d"/>
      <use xlink:href="#DejaVuSans-61" transform="translate(86.279297 0)"/>
      <use xlink:href="#DejaVuSans-67" transform="translate(147.558594 0)"/>
      <use xlink:href="#DejaVuSans-6e" transform="translate(211.035156 0)"/>
      <use xlink:href="#DejaVuSans-69" transform="translate(274.414062 0)"/>
      <use xlink:href="#DejaVuSans-74" transform="translate(302.197266 0)"/>
      <use xlink:href="#DejaVuSans-75" transform="translate(341.40625 0)"/>
      <use xlink:href="#DejaVuSans-64" transform="translate(404.785156 0)"/>
      <use xlink:href="#DejaVuSans-65" transform="translate(468.261719 0)"/>
     </g>
    </g>
   </g>
   <g id="line2d_10">
    <path d="M 79.360957 35.255455 
L 79.38047 217 
" clip-path="url(#p7cb014745f)" style="fill: none; stroke: #4c72b0; stroke-opacity: 0.7; stroke-width: 0.5; stroke-linecap: round"/>
   </g>
   <g id="line2d_11">
    <path d="M 79.360957 50.439715 
L 85.133684 79.328244 
L 90.906411 95.578173 
L 96.679138 105.055426 
L 102.451865 111.782627 
L 108.224592 117.009225 
L 113.997319 121.218669 
L 119.770046 124.751169 
L 125.542772 127.928931 
L 131.315499 130.569153 
L 137.088226 132.937856 
L 142.860953 135.068437 
L 148.63368 136.984294 
L 154.406407 138.836341 
L 160.179134 140.390262 
L 165.951861 141.924512 
L 171.724588 143.18566 
L 177.497315 144.550532 
L 183.270042 145.804649 
L 189.042769 146.879725 
L 194.815496 147.944748 
L 200.588223 148.940512 
L 206.36095 149.757207 
L 212.133677 150.604439 
L 217.906404 148.345138 
L 223.679131 152.184671 
L 229.451858 152.861152 
L 235.224585 153.492813 
L 240.997312 154.133533 
L 246.770039 154.715642 
L 252.542766 155.167706 
L 258.315493 155.738831 
L 264.08822 156.112627 
L 269.860946 156.599599 
L 275.633673 156.99546 
L 281.4064 157.380022 
L 287.179127 157.702427 
L 292.951854 158.014579 
L 298.724581 158.303121 
L 304.497308 158.429979 
L 310.270035 158.659978 
L 316.042762 158.917908 
L 321.815489 159.085255 
L 327.588216 159.241728 
L 333.360943 159.231968 
L 339.13367 159.438815 
L 344.906397 159.564545 
L 350.679124 159.456209 
" clip-path="url(#p7cb014745f)" style="fill: none; stroke-dasharray: 1.85,0.8; stroke-dashoffset: 0; stroke: #55a868; stroke-opacity: 0.7; stroke-width: 0.5"/>
   </g>
   <g id="patch_3">
    <path d="M 65.795048 165.78 
L 65.795048 29.04 
" style="fill: none; stroke: #ffffff; stroke-width: 1.25; stroke-linejoin: miter; stroke-linecap: square"/>
   </g>
   <g id="patch_4">
    <path d="M 364.245032 165.78 
L 364.245032 29.04 
" style="fill: none; stroke: #ffffff; stroke-width: 1.25; stroke-linejoin: miter; stroke-linecap: square"/>
   </g>
   <g id="patch_5">
    <path d="M 65.795048 165.78 
L 364.245032 165.78 
" style="fill: none; stroke: #ffffff; stroke-width: 1.25; stroke-linejoin: miter; stroke-linecap: square"/>
   </g>
   <g id="patch_6">
    <path d="M 65.795048 29.04 
L 364.245032 29.04 
" style="fill: none; stroke: #ffffff; stroke-width: 1.25; stroke-linejoin: miter; stroke-linecap: square"/>
   </g>
   <g id="text_12">
    <!-- joint_0 -->
    <g style="fill: #262626" transform="translate(195.042853 23.04) scale(0.12 -0.12)">
     <defs>
      <path id="DejaVuSans-6a" d="M 603 3500 
L 1178 3500 
L 1178 -63 
Q 1178 -731 923 -1031 
Q 669 -1331 103 -1331 
L -116 -1331 
L -116 -844 
L 38 -844 
Q 366 -844 484 -692 
Q 603 -541 603 -63 
L 603 3500 
z
M 603 4863 
L 1178 4863 
L 1178 4134 
L 603 4134 
L 603 4863 
z
" transform="scale(0.015625)"/>
      <path id="DejaVuSans-6f" d="M 1959 3097 
Q 1497 3097 1228 2736 
Q 959 2375 959 1747 
Q 959 1119 1226 758 
Q 1494 397 1959 397 
Q 2419 397 2687 759 
Q 2956 1122 2956 1747 
Q 2956 2369 2687 2733 
Q 2419 3097 1959 3097 
z
M 1959 3584 
Q 2709 3584 3137 3096 
Q 3566 2609 3566 1747 
Q 3566 888 3137 398 
Q 2709 -91 1959 -91 
Q 1206 -91 779 398 
Q 353 888 353 1747 
Q 353 2609 779 3096 
Q 1206 3584 1959 3584 
z
" transform="scale(0.015625)"/>
      <path id="DejaVuSans-5f" d="M 3263 -1063 
L 3263 -1509 
L -63 -1509 
L -63 -1063 
L 3263 -1063 
z
" transform="scale(0.015625)"/>
     </defs>
     <use xlink:href="#DejaVuSans-6a"/>
     <use xlink:href="#DejaVuSans-6f" transform="translate(27.783203 0)"/>
     <use xlink:href="#DejaVuSans-69" transform="translate(88.964844 0)"/>
     <use xlink:href="#DejaVuSans-6e" transform="translate(116.748047 0)"/>
     <use xlink:href="#DejaVuSans-74" transform="translate(180.126953 0)"/>
     <use xlink:href="#DejaVuSans-5f" transform="translate(219.335938 0)"/>
     <use xlink:href="#DejaVuSans-30" transform="translate(269.335938 0)"/>
    </g>
   </g>
   <g id="legend_1">
    <g id="patch_7">
     <path d="M 259.77597 70.74375 
L 356.545032 70.74375 
Q 358.745032 70.74375 358.745032 68.54375 
L 358.745032 36.74 
Q 358.745032 34.54 356.545032 34.54 
L 259.77597 34.54 
Q 257.57597 34.54 257.57597 36.74 
L 257.57597 68.54375 
Q 257.57597 70.74375 259.77597 70.74375 
z
" style="fill: #eaeaf2; opacity: 0.8; stroke: #cccccc; stroke-linejoin: miter"/>
    </g>
    <g id="line2d_12">
     <path d="M 261.97597 43.448281 
L 272.97597 43.448281 
L 283.97597 43.448281 
" style="fill: none; stroke: #4c72b0; stroke-opacity: 0.7; stroke-width: 0.5; stroke-linecap: round"/>
    </g>
    <g id="text_13">
     <!-- joint_0_obs -->
     <g style="fill: #262626" transform="translate(292.77597 47.298281) scale(0.11 -0.11)">
      <defs>
       <path id="DejaVuSans-62" d="M 3116 1747 
Q 3116 2381 2855 2742 
Q 2594 3103 2138 3103 
Q 1681 3103 1420 2742 
Q 1159 2381 1159 1747 
Q 1159 1113 1420 752 
Q 1681 391 2138 391 
Q 2594 391 2855 752 
Q 3116 1113 3116 1747 
z
M 1159 2969 
Q 1341 3281 1617 3432 
Q 1894 3584 2278 3584 
Q 2916 3584 3314 3078 
Q 3713 2572 3713 1747 
Q 3713 922 3314 415 
Q 2916 -91 2278 -91 
Q 1894 -91 1617 61 
Q 1341 213 1159 525 
L 1159 0 
L 581 0 
L 581 4863 
L 1159 4863 
L 1159 2969 
z
" transform="scale(0.015625)"/>
       <path id="DejaVuSans-73" d="M 2834 3397 
L 2834 2853 
Q 2591 2978 2328 3040 
Q 2066 3103 1784 3103 
Q 1356 3103 1142 2972 
Q 928 2841 928 2578 
Q 928 2378 1081 2264 
Q 1234 2150 1697 2047 
L 1894 2003 
Q 2506 1872 2764 1633 
Q 3022 1394 3022 966 
Q 3022 478 2636 193 
Q 2250 -91 1575 -91 
Q 1294 -91 989 -36 
Q 684 19 347 128 
L 347 722 
Q 666 556 975 473 
Q 1284 391 1588 391 
Q 1994 391 2212 530 
Q 2431 669 2431 922 
Q 2431 1156 2273 1281 
Q 2116 1406 1581 1522 
L 1381 1569 
Q 847 1681 609 1914 
Q 372 2147 372 2553 
Q 372 3047 722 3315 
Q 1072 3584 1716 3584 
Q 2034 3584 2315 3537 
Q 2597 3491 2834 3397 
z
" transform="scale(0.015625)"/>
      </defs>
      <use xlink:href="#DejaVuSans-6a"/>
      <use xlink:href="#DejaVuSans-6f" transform="translate(27.783203 0)"/>
      <use xlink:href="#DejaVuSans-69" transform="translate(88.964844 0)"/>
      <use xlink:href="#DejaVuSans-6e" transform="translate(116.748047 0)"/>
      <use xlink:href="#DejaVuSans-74" transform="translate(180.126953 0)"/>
      <use xlink:href="#DejaVuSans-5f" transform="translate(219.335938 0)"/>
      <use xlink:href="#DejaVuSans-30" transform="translate(269.335938 0)"/>
      <use xlink:href="#DejaVuSans-5f" transform="translate(332.958984 0)"/>
      <use xlink:href="#DejaVuSans-6f" transform="translate(382.958984 0)"/>
      <use xlink:href="#DejaVuSans-62" transform="translate(444.140625 0)"/>
      <use xlink:href="#DejaVuSans-73" transform="translate(507.617188 0)"/>
     </g>
    </g>
    <g id="line2d_13">
     <path d="M 261.97597 59.900156 
L 272.97597 59.900156 
L 283.97597 59.900156 
" style="fill: none; stroke-dasharray: 1.85,0.8; stroke-dashoffset: 0; stroke: #55a868; stroke-opacity: 0.7; stroke-width: 0.5"/>
    </g>
    <g id="text_14">
     <!-- joint_0_ref -->
     <g style="fill: #262626" transform="translate(292.77597 63.750156) scale(0.11 -0.11)">
      <defs>
       <path id="DejaVuSans-66" d="M 2375 4863 
L 2375 4384 
L 1825 4384 
Q 1516 4384 1395 4259 
Q 1275 4134 1275 3809 
L 1275 3500 
L 2222 3500 
L 2222 3053 
L 1275 3053 
L 1275 0 
L 697 0 
L 697 3053 
L 147 3053 
L 147 3500 
L 697 3500 
L 697 3744 
Q 697 4328 969 4595 
Q 1241 4863 1831 4863 
L 2375 4863 
z
" transform="scale(0.015625)"/>
      </defs>
      <use xlink:href="#DejaVuSans-6a"/>
      <use xlink:href="#DejaVuSans-6f" transform="translate(27.783203 0)"/>
      <use xlink:href="#DejaVuSans-69" transform="translate(88.964844 0)"/>
      <use xlink:href="#DejaVuSans-6e" transform="translate(116.748047 0)"/>
      <use xlink:href="#DejaVuSans-74" transform="translate(180.126953 0)"/>
      <use xlink:href="#DejaVuSans-5f" transform="translate(219.335938 0)"/>
      <use xlink:href="#DejaVuSans-30" transform="translate(269.335938 0)"/>
      <use xlink:href="#DejaVuSans-5f" transform="translate(332.958984 0)"/>
      <use xlink:href="#DejaVuSans-72" transform="translate(382.958984 0)"/>
      <use xlink:href="#DejaVuSans-65" transform="translate(421.822266 0)"/>
      <use xlink:href="#DejaVuSans-66" transform="translate(483.345703 0)"/>
     </g>
    </g>
   </g>
  </g>
  <g id="axes_2">
   <g id="patch_8">
    <path d="M 412.850032 165.78 
L 711.300016 165.78 
L 711.300016 29.04 
L 412.850032 29.04 
z
" style="fill: #eaeaf2"/>
   </g>
   <g id="matplotlib.axis_3">
    <g id="xtick_7">
     <g id="line2d_14">
      <path d="M 412.850032 165.78 
L 412.850032 29.04 
" clip-path="url(#pa550226d94)" style="fill: none; stroke: #ffffff; stroke-linecap: round"/>
     </g>
     <g id="text_15">
      <!-- 0.0 -->
      <g style="fill: #262626" transform="translate(404.103314 183.638281) scale(0.11 -0.11)">
       <defs>
        <path id="DejaVuSans-2e" d="M 684 794 
L 1344 794 
L 1344 0 
L 684 0 
L 684 794 
z
" transform="scale(0.015625)"/>
       </defs>
       <use xlink:href="#DejaVuSans-30"/>
       <use xlink:href="#DejaVuSans-2e" transform="translate(63.623047 0)"/>
       <use xlink:href="#DejaVuSans-30" transform="translate(95.410156 0)"/>
      </g>
     </g>
    </g>
    <g id="xtick_8">
     <g id="line2d_15">
      <path d="M 472.540029 165.78 
L 472.540029 29.04 
" clip-path="url(#pa550226d94)" style="fill: none; stroke: #ffffff; stroke-linecap: round"/>
     </g>
     <g id="text_16">
      <!-- 0.2 -->
      <g style="fill: #262626" transform="translate(463.79331 183.638281) scale(0.11 -0.11)">
       <use xlink:href="#DejaVuSans-30"/>
       <use xlink:href="#DejaVuSans-2e" transform="translate(63.623047 0)"/>
       <use xlink:href="#DejaVuSans-32" transform="translate(95.410156 0)"/>
      </g>
     </g>
    </g>
    <g id="xtick_9">
     <g id="line2d_16">
      <path d="M 532.230026 165.78 
L 532.230026 29.04 
" clip-path="url(#pa550226d94)" style="fill: none; stroke: #ffffff; stroke-linecap: round"/>
     </g>
     <g id="text_17">
      <!-- 0.4 -->
      <g style="fill: #262626" transform="translate(523.483307 183.638281) scale(0.11 -0.11)">
       <defs>
        <path id="DejaVuSans-34" d="M 2419 4116 
L 825 1625 
L 2419 1625 
L 2419 4116 
z
M 2253 4666 
L 3047 4666 
L 3047 1625 
L 3713 1625 
L 3713 1100 
L 3047 1100 
L 3047 0 
L 2419 0 
L 2419 1100 
L 313 1100 
L 313 1709 
L 2253 4666 
z
" transform="scale(0.015625)"/>
       </defs>
       <use xlink:href="#DejaVuSans-30"/>
       <use xlink:href="#DejaVuSans-2e" transform="translate(63.623047 0)"/>
       <use xlink:href="#DejaVuSans-34" transform="translate(95.410156 0)"/>
      </g>
     </g>
    </g>
    <g id="xtick_10">
     <g id="line2d_17">
      <path d="M 591.920023 165.78 
L 591.920023 29.04 
" clip-path="url(#pa550226d94)" style="fill: none; stroke: #ffffff; stroke-linecap: round"/>
     </g>
     <g id="text_18">
      <!-- 0.6 -->
      <g style="fill: #262626" transform="translate(583.173304 183.638281) scale(0.11 -0.11)">
       <use xlink:href="#DejaVuSans-30"/>
       <use xlink:href="#DejaVuSans-2e" transform="translate(63.623047 0)"/>
       <use xlink:href="#DejaVuSans-36" transform="translate(95.410156 0)"/>
      </g>
     </g>
    </g>
    <g id="xtick_11">
     <g id="line2d_18">
      <path d="M 651.610019 165.78 
L 651.610019 29.04 
" clip-path="url(#pa550226d94)" style="fill: none; stroke: #ffffff; stroke-linecap: round"/>
     </g>
     <g id="text_19">
      <!-- 0.8 -->
      <g style="fill: #262626" transform="translate(642.863301 183.638281) scale(0.11 -0.11)">
       <defs>
        <path id="DejaVuSans-38" d="M 2034 2216 
Q 1584 2216 1326 1975 
Q 1069 1734 1069 1313 
Q 1069 891 1326 650 
Q 1584 409 2034 409 
Q 2484 409 2743 651 
Q 3003 894 3003 1313 
Q 3003 1734 2745 1975 
Q 2488 2216 2034 2216 
z
M 1403 2484 
Q 997 2584 770 2862 
Q 544 3141 544 3541 
Q 544 4100 942 4425 
Q 1341 4750 2034 4750 
Q 2731 4750 3128 4425 
Q 3525 4100 3525 3541 
Q 3525 3141 3298 2862 
Q 3072 2584 2669 2484 
Q 3125 2378 3379 2068 
Q 3634 1759 3634 1313 
Q 3634 634 3220 271 
Q 2806 -91 2034 -91 
Q 1263 -91 848 271 
Q 434 634 434 1313 
Q 434 1759 690 2068 
Q 947 2378 1403 2484 
z
M 1172 3481 
Q 1172 3119 1398 2916 
Q 1625 2713 2034 2713 
Q 2441 2713 2670 2916 
Q 2900 3119 2900 3481 
Q 2900 3844 2670 4047 
Q 2441 4250 2034 4250 
Q 1625 4250 1398 4047 
Q 1172 3844 1172 3481 
z
" transform="scale(0.015625)"/>
       </defs>
       <use xlink:href="#DejaVuSans-30"/>
       <use xlink:href="#DejaVuSans-2e" transform="translate(63.623047 0)"/>
       <use xlink:href="#DejaVuSans-38" transform="translate(95.410156 0)"/>
      </g>
     </g>
    </g>
    <g id="xtick_12">
     <g id="line2d_19">
      <path d="M 711.300016 165.78 
L 711.300016 29.04 
" clip-path="url(#pa550226d94)" style="fill: none; stroke: #ffffff; stroke-linecap: round"/>
     </g>
     <g id="text_20">
      <!-- 1.0 -->
      <g style="fill: #262626" transform="translate(702.553297 183.638281) scale(0.11 -0.11)">
       <use xlink:href="#DejaVuSans-31"/>
       <use xlink:href="#DejaVuSans-2e" transform="translate(63.623047 0)"/>
       <use xlink:href="#DejaVuSans-30" transform="translate(95.410156 0)"/>
      </g>
     </g>
    </g>
   </g>
   <g id="matplotlib.axis_4">
    <g id="ytick_22">
     <g id="line2d_20">
      <path d="M 412.850032 165.78 
L 711.300016 165.78 
" clip-path="url(#pa550226d94)" style="fill: none; stroke: #ffffff; stroke-linecap: round"/>
     </g>
     <g id="text_21">
      <!-- 0.0 -->
      <g style="fill: #262626" transform="translate(385.856595 169.959141) scale(0.11 -0.11)">
       <use xlink:href="#DejaVuSans-30"/>
       <use xlink:href="#DejaVuSans-2e" transform="translate(63.623047 0)"/>
       <use xlink:href="#DejaVuSans-30" transform="translate(95.410156 0)"/>
      </g>
     </g>
    </g>
    <g id="ytick_23">
     <g id="line2d_21">
      <path d="M 412.850032 138.432 
L 711.300016 138.432 
" clip-path="url(#pa550226d94)" style="fill: none; stroke: #ffffff; stroke-linecap: round"/>
     </g>
     <g id="text_22">
      <!-- 0.2 -->
      <g style="fill: #262626" transform="translate(385.856595 142.611141) scale(0.11 -0.11)">
       <use xlink:href="#DejaVuSans-30"/>
       <use xlink:href="#DejaVuSans-2e" transform="translate(63.623047 0)"/>
       <use xlink:href="#DejaVuSans-32" transform="translate(95.410156 0)"/>
      </g>
     </g>
    </g>
    <g id="ytick_24">
     <g id="line2d_22">
      <path d="M 412.850032 111.084 
L 711.300016 111.084 
" clip-path="url(#pa550226d94)" style="fill: none; stroke: #ffffff; stroke-linecap: round"/>
     </g>
     <g id="text_23">
      <!-- 0.4 -->
      <g style="fill: #262626" transform="translate(385.856595 115.263141) scale(0.11 -0.11)">
       <use xlink:href="#DejaVuSans-30"/>
       <use xlink:href="#DejaVuSans-2e" transform="translate(63.623047 0)"/>
       <use xlink:href="#DejaVuSans-34" transform="translate(95.410156 0)"/>
      </g>
     </g>
    </g>
    <g id="ytick_25">
     <g id="line2d_23">
      <path d="M 412.850032 83.736 
L 711.300016 83.736 
" clip-path="url(#pa550226d94)" style="fill: none; stroke: #ffffff; stroke-linecap: round"/>
     </g>
     <g id="text_24">
      <!-- 0.6 -->
      <g style="fill: #262626" transform="translate(385.856595 87.915141) scale(0.11 -0.11)">
       <use xlink:href="#DejaVuSans-30"/>
       <use xlink:href="#DejaVuSans-2e" transform="translate(63.623047 0)"/>
       <use xlink:href="#DejaVuSans-36" transform="translate(95.410156 0)"/>
      </g>
     </g>
    </g>
    <g id="ytick_26">
     <g id="line2d_24">
      <path d="M 412.850032 56.388 
L 711.300016 56.388 
" clip-path="url(#pa550226d94)" style="fill: none; stroke: #ffffff; stroke-linecap: round"/>
     </g>
     <g id="text_25">
      <!-- 0.8 -->
      <g style="fill: #262626" transform="translate(385.856595 60.567141) scale(0.11 -0.11)">
       <use xlink:href="#DejaVuSans-30"/>
       <use xlink:href="#DejaVuSans-2e" transform="translate(63.623047 0)"/>
       <use xlink:href="#DejaVuSans-38" transform="translate(95.410156 0)"/>
      </g>
     </g>
    </g>
    <g id="ytick_27">
     <g id="line2d_25">
      <path d="M 412.850032 29.04 
L 711.300016 29.04 
" clip-path="url(#pa550226d94)" style="fill: none; stroke: #ffffff; stroke-linecap: round"/>
     </g>
     <g id="text_26">
      <!-- 1.0 -->
      <g style="fill: #262626" transform="translate(385.856595 33.219141) scale(0.11 -0.11)">
       <use xlink:href="#DejaVuSans-31"/>
       <use xlink:href="#DejaVuSans-2e" transform="translate(63.623047 0)"/>
       <use xlink:href="#DejaVuSans-30" transform="translate(95.410156 0)"/>
      </g>
     </g>
    </g>
   </g>
   <g id="patch_9">
    <path d="M 412.850032 165.78 
L 412.850032 29.04 
" style="fill: none; stroke: #ffffff; stroke-width: 1.25; stroke-linejoin: miter; stroke-linecap: square"/>
   </g>
   <g id="patch_10">
    <path d="M 711.300016 165.78 
L 711.300016 29.04 
" style="fill: none; stroke: #ffffff; stroke-width: 1.25; stroke-linejoin: miter; stroke-linecap: square"/>
   </g>
   <g id="patch_11">
    <path d="M 412.850032 165.78 
L 711.300016 165.78 
" style="fill: none; stroke: #ffffff; stroke-width: 1.25; stroke-linejoin: miter; stroke-linecap: square"/>
   </g>
   <g id="patch_12">
    <path d="M 412.850032 29.04 
L 711.300016 29.04 
" style="fill: none; stroke: #ffffff; stroke-width: 1.25; stroke-linejoin: miter; stroke-linecap: square"/>
   </g>
  </g>
  <g id="axes_3">
   <g id="patch_13">
    <path d="M 759.905016 165.78 
L 1058.355 165.78 
L 1058.355 29.04 
L 759.905016 29.04 
z
" style="fill: #eaeaf2"/>
   </g>
   <g id="matplotlib.axis_5">
    <g id="xtick_13">
     <g id="line2d_26">
      <path d="M 759.905016 165.78 
L 759.905016 29.04 
" clip-path="url(#p27e7dc20bb)" style="fill: none; stroke: #ffffff; stroke-linecap: round"/>
     </g>
     <g id="text_27">
      <!-- 0.0 -->
      <g style="fill: #262626" transform="translate(751.158297 183.638281) scale(0.11 -0.11)">
       <use xlink:href="#DejaVuSans-30"/>
       <use xlink:href="#DejaVuSans-2e" transform="translate(63.623047 0)"/>
       <use xlink:href="#DejaVuSans-30" transform="translate(95.410156 0)"/>
      </g>
     </g>
    </g>
    <g id="xtick_14">
     <g id="line2d_27">
      <path d="M 819.595013 165.78 
L 819.595013 29.04 
" clip-path="url(#p27e7dc20bb)" style="fill: none; stroke: #ffffff; stroke-linecap: round"/>
     </g>
     <g id="text_28">
      <!-- 0.2 -->
      <g style="fill: #262626" transform="translate(810.848294 183.638281) scale(0.11 -0.11)">
       <use xlink:href="#DejaVuSans-30"/>
       <use xlink:href="#DejaVuSans-2e" transform="translate(63.623047 0)"/>
       <use xlink:href="#DejaVuSans-32" transform="translate(95.410156 0)"/>
      </g>
     </g>
    </g>
    <g id="xtick_15">
     <g id="line2d_28">
      <path d="M 879.28501 165.78 
L 879.28501 29.04 
" clip-path="url(#p27e7dc20bb)" style="fill: none; stroke: #ffffff; stroke-linecap: round"/>
     </g>
     <g id="text_29">
      <!-- 0.4 -->
      <g style="fill: #262626" transform="translate(870.538291 183.638281) scale(0.11 -0.11)">
       <use xlink:href="#DejaVuSans-30"/>
       <use xlink:href="#DejaVuSans-2e" transform="translate(63.623047 0)"/>
       <use xlink:href="#DejaVuSans-34" transform="translate(95.410156 0)"/>
      </g>
     </g>
    </g>
    <g id="xtick_16">
     <g id="line2d_29">
      <path d="M 938.975006 165.78 
L 938.975006 29.04 
" clip-path="url(#p27e7dc20bb)" style="fill: none; stroke: #ffffff; stroke-linecap: round"/>
     </g>
     <g id="text_30">
      <!-- 0.6 -->
      <g style="fill: #262626" transform="translate(930.228288 183.638281) scale(0.11 -0.11)">
       <use xlink:href="#DejaVuSans-30"/>
       <use xlink:href="#DejaVuSans-2e" transform="translate(63.623047 0)"/>
       <use xlink:href="#DejaVuSans-36" transform="translate(95.410156 0)"/>
      </g>
     </g>
    </g>
    <g id="xtick_17">
     <g id="line2d_30">
      <path d="M 998.665003 165.78 
L 998.665003 29.04 
" clip-path="url(#p27e7dc20bb)" style="fill: none; stroke: #ffffff; stroke-linecap: round"/>
     </g>
     <g id="text_31">
      <!-- 0.8 -->
      <g style="fill: #262626" transform="translate(989.918284 183.638281) scale(0.11 -0.11)">
       <use xlink:href="#DejaVuSans-30"/>
       <use xlink:href="#DejaVuSans-2e" transform="translate(63.623047 0)"/>
       <use xlink:href="#DejaVuSans-38" transform="translate(95.410156 0)"/>
      </g>
     </g>
    </g>
    <g id="xtick_18">
     <g id="line2d_31">
      <path d="M 1058.355 165.78 
L 1058.355 29.04 
" clip-path="url(#p27e7dc20bb)" style="fill: none; stroke: #ffffff; stroke-linecap: round"/>
     </g>
     <g id="text_32">
      <!-- 1.0 -->
      <g style="fill: #262626" transform="translate(1049.608281 183.638281) scale(0.11 -0.11)">
       <use xlink:href="#DejaVuSans-31"/>
       <use xlink:href="#DejaVuSans-2e" transform="translate(63.623047 0)"/>
       <use xlink:href="#DejaVuSans-30" transform="translate(95.410156 0)"/>
      </g>
     </g>
    </g>
   </g>
   <g id="matplotlib.axis_6">
    <g id="ytick_28">
     <g id="line2d_32">
      <path d="M 759.905016 165.78 
L 1058.355 165.78 
" clip-path="url(#p27e7dc20bb)" style="fill: none; stroke: #ffffff; stroke-linecap: round"/>
     </g>
     <g id="text_33">
      <!-- 0.0 -->
      <g style="fill: #262626" transform="translate(732.911579 169.959141) scale(0.11 -0.11)">
       <use xlink:href="#DejaVuSans-30"/>
       <use xlink:href="#DejaVuSans-2e" transform="translate(63.623047 0)"/>
       <use xlink:href="#DejaVuSans-30" transform="translate(95.410156 0)"/>
      </g>
     </g>
    </g>
    <g id="ytick_29">
     <g id="line2d_33">
      <path d="M 759.905016 138.432 
L 1058.355 138.432 
" clip-path="url(#p27e7dc20bb)" style="fill: none; stroke: #ffffff; stroke-linecap: round"/>
     </g>
     <g id="text_34">
      <!-- 0.2 -->
      <g style="fill: #262626" transform="translate(732.911579 142.611141) scale(0.11 -0.11)">
       <use xlink:href="#DejaVuSans-30"/>
       <use xlink:href="#DejaVuSans-2e" transform="translate(63.623047 0)"/>
       <use xlink:href="#DejaVuSans-32" transform="translate(95.410156 0)"/>
      </g>
     </g>
    </g>
    <g id="ytick_30">
     <g id="line2d_34">
      <path d="M 759.905016 111.084 
L 1058.355 111.084 
" clip-path="url(#p27e7dc20bb)" style="fill: none; stroke: #ffffff; stroke-linecap: round"/>
     </g>
     <g id="text_35">
      <!-- 0.4 -->
      <g style="fill: #262626" transform="translate(732.911579 115.263141) scale(0.11 -0.11)">
       <use xlink:href="#DejaVuSans-30"/>
       <use xlink:href="#DejaVuSans-2e" transform="translate(63.623047 0)"/>
       <use xlink:href="#DejaVuSans-34" transform="translate(95.410156 0)"/>
      </g>
     </g>
    </g>
    <g id="ytick_31">
     <g id="line2d_35">
      <path d="M 759.905016 83.736 
L 1058.355 83.736 
" clip-path="url(#p27e7dc20bb)" style="fill: none; stroke: #ffffff; stroke-linecap: round"/>
     </g>
     <g id="text_36">
      <!-- 0.6 -->
      <g style="fill: #262626" transform="translate(732.911579 87.915141) scale(0.11 -0.11)">
       <use xlink:href="#DejaVuSans-30"/>
       <use xlink:href="#DejaVuSans-2e" transform="translate(63.623047 0)"/>
       <use xlink:href="#DejaVuSans-36" transform="translate(95.410156 0)"/>
      </g>
     </g>
    </g>
    <g id="ytick_32">
     <g id="line2d_36">
      <path d="M 759.905016 56.388 
L 1058.355 56.388 
" clip-path="url(#p27e7dc20bb)" style="fill: none; stroke: #ffffff; stroke-linecap: round"/>
     </g>
     <g id="text_37">
      <!-- 0.8 -->
      <g style="fill: #262626" transform="translate(732.911579 60.567141) scale(0.11 -0.11)">
       <use xlink:href="#DejaVuSans-30"/>
       <use xlink:href="#DejaVuSans-2e" transform="translate(63.623047 0)"/>
       <use xlink:href="#DejaVuSans-38" transform="translate(95.410156 0)"/>
      </g>
     </g>
    </g>
    <g id="ytick_33">
     <g id="line2d_37">
      <path d="M 759.905016 29.04 
L 1058.355 29.04 
" clip-path="url(#p27e7dc20bb)" style="fill: none; stroke: #ffffff; stroke-linecap: round"/>
     </g>
     <g id="text_38">
      <!-- 1.0 -->
      <g style="fill: #262626" transform="translate(732.911579 33.219141) scale(0.11 -0.11)">
       <use xlink:href="#DejaVuSans-31"/>
       <use xlink:href="#DejaVuSans-2e" transform="translate(63.623047 0)"/>
       <use xlink:href="#DejaVuSans-30" transform="translate(95.410156 0)"/>
      </g>
     </g>
    </g>
   </g>
   <g id="patch_14">
    <path d="M 759.905016 165.78 
L 759.905016 29.04 
" style="fill: none; stroke: #ffffff; stroke-width: 1.25; stroke-linejoin: miter; stroke-linecap: square"/>
   </g>
   <g id="patch_15">
    <path d="M 1058.355 165.78 
L 1058.355 29.04 
" style="fill: none; stroke: #ffffff; stroke-width: 1.25; stroke-linejoin: miter; stroke-linecap: square"/>
   </g>
   <g id="patch_16">
    <path d="M 759.905016 165.78 
L 1058.355 165.78 
" style="fill: none; stroke: #ffffff; stroke-width: 1.25; stroke-linejoin: miter; stroke-linecap: square"/>
   </g>
   <g id="patch_17">
    <path d="M 759.905016 29.04 
L 1058.355 29.04 
" style="fill: none; stroke: #ffffff; stroke-width: 1.25; stroke-linejoin: miter; stroke-linecap: square"/>
   </g>
  </g>
 </g>
 <defs>
  <clipPath id="p7cb014745f">
   <rect x="65.795048" y="29.04" width="298.449984" height="136.74"/>
  </clipPath>
  <clipPath id="pa550226d94">
   <rect x="412.850032" y="29.04" width="298.449984" height="136.74"/>
  </clipPath>
  <clipPath id="p27e7dc20bb">
   <rect x="759.905016" y="29.04" width="298.449984" height="136.74"/>
  </clipPath>
 </defs>
</svg>
